<?xml version="1.0" standalone="no"?>
<!DOCTYPE svg PUBLIC "-//W3C//DTD SVG 20010904//EN"
 "http://www.w3.org/TR/2001/REC-SVG-20010904/DTD/svg10.dtd">
<svg version="1.0" xmlns="http://www.w3.org/2000/svg"
 width="360.000000pt" height="507.000000pt" viewBox="0 0 360.000000 507.000000"
 preserveAspectRatio="xMidYMid meet">

<g transform="translate(0.000000,507.000000) scale(0.100000,-0.100000)"
fill="#000000" stroke="none">
<path d="M1485 5052 c-27 -10 -68 -29 -90 -44 -37 -24 -164 -58 -219 -58 -29
0 -350 -202 -501 -314 -66 -50 -150 -119 -188 -155 l-67 -64 0 -89 c0 -55 5
-99 14 -116 7 -15 16 -47 20 -72 4 -25 17 -79 30 -120 106 -333 164 -495 219
-619 55 -122 70 -146 97 -159 38 -19 53 -43 41 -73 l-8 -23 -17 27 c-18 27
-74 67 -95 67 -16 0 -14 -21 10 -95 23 -68 35 -81 41 -42 2 17 11 23 36 25 42
4 53 -20 23 -52 -34 -37 -26 -146 11 -146 12 0 10 38 -3 61 -8 16 -5 32 14 72
30 65 47 135 47 191 0 33 8 56 33 92 35 53 67 70 67 35 0 -37 20 -33 65 13 42
44 64 52 125 48 86 -6 148 -16 169 -27 24 -13 22 -14 -35 -8 -95 9 -247 -35
-261 -76 -4 -9 -13 -24 -21 -34 -21 -23 -15 -26 46 -20 45 5 53 9 58 29 9 37
34 46 69 24 22 -13 58 -19 130 -23 55 -3 107 -8 116 -12 25 -9 31 19 23 106
-6 75 -7 77 -48 109 -46 35 -56 36 -191 6 -74 -17 -147 -20 -179 -7 -18 7 -16
11 18 49 26 28 52 45 80 53 68 18 99 27 143 43 25 9 93 18 170 21 70 3 196 9
278 14 120 7 155 6 175 -5 14 -7 44 -18 67 -24 85 -21 200 -119 276 -235 21
-32 27 -56 32 -125 8 -110 12 -130 29 -130 17 0 26 22 26 63 0 24 10 40 48 73
44 39 47 45 47 90 1 27 11 92 24 144 57 243 83 383 91 510 18 273 31 388 50
456 l20 69 -38 32 c-20 18 -53 38 -72 44 -19 6 -45 22 -58 35 -13 13 -28 24
-34 24 -7 0 -46 35 -88 79 -66 69 -88 85 -183 130 -60 29 -136 72 -169 97 -42
30 -70 44 -92 44 l-31 -1 30 -16 c17 -8 46 -30 65 -48 19 -18 50 -36 67 -40
18 -3 35 -10 38 -15 8 -12 -63 8 -115 33 -51 25 -113 27 -395 15 -88 -3 -140
-3 -115 1 25 3 70 19 100 34 31 14 80 31 110 36 53 8 52 9 -35 9 -57 0 -108
-6 -140 -16z m-185 -1662 c8 -5 11 -10 5 -10 -5 0 -17 5 -25 10 -8 5 -10 10
-5 10 6 0 17 -5 25 -10z m-10 -30 c11 -7 3 -10 -28 -10 -26 0 -41 4 -37 10 8
13 45 13 65 0z m39 -31 c-22 -14 -33 -10 -19 6 7 8 17 12 22 9 6 -4 5 -10 -3
-15z"/>
<path d="M1740 5061 c0 -5 -17 -11 -37 -15 -21 -3 -65 -15 -98 -26 l-60 -20
130 7 c170 9 184 9 225 0 l35 -8 -39 22 c-38 21 -120 49 -143 49 -7 0 -13 -4
-13 -9z"/>
<path d="M1795 3521 c-33 -3 -69 -13 -81 -21 -22 -16 -39 -86 -23 -95 5 -4 9
-26 9 -50 0 -43 1 -44 24 -36 17 7 27 5 39 -6 14 -14 18 -14 32 -3 9 8 35 17
58 21 36 6 39 8 20 14 -25 8 -22 19 7 35 16 8 21 5 32 -17 12 -24 19 -28 53
-26 22 1 62 -5 89 -13 27 -8 51 -12 53 -10 9 8 -18 55 -43 75 -27 22 -36 25
-108 36 l-39 7 57 25 c55 25 58 26 92 10 45 -22 66 -22 62 0 -7 38 -187 68
-333 54z m190 -141 c4 -6 -7 -10 -24 -10 -17 0 -31 5 -31 10 0 6 11 10 24 10
14 0 28 -4 31 -10z"/>
<path d="M2450 3300 c-19 -10 -43 -27 -54 -38 -18 -21 -18 -22 3 -65 11 -24
21 -53 21 -65 0 -12 4 -22 9 -22 9 0 64 185 59 199 -2 5 -19 1 -38 -9z"/>
<path d="M1980 3290 c-12 -8 -10 -10 8 -10 13 0 20 4 17 10 -7 12 -6 12 -25 0z"/>
<path d="M1175 3261 c-31 -4 -45 -9 -37 -14 15 -10 150 2 158 14 6 10 -40 9
-121 0z"/>
<path d="M2360 3112 c1 -4 7 -18 15 -32 l14 -25 1 26 c0 15 -7 29 -15 33 -8 3
-15 2 -15 -2z"/>
<path d="M893 3002 l5 -94 -33 -29 c-22 -21 -31 -36 -28 -49 5 -19 6 -19 30 0
35 28 40 26 47 -22 6 -36 4 -45 -15 -59 -15 -11 -18 -18 -10 -24 7 -4 21 1 31
10 16 14 20 15 24 4 50 -166 76 -241 112 -320 26 -60 41 -104 37 -118 -3 -11
-1 -21 5 -21 5 0 12 -11 16 -23 10 -40 45 -75 113 -113 l65 -37 -6 -56 c-4
-31 -14 -102 -22 -158 l-16 -101 -42 47 c-109 126 -116 140 -117 231 0 49 -3
68 -8 55 -5 -11 -45 -61 -90 -111 -56 -64 -81 -100 -81 -117 0 -21 -20 -40
-123 -110 -103 -71 -138 -90 -221 -116 -107 -33 -128 -42 -350 -146 -145 -68
-151 -72 -157 -105 -9 -43 -6 -47 25 -26 28 18 71 21 81 7 8 -14 -28 -31 -96
-45 -33 -6 -61 -16 -62 -21 -1 -6 33 -18 76 -29 74 -17 94 -31 62 -41 -43 -14
-50 -17 -37 -22 17 -7 15 -24 -5 -38 -9 -7 -14 -19 -10 -28 5 -14 10 -13 45 5
25 14 45 19 58 14 18 -7 17 -9 -8 -31 -16 -13 -28 -29 -28 -36 0 -6 -7 -9 -15
-5 -8 3 -15 0 -15 -6 0 -6 -8 -4 -18 5 -17 16 -18 15 -19 -18 -1 -32 1 -33 23
-25 24 9 54 4 54 -9 0 -4 -5 -12 -12 -19 -9 -9 -8 -15 7 -26 18 -13 17 -14 -8
-31 -18 -11 -27 -26 -27 -44 0 -50 -11 -72 -31 -66 -13 4 -19 1 -19 -8 0 -27
71 -35 127 -15 28 10 36 10 50 -5 24 -23 11 -31 -55 -31 -55 -1 -57 -2 -60
-28 -3 -24 0 -28 22 -28 14 0 26 -4 26 -10 0 -13 -52 -38 -67 -33 -22 8 -25
-18 -3 -37 29 -25 167 -27 214 -3 23 12 34 13 49 4 25 -16 100 -4 132 21 16
12 36 18 56 16 21 -2 34 2 37 11 3 10 -1 12 -17 8 -11 -3 -24 -1 -27 5 -10 16
12 30 53 33 21 2 63 9 93 15 30 7 78 14 105 16 28 2 67 9 89 16 34 11 40 10
52 -7 19 -26 1 -36 -53 -28 -25 3 -55 0 -73 -7 l-30 -12 37 -20 c48 -26 46
-23 38 -48 -6 -19 -12 -21 -43 -15 -32 6 -34 5 -22 -10 10 -12 10 -19 2 -27
-7 -7 -12 -16 -12 -20 0 -10 78 0 107 14 18 9 27 8 43 -7 28 -25 15 -38 -34
-32 -22 3 -59 0 -81 -8 -22 -7 -31 -13 -20 -14 14 -1 16 -4 8 -12 -6 -6 -34
-11 -62 -11 -28 0 -49 -4 -46 -8 3 -5 44 -8 91 -8 51 1 90 -4 97 -11 8 -8 4
-11 -15 -11 -15 0 -29 -4 -32 -9 -3 -5 -14 -7 -25 -4 -11 3 -27 -4 -40 -18
l-22 -24 28 -7 c15 -5 39 -6 51 -3 29 7 52 -10 52 -39 0 -19 5 -22 28 -18 34
5 65 -24 42 -38 -16 -10 -23 -67 -10 -75 21 -13 85 -14 99 -1 9 7 43 18 76 24
33 6 89 18 125 25 36 8 85 15 110 16 25 1 49 6 55 12 15 15 37 11 61 -12 l23
-21 48 48 c35 34 59 49 88 55 22 4 65 12 95 18 30 7 81 13 113 15 32 2 63 8
70 15 20 20 44 12 71 -23 30 -40 32 -46 11 -46 -8 0 -15 6 -15 14 0 16 -59 28
-100 19 -19 -3 -27 -10 -23 -19 7 -18 -27 -25 -109 -22 -41 2 -66 -1 -65 -7 1
-6 43 -10 100 -11 53 0 100 -4 104 -8 11 -11 -18 -26 -49 -26 -16 0 -28 -4
-28 -8 0 -10 180 13 223 28 15 5 42 7 58 3 17 -3 48 0 69 7 32 11 42 11 55 0
27 -22 16 -30 -35 -29 -39 2 -55 -3 -73 -19 -12 -11 -38 -25 -57 -30 l-35 -9
32 -7 c18 -4 40 -3 51 3 18 9 62 5 62 -7 0 -13 -38 -31 -66 -32 -19 0 -34 -6
-38 -15 -7 -18 5 -20 22 -3 9 9 12 9 12 0 0 -16 62 -16 78 0 9 9 18 9 38 0 42
-20 24 -37 -42 -38 -55 -1 -136 -22 -91 -23 11 -1 15 -6 11 -12 -4 -7 -29 -9
-70 -6 -35 3 -66 2 -69 -3 -7 -11 54 -21 127 -19 63 1 118 -13 118 -30 0 -4
-6 -14 -14 -21 -12 -9 -17 -7 -28 9 l-12 20 -23 -21 c-13 -12 -23 -25 -23 -29
0 -12 80 -22 93 -11 7 6 23 12 37 14 13 1 30 13 36 26 11 23 42 51 57 52 4 0
5 -11 1 -25 -7 -28 -5 -29 31 -13 19 9 28 9 37 0 19 -19 48 -14 57 11 5 12 19
30 31 40 11 10 18 22 15 27 -3 6 -1 10 5 10 6 0 27 11 47 24 27 18 44 23 66
19 23 -5 29 -3 25 8 -2 8 -17 15 -32 17 -33 4 -30 22 7 40 16 8 30 27 38 50
13 42 46 82 67 82 12 0 12 -3 2 -15 -21 -25 -2 -35 31 -17 24 13 33 14 36 5 3
-7 20 -13 38 -13 35 0 53 14 34 25 -7 5 -3 12 10 22 12 8 21 22 21 32 0 13 10
21 31 25 18 3 38 14 45 24 10 14 15 15 25 5 21 -21 56 -16 62 8 4 15 0 23 -14
26 -18 5 -27 23 -11 23 4 0 49 9 101 20 52 11 116 20 143 20 27 0 59 7 73 16
27 18 65 5 65 -23 0 -12 -7 -14 -36 -10 -43 7 -134 -10 -134 -25 0 -6 7 -8 15
-4 8 3 15 1 15 -5 0 -7 -29 -9 -81 -7 -58 2 -83 -1 -86 -9 -3 -9 26 -13 114
-15 114 -3 118 -4 115 -24 -3 -20 3 -23 57 -29 67 -8 89 -1 70 21 -9 11 -8 15
5 20 9 4 16 14 14 23 -1 9 4 27 11 39 7 13 12 42 10 65 -1 24 5 59 15 81 12
27 16 52 12 77 -3 21 -2 41 4 44 5 3 10 26 10 51 0 32 4 44 15 44 8 0 15 7 15
15 0 8 7 15 15 15 26 0 18 51 -14 85 -28 28 -29 33 -21 76 5 26 10 80 12 120
l3 73 -53 37 c-30 21 -88 52 -130 69 -43 18 -104 44 -137 60 -33 15 -127 55
-210 89 -82 34 -159 66 -170 71 -11 4 -45 19 -75 33 -133 58 -222 126 -341
261 -139 157 -216 248 -247 290 l-23 31 6 -95 c8 -110 9 -108 -84 -170 l-65
-43 30 -13 c16 -7 38 -15 48 -18 10 -4 17 -9 14 -11 -2 -3 -30 3 -62 12 l-59
17 -51 -29 c-28 -15 -66 -37 -85 -48 l-34 -20 85 -17 c47 -10 98 -25 114 -34
16 -10 20 -14 9 -11 -54 19 -126 35 -176 41 -50 6 -62 3 -105 -22 -27 -15 -68
-42 -91 -60 -23 -17 -61 -34 -83 -38 l-41 -6 30 -31 c21 -20 31 -41 31 -60 0
-16 2 -29 4 -29 2 0 24 11 47 25 24 14 58 25 74 25 17 0 46 4 65 9 19 5 75 12
123 16 l88 6 -14 -28 c-33 -62 -168 -270 -302 -463 -78 -113 -211 -315 -295
-450 -84 -135 -159 -253 -168 -262 -30 -35 -35 -21 -97 289 -59 290 -80 559
-70 896 4 125 11 229 14 232 7 4 31 -148 31 -198 0 -19 10 -31 44 -51 25 -14
58 -26 75 -26 35 0 61 -23 61 -54 0 -17 23 -44 74 -90 l74 -66 31 42 c17 23
31 52 31 65 0 32 -54 87 -120 123 -30 16 -48 30 -40 30 29 0 118 -59 150 -99
17 -23 35 -41 40 -41 5 0 22 12 39 26 55 46 39 113 -35 146 -40 17 -52 18
-120 8 -73 -11 -75 -11 -105 14 -17 14 -35 26 -41 26 -7 0 -8 18 -4 53 25 197
41 297 48 297 4 0 8 -6 8 -13 0 -8 10 -23 23 -35 12 -12 40 -57 62 -101 22
-44 42 -80 45 -80 10 0 100 158 100 176 0 14 2 15 9 5 7 -11 9 -11 14 2 6 15
77 56 98 56 38 0 368 164 385 191 9 15 -10 9 -36 -11 -30 -24 -37 -25 -37 -5
0 8 5 11 10 8 14 -9 67 56 67 82 0 13 8 25 18 28 9 3 32 16 51 28 l33 23 -7
-23 c-4 -15 -3 -21 3 -17 9 5 82 177 82 192 0 3 -7 -2 -16 -11 -12 -11 -20
-13 -27 -6 -18 18 -25 13 -53 -29 -15 -22 -32 -40 -39 -40 -33 0 -56 -36 -65
-99 -9 -62 -23 -92 -37 -78 -3 4 -1 36 6 71 14 68 7 130 -12 123 -7 -2 -13
-17 -15 -33 -2 -16 -10 -49 -19 -72 -13 -33 -14 -45 -4 -51 17 -11 3 -38 -22
-45 -12 -3 -39 -28 -60 -57 -43 -57 -24 -54 -187 -28 -41 7 -108 12 -149 10
-147 -4 -242 39 -257 118 -4 17 -16 38 -28 46 -20 15 -20 15 -1 16 11 0 14 3
8 6 -7 2 -13 11 -13 19 0 8 -7 14 -15 14 -8 0 -15 4 -15 10 0 5 -7 7 -15 4
-10 -4 -15 0 -15 14 0 19 -2 20 -27 6 -16 -7 -34 -14 -40 -14 -7 0 -13 -4 -13
-10 0 -5 -4 -10 -10 -10 -16 0 -12 46 5 60 13 11 18 10 29 -5 13 -18 14 -17
26 5 8 15 11 46 7 89 -7 86 -22 134 -53 171 -19 22 -25 39 -22 60 5 35 -22 66
-62 72 -16 2 -32 16 -45 39 -11 19 -37 55 -59 80 l-38 44 5 -93z m-731 -2094
c-7 -7 -12 -8 -12 -2 0 14 12 26 19 19 2 -3 -1 -11 -7 -17z m705 -24 c-3 -3
-12 -4 -19 -1 -8 3 -5 6 6 6 11 1 17 -2 13 -5z m-567 -144 c0 -5 -4 -10 -10
-10 -5 0 -10 5 -10 10 0 6 5 10 10 10 6 0 10 -4 10 -10z m3010 -40 c0 -5 -4
-10 -10 -10 -5 0 -10 5 -10 10 0 6 5 10 10 10 6 0 10 -4 10 -10z m110 -130 c0
-12 -28 -25 -36 -17 -9 9 6 27 22 27 8 0 14 -5 14 -10z m-1530 -30 c0 -5 -4
-10 -10 -10 -5 0 -10 5 -10 10 0 6 5 10 10 10 6 0 10 -4 10 -10z m920 -65 c0
-8 -7 -15 -15 -15 -26 0 -18 20 13 29 1 1 2 -6 2 -14z m-675 -25 c3 -5 1 -10
-4 -10 -6 0 -11 5 -11 10 0 6 2 10 4 10 3 0 8 -4 11 -10z m-745 -24 c0 -3 -4
-8 -10 -11 -5 -3 -10 -1 -10 4 0 6 5 11 10 11 6 0 10 -2 10 -4z m-360 -80 c0
-3 -4 -8 -10 -11 -5 -3 -10 -1 -10 4 0 6 5 11 10 11 6 0 10 -2 10 -4z m1384
-171 c-6 -16 -34 -21 -34 -7 0 13 11 22 26 22 8 0 11 -6 8 -15z"/>
<path d="M2381 2991 c-14 -24 -14 -31 -1 -31 14 0 32 38 21 45 -6 3 -15 -3
-20 -14z"/>
<path d="M1800 2972 c0 -13 9 -35 20 -49 25 -32 25 -9 0 37 -17 31 -19 32 -20
12z"/>
<path d="M1423 2960 c-41 -24 -41 -45 -3 -85 l29 -30 -14 -49 c-8 -27 -15 -61
-16 -75 0 -23 -1 -23 -8 -6 -8 19 -8 19 -20 0 -10 -17 -12 -13 -7 25 l5 45
-16 -30 c-21 -42 -43 -58 -60 -44 -10 9 -13 6 -14 -12 l-1 -24 -7 24 c-5 20
-9 14 -24 -34 -28 -92 1 -105 128 -60 84 30 214 33 349 10 48 -8 98 -12 111
-9 22 5 25 12 25 51 0 27 -4 42 -10 38 -5 -3 -10 -1 -10 4 0 6 -6 11 -14 11
-8 0 -22 7 -30 16 -15 14 -16 13 -16 -8 -1 -21 -2 -21 -17 7 l-17 30 -6 -25
c-6 -24 -7 -23 -14 10 -12 57 -17 70 -26 70 -4 0 -4 -17 1 -37 11 -50 11 -63
-2 -63 -22 0 -41 32 -52 88 -7 33 -18 67 -26 76 -12 14 -10 16 12 16 14 0 38
-5 53 -10 32 -13 74 10 74 40 0 25 -31 34 -75 21 -38 -10 -159 5 -218 28 -34
13 -26 15 -64 -9z m73 -167 c-3 -21 -6 -47 -6 -58 0 -15 -2 -17 -9 -6 -7 11
-11 10 -20 -5 -9 -15 -10 -11 -5 21 9 56 21 85 35 85 8 0 10 -12 5 -37z m74
13 c6 -18 14 -23 29 -19 20 5 21 5 37 -75 6 -29 -13 -36 -65 -22 -27 7 -41 16
-41 28 -1 15 -3 15 -17 -3 -14 -19 -15 -17 -9 28 4 33 13 55 28 68 29 23 27
23 38 -5z m85 -47 l5 -44 -14 35 c-17 41 -22 95 -6 69 5 -9 12 -36 15 -60z
m-211 -13 c-3 -21 -9 -35 -11 -32 -3 3 -2 21 1 42 4 20 10 34 12 31 3 -3 2
-21 -2 -41z"/>
<path d="M1526 2753 c-6 -14 -5 -15 5 -6 7 7 10 15 7 18 -3 3 -9 -2 -12 -12z"/>
<path d="M1357 2963 c-2 -5 -7 -21 -11 -38 -6 -26 -6 -28 7 -15 19 20 31 60
18 60 -5 0 -12 -3 -14 -7z"/>
<path d="M2392 2908 c-7 -26 -12 -60 -12 -76 0 -24 -7 -32 -42 -48 -36 -16
-46 -27 -61 -68 -21 -58 -15 -75 8 -19 12 29 24 42 50 52 43 15 51 29 65 114
14 79 8 111 -8 45z"/>
<path d="M2324 2915 c24 -18 39 -20 34 -2 -3 6 -15 13 -29 15 -23 2 -23 2 -5
-13z"/>
<path d="M1505 2571 c5 -15 0 -21 -24 -26 -28 -6 -64 -35 -45 -35 5 0 2 -4 -6
-10 -21 -13 -10 -19 55 -30 59 -10 137 -4 168 12 21 11 17 45 -9 86 -13 19
-23 22 -80 22 -60 0 -65 -2 -59 -19z"/>
<path d="M1611 1824 c0 -11 3 -14 6 -6 3 7 2 16 -1 19 -3 4 -6 -2 -5 -13z"/>
<path d="M1340 1765 c-36 -7 -56 -13 -44 -14 11 0 47 4 80 10 55 10 157 2 229
-18 11 -3 17 -2 13 2 -10 10 -143 34 -183 33 -16 0 -59 -6 -95 -13z"/>
<path d="M1296 1503 c-3 -3 -6 -24 -6 -45 0 -54 -20 -94 -79 -160 -53 -58 -91
-142 -91 -200 0 -16 16 -90 35 -166 19 -75 37 -156 41 -178 11 -72 15 -73 93
-20 38 27 78 58 89 70 32 35 172 249 172 262 0 30 -25 22 -73 -24 -63 -59 -80
-69 -148 -83 -43 -9 -62 -21 -102 -63 -28 -28 -45 -41 -39 -30 24 45 90 92
154 110 52 15 73 27 121 75 31 32 57 66 57 76 0 22 -55 113 -69 113 -5 0 -14
-13 -21 -29 -17 -41 -38 -58 -132 -105 -58 -28 -90 -51 -105 -75 -13 -19 -23
-28 -23 -22 0 35 48 76 135 117 86 40 92 45 114 93 21 44 22 53 11 80 -16 39
-32 39 -107 -1 -104 -57 -150 -108 -176 -193 -11 -34 -16 -42 -16 -25 -1 43
44 124 93 167 45 39 94 68 158 92 40 15 47 55 17 88 -38 40 -96 83 -103 76z"/>
<path d="M657 754 c-4 -4 -4 -10 -1 -15 6 -10 34 0 34 12 0 10 -24 12 -33 3z"/>
<path d="M775 750 l-30 -8 33 -1 c17 0 32 4 32 9 0 6 -1 9 -2 9 -2 -1 -16 -5
-33 -9z"/>
<path d="M1271 708 c-49 -37 -53 -43 -47 -71 6 -31 13 -44 19 -36 29 38 97
139 97 143 0 12 -17 3 -69 -36z"/>
<path d="M418 653 c7 -3 16 -2 19 1 4 3 -2 6 -13 5 -11 0 -14 -3 -6 -6z"/>
<path d="M294 641 c-2 -2 -1 -8 2 -12 8 -14 68 -11 88 4 16 12 12 13 -34 13
-28 -1 -53 -3 -56 -5z"/>
<path d="M747 434 c-11 -12 18 -44 40 -44 24 0 27 7 17 34 -6 16 -44 22 -57
10z"/>
<path d="M1590 380 c0 -5 9 -10 21 -10 11 0 17 5 14 10 -3 6 -13 10 -21 10 -8
0 -14 -4 -14 -10z"/>
<path d="M1730 360 c0 -5 7 -10 15 -10 8 0 15 5 15 10 0 6 -7 10 -15 10 -8 0
-15 -4 -15 -10z"/>
<path d="M1395 330 c-4 -6 5 -10 20 -10 15 0 24 4 20 10 -3 6 -12 10 -20 10
-8 0 -17 -4 -20 -10z"/>
<path d="M1980 310 c0 -5 4 -10 9 -10 6 0 13 5 16 10 3 6 -1 10 -9 10 -9 0
-16 -4 -16 -10z"/>
<path d="M1185 290 c-4 -6 12 -10 39 -10 25 0 46 5 46 10 0 6 -18 10 -39 10
-22 0 -43 -4 -46 -10z"/>
<path d="M1620 292 c0 -6 -9 -14 -20 -17 -31 -10 -24 -25 11 -25 17 0 42 9 56
20 15 12 20 20 12 20 -8 0 -24 3 -36 6 -13 4 -23 2 -23 -4z"/>
<path d="M1824 293 c11 -11 45 -13 51 -3 4 6 -7 10 -26 10 -18 0 -29 -3 -25
-7z"/>
<path d="M1415 260 c-3 -5 -1 -10 4 -10 6 0 11 5 11 10 0 6 -2 10 -4 10 -3 0
-8 -4 -11 -10z"/>
<path d="M1168 213 c7 -3 16 -2 19 1 4 3 -2 6 -13 5 -11 0 -14 -3 -6 -6z"/>
<path d="M1975 110 c3 -5 13 -10 21 -10 8 0 12 5 9 10 -3 6 -13 10 -21 10 -8
0 -12 -4 -9 -10z"/>
<path d="M2070 100 c0 -5 5 -10 10 -10 6 0 10 5 10 10 0 6 -4 10 -10 10 -5 0
-10 -4 -10 -10z"/>
<path d="M2180 20 c0 -5 9 -10 21 -10 11 0 17 4 14 10 -3 6 -13 10 -21 10 -8
0 -14 -4 -14 -10z"/>
</g>
</svg>
