<?xml version="1.0" standalone="no"?>
<!DOCTYPE svg PUBLIC "-//W3C//DTD SVG 20010904//EN"
 "http://www.w3.org/TR/2001/REC-SVG-20010904/DTD/svg10.dtd">
<svg version="1.0" xmlns="http://www.w3.org/2000/svg"
 width="767.000000pt" height="1080.000000pt" viewBox="0 0 7670 10800"
 preserveAspectRatio="xMidYMid meet">

<defs>
  <!-- Maske: figürün dışı şeffaf olacak -->
  <mask id="mask-shape">
    <rect width="100%" height="100%" fill="black"/>
    <path d="M3225 10780 c-33 -11 -68 -20 -78 -20 -26 0 -103 -42 -182 -99
-66 -47 -152 -133 -180 -179 -8 -14 -34 -50 -58 -81 -24 -31 -59 -86 -77 -124
-18 -37 -38 -73 -43 -80 -6 -6 -21 -29 -34 -51 -12 -22 -27 -47 -33 -55 -6 -8
-20 -31 -31 -50 -12 -19 -34 -55 -50 -80 -16 -25 -29 -49 -29 -54 0 -4 -9
-19 -20 -33 -11 -14 -20 -32 -20 -40 0 -8 -9 -27 -19 -41 -11 -15 -23 -39
-26 -54 -4 -14 -14 -37 -23 -50 -9 -13 -26 -50 -38 -82 -12 -31 -32 -77 -44
-102 -11 -25 -23 -61 -27 -80 -3 -19 -11 -44 -18 -55 -6 -11 -16 -39 -22 -62
... TÜM PATH BURADA DEVAM EDİYOR ...
" fill="white"/>
  </mask>
</defs>

<!-- Beyaz iç alan -->
<rect width="100%" height="100%" fill="white" mask="url(#mask-shape)"/>

<!-- Siyah figür -->
<g transform="translate(0.000000,10800.000000) scale(0.100000,-0.100000)"
fill="#000000" stroke="none">
  <path d="M3225 10780 c-33 -11 -68 -20 -78 -20 -26 0 -103 -42 -182 -99
-66 -47 -152 -133 -180 -179 -8 -14 -34 -50 -58 -81 -24 -31 -59 -86 -77 -124
-18 -37 -38 -73 -43 -80 -6 -6 -21 -29 -34 -51 -12 -22 -27 -47 -33 -55 -6 -8
-20 -31 -31 -50 -12 -19 -34 -55 -50 -80 -16 -25 -29 -49 -29 -54 0 -4 -9
-19 -20 -33 -11 -14 -20 -32 -20 -40 0 -8 -9 -27 -19 -41 -11 -15 -23 -39
-26 -54 -4 -14 -14 -37 -23 -50 -9 -13 -26 -50 -38 -82 -12 -31 -32 -77 -44
-102 -11 -25 -23 -61 -27 -80 -3 -19 -11 -44 -18 -55 -6 -11 -16 -39 -22 -62
... TÜM PATH BURADA DEVAM EDİYOR ...
"/>
</g>
</svg>