<?xml version="1.0" standalone="no"?>
<!DOCTYPE svg PUBLIC "-//W3C//DTD SVG 20010904//EN"
 "http://www.w3.org/TR/2001/REC-SVG-20010904/DTD/svg10.dtd">
<svg version="1.0" xmlns="http://www.w3.org/2000/svg"
 width="793.000000pt" height="1098.000000pt" viewBox="0 0 793.000000 1098.000000"
 preserveAspectRatio="xMidYMid meet">

<g transform="translate(0.000000,1098.000000) scale(0.100000,-0.100000)"
fill="#000000" stroke="none">
<path d="M3390 10636 c-99 -26 -126 -39 -224 -109 -68 -49 -79 -54 -177 -70
-57 -10 -134 -24 -170 -32 -37 -8 -80 -15 -95 -15 -45 -1 -98 -24 -182 -77
-68 -44 -158 -100 -357 -223 -171 -105 -325 -207 -367 -243 -26 -22 -101 -78
-166 -126 -221 -160 -468 -374 -497 -431 -10 -19 -15 -75 -17 -186 -2 -156 -2
-160 26 -224 15 -36 32 -92 36 -125 9 -66 46 -208 78 -295 11 -30 27 -80 36
-110 48 -167 73 -249 151 -485 48 -143 98 -291 112 -330 24 -65 165 -384 236
-535 17 -36 31 -74 32 -84 0 -13 18 -28 oo54 -47 30 -16 69 -43 88 -61 30 -29
33 -37 33 -90 0 -73 -15 -76 -63 -10 -38 51 -71 78 -134 111 -96 49 -100 27
-31 -183 34 -105 68 -150 68 -92 0 14 10 37 23 52 18 21 32 27 65 27 88 0 108
-63 42 -128 -39 -38 -40 -41 -40 -105 1 -93 14 -151 40 -172 12 -10 26 -18 31
-18 14 0 10 83 -6 110 -29 51 -13 127 49 224 22 35 33 62 29 75 -3 11 3 42 12
68 10 28 21 96 25 163 6 102 10 122 38 177 28 56 132 173 152 173 4 0 13 -20
20 -44 7 -25 21 -53 32 -63 19 -17 21 -17 46 16 15 18 52 59 83 91 80 83 115
88 405 62 113 -10 185 -32 213 -65 16 -20 19 -20 -49 -2 -108 29 -275 10 -440
-50 -100 -37 -146 -69 -160 -111 -7 -19 -23 -48 -37 -65 -35 -41 -20 -57 38
-40 25 8 60 10 89 6 44 -6 49 -4 73 25 15 17 27 42 27 55 0 24 42 65 66 65 7
0 29 -14 48 -31 42 -36 108 -49 211 -42 49 4 88 1 125 -10 34 -10 73 -13 102
-10 33 4 53 1 69 -11 25 -17 55 -21 63 -8 3 5 9 43 15 86 7 63 6 85 -6 114 -8
19 -15 66 -15 102 0 37 -3 71 -6 76 -4 5 -35 33 -69 62 -77 65 -144 84 -221
63 -26 -8 -85 -22 -132 -31 -47 -10 -121 -26 -164 -35 -68 -15 -93 -16 -179
-6 -54 6 -103 14 -108 17 -18 11 3 49 60 107 72 75 112 95 245 123 59 13 118
29 130 37 78 51 261 77 545 78 131 0 182 4 223 17 43 13 85 16 216 14 90 -2
199 2 243 9 l78 11 78 -35 c43 -20 96 -38 118 -42 95 -15 353 -177 404 -254
13 -20 47 -61 76 -91 29 -30 78 -94 110 -142 64 -98 66 -107 84 -371 7 -100
12 -132 26 -147 45 -49 75 -3 75 115 l0 60 105 95 c58 52 105 98 105 103 0 4
-7 22 -16 38 -18 36 -22 10 54 344 82 358 129 576 147 685 9 52 20 120 25 150
5 30 12 125 14 210 3 85 10 191 15 235 6 44 11 109 12 145 1 54 19 263 33 385
2 17 20 92 40 168 20 76 36 147 36 157 0 34 -165 149 -245 171 -25 7 -55 27
-80 54 -22 23 -51 46 -65 50 -66 19 -92 39 -116 86 -19 38 -35 54 -74 74 -36
18 -60 41 -85 79 -20 29 -48 62 -64 73 -30 23 -400 212 -456 233 -11 4 -76 49
-144 99 -68 50 -133 91 -145 91 -11 0 -38 3 -58 6 -25 5 -38 3 -38 -5 0 -6 6
-11 13 -11 25 0 136 -78 185 -130 42 -44 59 -54 130 -75 44 -14 84 -31 88 -37
5 -7 2 -9 -7 -6 -8 3 -48 13 -89 23 -41 10 -96 28 -121 41 -78 40 -171 71
-230 78 -31 4 -125 0 -210 -9 -85 -8 -239 -20 -344 -25 -104 -6 -199 -12 -210
-12 -11 -1 -55 -1 -98 0 -103 3 -92 22 12 22 61 0 84 4 102 19 54 42 155 82
282 111 43 10 81 21 84 24 4 3 -59 6 -138 5 -116 0 -161 -5 -229 -23z m-409
-3466 l24 -19 -49 15 c-61 17 -68 24 -29 24 17 0 41 -9 54 -20z m-24 -53 c17
-18 -19 -29 -76 -25 -66 5 -84 13 -61 29 16 11 125 7 137 -4z m83 -42 c16 -20
14 -22 -35 -30 l-40 -8 24 27 c28 30 34 31 51 11z"/>
<path d="M3890 10646 c-8 -8 -64 -27 -125 -41 -147 -36 -273 -74 -280 -86 -8
-12 22 -11 255 7 409 31 391 31 527 -12 30 -10 -27 36 -77 61 -47 24 -190 69
-250 79 -24 4 -40 1 -50 -8z"/>
<path d="M4125 7460 c-16 -4 -77 -8 -135 -9 l-105 -1 -38 -35 c-21 -19 -44
-35 -52 -35 -11 0 -14 -13 -12 -49 1 -36 -3 -54 -17 -70 -19 -21 -19 -22 14
-56 30 -31 33 -38 24 -67 -5 -18 -7 -51 -4 -73 4 -33 8 -39 25 -37 80 14 95
14 101 -2 14 -35 40 -37 79 -6 35 28 44 30 118 30 69 0 78 2 67 15 -7 8 -27
17 -46 21 -42 8 -42 15 -4 47 59 50 90 42 104 -25 9 -45 41 -58 115 -46 65 10
93 6 176 -26 42 -16 125 -21 125 -8 0 4 -4 12 -9 18 -5 5 -14 26 -20 46 -19
59 -154 147 -225 148 -52 0 -156 22 -150 31 3 5 13 9 23 9 9 0 53 18 96 40 94
48 127 50 203 11 32 -16 69 -31 82 -32 22 -4 25 0 28 33 3 34 1 37 -30 43 -18
4 -48 16 -66 26 -19 11 -73 28 -122 39 -75 17 -95 18 -143 8 -49 -10 -61 -10
-92 5 -38 18 -61 19 -110 7z m259 -296 c32 -12 15 -24 -33 -24 -54 0 -81 7
-81 21 0 10 90 12 114 3z"/>
<path d="M5364 6996 c-60 -28 -119 -78 -140 -119 -15 -27 -14 -31 6 -52 25
-27 53 -99 70 -177 6 -32 16 -58 21 -58 5 0 9 2 9 4 0 2 25 90 55 195 30 106
55 201 55 212 0 25 -14 24 -76 -5z"/>
<path d="M4355 6959 l-40 -20 55 6 c61 7 65 9 55 24 -9 15 -23 13 -70 -10z"/>
<path d="M2775 6914 c-44 -7 -97 -13 -118 -13 -26 -1 -37 -5 -34 -13 6 -20
186 -15 310 8 38 8 34 20 -10 28 -45 7 -45 7 -148 -10z"/>
<path d="M5175 6599 c-7 -10 45 -99 58 -99 12 0 8 77 -5 87 -22 17 -47 23 -53
12z"/>
<path d="M2115 6517 c2 -23 7 -109 10 -192 l5 -149 -60 -57 c-48 -45 -60 -62
-60 -87 0 -17 4 -33 9 -37 6 -3 34 13 63 35 29 22 56 40 60 40 3 0 9 -24 13
-52 4 -29 12 -71 18 -92 11 -38 10 -40 -26 -71 -25 -22 -35 -38 -31 -49 9 -23
27 -20 54 9 48 51 50 47 114 -175 25 -85 55 -182 66 -215 22 -63 137 -333 150
-350 22 -31 46 -123 40 -152 -6 -26 -3 -36 15 -53 13 -12 26 -37 29 -55 14
-75 129 -173 335 -287 38 -21 38 -20 6 -241 -14 -95 -32 -224 -41 -287 -20
-144 -22 -151 -37 -126 -7 11 -54 65 -104 120 -51 55 -93 106 -93 113 0 6 -6
16 -13 20 -8 4 -33 36 -58 71 l-44 63 -3 127 c-1 70 -5 138 -8 151 -5 22 -6
21 -27 -17 -12 -22 -87 -113 -166 -201 -163 -182 -185 -213 -176 -248 12 -49
-4 -62 -356 -298 -166 -112 -180 -118 -374 -176 -81 -25 -193 -62 -220 -74
-16 -7 -61 -28 -100 -45 -38 -18 -151 -68 -250 -112 -197 -87 -410 -192 -437
-215 -9 -8 -18 -35 -20 -61 -2 -26 -6 -54 -9 -62 -5 -20 27 -14 62 11 15 10
36 19 48 19 11 0 31 5 45 11 20 10 30 9 52 -5 l26 -18 -22 -23 c-29 -31 -119
-63 -200 -71 -80 -9 -131 -29 -124 -48 7 -19 24 -25 92 -32 32 -4 71 -14 87
-22 17 -9 55 -20 85 -27 76 -15 77 -36 4 -69 -55 -25 -56 -27 -40 -45 14 -15
15 -24 6 -40 -6 -12 -17 -21 -25 -21 -18 0 -29 -41 -21 -75 8 -32 30 -32 44 0
6 14 20 25 30 25 11 0 31 9 45 20 28 22 58 25 88 10 37 -20 14 -67 -48 -99
-14 -7 -23 -21 -23 -36 0 -26 -21 -46 -28 -27 -5 17 -23 15 -37 -5 -11 -15
-15 -14 -43 17 -27 28 -32 31 -38 17 -3 -10 -1 -24 6 -32 10 -12 10 -21 1 -41
-18 -40 1 -58 40 -39 35 19 70 19 94 1 19 -14 19 -15 1 -52 l-18 -38 26 -19
c14 -10 26 -24 26 -30 0 -7 -23 -31 -50 -55 l-50 -43 0 -64 c0 -83 -14 -115
-51 -115 -35 0 -46 -17 -26 -38 11 -10 42 -17 97 -20 71 -4 87 -2 140 22 58
26 61 26 88 10 45 -26 57 -52 35 -76 -14 -16 -25 -18 -58 -13 -64 11 -163 11
-173 0 -6 -5 -13 -34 -17 -62 l-7 -53 51 0 c44 0 51 -3 51 -20 0 -12 -17 -32
-42 -50 -32 -23 -52 -30 -88 -30 -34 0 -50 -5 -54 -15 -3 -10 1 -18 11 -22 9
-4 29 -20 43 -37 l28 -30 173 3 c169 3 226 12 243 40 11 17 71 13 97 -8 34
-26 50 -30 79 -18 14 5 54 15 89 23 47 10 73 22 97 45 40 39 110 55 136 32 21
-19 58 -2 58 27 0 22 -21 26 -52 9 -17 -9 -24 -7 -42 10 l-21 22 25 19 c30 23
81 34 135 31 22 -1 57 5 77 13 21 9 54 16 75 16 21 1 56 8 78 16 24 9 88 17
160 20 102 4 126 8 167 29 58 30 68 31 102 4 43 -33 50 -56 24 -70 -26 -14
-80 -14 -107 0 -22 12 -132 -3 -170 -24 -14 -7 -35 -17 -46 -21 -17 -7 -16 -8
10 -12 17 -2 35 -9 40 -15 6 -7 33 -23 60 -37 27 -14 51 -32 53 -40 1 -8 -7
-30 -19 -49 -19 -32 -22 -33 -64 -28 l-44 7 5 -29 c5 -25 2 -32 -25 -45 -61
-32 -36 -50 65 -47 57 2 85 8 124 28 l49 25 36 -22 c42 -26 61 -55 43 -67 -7
-4 -67 -8 -133 -8 -94 -1 -126 -4 -150 -18 -16 -9 -36 -17 -42 -17 -7 0 -13
-4 -13 -10 0 -5 11 -10 25 -10 15 0 25 -6 25 -14 0 -13 -74 -36 -115 -36 -8 0
-17 -5 -20 -10 -5 -8 36 -10 129 -8 120 2 137 0 156 -17 30 -27 25 -35 -20
-33 -25 1 -47 -5 -58 -15 -11 -10 -35 -17 -58 -17 -49 0 -60 -7 -84 -53 -25
-47 -18 -51 95 -52 61 0 97 -5 112 -15 29 -19 36 -39 22 -56 -6 -8 -9 -21 -5
-29 4 -13 16 -14 56 -9 47 6 54 4 81 -22 36 -34 37 -51 4 -66 -28 -12 -31 -28
-13 -58 10 -15 9 -24 -2 -45 -20 -37 0 -52 89 -65 72 -10 74 -10 118 19 30 20
66 33 116 40 40 6 92 15 117 20 25 6 70 15 100 21 30 7 83 18 117 26 34 8 105
14 158 14 98 0 122 7 162 42 28 26 55 20 115 -27 42 -31 49 -34 77 -24 17 6
31 17 31 25 0 7 17 25 38 38 22 13 46 40 56 59 17 37 43 51 121 62 53 8 164
30 250 51 39 9 124 20 190 23 103 5 125 9 152 29 17 12 42 22 56 22 27 0 87
-50 87 -72 0 -8 11 -25 25 -38 26 -24 33 -49 15 -51 -30 -5 -35 -1 -40 26 -5
28 -9 30 -60 37 -30 4 -69 10 -86 13 -19 4 -34 3 -38 -4 -4 -6 -27 -11 -52
-11 -46 0 -56 -12 -26 -29 16 -10 16 -12 -3 -26 -39 -31 -88 -38 -161 -25
-141 26 -256 13 -224 -25 13 -16 339 -29 377 -14 32 12 83 3 83 -16 0 -29 -51
-55 -106 -55 -45 0 -75 -12 -62 -25 2 -2 48 3 103 11 55 8 145 19 200 23 58 5
127 18 165 31 54 18 70 20 96 11 52 -19 115 -13 163 14 54 31 78 31 114 0 56
-50 7 -89 -82 -66 -70 18 -116 6 -148 -36 -30 -39 -58 -53 -122 -62 -66 -9
-63 -28 7 -36 44 -5 68 -3 98 10 34 14 46 15 92 4 51 -12 64 -31 26 -37 -10
-2 -28 -12 -39 -22 -14 -13 -39 -20 -84 -22 -61 -3 -65 -5 -74 -31 -12 -38 -2
-45 26 -19 29 28 35 27 39 0 3 -20 10 -23 54 -26 42 -2 59 2 89 23 48 32 76
32 114 -1 68 -57 9 -95 -98 -64 -32 9 -76 2 -175 -27 -38 -12 -46 -33 -12 -33
14 0 26 -4 26 -10 0 -18 -53 -25 -178 -24 -82 0 -121 -3 -119 -10 5 -17 107
-26 253 -24 109 2 135 0 157 -15 14 -9 34 -17 44 -17 10 0 28 -8 41 -18 l23
-18 -20 -19 c-12 -10 -21 -24 -21 -32 0 -7 -5 -13 -11 -13 -19 0 -64 41 -69
63 -6 21 -7 20 -25 -10 -11 -18 -25 -33 -32 -33 -16 0 -36 -37 -27 -51 3 -6
16 -8 29 -5 14 4 28 0 35 -9 18 -21 80 -18 115 5 17 11 47 20 68 20 43 0 87
35 87 69 0 20 92 101 115 101 23 0 25 -13 5 -45 -18 -29 -19 -65 -2 -65 4 0
30 10 59 22 49 20 54 20 71 5 21 -19 83 -23 113 -7 12 7 19 21 19 40 0 20 7
33 23 41 42 22 67 52 67 81 0 24 4 28 28 28 18 0 38 10 53 26 59 63 119 83
180 59 19 -7 31 15 19 35 -4 7 -25 14 -45 16 -39 3 -57 18 -52 44 1 8 28 29
59 45 33 17 58 37 58 46 0 8 4 19 9 25 5 5 19 36 30 69 15 43 32 71 62 98 60
54 103 50 69 -6 -31 -50 -11 -59 56 -25 70 35 82 35 95 2 9 -26 11 -27 71 -20
69 7 86 21 60 50 -16 17 -16 19 3 30 45 26 76 66 73 93 -2 19 2 28 12 29 51 3
113 29 123 51 14 31 49 39 80 18 16 -10 41 -15 69 -13 41 3 43 5 49 41 7 42
-2 54 -45 59 -16 1 -31 8 -33 13 -4 12 65 35 106 35 16 0 58 9 93 20 34 11 77
20 93 20 17 0 62 9 100 20 47 14 100 20 163 20 82 0 97 3 132 25 48 30 75 26
115 -15 24 -25 26 -32 15 -45 -14 -17 -75 -20 -114 -5 -29 11 -143 -7 -166
-26 -8 -7 -25 -14 -38 -16 -29 -4 -24 -24 6 -20 30 4 28 -16 -4 -28 -38 -15
-116 -12 -164 5 -29 10 -59 13 -91 9 -52 -7 -83 -29 -60 -43 18 -11 290 -22
370 -15 91 9 112 -3 109 -59 l-3 -42 50 -1 c28 0 61 -6 74 -13 28 -15 116 -10
134 8 9 9 9 16 -1 31 -16 27 -16 27 18 45 30 16 41 50 20 71 -6 6 2 25 21 53
29 44 29 47 23 132 -6 83 -5 90 24 150 41 86 46 119 31 195 -13 64 -13 64 15
93 27 28 27 29 15 95 -6 37 -8 70 -5 74 4 3 21 11 39 17 22 7 33 17 35 34 2
13 12 26 23 28 16 5 19 15 19 66 0 60 -1 62 -51 113 l-52 53 23 155 c25 179
30 311 12 343 -13 24 -118 98 -212 150 -60 33 -127 62 -265 116 -49 20 -151
64 -225 97 -138 63 -222 100 -320 140 -173 70 -206 84 -215 92 -5 4 -16 8 -25
8 -9 0 -44 13 -78 30 -34 17 -68 30 -75 30 -7 0 -17 4 -22 9 -6 5 -50 25 -100
44 -124 49 -179 77 -292 148 -205 129 -232 149 -301 226 -215 239 -404 452
-458 517 -33 40 -91 109 -129 152 -37 43 -84 100 -103 127 -49 67 -59 52 -43
-60 8 -49 16 -124 18 -168 7 -113 -3 -129 -152 -228 -151 -100 -158 -106 -144
-123 6 -7 46 -25 90 -39 43 -15 81 -31 84 -36 9 -13 -1 -12 -100 18 -142 42
-169 39 -305 -39 -136 -79 -190 -115 -190 -127 0 -4 31 -11 69 -15 106 -11
292 -60 340 -91 52 -32 48 -44 -6 -17 -77 40 -248 78 -390 89 l-81 5 -84 -45
c-72 -40 -118 -71 -259 -174 -16 -12 -48 -24 -72 -28 -71 -10 -137 -27 -137
-34 0 -3 18 -17 41 -31 60 -37 92 -96 87 -165 -1 -30 -2 -55 -1 -55 1 0 19 12
40 26 81 55 147 82 233 93 47 6 121 17 165 26 44 8 105 14 135 15 30 0 100 7
154 15 55 8 101 13 103 11 9 -8 -71 -151 -173 -313 -148 -232 -264 -405 -557
-828 -130 -188 -289 -427 -372 -560 -44 -71 -109 -175 -145 -231 -36 -57 -103
-164 -150 -239 -47 -74 -116 -184 -155 -243 -102 -156 -124 -150 -164 39 -11
52 -25 110 -31 129 -6 19 -21 94 -35 165 -13 72 -42 218 -64 325 -62 307 -77
430 -91 735 -5 110 -15 254 -21 320 -14 145 -3 1036 13 1103 10 39 27 58 29
30 0 -7 5 -35 10 -63 11 -60 25 -165 39 -295 7 -67 15 -99 27 -111 41 -38 159
-88 237 -100 71 -11 80 -14 97 -43 11 -17 19 -49 19 -73 0 -30 7 -49 23 -66
26 -29 274 -237 281 -237 3 0 31 34 62 75 46 62 58 85 61 123 4 40 0 54 -27
95 -45 67 -129 132 -240 186 -52 25 -87 47 -79 49 25 5 122 -35 185 -77 53
-33 83 -63 190 -188 l31 -36 44 26 c70 41 101 79 106 131 12 104 -34 178 -135
217 -75 29 -219 29 -313 -1 -35 -11 -70 -20 -77 -20 -8 0 -33 20 -58 45 -24
25 -50 45 -59 45 -8 0 -15 4 -15 9 0 10 260 52 328 53 61 0 321 -40 346 -53
20 -12 47 3 27 15 -6 4 -11 28 -11 54 0 36 3 44 11 32 10 -13 10 -13 6 0 -2 8
-10 47 -17 85 -7 39 -15 77 -18 85 -3 8 -6 24 -8 35 -1 11 -7 43 -13 70 -26
119 -42 220 -39 258 3 38 7 43 58 73 30 18 89 42 130 53 196 54 568 234 774
376 64 44 32 41 -44 -5 -72 -42 -111 -47 -55 -7 17 12 40 32 52 45 29 33 38
41 61 62 12 11 23 38 27 70 6 42 12 53 31 61 14 5 50 26 82 48 31 22 66 42 77
45 19 5 21 2 18 -31 -3 -36 -1 -35 28 27 52 106 140 332 135 344 -3 6 -5 5 -5
-2 -1 -16 -41 -51 -58 -52 -7 0 -20 11 -29 25 -15 23 -17 23 -39 9 -12 -8 -42
-44 -65 -80 -23 -36 -50 -68 -59 -70 -9 -3 -39 -16 -68 -29 -48 -23 -52 -27
-68 -81 -9 -31 -18 -84 -20 -118 -5 -91 -15 -126 -42 -143 -22 -15 -26 -15
-40 -1 -16 17 -14 33 21 161 26 95 14 221 -22 234 -23 9 -33 -12 -43 -86 -4
-39 -22 -105 -39 -147 -36 -89 -36 -94 -10 -94 16 0 20 -7 20 -33 0 -37 -15
-57 -42 -57 -37 0 -78 -31 -122 -92 -24 -35 -62 -80 -83 -100 l-38 -37 -64 9
c-40 6 -71 16 -85 29 -18 17 -30 19 -97 14 -58 -4 -88 -1 -130 12 -58 20 -128
22 -289 11 -94 -6 -115 -5 -195 17 -164 44 -255 117 -270 216 -11 69 -20 86
-59 106 -52 27 -56 42 -11 37 40 -5 48 13 9 22 -19 5 -24 11 -19 26 5 15 0 21
-22 26 -41 10 -45 14 -32 30 9 11 8 14 -5 14 -9 0 -19 -7 -23 -16 -6 -15 -8
-15 -20 2 -7 10 -13 30 -13 46 0 31 -11 36 -30 13 -11 -13 -35 -22 -111 -39
-16 -3 -29 -15 -32 -28 -10 -36 -37 -3 -37 44 0 70 81 111 94 48 8 -42 31 -37
50 10 21 54 22 237 0 334 -23 103 -62 185 -108 225 l-39 35 6 72 5 73 -38 34
c-28 26 -51 37 -88 42 -58 8 -73 21 -103 90 -12 28 -47 77 -78 110 -32 33 -66
74 -76 92 -29 50 -45 50 -40 0z m2290 -1607 c3 -5 1 -10 -4 -10 -6 0 -11 5
-11 10 0 6 2 10 4 10 3 0 8 -4 11 -10z m-1391 -447 c13 -27 38 -61 56 -78 18
-16 56 -77 86 -135 30 -58 69 -133 88 -167 l34 -63 35 53 c19 28 40 63 47 77
7 14 35 58 63 99 27 41 56 96 64 123 16 55 33 55 33 -1 0 -20 16 -130 35 -243
19 -113 38 -238 41 -277 l7 -71 -29 5 c-16 3 -83 14 -149 26 -146 26 -199 26
-335 0 -58 -11 -129 -23 -157 -26 -63 -8 -60 -20 -37 150 8 66 19 149 24 185
11 88 52 362 56 378 6 20 13 14 38 -35z m4586 -2323 c0 -5 -4 -10 -10 -10 -5
0 -10 5 -10 10 0 6 5 10 10 10 6 0 10 -4 10 -10z m-6980 -96 c0 -20 -29 -30
-43 -15 -9 10 -8 16 7 26 21 16 36 11 36 -11z m1448 -66 c-7 -20 -48 -23 -48
-4 0 11 9 16 26 16 16 0 24 -5 22 -12z m-1170 -295 c5 -16 -22 -27 -44 -19
-13 5 -14 9 -4 22 15 17 41 15 48 -3z m6252 -87 c0 -18 -30 -30 -43 -17 -5 5
-6 14 -3 20 10 16 46 13 46 -3z m216 -260 c9 -24 -15 -56 -41 -56 -42 0 -44
38 -2 58 30 15 37 14 43 -2z m-3168 -64 c5 -17 -27 -27 -41 -13 -9 9 -8 14 3
21 18 11 32 8 38 -8z m-2238 -116 c0 -3 -4 -8 -10 -11 -5 -3 -10 -1 -10 4 0 6
5 11 10 11 6 0 10 -2 10 -4z m4150 -20 c0 -8 -7 -22 -16 -30 -32 -33 -69 -9
-38 25 20 22 54 25 54 5z m-1402 -64 c5 -17 -27 -27 -41 -13 -9 9 -8 14 3 21
18 11 32 8 38 -8z m-1551 -49 c4 -12 -34 -29 -44 -19 -3 3 -3 12 1 21 7 18 37
17 43 -2z m-749 -160 c-4 -23 -48 -31 -48 -10 0 9 6 18 13 20 25 11 38 7 35
-10z m2876 -332 c18 -28 -42 -67 -66 -43 -9 9 -7 17 7 32 19 21 50 27 59 11z
m106 -15 c0 -9 -30 -14 -35 -6 -4 6 3 10 14 10 12 0 21 -2 21 -4z"/>
<path d="M5216 6350 c-23 -35 -26 -70 -7 -70 19 0 51 49 51 78 0 42 -12 40
-44 -8z"/>
<path d="M4007 6308 c-5 -34 -2 -48 14 -68 11 -14 27 -37 37 -52 42 -67 44 -6
2 77 -16 33 -30 66 -30 73 0 30 -18 8 -23 -30z"/>
<path d="M3255 6305 c-22 -13 -53 -32 -70 -41 -16 -9 -33 -22 -38 -28 -15 -23
6 -63 69 -128 35 -36 64 -68 64 -70 0 -1 -11 -36 -25 -76 -20 -60 -45 -171
-45 -205 0 -5 -4 -5 -10 -2 -5 3 -10 17 -10 31 0 32 -12 30 -33 -6 -10 -16
-22 -30 -26 -30 -7 0 -1 68 13 135 4 21 -2 13 -22 -26 -27 -54 -72 -112 -72
-93 0 5 -5 1 -11 -8 -14 -25 -26 -22 -43 10 l-14 27 -12 -29 c-6 -16 -14 -49
-17 -73 -3 -24 -10 -43 -14 -43 -12 0 -11 9 2 69 18 84 4 91 -20 11 -13 -41
-32 -92 -43 -113 -24 -48 -20 -74 13 -100 39 -28 122 -25 202 8 168 71 259 84
502 73 151 -6 228 -14 385 -41 82 -14 159 -11 189 8 16 9 10 142 -8 172 -7 13
-10 14 -11 4 0 -10 -7 -8 -23 7 -13 12 -27 19 -30 15 -4 -3 -18 4 -32 17 -18
17 -25 19 -26 9 0 -8 -7 0 -14 16 l-13 30 -4 -39 c-4 -51 -22 -56 -34 -10 -5
19 -13 35 -18 34 -5 -1 -13 4 -17 12 -6 8 -9 -2 -9 -29 0 -24 -4 -43 -10 -43
-5 0 -14 19 -20 43 -33 132 -43 168 -52 173 -19 12 -20 -7 -4 -93 20 -109 20
-117 1 -109 -8 3 -15 1 -15 -4 0 -25 -19 -6 -28 28 -5 20 -10 29 -11 19 -1
-10 -6 -17 -13 -15 -17 6 -79 240 -67 254 5 7 -2 21 -21 39 -17 16 -30 32 -30
37 0 13 92 8 135 -7 55 -20 82 -19 121 6 63 38 72 89 23 115 -25 12 -46 15
-98 9 -36 -4 -72 -12 -79 -17 -7 -6 -30 -8 -55 -4 -23 3 -89 13 -147 21 -88
12 -163 33 -250 69 -8 3 -33 -5 -55 -19z m123 -297 c9 -12 5 -47 -24 -193 l-8
-40 -6 35 -6 35 -19 -38 c-22 -43 -36 -32 -29 22 7 47 34 151 45 174 11 20 32
22 47 5z m148 -40 c18 -39 23 -43 56 -43 21 0 42 -5 47 -10 6 -6 18 -48 26
-94 21 -107 15 -116 -72 -108 -83 8 -129 28 -137 61 -7 29 -31 26 -41 -5 -4
-10 -11 -19 -17 -19 -7 0 -9 19 -5 58 8 73 36 169 46 154 5 -8 15 -2 29 18 13
16 28 30 35 30 7 0 21 -19 33 -42z m168 -38 c18 -76 21 -155 7 -130 -18 30
-54 179 -47 195 10 28 24 7 40 -65z m-419 -51 c-19 -105 -24 -119 -37 -119 -7
0 -8 15 -4 43 8 49 47 169 53 163 2 -2 -3 -41 -12 -87z"/>
<path d="M3442 5840 c0 -14 2 -19 5 -12 2 6 2 18 0 25 -3 6 -5 1 -5 -13z"/>
<path d="M3097 6303 c-19 -21 -52 -122 -43 -131 9 -8 43 26 56 58 6 15 10 42
8 60 -3 32 -3 32 -21 13z"/>
<path d="M5245 6209 c-21 -69 -32 -219 -16 -219 6 0 11 4 11 9 0 5 9 62 20
127 22 129 14 176 -15 83z"/>
<path d="M5070 6221 c0 -17 52 -51 76 -51 31 0 30 14 -2 39 -27 21 -74 29 -74
12z"/>
<path d="M5170 5943 c-30 -18 -66 -33 -81 -33 -18 0 -33 -9 -45 -27 -21 -32
-76 -193 -70 -208 2 -5 19 24 39 66 35 77 47 91 81 96 43 7 101 49 119 86 10
20 17 41 15 45 -2 4 -28 -7 -58 -25z"/>
<path d="M4916 5614 c-7 -19 2 -37 15 -29 12 8 12 45 0 45 -5 0 -12 -7 -15
-16z"/>
<path d="M3385 5517 c-19 -14 -19 -16 -2 -34 27 -30 21 -38 -40 -58 -70 -23
-93 -41 -93 -71 0 -13 -9 -28 -20 -34 -32 -17 -23 -27 38 -38 130 -26 198 -32
258 -22 32 6 74 10 92 10 42 0 99 26 113 52 8 14 4 35 -16 86 -15 37 -33 74
-41 82 -10 10 -44 17 -102 21 -48 4 -105 9 -127 13 -29 5 -46 3 -60 -7z"/>
<path d="M2956 3238 c-3 -18 -7 -63 -9 -99 -6 -96 -40 -160 -149 -284 -128
-146 -132 -152 -174 -277 -33 -100 -36 -117 -30 -180 7 -72 105 -470 120 -485
2 -2 12 11 21 30 22 46 129 148 185 177 25 13 83 34 129 46 46 13 102 33 125
45 51 25 174 146 223 217 l37 53 -28 57 c-41 86 -109 182 -126 179 -8 -1 -26
-25 -40 -52 -64 -129 -53 -120 -300 -230 -113 -50 -172 -97 -217 -173 -32 -55
-42 -47 -14 11 44 90 144 162 321 232 116 45 149 75 189 171 37 87 39 131 9
184 -18 31 -29 40 -50 40 -33 0 -121 -34 -159 -61 -15 -10 -60 -36 -99 -56
-132 -68 -242 -213 -276 -362 -17 -73 -40 -101 -29 -33 39 228 198 403 464
507 111 44 120 51 142 128 8 28 5 34 -34 70 -79 74 -204 177 -215 177 -6 0
-13 -15 -16 -32z"/>
<path d="M3324 2300 c-115 -111 -170 -143 -276 -162 -93 -16 -142 -41 -209
-105 -63 -60 -127 -148 -121 -167 2 -6 14 -65 27 -131 28 -144 32 -155 55
-155 19 0 227 137 296 194 26 22 108 133 213 291 155 231 172 260 169 293 -2
30 -8 38 -25 40 -17 3 -49 -21 -129 -98z"/>
<path d="M1634 1705 c-8 -19 3 -35 25 -35 20 0 41 19 41 37 0 18 -59 17 -66
-2z"/>
<path d="M1883 1703 c-24 -2 -43 -8 -43 -12 0 -16 55 -19 82 -5 30 15 36 25
16 22 -7 -1 -32 -3 -55 -5z"/>
<path d="M2912 1617 c-64 -45 -105 -81 -108 -95 -7 -24 13 -110 28 -127 7 -7
16 -2 26 15 10 13 54 76 99 140 119 167 113 177 -45 67z"/>
<path d="M1125 1500 c-3 -6 5 -10 19 -10 14 0 28 5 31 10 3 6 -5 10 -19 10
-14 0 -28 -4 -31 -10z"/>
<path d="M890 1465 c0 -21 24 -35 60 -35 37 0 126 26 134 39 3 4 -40 7 -95 7
-62 -1 -99 -5 -99 -11z"/>
<path d="M1778 1303 c6 -2 18 -2 25 0 6 3 1 5 -13 5 -14 0 -19 -2 -12 -5z"/>
<path d="M1834 1046 c-16 -13 -17 -18 -6 -35 6 -12 12 -28 12 -36 0 -11 12
-15 50 -15 59 0 69 13 46 58 -22 44 -65 55 -102 28z"/>
<path d="M4055 1051 c-3 -5 -1 -12 4 -15 13 -8 42 4 35 15 -7 12 -31 12 -39 0z"/>
<path d="M3591 946 c-13 -15 4 -26 40 -26 17 0 18 3 9 20 -12 23 -33 26 -49 6z"/>
<path d="M3860 907 c0 -19 21 -37 42 -37 27 0 22 25 -7 38 -33 15 -35 15 -35
-1z"/>
</g>
</svg>
