<?xml version="1.0" standalone="no"?>
<!DOCTYPE svg PUBLIC "-//W3C//DTD SVG 20010904//EN" "http://www.w3.org/TR/2001/REC-SVG-20010904/DTD/svg10.dtd">
<svg version="1.0" xmlns="http://www.w3.org/2000/svg"
 width="767.000000pt" height="1080.000000pt" viewBox="0 0 767.000000 1080.000000"
 preserveAspectRatio="xMidYMid meet">

<!-- Transparan arka plan -->
<rect width="100%" height="100%" fill="none"/>

<!-- Beyaz dolgu için -->
<g transform="translate(0.000000,1080.000000) scale(0.100000,-0.100000)" fill="white" stroke="none">
<path d="M3225 10780 c-33 -11 -68 -20 -78 -20 -26 0 -103 -42 -182 -99 -40
-29 -84 -53 -105 -56 -19 -3 -57 -10 -85 -14 -27 -5 -93 -17 -145 -26 -180
-31 -197 -36 -249 -68 -354 -219 -716 -450 -756 -484 -27 -23 -116 -89 -197
-148 -81 -58 -150 -110 -154 -116 -3 -6 -32 -29 -64 -52 -31 -23 -114 -96
-183 -162 l-125 -120 -6 -65 c-3 -36 -5 -121 -3 -190 2 -115 5 -130 31 -184
16 -32 32 -86 37 -120 11 -89 24 -141 63 -262 38 -116 52 -160 90 -294 14 -47
38 -123 55 -170 16 -47 53 -157 82 -245 108 -328 131 -391 227 -595 22 -47 63
-134 91 -194 28 -60 49 -117 46 -126 -4 -12 10 -23 54 -44 33 -15 76 -45 96
-67 33 -37 35 -43 33 -99 -1 -33 -5 -60 -8 -60 -3 0 -31 30 -61 68 -56 68
-167 146 -199 139 -19 -3 -18 -49 3 -132 42 -165 107 -276 107 -182 0 48 34
77 92 77 51 0 78 -21 78 -63 0 -18 -13 -37 -47 -65 l-47 -40 11 -112 c9 -101
12 -114 34 -131 13 -10 30 -19 37 -19 17 0 15 78 -3 110 -23 40 -18 99 15 168
17 35 39 76 50 90 14 17 19 34 15 52 -3 14 2 46 11 70 10 26 20 93 24 160 8
147 32 203 127 301 36 38 70 66 73 62 4 -5 13 -27 20 -50 7 -24 21 -50 31 -59
18 -16 20 -15 46 16 131 153 153 167 263 171 90 3 322 -16 368 -30 38 -11 105
-51 98 -58 -2 -3 -39 3 -81 12 -112 25 -252 8 -415 -50 -118 -43 -159 -71
-182 -124 -10 -25 -31 -58 -45 -73 -24 -25 -25 -28 -8 -34 10 -4 37 -2 60 4
24 6 65 9 91 6 47 -5 50 -4 77 30 15 20 25 41 21 47 -8 14 45 69 68 69 9 0 33
-14 52 -30 42 -37 114 -52 214 -43 48 4 85 1 123 -10 37 -11 73 -14 106 -10
43 5 56 2 83 -17 28 -20 33 -21 47 -7 23 23 35 165 18 213 -8 22 -14 71 -15
109 l-1 70 -68 56 c-78 65 -123 83 -189 76 -45 -5 -78 -12 -282 -60 -100 -23
-244 -28 -325 -9 -34 7 -40 12 -37 33 3 29 101 131 158 165 23 13 85 33 144
44 56 12 124 32 149 44 109 55 271 77 561 76 132 -1 176 3 220 17 45 15 84 17
220 15 91 -2 204 2 253 9 l87 12 60 -31 c32 -17 88 -38 124 -46 36 -9 102 -34
146 -56 100 -50 246 -159 279 -208 13 -20 52 -66 86 -102 33 -36 75 -90 93
-120 18 -30 41 -68 51 -85 21 -33 28 -83 40 -286 9 -143 22 -191 55 -197 33
-7 46 25 46 111 0 73 2 80 29 105 15 15 67 63 115 107 47 43 86 83 86 87 0 5
-9 22 -21 37 -18 25 -20 34 -11 62 6 19 16 61 23 94 6 33 17 85 25 115 7 30
20 87 28 125 9 39 20 90 27 115 6 25 14 63 18 85 5 22 13 60 19 85 13 52 54
246 72 335 32 165 49 318 49 445 1 57 8 174 16 260 8 85 19 229 26 320 8 113
19 195 36 260 14 52 29 111 33 130 5 19 13 51 19 70 6 19 11 40 11 47 0 13
-143 124 -191 148 -14 8 -47 19 -72 26 -35 8 -55 22 -82 55 -27 33 -48 47 -81
55 -44 11 -104 65 -104 93 0 16 -37 49 -71 63 -14 6 -38 27 -55 47 -97 121
-93 118 -352 246 -200 99 -269 138 -361 208 -108 81 -118 86 -179 94 -36 4
-69 5 -73 2 -5 -3 21 -21 59 -39 43 -22 94 -60 138 -104 48 -46 82 -71 105
-76 47 -10 141 -46 136 -52 -9 -9 -184 41 -237 68 -147 74 -236 89 -414 69
-48 -6 -199 -17 -335 -26 -135 -8 -255 -15 -266 -16 -57 -4 -175 3 -175 11 0
5 41 12 92 16 73 5 98 12 122 30 39 28 145 70 244 96 88 23 252 37 252 22 0
-5 -42 -20 -92 -32 -51 -12 -149 -38 -216 -58 -157 -46 -145 -58 41 -43 493
40 515 41 601 11 33 -12 61 -19 64 -17 11 12 -116 78 -214 112 l-109 38 -255
3 c-232 3 -260 1 -315 -17z m-461 -3554 c59 -25 49 -36 -14 -15 -33 12 -60 23
-60 25 0 9 43 3 74 -10z m-41 -57 c60 -16 40 -34 -37 -33 -78 1 -107 18 -55
32 45 13 48 14 92 1z m117 -54 c15 -18 15 -17 -27 -32 -41 -14 -49 -6 -21 24
25 27 31 28 48 8z"/>
<path d="M3947 7514 c-3 -4 -51 -6 -106 -5 -107 2 -124 -3 -179 -50 -18 -16
-40 -29 -48 -29 -13 0 -15 -8 -10 -43 5 -35 3 -48 -14 -69 -23 -30 -19 -50 17
-73 23 -16 24 -20 18 -75 -8 -70 1 -126 18 -112 7 6 28 14 49 20 33 9 39 8 64
-19 15 -16 31 -29 34 -29 4 0 24 14 45 30 35 28 44 30 116 30 44 0 79 4 79 8
0 11 -46 32 -70 32 -29 0 -25 14 15 49 55 48 88 39 101 -28 10 -50 36 -61 119
-49 76 10 114 6 160 -18 36 -18 155 -32 155 -17 0 6 -7 16 -15 23 -8 7 -15 21
-15 31 0 30 -57 87 -126 125 -53 30 -78 37 -161 45 -54 6 -102 14 -107 19 -5
5 10 14 35 20 24 7 67 25 94 40 84 48 122 49 216 5 90 -42 112 -41 107 6 -3
27 -9 34 -43 45 -22 8 -53 21 -68 30 -16 9 -70 25 -120 36 -80 17 -99 18 -145
7 -46 -11 -57 -10 -88 4 -34 17 -114 23 -127 11z m291 -321 c6 -19 -99 -17
-124 2 -17 14 -13 15 50 12 45 -1 71 -6 74 -14z"/>
<path d="M5225 7032 c-119 -58 -177 -130 -136 -171 27 -27 46 -73 66 -165 9
-42 20 -78 25 -81 12 -7 136 423 128 446 -2 5 -39 -8 -83 -29z"/>
<path d="M4055 7010 c3 -5 8 -10 11 -10 2 0 4 5 4 10 0 6 -5 10 -11 10 -5 0
-7 -4 -4 -10z"/>
<path d="M4228 7014 c-4 -3 -24 -12 -45 -19 l-38 -14 31 -1 c49 0 95 12 91 24
-4 13 -30 20 -39 10z"/>
<path d="M2595 6955 c-38 -7 -94 -14 -122 -14 -40 -1 -53 -5 -53 -16 0 -12 16
-15 83 -15 46 0 110 5 143 10 32 6 75 13 94 16 24 4 30 8 20 14 -30 16 -97 18
-165 5z"/>
<path d="M5030 6625 c0 -8 13 -35 29 -60 30 -48 41 -44 41 16 0 21 -7 32 -30
44 -36 19 -40 19 -40 0z"/>
<path d="M1894 6563 c3 -10 8 -98 11 -195 6 -200 12 -182 -82 -251 -46 -33
-49 -41 -32 -101 10 -36 11 -37 25 -18 7 11 36 36 63 56 l50 35 6 -47 c3 -26
11 -68 17 -93 14 -58 9 -72 -36 -93 -42 -20 -44 -26 -16 -51 20 -18 21 -18 53
13 40 39 55 40 63 5 3 -16 35 -124 71 -242 59 -196 92 -281 172 -453 72 -156
81 -184 69 -218 -10 -29 -8 -34 15 -54 14 -11 31 -39 36 -62 18 -67 73 -127
184 -197 56 -36 121 -74 145 -86 39 -20 42 -24 42 -62 0 -22 -9 -100 -20 -172
-10 -73 -29 -202 -40 -287 -26 -194 -26 -193 -53 -150 -11 19 -61 77 -109 128
-48 51 -88 99 -88 107 0 8 -4 15 -8 15 -5 0 -31 32 -58 71 l-49 71 -5 158 c-5
158 -12 201 -23 136 -4 -27 -40 -72 -157 -203 -195 -216 -214 -242 -205 -292
8 -46 17 -37 -150 -151 -413 -282 -346 -248 -710 -361 -70 -22 -86 -29 -220
-89 -38 -18 -131 -59 -205 -92 -74 -33 -139 -64 -144 -69 -6 -5 -16 -9 -24 -9
-19 0 -294 -136 -325 -160 -21 -17 -25 -26 -20 -55 4 -23 0 -43 -11 -59 -9
-14 -16 -28 -16 -31 0 -14 49 -2 80 19 46 31 127 43 155 22 20 -14 20 -15 -2
-38 -33 -35 -139 -69 -228 -72 -58 -3 -110 -24 -110 -46 0 -18 56 -39 108 -39
21 -1 57 -10 79 -21 23 -11 52 -20 64 -20 13 0 26 -4 29 -10 3 -5 17 -10 31
-10 17 0 24 -5 24 -20 0 -11 -6 -22 -12 -24 -87 -25 -113 -35 -116 -45 -2 -6
5 -11 17 -11 41 0 39 -49 -4 -68 -20 -9 -25 -19 -25 -46 0 -18 7 -39 15 -46
17 -14 17 -13 31 12 5 9 35 30 68 47 53 29 62 30 92 19 19 -7 34 -18 34 -25 0
-26 -33 -64 -66 -78 -28 -12 -34 -19 -34 -44 0 -35 -6 -38 -31 -15 -16 14 -18
14 -24 -5 -9 -30 -30 -26 -55 9 -12 16 -26 30 -31 30 -19 0 -21 -31 -3 -51 13
-15 15 -22 6 -31 -7 -7 -12 -23 -12 -36 0 -22 3 -24 28 -17 65 17 118 17 132
0 11 -13 9 -20 -13 -43 -35 -36 -34 -48 3 -61 47 -16 40 -49 -18 -86 l-47 -30
-5 -85 c-7 -104 -12 -114 -55 -106 -67 13 -58 -44 10 -62 75 -20 149 -15 205
13 27 14 58 25 70 25 29 0 85 -53 77 -74 -10 -26 -57 -40 -93 -27 -40 14 -126
14 -158 0 -19 -9 -24 -18 -23 -43 1 -17 -2 -41 -6 -53 -8 -22 -6 -23 52 -23
68 0 77 -12 39 -47 -41 -37 -85 -54 -125 -47 -36 5 -39 4 -50 -26 -10 -28 -10
-31 6 -28 9 2 34 -14 56 -35 36 -35 63 -46 79 -30 3 4 76 8 160 9 146 2 156 3
198 28 56 33 69 32 119 -1 40 -26 40 -26 92 -10 29 8 72 19 96 22 29 5 53 17
70 35 14 15 36 33 48 39 28 14 86 14 101 -1 17 -17 62 6 62 32 0 23 -29 27
-60 8 -15 -10 -23 -9 -40 7 -19 17 -19 20 -4 36 24 27 97 48 142 42 24 -3 57
1 84 10 23 9 66 18 93 21 28 4 68 13 90 21 25 9 80 14 148 15 99 0 112 2 166
30 l59 29 33 -22 c48 -33 59 -55 35 -73 -23 -17 -79 -18 -107 -3 -26 13 -157
-6 -179 -26 -9 -8 -26 -15 -38 -15 -12 0 -22 -4 -22 -10 0 -5 13 -10 29 -10
16 0 31 -4 33 -9 2 -6 28 -23 58 -39 62 -33 71 -55 40 -95 -22 -28 -72 -38
-85 -17 -8 13 -65 13 -65 0 0 -6 11 -15 25 -20 34 -13 32 -37 -5 -58 -17 -9
-29 -24 -27 -32 2 -12 19 -14 97 -12 63 3 100 9 111 18 8 7 29 17 46 20 57 11
136 -71 86 -90 -9 -4 -60 -4 -112 0 -77 5 -105 3 -141 -11 -25 -9 -55 -19 -67
-22 -35 -8 -28 -26 7 -19 22 4 30 2 30 -9 0 -28 -43 -39 -147 -39 -57 1 -103
-3 -103 -7 0 -10 34 -19 70 -18 307 0 313 0 331 -17 31 -28 24 -44 -16 -37
-23 4 -43 0 -59 -10 -13 -9 -48 -17 -77 -19 -44 -2 -56 -7 -65 -25 -6 -13 -18
-31 -27 -41 -24 -26 -21 -32 14 -32 17 0 40 -5 51 -11 16 -9 34 -8 73 1 49 12
54 11 83 -10 38 -28 45 -45 30 -69 -17 -28 -3 -55 25 -46 59 19 83 17 115 -10
40 -33 41 -53 2 -66 -22 -8 -30 -17 -30 -35 0 -13 4 -24 9 -24 18 0 21 -33 5
-51 -34 -38 4 -60 123 -72 46 -5 56 -3 88 23 27 21 54 31 108 39 78 12 149 25
212 40 165 40 239 51 326 51 92 0 98 1 134 30 21 17 42 30 47 30 18 0 64 -29
91 -58 26 -27 31 -29 62 -19 24 7 37 19 44 39 5 15 17 28 26 28 21 0 75 59 75
81 0 21 40 35 135 49 39 5 88 14 110 19 190 45 228 51 325 52 93 1 109 4 142
25 54 34 100 32 132 -7 14 -17 26 -36 26 -42 0 -6 12 -23 26 -38 17 -18 24
-34 20 -44 -10 -26 -40 -13 -46 20 -5 27 -9 31 -55 37 -28 3 -69 9 -91 13 -27
5 -44 3 -48 -4 -4 -6 -27 -11 -52 -11 -47 0 -59 -13 -21 -24 l22 -6 -27 -25
c-35 -31 -97 -39 -173 -24 -91 18 -201 17 -220 -2 -31 -31 2 -37 205 -39 107
-1 208 0 223 1 16 1 34 -4 40 -10 9 -10 5 -18 -18 -36 -22 -18 -44 -25 -90
-27 -45 -2 -60 -7 -60 -18 0 -8 7 -13 15 -11 8 2 49 7 90 10 41 3 81 10 89 15
7 5 54 10 104 12 64 3 114 11 170 30 64 21 84 24 103 15 44 -20 125 -13 173
14 53 31 66 31 108 3 65 -45 32 -89 -55 -73 -20 4 -59 7 -87 7 -47 -1 -53 -4
-91 -47 -40 -45 -44 -47 -110 -53 -51 -5 -69 -11 -69 -22 0 -25 99 -34 158
-14 45 15 124 13 150 -3 13 -8 -13 -33 -34 -33 -10 0 -24 -9 -31 -20 -11 -17
-24 -20 -80 -20 -65 0 -68 -1 -83 -30 -8 -16 -15 -31 -15 -35 0 -13 36 -3 57
17 23 21 23 21 23 1 0 -42 99 -47 156 -8 47 32 75 32 113 -1 64 -54 26 -85
-83 -67 -55 9 -111 3 -176 -20 -8 -3 -27 -8 -42 -11 -37 -8 -36 -26 2 -26 17
0 30 -5 30 -10 0 -24 -57 -32 -182 -25 -110 6 -128 5 -128 -8 0 -25 29 -30
222 -31 149 -2 194 -6 220 -18 18 -9 48 -22 66 -28 39 -15 40 -24 7 -46 -14
-9 -25 -23 -25 -30 0 -20 -11 -17 -42 11 -16 13 -28 34 -28 45 0 19 -6 16 -50
-21 -33 -28 -50 -50 -50 -65 0 -30 14 -38 41 -23 18 9 24 8 31 -5 13 -24 96
-21 128 4 16 12 41 20 67 20 47 0 79 25 90 70 8 33 82 99 111 100 25 0 29 -21
7 -40 -21 -17 -28 -49 -15 -65 10 -11 19 -10 57 11 53 28 76 30 93 9 15 -18
101 -20 118 -3 7 7 12 23 12 38 0 18 13 34 48 61 41 31 47 39 44 68 -2 32 -1
33 26 28 24 -5 35 0 58 24 16 17 48 42 71 56 41 23 46 24 93 12 58 -15 70 -8
49 29 -12 22 -22 27 -53 27 -81 0 -69 56 19 90 25 9 45 23 45 30 0 7 6 26 14
42 26 51 46 103 46 117 0 20 85 86 109 86 24 0 28 -22 6 -40 -17 -14 -20 -46
-6 -54 5 -3 31 5 58 19 26 13 60 27 76 31 24 6 27 4 27 -21 l0 -27 71 4 c79 4
103 21 69 50 -27 22 -26 25 19 47 43 22 55 42 52 84 -2 24 1 27 28 27 16 0 33
4 36 10 3 5 19 10 35 10 23 0 33 7 45 30 12 23 22 30 45 30 16 0 32 -4 35 -10
3 -5 30 -10 59 -10 52 0 54 1 60 31 10 54 8 59 -27 59 -30 0 -57 14 -57 30 0
7 78 26 135 33 17 3 59 12 95 20 209 50 250 57 340 57 85 0 99 3 132 25 48 33
80 32 120 -4 27 -25 31 -33 22 -48 -13 -22 -83 -30 -114 -13 -26 14 -156 -5
-181 -27 -8 -7 -26 -13 -38 -13 -14 0 -21 -5 -18 -12 2 -7 16 -12 31 -10 33 4
34 -11 1 -26 -36 -16 -124 -15 -174 3 -70 24 -197 -3 -164 -36 8 -8 80 -12
240 -14 125 -2 236 -6 246 -10 22 -9 22 -33 0 -57 -15 -17 -15 -19 3 -33 14
-11 33 -14 70 -10 40 5 54 2 64 -10 11 -14 24 -16 69 -10 30 4 60 9 68 12 19
7 16 40 -4 52 -15 8 -12 12 20 31 26 16 37 29 37 46 0 13 -4 24 -10 24 -17 0
-12 17 19 66 26 41 29 54 26 108 -1 33 -6 75 -10 91 -5 24 -2 35 14 49 12 11
21 25 21 33 0 7 6 24 14 36 23 36 29 103 15 173 l-13 65 28 23 28 22 -11 73
c-13 81 -10 91 23 91 26 0 56 28 56 53 0 9 10 17 23 19 19 3 22 10 25 56 3 52
3 53 -59 117 l-61 64 11 78 c6 43 16 110 21 148 6 39 13 118 15 178 l5 107
-60 44 c-112 83 -227 145 -381 205 -85 34 -181 74 -214 90 -79 38 -194 91
-225 103 -43 16 -392 162 -472 197 -26 12 -50 21 -53 21 -3 0 -30 11 -58 24
-29 13 -88 38 -132 55 -136 54 -194 86 -370 198 l-169 108 -149 170 c-82 94
-200 226 -262 295 -156 174 -312 359 -362 432 -42 61 -42 61 -49 32 -4 -15 -1
-66 6 -113 39 -264 32 -283 -139 -395 -65 -42 -128 -87 -140 -100 -22 -23 -22
-25 -4 -34 10 -5 43 -17 73 -27 62 -20 114 -44 108 -51 -3 -2 -53 10 -111 26
-155 43 -164 42 -309 -39 -141 -80 -198 -117 -198 -130 0 -4 30 -11 68 -15
106 -11 294 -59 346 -90 46 -27 60 -49 16 -26 -73 39 -265 84 -412 96 l-87 7
-95 -53 c-53 -29 -136 -84 -186 -122 -72 -54 -102 -71 -143 -78 -93 -17 -147
-32 -147 -40 0 -4 13 -13 30 -20 43 -18 98 -83 106 -125 3 -20 4 -54 1 -76
l-5 -40 31 24 c68 52 170 95 242 102 39 4 98 13 133 21 34 7 122 18 195 24 73
5 159 15 191 21 32 6 60 8 63 6 8 -8 -63 -139 -147 -273 -45 -71 -94 -148
-108 -172 -44 -71 -277 -414 -509 -749 -134 -193 -275 -406 -363 -547 -131
-211 -365 -583 -466 -743 -104 -164 -122 -156 -175 82 -28 126 -67 311 -90
425 -11 58 -29 145 -40 194 -47 215 -63 346 -79 616 -5 96 -15 231 -20 300
-26 310 -19 1237 10 1305 l13 30 7 -30 c17 -69 30 -159 46 -300 9 -82 22 -159
29 -170 20 -31 156 -95 227 -106 35 -5 73 -11 85 -14 29 -7 53 -53 53 -100 0
-35 26 -95 41 -95 6 0 61 -46 202 -172 38 -33 72 -57 76 -52 43 49 103 136
116 167 23 56 7 103 -61 176 -64 69 -136 120 -225 158 -78 32 -97 48 -49 39
59 -10 192 -82 250 -134 30 -28 73 -75 95 -106 22 -31 45 -58 52 -60 7 -3 39
13 71 35 86 57 108 115 81 214 -27 96 -160 162 -305 150 -43 -4 -111 -16 -150
-26 -81 -22 -111 -16 -133 25 -8 14 -31 34 -53 45 l-38 19 32 6 c72 13 236 38
284 43 55 6 372 -42 389 -58 16 -16 27 -10 22 14 -3 12 -8 54 -11 92 l-5 70
13 -50 c8 -27 14 -42 15 -33 2 28 -20 119 -28 114 -3 -2 -7 14 -7 37 0 23 -3
51 -6 62 -21 74 -58 286 -58 336 l0 59 68 34 c38 19 98 42 133 51 149 39 465
186 672 313 124 76 172 112 151 112 -5 0 -43 -21 -83 -46 -81 -50 -108 -50
-46 1 22 18 45 38 50 45 6 6 25 26 43 44 26 25 34 42 39 84 5 48 9 54 38 66
17 8 54 30 82 50 28 20 57 36 65 36 8 0 20 6 27 13 11 10 13 9 7 -6 -33 -94
-9 -86 33 11 18 42 44 101 57 130 13 29 24 56 24 61 0 9 35 96 50 123 6 11 6
19 0 23 -6 3 -10 0 -10 -8 0 -20 -48 -50 -67 -43 -8 3 -17 15 -20 26 -3 12
-11 18 -17 15 -6 -3 -18 -7 -26 -11 -8 -3 -37 -39 -63 -80 -28 -43 -55 -74
-65 -74 -9 0 -39 -13 -67 -28 -45 -24 -52 -33 -68 -82 -9 -30 -19 -90 -22
-132 -5 -106 -36 -161 -79 -145 -26 10 -22 41 25 193 17 58 3 204 -21 219 -18
11 -40 -9 -45 -43 -14 -93 -27 -156 -35 -171 -21 -43 -40 -93 -40 -106 0 -8 9
-15 20 -15 15 0 20 -7 20 -26 0 -36 -18 -64 -41 -64 -39 0 -80 -32 -133 -103
-30 -40 -69 -86 -87 -104 -34 -32 -35 -32 -98 -23 -37 5 -77 18 -92 29 -23 17
-37 19 -96 14 -53 -4 -83 -1 -124 12 -59 20 -152 24 -311 12 -85 -6 -108 -4
-194 18 -171 45 -262 121 -279 233 -9 63 -19 79 -62 100 -47 22 -51 37 -11 37
39 0 50 19 14 23 -19 2 -25 9 -23 24 1 16 -6 23 -32 30 -25 7 -31 12 -22 21 6
6 11 15 11 19 0 13 -18 9 -35 -9 -14 -14 -18 -14 -26 -2 -5 8 -9 29 -9 47 0
37 -9 40 -34 13 -9 -10 -32 -22 -49 -25 -18 -4 -44 -9 -59 -12 -15 -4 -30 -15
-33 -25 -8 -23 -31 -25 -39 -3 -15 38 -6 83 20 103 38 30 59 27 70 -11 12 -42
26 -44 46 -10 14 23 18 58 19 173 2 214 -32 332 -121 421 l-42 43 6 71 7 72
-42 35 c-29 26 -54 37 -90 42 -57 8 -75 22 -102 85 -11 25 -48 78 -83 118 -35
40 -71 86 -79 103 -17 32 -50 41 -41 12z m2351 -1673 c-3 -5 -11 -10 -16 -10
-6 0 -7 5 -4 10 3 6 11 10 16 10 6 0 7 -4 4 -10z m-1426 -458 c11 -20 34 -50
51 -67 18 -16 58 -82 91 -145 32 -63 74 -143 93 -177 l34 -63 35 53 c19 28 40
63 47 77 7 14 37 61 65 105 29 44 58 99 64 122 17 62 29 61 36 -4 8 -69 42
-280 55 -343 13 -60 32 -242 26 -248 -5 -5 -123 11 -246 33 -92 17 -104 16
-334 -21 -82 -13 -152 -22 -154 -19 -7 7 31 310 68 541 11 67 20 137 20 156 0
60 18 60 49 0z m4701 -2376 c0 -3 -4 -8 -10 -11 -5 -3 -10 -1 -10 4 0 6 5 11
10 11 6 0 10 -2 10 -4z m-7154 -98 c9 -15 -27 -41 -39 -29 -13 13 -1 41 17 41
8 0 18 -5 22 -12z m1479 -73 c0 -5 -10 -11 -22 -13 -16 -2 -23 2 -23 13 0 11
7 15 23 13 12 -2 22 -7 22 -13z m-1200 -305 c0 -9 -11 -16 -27 -18 -30 -4 -36
6 -16 26 16 16 43 11 43 -8z m6415 -85 c0 -19 -24 -29 -46 -21 -13 5 -14 9 -4
21 16 20 50 19 50 0z m-5150 -5 c0 -5 -4 -10 -10 -10 -5 0 -10 5 -10 10 0 6 5
10 10 10 6 0 10 -4 10 -10z m5366 -264 c9 -24 -15 -56 -41 -56 -37 0 -42 20
-11 47 31 27 44 29 52 9z m-3247 -60 c10 -12 8 -17 -7 -25 -25 -13 -49 8 -30
27 16 16 23 15 37 -2z m-2289 -124 c0 -13 -12 -22 -22 -16 -10 6 -1 24 13 24
5 0 9 -4 9 -8z m4250 -16 c0 -31 -13 -46 -40 -46 -40 0 -45 15 -14 39 31 24
54 27 54 7z m-1435 -76 c0 -8 -10 -16 -22 -18 -22 -3 -32 16 -16 32 12 11 38
2 38 -14z m-1588 -47 c4 -12 -34 -29 -44 -19 -3 3 -3 12 1 21 7 18 37 17 43
-2z m-772 -169 c0 -12 -8 -20 -22 -22 -17 -3 -23 2 -23 16 0 20 16 33 35 28 6
-2 10 -11 10 -22z m2950 -334 c12 -20 -15 -50 -45 -50 -34 0 -38 14 -13 42 17
19 48 24 58 8z m100 -20 c-3 -5 -13 -10 -21 -10 -8 0 -14 5 -14 10 0 6 9 10
21 10 11 0 17 -4 14 -10z"/>
<path d="M5083 6381 c-34 -46 -38 -58 -25 -79 6 -9 16 -4 36 17 22 23 27 36
24 67 l-3 39 -32 -44z"/>
<path d="M3836 6328 c-6 -34 -3 -47 14 -68 11 -14 31 -41 43 -60 l22 -35 3 28
c2 17 -9 54 -27 92 -17 35 -31 69 -31 74 0 6 -4 11 -9 11 -5 0 -11 -19 -15
-42z"/>
<path d="M3027 6304 c-103 -61 -104 -76 -6 -178 l71 -75 -26 -73 c-20 -59 -46
-175 -46 -210 0 -5 -4 -8 -10 -8 -5 0 -10 11 -10 24 0 22 -19 49 -20 29 -1 -4
-11 -21 -24 -37 l-24 -29 5 49 c3 27 9 64 15 82 17 55 2 47 -26 -13 -24 -52
-51 -90 -66 -90 -4 0 -15 -8 -25 -19 -19 -18 -19 -18 -28 8 -16 48 -29 32 -53
-64 l-14 -55 5 67 c3 37 8 76 12 85 4 13 3 15 -5 8 -6 -6 -24 -48 -40 -95 -16
-47 -35 -100 -43 -118 -38 -90 101 -126 240 -62 36 17 110 41 164 55 91 23
111 24 265 20 175 -6 282 -16 421 -41 99 -18 202 -20 232 -3 20 10 21 17 17
94 -3 45 -11 91 -17 101 -9 17 -10 17 -11 -6 l-1 -25 -24 30 c-14 17 -25 24
-25 16 0 -10 -11 -5 -30 14 -26 25 -30 26 -30 9 0 -16 -2 -17 -10 -4 -5 8 -10
25 -10 38 0 12 -4 22 -10 22 -5 0 -10 -22 -10 -50 0 -59 -15 -66 -25 -12 -9
53 -24 76 -26 37 -1 -27 -2 -26 -15 15 l-14 45 4 -58 c2 -53 -5 -79 -18 -59
-3 5 -13 44 -21 88 -9 43 -24 95 -32 114 -13 31 -16 33 -23 15 -4 -11 -1 -45
6 -75 16 -65 18 -130 5 -130 -5 0 -12 8 -14 18 -3 10 -5 5 -7 -13 l-2 -30 -13
30 c-8 17 -15 41 -16 55 -1 20 -3 18 -8 -10 -6 -34 -7 -34 -19 -12 -7 12 -26
72 -42 134 -23 86 -27 114 -17 120 8 6 2 15 -20 34 -18 14 -33 30 -33 35 0 15
117 10 160 -7 50 -20 79 -13 124 30 74 70 29 124 -92 112 -36 -4 -77 -13 -91
-21 -23 -11 -36 -11 -86 1 -33 7 -76 14 -95 14 -48 1 -141 23 -225 54 -38 14
-70 26 -70 26 0 0 -35 -21 -78 -46z m162 -283 c12 -8 11 -21 -3 -90 -9 -45
-16 -91 -16 -104 0 -12 -5 -29 -11 -37 -8 -12 -10 -10 -8 10 3 51 -2 54 -26
15 l-24 -40 -1 49 c0 48 23 154 41 188 11 20 26 23 48 9z m156 -46 c19 -37 24
-40 58 -38 46 2 55 -12 74 -122 13 -74 13 -81 -4 -93 -30 -22 -165 2 -199 35
-13 13 -15 29 -10 82 3 43 2 57 -3 41 -5 -14 -9 -37 -10 -52 -1 -16 -6 -28
-11 -28 -6 0 -15 -11 -22 -25 -18 -39 -31 -18 -23 39 9 68 36 166 46 166 5 0
6 -7 3 -15 -11 -27 4 -16 25 21 27 45 48 42 76 -11z m169 -38 c35 -169 26
-205 -16 -65 -28 94 -33 129 -22 141 14 13 23 -6 38 -76z m-428 -50 c-12 -59
-28 -113 -34 -119 -28 -28 -5 88 43 221 15 39 11 -6 -9 -102z"/>
<path d="M2898 6318 c-17 -31 -48 -131 -43 -137 9 -8 48 34 61 66 16 37 18 93
4 93 -5 0 -15 -10 -22 -22z"/>
<path d="M5104 6228 c-9 -29 -19 -96 -21 -149 l-5 -96 -54 -33 c-33 -20 -62
-30 -74 -27 -30 8 -71 -54 -104 -156 -15 -49 -25 -91 -22 -94 3 -3 24 33 48
81 30 61 48 86 61 86 29 0 115 48 133 75 16 24 55 201 68 308 9 73 -7 76 -30
5z"/>
<path d="M4930 6235 c0 -17 56 -55 83 -55 28 0 19 29 -15 50 -39 24 -68 26
-68 5z"/>
<path d="M4773 5624 c-7 -12 -8 -26 -3 -34 13 -21 22 -7 18 27 -3 27 -4 27
-15 7z"/>
<path d="M3196 5515 c-15 -16 -15 -19 -1 -34 15 -18 21 -52 8 -49 -17 4 -122
-34 -133 -47 -7 -8 -10 -24 -7 -35 4 -16 -1 -23 -20 -31 -39 -14 -22 -32 43
-46 206 -42 449 -17 470 49 6 20 -40 143 -63 169 -10 12 -39 18 -111 23 -53 3
-113 8 -133 12 -26 4 -40 1 -53 -11z"/>
<path d="M2765 3211 c-3 -6 -10 -55 -14 -109 -10 -130 -35 -183 -151 -316 -50
-58 -95 -108 -101 -111 -26 -17 -102 -213 -114 -299 -7 -45 12 -148 60 -326
14 -52 33 -128 43 -167 9 -40 20 -73 23 -73 4 0 10 11 13 25 9 37 127 157 183
188 27 14 92 38 144 53 119 34 152 51 219 111 70 63 170 189 170 215 0 25 -59
137 -106 201 -42 58 -50 55 -99 -42 -45 -89 -73 -113 -195 -164 -214 -90 -272
-131 -321 -226 -29 -57 -38 -35 -9 24 42 86 155 165 337 234 45 18 94 42 109
53 15 12 45 60 67 106 33 71 39 92 35 132 -6 63 -40 110 -78 110 -32 0 -134
-42 -160 -65 -9 -8 -49 -31 -90 -51 -147 -73 -255 -216 -297 -395 -16 -67 -18
-71 -21 -36 -7 86 56 228 144 326 92 101 205 172 358 227 70 25 80 31 94 63
34 83 34 85 -17 133 -38 37 -123 110 -203 176 -11 9 -18 10 -23 3z"/>
<path d="M3245 2311 c-16 -9 -72 -57 -124 -108 -106 -103 -159 -133 -275 -157
-106 -22 -166 -57 -240 -141 -101 -115 -97 -98 -64 -265 16 -80 35 -151 42
-158 16 -16 39 -3 196 104 152 105 143 94 381 448 129 192 140 213 135 245 -7
46 -15 51 -51 32z"/>
<path d="M1400 1605 c-10 -11 -10 -18 -1 -29 17 -21 65 -5 69 22 3 18 -1 22
-26 22 -16 0 -35 -7 -42 -15z"/>
<path d="M1657 1601 c-59 -7 -66 -25 -12 -29 28 -1 48 4 65 18 26 21 26 21
-53 11z"/>
<path d="M2765 1548 c-147 -102 -165 -118 -165 -146 0 -40 25 -117 38 -117 6
0 34 33 62 73 27 39 73 104 100 144 28 39 50 75 50 80 0 17 -27 6 -85 -34z"/>
<path d="M879 1394 c-11 -14 -9 -15 21 -12 18 2 35 9 38 16 6 18 -43 15 -59
-4z"/>
<path d="M637 1374 c-13 -13 -7 -42 9 -48 47 -18 192 13 202 43 4 11 -3 12
-34 6 -48 -10 -122 -11 -149 -1 -11 4 -24 4 -28 0z"/>
<path d="M1591 916 l-22 -24 26 -6 c22 -6 26 -11 22 -32 -4 -25 -4 -25 52 -18
31 3 58 8 60 10 2 2 0 15 -3 29 -16 64 -92 87 -135 41z"/>
<path d="M3880 930 c0 -5 11 -10 25 -10 14 0 25 5 25 10 0 6 -11 10 -25 10
-14 0 -25 -4 -25 -10z"/>
<path d="M3405 824 c-20 -20 -5 -34 38 -34 32 0 34 10 9 33 -23 21 -27 21 -47
1z"/>
<path d="M3680 775 c0 -16 30 -35 54 -35 22 0 20 27 -3 40 -28 14 -51 12 -51
-5z"/>
<path d="M2982 708 c-20 -20 -14 -28 22 -28 50 0 69 9 55 26 -14 17 -61 18
-77 2z"/>
<path d="M2822 664 c9 -9 21 -13 27 -10 20 13 11 26 -16 26 -25 0 -26 -1 -11
-16z"/>
<path d="M4224 669 c-9 -16 18 -30 33 -17 7 6 13 14 13 19 0 13 -38 11 -46 -2z"/>
<path d="M2565 643 c-34 -9 -47 -24 -34 -39 16 -19 139 -19 165 0 18 14 17 15
-18 30 -37 16 -73 18 -113 9z"/>
<path d="M3456 620 c-13 -17 -31 -30 -38 -30 -20 0 -59 -30 -53 -41 4 -5 38
-9 76 -9 65 0 74 3 109 33 46 38 49 47 15 47 -15 0 -39 7 -55 15 -27 14 -29
14 -54 -15z"/>
<path d="M3878 644 c-4 -3 -4 -12 -1 -20 6 -17 108 -20 118 -3 4 6 5 12 4 13
-9 7 -115 16 -121 10z"/>
<path d="M3010 550 c0 -5 9 -10 19 -10 11 0 23 5 26 10 4 6 -5 10 -19 10 -14
0 -26 -4 -26 -10z"/>
<path d="M2612 529 c2 -7 10 -15 17 -17 8 -3 12 1 9 9 -2 7 -10 15 -17 17 -8
3 -12 -1 -9 -9z"/>
<path d="M2475 460 c-8 -13 35 -13 55 0 11 7 7 10 -17 10 -17 0 -35 -4 -38
-10z"/>
<path d="M4204 249 c-8 -14 5 -26 39 -34 20 -5 27 -3 27 7 0 31 -50 52 -66 27z"/>
<path d="M4420 209 c0 -14 5 -19 17 -17 26 5 29 38 4 38 -15 0 -21 -6 -21 -21z"/>
<path d="M4295 120 c-3 -5 1 -10 9 -10 8 0 18 5 21 10 3 6 -1 10 -9 10 -8 0
-18 -4 -21 -10z"/>
<path d="M4204 95 c-18 -15 -18 -15 10 -13 16 2 31 9 34 16 5 17 -20 15 -44
-3z"/>
<path d="M4642 43 c2 -13 14 -19 41 -21 33 -3 38 -1 35 15 -2 13 -14 19 -41
21 -33 3 -38 1 -35 -15z"/>
</g>

<!-- Orijinal siyah çizimler -->
<g transform="translate(0.000000,1080.000000) scale(0.100000,-0.100000)"
 fill="none" stroke="black" stroke-width="10">
<path d="M3225 10780 c-33 -11 -68 -20 -78 -20 -26 0 -103 -42 -182 -99 -40
-29 -84 -53 -105 -56 -19 -3 -57 -10 -85 -14 -27 -5 -93 -17 -145 -26 -180
-31 -197 -36 -249 -68 -354 -219 -716 -450 -756 -484 -27 -23 -116 -89 -197
-148 -81 -58 -150 -110 -154 -116 -3 -6 -32 -29 -64 -52 -31 -23 -114 -96
-183 -162 l-125 -120 -6 -65 c-3 -36 -5 -121 -3 -190 2 -115 5 -130 31 -184
... (Tüm path verisi aynen devam edecek) ..."/>
</g>

</svg>