<?xml version="1.0" standalone="no"?>
<!DOCTYPE svg PUBLIC "-//W3C//DTD SVG 20010904//EN"
 "http://www.w3.org/TR/2001/REC-SVG-20010904/DTD/svg10.dtd">
<svg version="1.0" xmlns="http://www.w3.org/2000/svg"
 width="1000.000000pt" height="1000.000000pt" viewBox="0 0 1000.000000 1000.000000"
 preserveAspectRatio="xMidYMid meet">

<g transform="translate(0.000000,1000.000000) scale(0.100000,-0.100000)"
fill="#000000" stroke="none">
<path d="M4535 8863 c-78 -24 -112 -40 -169 -83 -29 -22 -64 -40 -77 -40 -13
0 -40 -4 -59 -9 -19 -5 -69 -14 -110 -20 -123 -20 -140 -27 -275 -112 -72 -45
-191 -120 -265 -167 -74 -47 -164 -108 -200 -137 -36 -29 -101 -78 -145 -109
-111 -79 -166 -125 -267 -223 l-88 -84 0 -127 c0 -105 4 -135 20 -171 11 -23
24 -71 30 -105 6 -33 17 -83 25 -111 103 -353 251 -795 310 -926 26 -57 67
-147 91 -198 25 -52 42 -101 40 -108 -3 -7 12 -20 39 -32 71 -31 95 -62 95
-118 l0 -48 -48 51 c-55 59 -138 112 -153 97 -12 -12 3 -77 38 -175 24 -66 43
-88 43 -50 0 26 37 62 63 62 28 0 67 -26 67 -46 0 -8 -16 -31 -36 -50 -35 -36
-35 -36 -29 -103 7 -70 26 -111 50 -111 19 0 19 31 0 76 -18 44 -13 70 30 149
17 33 30 66 27 73 -2 7 2 27 8 45 7 17 16 73 20 122 8 100 26 144 85 213 43
49 61 53 70 13 3 -16 12 -35 19 -40 14 -12 46 -5 46 10 0 15 72 89 100 104 73
38 410 1 410 -45 0 -5 -13 -5 -32 1 -49 14 -147 11 -229 -6 -85 -18 -199 -71
-213 -100 -6 -11 -18 -32 -28 -47 -27 -41 -23 -52 15 -43 17 4 51 6 74 6 33
-2 45 3 57 21 9 12 16 30 16 40 0 15 35 48 51 48 4 0 22 -12 39 -27 30 -25 39
-27 188 -35 86 -4 170 -13 185 -20 17 -6 32 -7 37 -2 11 11 13 113 4 206 -6
67 -6 68 -59 113 -79 68 -90 68 -341 9 -63 -15 -169 -18 -223 -8 -45 9 -40 34
20 91 62 60 78 68 159 84 36 6 97 25 137 41 84 33 200 48 385 48 70 0 139 5
155 11 15 6 115 12 222 14 187 2 196 2 245 -21 28 -13 60 -24 71 -24 56 -1
274 -139 301 -191 7 -15 27 -40 44 -55 17 -16 53 -61 79 -100 53 -77 57 -95
71 -276 9 -119 24 -154 54 -128 11 9 16 31 16 74 l0 62 80 69 c75 66 94 95 69
110 -10 7 -6 53 11 125 5 19 14 56 19 83 6 26 15 66 21 90 5 23 19 85 30 137
12 52 28 123 36 158 34 144 63 352 64 452 0 74 10 202 35 455 7 72 24 174 39
229 14 54 26 102 26 106 0 14 -151 110 -190 120 -24 6 -47 22 -60 39 -12 17
-37 35 -63 43 -33 10 -46 21 -60 51 -12 24 -33 45 -58 57 -21 11 -50 37 -63
58 -35 55 -45 62 -241 160 -99 50 -213 115 -252 145 -55 41 -84 56 -120 61
-25 3 -48 4 -51 2 -2 -3 15 -14 38 -26 23 -12 68 -46 101 -76 32 -30 66 -54
74 -54 17 0 97 -31 93 -36 -7 -7 -146 36 -195 60 -96 47 -124 50 -345 32 -273
-21 -352 -24 -423 -16 l-60 7 62 2 c48 1 70 7 99 26 47 32 177 72 269 84 61 7
50 9 -85 9 -110 0 -169 -4 -205 -15z m-305 -2553 c13 -9 13 -10 0 -9 -8 0 -24
4 -35 9 l-20 9 20 0 c11 0 27 -4 35 -9z m-32 -36 c40 -11 23 -24 -33 -24 -30
0 -55 4 -55 9 0 18 46 26 88 15z m86 -43 c3 -5 -4 -11 -17 -15 -35 -9 -40 -7
-27 9 14 17 36 20 44 6z"/>
<path d="M4900 8870 c0 -5 -17 -14 -37 -19 -21 -6 -83 -22 -138 -37 -55 -15
-104 -31 -110 -37 -11 -10 180 -3 345 14 89 9 132 5 210 -16 22 -7 20 -4 -10
19 -19 15 -78 40 -131 56 -102 32 -129 36 -129 20z"/>
<path d="M5097 6524 c-3 -3 -43 -6 -89 -5 -77 1 -87 -1 -136 -31 -44 -28 -51
-37 -47 -57 4 -13 -1 -34 -10 -48 -16 -23 -16 -26 4 -47 16 -17 21 -35 21 -79
l0 -57 43 6 c35 5 45 3 50 -10 8 -21 36 -20 60 2 12 10 43 19 81 23 l61 5 -32
13 c-39 15 -41 24 -11 45 35 25 55 19 75 -21 l18 -38 71 3 c50 3 80 -1 100
-11 29 -15 95 -25 103 -17 2 3 -1 21 -8 42 -19 59 -99 107 -197 119 -85 11
-97 15 -68 24 10 4 42 17 69 30 81 38 97 39 153 11 28 -14 58 -26 67 -26 22 0
20 49 -2 56 -10 3 -31 12 -48 20 -57 27 -163 45 -201 35 -26 -7 -44 -6 -69 5
-38 15 -49 17 -58 8z m160 -220 c13 -4 20 -10 17 -15 -11 -18 -84 -7 -84 12 0
10 34 12 67 3z"/>
<path d="M5982 6174 c-73 -36 -123 -100 -93 -119 11 -6 35 -70 52 -135 9 -38
12 -42 21 -26 9 16 61 195 82 279 8 33 3 34 -62 1z"/>
<path d="M5255 6154 l-30 -13 38 -1 c20 0 37 4 37 9 0 17 -14 19 -45 5z"/>
<path d="M4105 6120 c-16 -4 -51 -8 -77 -9 -29 -1 -48 -6 -48 -13 0 -8 30 -9
111 -4 116 7 146 14 113 27 -24 9 -60 9 -99 -1z"/>
<path d="M5850 5880 c0 -5 9 -24 19 -41 l20 -32 7 26 c4 17 1 33 -6 42 -14 17
-40 20 -40 5z"/>
<path d="M3604 5711 l7 -139 -46 -38 c-44 -37 -52 -55 -39 -88 5 -13 12 -11
42 14 20 17 42 30 48 30 7 0 14 -28 18 -67 7 -65 6 -69 -20 -89 -26 -21 -26
-44 0 -44 7 0 21 9 31 20 26 29 33 25 45 -22 6 -24 31 -107 56 -185 42 -135
58 -174 134 -338 20 -43 32 -84 31 -106 0 -21 5 -42 13 -49 8 -6 17 -24 21
-40 10 -47 70 -104 170 -165 92 -56 95 -59 95 -94 -1 -38 -56 -430 -61 -436
-7 -6 -152 164 -199 232 l-45 65 -6 116 c-3 65 -6 107 -7 95 -1 -12 -55 -81
-119 -154 -145 -162 -147 -165 -148 -208 0 -32 -6 -40 -65 -80 -326 -223 -308
-212 -424 -248 -61 -19 -129 -40 -151 -47 -87 -28 -605 -268 -641 -297 -6 -5
-9 -20 -7 -33 3 -13 0 -33 -6 -44 -15 -29 0 -34 36 -13 43 27 107 36 121 18
10 -11 9 -17 -4 -28 -23 -19 -81 -38 -139 -45 -104 -12 -134 -41 -59 -57 32
-7 130 -34 193 -53 22 -7 -4 -29 -51 -44 -42 -12 -43 -13 -21 -27 23 -15 21
-43 -3 -43 -19 0 -29 -47 -13 -66 11 -13 14 -13 21 -1 9 16 81 57 101 57 7 0
22 -6 32 -14 19 -13 18 -16 -20 -51 -22 -20 -40 -41 -40 -48 0 -7 -9 -11 -20
-10 -11 1 -23 -4 -28 -10 -5 -9 -13 -5 -26 11 -11 12 -24 22 -30 22 -14 0 -14
-6 0 -31 7 -14 7 -24 0 -32 -17 -21 3 -41 27 -28 30 16 72 14 79 -4 3 -9 -3
-25 -13 -37 -12 -13 -15 -22 -8 -25 6 -2 20 -10 30 -18 18 -14 17 -17 -23 -52
-40 -36 -43 -41 -45 -98 -3 -59 -3 -60 -32 -60 -16 0 -31 -4 -32 -10 -8 -24
16 -37 77 -42 50 -4 74 -1 111 16 l48 20 27 -23 c17 -15 24 -29 20 -40 -6 -14
-17 -16 -84 -11 -43 4 -83 2 -89 -2 -6 -4 -14 -25 -17 -45 l-6 -38 40 0 c27 0
39 -4 39 -14 0 -23 -55 -56 -93 -56 -23 0 -37 -6 -41 -16 -8 -21 -8 -24 5 -24
6 0 22 -10 34 -22 22 -21 31 -22 152 -19 109 2 134 6 166 24 l39 22 36 -22
c37 -21 38 -21 108 -3 46 11 79 26 97 44 28 28 74 35 95 14 8 -8 15 -8 27 2
27 23 18 40 -21 37 -21 -1 -39 3 -41 10 -6 18 34 35 106 44 107 14 164 25 194
38 16 6 65 11 110 11 65 0 88 4 112 20 39 26 47 25 79 -5 24 -22 26 -28 15
-41 -10 -12 -23 -14 -54 -9 -61 10 -113 6 -155 -12 l-38 -17 57 -29 c71 -37
74 -40 66 -67 -9 -28 -51 -48 -67 -32 -13 13 -48 17 -48 6 0 -4 7 -12 16 -18
18 -13 9 -46 -12 -46 -8 0 -14 -7 -14 -15 0 -21 118 -21 146 0 27 21 67 18 93
-6 17 -16 20 -24 10 -35 -9 -11 -28 -13 -88 -8 -64 5 -83 3 -121 -15 -34 -16
-39 -21 -22 -21 38 0 20 -24 -24 -32 -21 -4 -58 -5 -81 -1 -26 3 -43 1 -43 -5
0 -17 21 -19 143 -17 102 2 120 0 140 -16 l22 -18 -37 -1 c-20 0 -40 -5 -43
-10 -3 -6 -23 -10 -43 -10 -42 0 -52 -6 -69 -37 -25 -44 -22 -45 82 -43 28 0
60 -5 73 -11 19 -11 21 -18 16 -47 l-7 -34 44 7 c37 5 48 3 67 -15 22 -21 29
-40 14 -40 -5 0 -16 -6 -26 -13 -16 -12 -17 -16 -5 -34 10 -17 10 -24 0 -37
-20 -24 -6 -33 65 -45 63 -11 68 -11 89 9 17 16 47 26 107 35 46 6 101 17 123
23 85 23 149 32 219 32 62 0 79 4 110 25 34 23 39 24 65 11 15 -8 33 -22 40
-30 19 -23 37 -20 71 14 17 16 35 30 39 30 5 0 16 15 25 34 14 31 22 36 64 41
26 3 74 12 107 20 172 39 220 47 265 43 37 -4 57 0 80 13 62 38 95 20 146 -79
9 -17 -1 -26 -21 -19 -8 4 -15 15 -15 26 0 15 -9 20 -47 25 -60 7 -59 7 -110
0 -42 -6 -55 -18 -30 -27 9 -3 9 -7 0 -17 -18 -20 -74 -27 -133 -16 -72 13
-127 11 -146 -5 -28 -23 7 -29 169 -28 87 1 161 -2 165 -6 14 -14 -40 -45 -79
-45 -21 0 -41 -4 -44 -10 -6 -10 103 -4 135 7 8 3 48 7 89 9 40 3 95 13 121
23 29 11 53 15 62 10 24 -16 92 -9 134 12 39 21 41 21 67 4 54 -35 14 -79 -49
-55 -40 16 -85 3 -115 -32 -21 -25 -35 -32 -77 -36 -35 -3 -52 -9 -52 -18 0
-17 84 -19 124 -5 32 13 96 2 96 -15 0 -8 -9 -14 -20 -14 -11 0 -23 -7 -26
-15 -4 -10 -21 -15 -55 -15 -38 0 -51 -4 -59 -19 -5 -11 -10 -22 -10 -25 0
-12 24 -6 42 11 17 15 18 15 18 0 0 -10 8 -18 18 -19 9 0 24 -2 32 -3 8 0 34
8 58 19 40 19 44 19 70 4 15 -9 27 -25 27 -35 0 -16 -9 -18 -75 -18 -73 0
-170 -21 -170 -37 0 -4 10 -8 22 -8 18 0 20 -2 9 -12 -8 -9 -42 -12 -108 -11
-53 1 -100 0 -105 -4 -25 -15 27 -23 148 -23 112 0 139 -3 180 -21 27 -12 50
-23 52 -24 2 -2 -8 -15 -21 -29 l-25 -27 -25 30 -24 29 -32 -28 c-39 -36 -42
-64 -6 -58 14 3 28 1 31 -3 8 -14 68 -10 90 5 11 8 36 16 55 18 27 2 37 10 51
37 20 41 65 80 92 81 17 0 17 -1 2 -25 -18 -28 -21 -55 -6 -55 6 0 25 7 42 16
24 12 36 14 55 5 51 -23 103 -8 103 29 0 9 14 26 30 38 20 15 30 31 30 48 0
20 4 24 18 20 12 -4 26 1 37 14 39 43 80 61 126 54 38 -6 42 -5 36 10 -4 10
-7 20 -7 22 0 2 -16 4 -36 4 -31 0 -35 3 -32 22 2 15 16 29 37 39 34 16 40 24
70 108 10 26 32 57 53 74 42 34 66 29 42 -8 -24 -37 -9 -48 36 -25 47 24 80
26 80 5 0 -11 11 -15 43 -15 56 0 76 12 57 35 -12 15 -10 20 18 42 19 14 32
34 32 47 0 18 9 24 49 35 34 8 51 18 54 32 5 20 41 26 52 9 3 -5 23 -10 44
-10 34 0 39 3 44 27 7 35 2 43 -29 43 -40 0 -29 28 14 35 20 3 57 10 82 16 25
7 68 15 95 19 28 5 63 13 78 19 16 6 63 11 105 11 52 1 83 5 96 15 28 21 70
19 91 -5 35 -39 -7 -64 -68 -41 -25 10 -114 -4 -131 -20 -6 -5 -18 -9 -29 -9
-10 0 -15 -5 -12 -11 4 -6 14 -8 22 -5 9 4 13 1 11 -6 -6 -18 -56 -25 -103
-15 -50 12 -92 13 -128 3 -24 -6 -27 -9 -16 -22 10 -12 40 -15 176 -13 175 2
194 -2 173 -41 -16 -29 2 -43 47 -36 18 3 35 0 38 -5 8 -11 85 -12 104 0 8 5
11 16 7 29 -5 15 -1 24 15 32 17 10 20 18 15 42 -4 22 0 37 14 56 18 22 20 35
15 92 -5 57 -2 72 20 115 25 51 32 119 15 160 -6 15 -2 27 16 45 20 22 22 30
14 65 -14 58 -13 59 20 72 17 6 30 18 30 26 0 8 9 17 20 20 16 4 20 14 20 43
0 32 -8 46 -45 84 l-44 45 15 95 c8 52 17 134 20 181 l6 86 -35 29 c-63 52
-169 110 -287 157 -63 25 -155 65 -205 88 -49 23 -133 59 -185 81 -309 128
-394 163 -470 195 -47 19 -101 45 -120 57 -19 13 -81 53 -136 89 -90 58 -116
82 -230 213 -71 82 -156 178 -189 214 -33 36 -97 111 -142 165 -46 55 -92 111
-104 125 l-20 25 5 -70 c3 -38 8 -97 12 -131 9 -85 -7 -112 -110 -179 -45 -30
-90 -63 -100 -74 -18 -20 -17 -21 113 -67 8 -2 12 -7 9 -9 -2 -3 -37 4 -76 15
-108 30 -123 28 -246 -43 -119 -68 -137 -87 -84 -87 46 -1 201 -36 243 -56 56
-26 52 -36 -6 -14 -66 26 -283 64 -318 55 -33 -8 -162 -86 -224 -136 -34 -26
-63 -40 -95 -45 -26 -4 -58 -11 -71 -16 l-25 -9 30 -18 c49 -30 67 -58 72
-110 l4 -49 57 34 c31 19 81 38 111 43 129 22 190 30 270 36 47 3 102 10 122
14 20 5 39 6 42 4 13 -13 -168 -310 -353 -578 -357 -520 -385 -562 -678 -1033
-121 -193 -159 -247 -174 -250 -12 -2 -22 10 -32 40 -18 50 -61 233 -77 328
-6 36 -15 81 -20 100 -5 19 -18 85 -30 145 -11 61 -25 133 -30 160 -5 28 -15
133 -21 235 -6 102 -14 226 -17 275 -8 105 -5 800 3 863 4 23 10 42 14 42 9 0
26 -94 41 -230 6 -52 13 -102 15 -111 8 -24 116 -77 175 -85 65 -9 90 -31 90
-80 0 -40 16 -58 143 -161 37 -30 67 -59 67 -64 0 -43 100 86 107 138 9 68
-71 152 -202 214 -36 17 -52 28 -39 29 47 1 144 -61 211 -136 37 -41 75 -74
83 -74 9 0 36 17 59 37 l43 36 -4 63 c-5 73 -21 97 -86 125 -55 24 -168 25
-241 3 -48 -14 -55 -14 -77 1 -13 8 -24 20 -24 25 0 6 -12 16 -27 22 -27 11
-27 11 27 24 103 25 208 28 334 9 64 -10 119 -15 122 -12 3 3 -14 8 -38 11
-24 4 -83 14 -133 23 -86 15 -96 14 -214 -6 -68 -11 -132 -21 -142 -21 -21 0
-21 8 17 275 14 94 27 189 31 213 7 48 15 53 31 18 6 -13 24 -39 40 -57 16
-19 56 -85 89 -148 32 -62 63 -114 68 -115 14 -2 138 205 161 269 6 19 7 18
14 -5 l7 -25 4 25 c6 34 54 64 163 99 51 16 144 53 207 81 118 53 369 198 369
213 0 9 -2 8 -63 -31 -22 -13 -41 -21 -44 -19 -2 3 21 29 52 57 43 42 57 62
62 92 3 23 13 42 22 45 9 3 30 17 48 29 17 13 44 29 58 34 26 10 27 9 21 -15
-9 -36 1 -31 23 14 29 56 103 243 98 247 -2 3 -10 -2 -17 -11 -16 -19 -37 -19
-48 0 -13 24 -38 8 -72 -46 -24 -36 -44 -54 -84 -72 -47 -22 -54 -29 -64 -68
-7 -24 -14 -73 -17 -109 -5 -64 -23 -96 -50 -87 -14 5 -18 52 -6 75 16 29 24
124 17 177 -6 35 -11 45 -24 43 -11 -2 -19 -22 -27 -68 -7 -36 -21 -89 -33
-117 -19 -45 -19 -53 -6 -53 11 0 14 -8 12 -32 -2 -26 -8 -33 -35 -40 -19 -5
-45 -25 -65 -49 -95 -119 -95 -119 -146 -112 -26 3 -54 12 -63 19 -10 9 -37
13 -75 12 -32 -1 -75 4 -95 11 -46 15 -102 17 -202 8 -95 -9 -188 11 -264 56
-52 31 -93 86 -93 125 0 34 -11 52 -41 68 -33 16 -39 35 -10 27 10 -3 22 0 25
6 4 7 -1 11 -14 11 -14 0 -20 5 -18 18 2 11 -5 18 -20 20 -16 2 -22 8 -18 18
6 16 -10 19 -19 4 -10 -16 -25 -1 -25 26 0 28 0 28 -36 9 -16 -8 -36 -15 -44
-15 -9 0 -26 -7 -39 -16 -19 -14 -25 -14 -32 -3 -15 24 -10 50 14 70 30 25 44
24 51 -6 4 -14 11 -25 16 -25 47 0 37 294 -13 383 -7 12 -27 38 -46 59 -31 34
-33 39 -26 85 5 43 3 51 -17 69 -13 12 -45 27 -71 34 -41 11 -51 19 -68 53
-12 22 -45 69 -75 105 -30 36 -54 70 -54 74 0 4 -5 8 -11 8 -8 0 -9 -41 -5
-139z m-1112 -3193 c-15 -15 -26 -4 -18 18 5 13 9 15 18 6 9 -9 9 -15 0 -24z
m1068 -38 c0 -5 -7 -10 -15 -10 -8 0 -15 5 -15 10 0 6 7 10 15 10 8 0 15 -4
15 -10z m-860 -215 c0 -8 -7 -15 -15 -15 -16 0 -20 12 -8 23 11 12 23 8 23 -8z
m4600 -64 c0 -12 -28 -22 -34 -12 -3 5 -3 11 1 15 9 9 33 7 33 -3z m154 -214
c-8 -21 -44 -23 -44 -2 0 17 32 37 43 26 4 -4 5 -15 1 -24z m-2326 -28 c-2 -6
-8 -10 -13 -10 -5 0 -11 4 -13 10 -2 6 4 11 13 11 9 0 15 -5 13 -11z m1402
-109 c-10 -19 -50 -29 -50 -12 0 14 24 32 42 32 16 0 17 -3 8 -20z m-1020 -41
c0 -5 -9 -9 -20 -9 -22 0 -27 16 -7 23 15 5 27 -1 27 -14z m-1145 -29 c3 -6
-1 -13 -10 -16 -19 -8 -30 0 -20 15 8 14 22 14 30 1z m-545 -120 c0 -12 -28
-25 -36 -17 -9 9 6 27 22 27 8 0 14 -5 14 -10z m2110 -255 c0 -19 -24 -29 -46
-21 -13 5 -14 9 -4 21 16 20 50 19 50 0z"/>
<path d="M5883 5706 c-24 -30 -28 -42 -15 -50 17 -10 43 23 40 51 l-3 28 -22
-29z"/>
<path d="M4990 5663 c1 -27 9 -48 30 -73 25 -28 30 -31 30 -15 0 24 -42 125
-52 125 -5 0 -8 -17 -8 -37z"/>
<path d="M4318 5660 c-21 -32 -33 -90 -19 -90 17 0 43 59 39 88 l-3 27 -17
-25z"/>
<path d="M4407 5650 c-62 -39 -62 -62 0 -123 l47 -47 -12 -43 c-7 -23 -18 -70
-24 -104 -11 -58 -28 -86 -28 -46 0 14 -4 12 -25 -7 l-25 -24 6 35 c3 19 7 45
10 59 2 17 -4 10 -20 -21 -29 -55 -73 -89 -82 -64 -11 27 -23 16 -36 -32 -14
-57 -23 -43 -9 16 14 64 -2 48 -27 -26 -38 -113 -38 -119 -3 -137 35 -18 96
-13 145 12 113 57 348 70 571 32 205 -35 232 -28 221 61 -7 52 -9 56 -46 72
-22 9 -49 26 -60 37 l-20 20 0 -30 c0 -39 -16 -39 -24 1 -3 17 -10 28 -15 25
-5 -4 -12 0 -14 6 -3 7 -6 -3 -6 -22 -1 -48 -16 -27 -31 46 -7 34 -16 67 -21
75 -16 26 -21 0 -10 -51 15 -69 14 -87 -5 -94 -10 -4 -18 0 -21 13 -3 11 -11
17 -18 15 -15 -6 -60 147 -52 178 3 12 -2 23 -14 31 -10 6 -19 15 -19 19 0 12
86 9 115 -4 22 -10 32 -9 59 6 93 50 43 124 -64 95 -25 -6 -56 -11 -70 -12
-58 0 -190 23 -241 42 -70 27 -76 27 -132 -9z m119 -205 c3 -8 0 -47 -7 -87
-9 -53 -14 -66 -18 -49 l-6 24 -14 -29 c-13 -25 -15 -26 -19 -9 -5 21 15 120
29 148 12 21 28 22 35 2z m109 -25 c12 -23 22 -30 45 -30 37 0 48 -19 52 -95
l3 -60 -35 -3 c-53 -4 -113 20 -120 48 l-6 24 -22 -24 -22 -24 0 26 c0 44 23
128 34 128 6 0 17 9 24 20 17 28 29 25 47 -10z m125 -25 c17 -83 8 -113 -13
-43 -19 62 -22 98 -8 98 5 0 15 -25 21 -55z m-311 -54 c-11 -58 -29 -92 -29
-55 0 22 32 125 37 120 3 -2 -1 -32 -8 -65z"/>
<path d="M5902 5600 c-7 -19 -16 -68 -19 -108 -6 -68 -8 -73 -38 -92 -18 -11
-41 -20 -52 -20 -29 0 -50 -29 -73 -100 -27 -86 -21 -95 15 -21 16 34 35 61
42 61 28 0 89 39 101 64 16 35 44 191 40 224 -3 27 -3 27 -16 -8z"/>
<path d="M5785 5590 c18 -20 55 -28 55 -12 0 16 -24 32 -49 32 -23 0 -24 -1
-6 -20z"/>
<path d="M5660 5154 c0 -8 5 -12 10 -9 6 3 10 10 10 16 0 5 -4 9 -10 9 -5 0
-10 -7 -10 -16z"/>
<path d="M4541 5090 c-7 -4 -10 -17 -6 -32 6 -23 2 -27 -47 -44 -40 -14 -53
-24 -53 -39 0 -11 -7 -25 -15 -32 -8 -6 -12 -14 -9 -17 16 -17 133 -28 228
-22 164 10 179 30 112 156 -6 10 -33 17 -87 22 -43 4 -86 9 -95 11 -9 3 -22 1
-28 -3z"/>
<path d="M4216 3399 c-3 -17 -6 -50 -6 -73 -1 -61 -28 -111 -120 -215 -72 -81
-87 -104 -111 -175 -16 -44 -29 -100 -29 -123 0 -45 76 -362 91 -378 6 -5 9
-3 9 7 0 24 77 105 127 135 25 14 75 34 110 44 90 25 142 58 206 131 82 95 81
92 41 168 -42 78 -70 114 -84 105 -5 -3 -21 -31 -36 -60 -30 -64 -48 -78 -169
-130 -106 -45 -146 -73 -186 -128 -35 -49 -39 -27 -4 25 29 42 111 95 210 134
84 32 109 53 142 117 44 87 26 177 -35 177 -39 0 -218 -103 -274 -157 -46 -45
-107 -152 -109 -189 0 -11 -5 -28 -10 -39 -7 -14 -8 -6 -4 28 14 140 146 281
329 352 58 22 84 38 92 56 29 61 29 61 -61 140 -48 41 -92 75 -99 77 -8 2 -16
-10 -20 -29z"/>
<path d="M4481 2716 c-74 -72 -143 -115 -187 -116 -54 0 -120 -35 -172 -89
-82 -85 -83 -89 -60 -206 11 -55 24 -104 28 -108 13 -14 41 0 142 71 105 73
117 87 262 300 103 152 119 183 110 207 -12 31 -48 14 -123 -59z"/>
<path d="M3244 2279 c-3 -6 -2 -15 3 -20 13 -13 43 -1 43 17 0 16 -36 19 -46
3z"/>
<path d="M3395 2270 c-4 -6 8 -10 29 -10 19 0 38 5 41 10 4 6 -8 10 -29 10
-19 0 -38 -4 -41 -10z"/>
<path d="M4192 2219 c-39 -28 -76 -58 -80 -67 -10 -19 5 -102 18 -102 9 0 136
177 146 204 10 26 -7 19 -84 -35z"/>
<path d="M2875 2130 c-3 -5 3 -10 14 -10 12 0 21 5 21 10 0 6 -6 10 -14 10 -8
0 -18 -4 -21 -10z"/>
<path d="M2693 2107 c-17 -27 64 -39 119 -18 49 19 37 27 -38 27 -42 -1 -78
-5 -81 -9z"/>
<path d="M3385 1790 c-16 -18 -16 -20 -1 -26 9 -3 16 -12 16 -20 0 -10 12 -14
40 -14 31 0 40 4 40 18 0 23 -10 37 -37 51 -30 15 -37 14 -58 -9z"/>
<path d="M5028 1793 c6 -2 18 -2 25 0 6 3 1 5 -13 5 -14 0 -19 -2 -12 -5z"/>
<path d="M4683 1723 c-24 -9 -13 -23 18 -23 27 0 30 2 19 15 -13 16 -17 17
-37 8z"/>
<path d="M4880 1686 c0 -16 27 -29 41 -20 13 8 -9 34 -27 34 -8 0 -14 -6 -14
-14z"/>
<path d="M4380 1635 c-11 -13 -8 -15 20 -15 21 0 30 4 28 13 -7 18 -33 20 -48
2z"/>
<path d="M4260 1610 c0 -5 7 -10 15 -10 8 0 15 5 15 10 0 6 -7 10 -15 10 -8 0
-15 -4 -15 -10z"/>
<path d="M5272 1609 c2 -6 8 -10 13 -10 5 0 11 4 13 10 2 6 -4 11 -13 11 -9 0
-15 -5 -13 -11z"/>
<path d="M4055 1579 c-10 -16 -1 -21 52 -25 55 -5 88 9 63 26 -20 13 -107 13
-115 -1z"/>
<path d="M4715 1570 c-10 -11 -24 -20 -30 -20 -7 0 -18 -7 -25 -15 -20 -24 98
-20 128 4 29 25 28 41 -2 41 -13 0 -31 2 -38 5 -8 3 -23 -3 -33 -15z"/>
<path d="M5020 1580 c0 -5 20 -10 45 -10 25 0 45 5 45 10 0 6 -20 10 -45 10
-25 0 -45 -4 -45 -10z"/>
<path d="M4408 1523 c7 -3 16 -2 19 1 4 3 -2 6 -13 5 -11 0 -14 -3 -6 -6z"/>
<path d="M4115 1510 c-3 -5 -1 -10 4 -10 6 0 11 5 11 10 0 6 -2 10 -4 10 -3 0
-8 -4 -11 -10z"/>
<path d="M4020 1460 c0 -5 4 -10 9 -10 6 0 13 5 16 10 3 6 -1 10 -9 10 -9 0
-16 -4 -16 -10z"/>
<path d="M5262 1303 c4 -22 38 -30 38 -10 0 8 -7 18 -16 21 -23 9 -26 8 -22
-11z"/>
<path d="M5415 1289 c-10 -15 3 -25 16 -12 7 7 7 13 1 17 -6 3 -14 1 -17 -5z"/>
<path d="M5255 1200 c-3 -5 1 -10 9 -10 9 0 16 5 16 10 0 6 -4 10 -9 10 -6 0
-13 -4 -16 -10z"/>
<path d="M5583 1173 c-22 -8 -14 -33 10 -33 30 0 40 10 26 27 -12 14 -16 15
-36 6z"/>
</g>
</svg>
