<?xml version="1.0" standalone="no"?>
<!DOCTYPE svg PUBLIC "-//W3C//DTD SVG 20010904//EN"
 "http://www.w3.org/TR/2001/REC-SVG-20010904/DTD/svg10.dtd">
<svg version="1.0" xmlns="http://www.w3.org/2000/svg"
 width="767.000000pt" height="1080.000000pt" viewBox="0 0 767.000000 1080.000000"
 preserveAspectRatio="xMidYMid meet">

<defs>
  <!-- Şekli kırpma alanı -->
  <clipPath id="clip-shape">
    <path d="M3225 10780 c-33 -11 -68 -20 -78 -20 -26 0 -103 -42 -182 -99 -66 -47
-152 -133 -180 -179 -8 -14 -34 -50 -58 -81 -24 -31 -59 -86 -77 -124 -18
-37 -38 -73 -43 -80 -6 -6 -21 -29 -34 -51 -12 -22 -27 -47 -33 -55 -6 -8
-20 -31 -31 -50 -12 -19 -34 -55 -50 -80 -16 -25 -29 -49 -29 -54 0 -4 -9
-19 -20 -33 -11 -14 -20 -32 -20 -40 0 -8 -9 -27 -19 -41 -11 -15 -23 -39
-26 -54 -4 -14 -14 -37 -23 -50 -9 -13 -26 -50 -38 -82 -12 -31 -32 -77 -44
-102 -11 -25 -23 -61 -27 -80 -3 -19 -11 -44 -18 -55 -6 -11 -16 -39 -22 -62
-6 -24 -15 -43 -19 -43 -4 0 -13 -28 -20 -62 -7 -35 -19 -80 -27 -100 -8 -21
-18 -56 -21 -78 -4 -22 -12 -47 -19 -55 -7 -8 -15 -28 -18 -45 -3 -16 -17
-63 -31 -103 -14 -41 -26 -87 -26 -103 0 -15 -7 -49 -15 -74 -8 -25 -15 -63
-15 -85 0 -22 -7 -58 -16 -81 -8 -23 -18 -77 -20 -120 -3 -42 -11 -90 -19
-106 -9 -16 -15 -50 -15 -77 0 -26 -7 -73 -15 -103 -8 -30 -15 -84 -15 -120
0 -36 -7 -83 -15 -104 -8 -22 -15 -65 -15 -96 0 -31 -7 -78 -15 -106 -8 -27
-15 -74 -15 -103 0 -29 -7 -70 -15 -92 -8 -22 -14 -66 -15 -98 0 -32 -6 -77
-14 -100 -8 -23 -15 -72 -15 -110 -1 -39 -7 -81 -15 -95 -8 -14 -15 -49 -15
-78 0 -29 -7 -73 -15 -97 -8 -24 -15 -65 -15 -91 0 -25 -7 -68 -15 -95 -8
-27 -15 -69 -15 -94 0 -25 -7 -65 -15 -89 -8 -24 -15 -65 -15 -91 0 -25 -7
-70 -15 -98 -8 -28 -15 -73 -15 -99 0 -26 -7 -71 -15 -99 -8 -28 -15 -75
-15 -105 0 -30 -7 -71 -15 -91 -8 -19 -15 -57 -15 -84 0 -26 -7 -73 -15
-104 -8 -31 -15 -77 -15 -102 0 -25 -7 -70 -15 -99 -8 -28 -15 -73 -15 -99
0 -26 -7 -71 -15 -99 -8 -28 -15 -75 -15 -105 0 -30 -7 -71 -15 -91 -8 -19
-15 -57 -15 -84 0 -26 -7 -73 -15 -104 -8 -31 -15 -77 -15 -102 0 -25 -7
-70 -15 -99 -8 -28 -15 -73 -15 -99 0 -26 -7 -71 -15 -99 -8 -28 -15 -75
-15 -105 0 -30 -7 -71 -15 -91 -8 -19 -15 -57 -15 -84 0 -26 -7 -73 -15
-104 -8 -31 -15 -77 -15 -102 0 -25 -7 -70 -15 -99 -8 -28 -15 -73 -15 -99
0 -26 -7 -71 -15 -99 -8 -28 -15 -75 -15 -105 0 -30 -7 -71 -15 -91 -8 -19
-15 -57 -15 -84 0 -26 -7 -73 -15 -104 -8 -31 -15 -77 -15 -102 0 -25 -7
-70 -15 -99 -8 -28 -15 -73 -15 -99 0 -26 -7 -71 -15 -99 -8 -28 -15 -75
-15 -105 0 -30 -7 -71 -15 -91 -8 -19 -15 -57 -15 -84 0 -26 -7 -73 -15
-104 -8 -31 -15 -77 -15 -102 0 -25 -7 -70 -15 -99 -8 -28 -15 -73 -15 -99
0 -26 -7 -71 -15 -99 -8 -28 -15 -75 -15 -105 0 -30 -7 -71 -15 -91 -8 -19
-15 -57 -15 -84 0 -26 -7 -73 -15 -104 -8 -31 -15 -77 -15 -102 0 -25 -7
-70 -15 -99 -8 -28 -15 -73 -15 -99 0 -26 -7 -71 -15 -99 -8 -28 -15 -75
-15 -105 0 -30 -7 -71 -15 -91 -8 -19 -15 -57 -15 -84 0 -26 -7 -73 -15
-104 -8 -31 -15 -77 -15 -102 0 -25 -7 -70 -15 -99 -8 -28 -15 -73 -15 -99
0 -26 -7 -71 -15 -99 -8 -28 -15 -75 -15 -105 0 -30 -7 -71 -15 -91 -8 -19
-15 -57 -15 -84 0 -26 -7 -73 -15 -104 -8 -31 -15 -77 -15 -102 0 -25 -7
-70 -15 -99 -8 -28 -15 -73 -15 -99 0 -26 -7 -71 -15 -99 -8 -28 -15 -75
-15 -105 0 -30 -7 -71 -15 -91 -8 -19 -15 -57 -15 -84 0 -26 -7 -73 -15
-104 -8 -31 -15 -77 -15 -102 0 -25 -7 -70 -15 -99 -8 -28 -15 -73 -15 -99
0 -26 -7 -71 -15 -99 -8 -28 -15 -75 -15 -105 0 -30 -7 -71 -15 -91 -8 -19
-15 -57 -15 -84 0 -26 -7 -73 -15 -104 -8 -31 -15 -77 -15 -102 0 -25 -7
-70 -15 -99 -8 -28 -15 -73 -15 -99 0 -26 -7 -71 -15 -99 -8 -28 -15 -75
-15 -105 0 -30 -7 -71 -15 -91 -8 -19 -15 -57 -15 -84 0 -26 -7 -73 -15
-104 -8 -31 -15 -77 -15 -102 0 -25 -7 -70 -15 -99 -8 -28 -15 -73 -15 -99z"/>
  </clipPath>
</defs>

<!-- Beyaz iç dolgu -->
<rect width="100%" height="100%" fill="white" clip-path="url(#clip-shape)" />

<!-- Siyah çizim -->
<g transform="translate(0.000000,1080.000000) scale(0.100000,-0.100000)"
fill="#000000" stroke="none">
  <path d="M3225 10780 c-33 -11 -68 -20 -78 -20 -26 0 -103 -42 -182 -99 ... (tam path burada devam ediyor) ..." />
</g>
</svg>