<?xml version="1.0" standalone="no"?>
<!DOCTYPE svg PUBLIC "-//W3C//DTD SVG 20010904//EN"
 "http://www.w3.org/TR/2001/REC-SVG-20010904/DTD/svg10.dtd">
<svg version="1.0" xmlns="http://www.w3.org/2000/svg"
 width="386.000000pt" height="439.000000pt" viewBox="0 0 386.000000 439.000000"
 preserveAspectRatio="xMidYMid meet">

<g transform="translate(0.000000,439.000000) scale(0.100000,-0.100000)"
fill="#000000" stroke="none">
<path d="M2582 4209 c-134 -23 -269 -90 -361 -179 l-53 -53 -53 53 c-80 79
-89 72 -95 -75 l-5 -120 -876 -3 -876 -2 -27 -25 c-19 -17 -26 -34 -26 -59 0
-32 18 -56 156 -213 202 -230 205 -233 252 -233 34 0 46 8 113 75 71 70 78 75
119 75 42 0 49 -4 113 -71 106 -108 134 -111 216 -24 75 79 99 95 142 95 34 0
45 -7 110 -74 107 -112 129 -111 240 5 62 65 69 69 110 69 41 0 47 -4 141 -98
l97 -99 3 -114 c4 -141 13 -148 94 -68 l54 54 30 -32 c80 -85 205 -159 321
-189 78 -20 234 -23 309 -5 208 50 395 211 470 402 79 203 59 422 -55 605
-138 221 -409 345 -663 303z m423 -443 c120 -55 170 -190 116 -311 -29 -65
-55 -93 -116 -121 -134 -63 -289 9 -331 153 -56 193 148 365 331 279z"/>
<path d="M370 1915 c0 -1232 0 -1264 20 -1326 56 -179 197 -310 381 -354 55
-13 230 -15 1305 -15 785 0 1261 4 1295 10 146 27 290 143 344 278 52 128 43
291 -22 402 -90 153 -249 240 -439 240 l-64 0 0 830 0 830 -39 -25 c-21 -14
-74 -41 -117 -60 -44 -19 -80 -39 -80 -45 -1 -5 -2 -352 -3 -770 l-1 -760
-1061 -2 -1061 -3 -35 -39 c-32 -35 -35 -42 -30 -83 8 -69 45 -101 133 -114
145 -20 234 -134 206 -266 -13 -64 -47 -113 -105 -151 -35 -23 -51 -27 -116
-27 -65 0 -83 4 -129 29 -57 32 -102 81 -130 143 -16 35 -17 124 -20 1234 l-2
1196 -45 6 c-54 8 -108 35 -152 76 l-33 30 0 -1264z"/>
<path d="M873 2640 c-57 -34 -73 -82 -73 -218 0 -131 10 -170 55 -212 24 -22
35 -25 105 -25 69 0 82 3 104 24 47 44 56 79 56 213 -1 140 -13 177 -69 215
-45 30 -132 32 -178 3z m125 -92 c17 -17 17 -239 0 -256 -7 -7 -24 -12 -38
-12 -14 0 -31 5 -38 12 -15 15 -16 221 -2 249 12 22 59 26 78 7z"/>
<path d="M2004 2644 c-17 -8 -42 -34 -55 -57 -22 -38 -24 -53 -24 -167 0 -111
3 -130 23 -167 28 -53 65 -73 137 -73 69 0 106 18 137 67 21 35 23 49 23 168
0 148 -13 190 -70 225 -40 24 -126 27 -171 4z m120 -106 c12 -16 16 -47 16
-115 0 -110 -12 -143 -51 -143 -46 0 -59 31 -59 140 0 106 13 140 55 140 13 0
31 -10 39 -22z"/>
<path d="M2509 2637 c-58 -38 -74 -85 -74 -212 0 -125 12 -169 56 -211 26 -24
39 -29 97 -32 81 -4 120 16 152 77 17 34 20 59 20 158 0 137 -17 189 -72 223
-47 29 -134 27 -179 -3z m129 -89 c15 -15 16 -221 2 -249 -12 -22 -59 -26 -78
-7 -17 17 -17 239 0 256 7 7 24 12 38 12 14 0 31 -5 38 -12z"/>
<path d="M1310 2420 l0 -230 60 0 60 0 0 230 0 230 -60 0 -60 0 0 -230z"/>
<path d="M1615 2420 l0 -230 63 0 62 0 0 230 0 230 -62 0 -63 0 0 -230z"/>
<path d="M928 1900 c-51 -9 -84 -34 -108 -80 -17 -33 -20 -58 -20 -162 0 -109
3 -128 23 -162 29 -52 77 -80 136 -78 65 1 95 15 128 58 27 35 28 43 31 157 5
149 0 175 -41 220 -36 41 -88 57 -149 47z m70 -112 c17 -17 17 -239 0 -256 -7
-7 -24 -12 -38 -12 -14 0 -31 5 -38 12 -15 15 -16 221 -2 249 12 22 59 26 78
7z"/>
<path d="M2055 1903 c-51 -12 -87 -38 -108 -77 -19 -36 -22 -56 -22 -161 0
-141 16 -192 73 -227 47 -29 128 -29 175 1 59 36 72 77 72 221 0 142 -14 186
-69 219 -34 20 -89 31 -121 24z m69 -125 c12 -17 16 -48 16 -125 0 -110 -9
-133 -55 -133 -46 0 -55 23 -55 133 0 113 13 147 55 147 13 0 31 -10 39 -22z"/>
<path d="M2553 1899 c-81 -19 -123 -100 -123 -239 0 -100 18 -160 60 -202 36
-36 41 -38 101 -38 130 0 168 56 169 240 0 100 -3 122 -22 160 -35 69 -102 97
-185 79z m87 -118 c5 -11 10 -65 10 -121 0 -56 -5 -110 -10 -121 -12 -22 -59
-26 -78 -7 -17 17 -17 239 0 256 19 19 66 15 78 -7z"/>
<path d="M1310 1660 l0 -230 60 0 60 0 0 230 0 230 -60 0 -60 0 0 -230z"/>
<path d="M1615 1660 l0 -230 63 0 62 0 0 230 0 230 -62 0 -63 0 0 -230z"/>
</g>
</svg>
