<?xml version="1.0" standalone="no"?>
<!DOCTYPE svg PUBLIC "-//W3C//DTD SVG 20010904//EN"
 "http://www.w3.org/TR/2001/REC-SVG-20010904/DTD/svg10.dtd">
<svg version="1.0" xmlns="http://www.w3.org/2000/svg"
 width="603.000000pt" height="509.000000pt" viewBox="0 0 603.000000 509.000000"
 preserveAspectRatio="xMidYMid meet">

<g transform="translate(0.000000,509.000000) scale(0.100000,-0.100000)"
fill="#FFFFFF" stroke="#FFFFFF">
<path d="M3354 5029 c-132 -135 -405 -334 -609 -445 -204 -112 -406 -192 -603
-239 l-112 -27 6 -142 c12 -329 47 -551 130 -823 l25 -83 57 0 c31 0 73 -3 93
-6 l35 -6 -42 129 c-69 210 -124 533 -124 730 0 63 2 73 18 73 9 0 85 23 167
50 171 58 418 176 578 277 110 70 314 219 397 292 l45 39 85 -70 c113 -92 295
-223 411 -293 187 -113 497 -247 658 -285 l54 -13 -6 -141 c-13 -323 -98 -665
-235 -950 -189 -390 -484 -695 -865 -895 -112 -59 -96 -61 -269 38 -244 140
-497 371 -640 585 l-26 38 -20 -38 c-11 -22 -34 -52 -51 -68 -17 -17 -31 -35
-31 -43 0 -38 242 -301 388 -421 154 -127 488 -322 551 -322 38 0 288 135 418
226 411 286 703 706 852 1225 64 222 98 449 108 720 l6 178 -24 5 c-13 3 -46
11 -74 16 -383 81 -869 352 -1215 677 l-77 72 -59 -60z"/>
<path d="M1563 4886 l-28 -24 0 -733 0 -733 75 -32 c41 -18 81 -33 88 -33 9
-1 12 146 12 704 l0 705 481 0 482 0 106 65 c192 118 256 105 -516 105 l-672
0 -28 -24z"/>
<path d="M3905 4902 c54 -38 190 -124 223 -141 40 -21 52 -21 522 -21 377 0
480 -3 480 -12 0 -39 0 -2618 0 -2640 l0 -28 -593 0 -592 0 -51 -34 c-27 -19
-90 -57 -139 -85 l-89 -51 796 0 796 0 26 31 26 31 0 1450 0 1450 -29 29 -29
29 -679 0 c-373 0 -673 -4 -668 -8z"/>
<path d="M3344 4604 c-98 -79 -330 -232 -458 -303 -131 -72 -283 -141 -426
-191 l-105 -36 3 -45 c13 -224 70 -494 149 -704 41 -109 138 -298 204 -396
107 -159 271 -333 410 -436 100 -74 281 -183 291 -177 4 3 8 101 8 218 l0 213
-72 7 c-286 28 -526 190 -648 439 -71 144 -85 205 -84 362 0 153 15 218 79
350 72 151 200 283 344 359 91 47 173 72 285 87 l96 12 0 149 c0 81 -1 148 -3
148 -2 0 -35 -25 -73 -56z"/>
<path d="M3242 4241 c-250 -62 -452 -265 -518 -521 -20 -76 -22 -240 -5 -315
50 -212 185 -385 376 -480 297 -150 653 -75 868 182 62 74 113 175 138 271 24
96 26 257 3 348 l-17 66 -56 -56 -57 -56 4 -97 c8 -177 -42 -308 -162 -428
-159 -159 -373 -210 -584 -139 -178 60 -312 202 -368 390 -25 83 -23 229 5
314 88 279 373 452 651 396 97 -20 196 -67 262 -125 25 -23 50 -41 55 -41 5 0
29 20 53 45 50 51 51 50 -42 122 -73 56 -181 106 -275 127 -94 21 -238 19
-331 -3z"/>
<path d="M704 4170 c-183 -72 -271 -288 -191 -464 32 -70 92 -135 159 -172 49
-27 61 -29 158 -29 96 0 110 3 158 28 69 36 129 98 161 167 22 47 26 69 26
145 0 76 -4 98 -27 147 -33 70 -96 133 -168 167 -75 35 -201 40 -276 11z"/>
<path d="M3748 3753 l-338 -338 -133 133 c-144 142 -160 150 -202 107 -50 -49
-41 -63 155 -259 l180 -181 390 391 c411 411 410 410 374 462 -11 16 -25 22
-52 22 -35 0 -53 -16 -374 -337z"/>
<path d="M766 3404 c-13 -9 -13 -16 1 -56 16 -42 15 -55 -6 -226 l-22 -181 43
-65 c24 -36 46 -66 49 -66 4 0 26 29 49 65 l43 66 -22 189 c-20 179 -20 191
-4 225 12 25 14 38 6 46 -14 14 -119 17 -137 3z"/>
<path d="M418 3375 c-162 -32 -202 -63 -238 -184 -11 -36 -53 -185 -94 -331
l-74 -265 -7 -306 c-8 -338 -6 -359 49 -417 43 -47 80 -64 140 -64 68 -1 128
30 163 83 23 35 28 56 34 147 4 59 8 192 8 296 1 171 3 197 27 285 14 53 29
100 32 105 3 5 14 -9 26 -30 20 -37 21 -57 24 -333 3 -316 -6 -438 -37 -499
-19 -38 -114 -132 -132 -132 -13 0 -12 -1275 1 -1322 22 -78 103 -138 185
-138 74 0 159 57 184 123 7 19 11 231 11 636 0 335 3 622 6 640 14 68 93 108
152 77 63 -33 62 -23 62 -434 0 -296 3 -373 13 -369 90 40 144 59 205 73 39 9
72 18 72 21 0 3 -8 17 -19 31 -153 218 -109 500 107 674 22 17 22 23 22 285 0
255 32 824 48 864 6 14 29 7 157 -47 l150 -63 320 -6 320 -7 44 24 c86 45 125
126 107 221 -8 42 -69 115 -112 133 -22 9 -115 15 -315 20 l-284 7 -185 80
c-102 43 -202 85 -223 93 -57 20 -278 57 -286 48 -4 -5 -23 -107 -41 -226
l-34 -218 -83 -117 c-46 -65 -86 -119 -91 -120 -4 -1 -44 52 -89 118 l-83 120
-36 225 -37 224 -26 -1 c-14 -1 -79 -12 -143 -24z"/>
<path d="M1532 2331 l3 -389 24 -26 24 -26 791 0 791 0 -101 59 c-56 32 -119
71 -140 85 l-39 26 -587 0 -588 0 -2 302 -3 302 -80 28 c-44 15 -84 27 -88 28
-4 0 -7 -175 -5 -389z"/>
<path d="M1509 1686 c-61 -16 -141 -68 -179 -116 -54 -68 -73 -126 -73 -220
-1 -73 3 -93 28 -144 104 -217 381 -270 559 -106 67 62 99 134 104 234 6 114
-20 180 -103 263 -52 51 -72 64 -129 82 -76 24 -139 26 -207 7z"/>
<path d="M3323 1686 c-104 -34 -177 -98 -222 -196 -35 -75 -36 -188 -2 -273
31 -79 109 -157 188 -188 86 -33 199 -32 274 3 78 36 133 89 170 164 113 229
-41 489 -295 501 -42 2 -88 -3 -113 -11z"/>
<path d="M5139 1685 c-208 -67 -305 -296 -210 -490 37 -74 92 -127 170 -163
46 -22 71 -26 142 -26 79 0 93 3 153 34 78 39 122 84 162 166 25 51 29 70 29
144 0 71 -4 94 -26 141 -58 124 -169 199 -302 205 -45 3 -89 -2 -118 -11z"/>
<path d="M2089 1408 c0 -2 -2 -33 -4 -70 -5 -90 -26 -160 -74 -238 l-39 -65
88 -22 c124 -31 213 -77 283 -147 l59 -58 113 4 114 5 63 58 c72 67 149 106
268 136 47 12 86 23 88 24 2 1 -11 24 -29 50 -49 72 -71 140 -77 238 l-5 87
-423 0 c-233 0 -424 -1 -425 -2z"/>
<path d="M3900 1341 c0 -86 -29 -182 -75 -252 -20 -28 -34 -53 -33 -55 2 -1
37 -10 78 -18 111 -23 226 -82 293 -150 l56 -57 113 2 113 1 53 54 c64 65 181
125 295 149 42 9 77 19 77 21 0 2 -13 23 -30 45 -46 64 -72 144 -78 242 l-5
87 -428 0 -429 0 0 -69z"/>
<path d="M1330 910 c-302 -28 -435 -129 -485 -369 -17 -78 -34 -312 -35 -453
l0 -88 791 0 792 0 -6 223 c-8 317 -37 437 -129 542 -44 50 -148 105 -233 124
-130 29 -488 39 -695 21z"/>
<path d="M3180 914 c-194 -16 -324 -60 -401 -135 -102 -99 -137 -233 -146
-561 l-6 -218 791 0 792 0 0 173 c-1 511 -94 668 -433 728 -61 11 -508 20
-597 13z"/>
<path d="M4955 909 c-241 -24 -368 -95 -436 -245 -43 -94 -60 -211 -66 -451
l-6 -213 793 0 793 0 -6 217 c-10 324 -45 461 -143 559 -76 76 -188 116 -379
134 -128 12 -420 11 -550 -1z"/>
<path d="M2440 730 c0 -5 5 -21 12 -35 11 -24 16 -26 62 -23 46 3 51 6 63 36
l13 32 -75 0 c-41 0 -75 -4 -75 -10z"/>
<path d="M4260 730 c0 -5 5 -21 12 -35 10 -22 17 -25 60 -25 43 0 50 3 58 26
16 42 13 44 -60 44 -38 0 -70 -4 -70 -10z"/>
</g>
</svg>
