<?xml version="1.0" standalone="no"?>
<!DOCTYPE svg PUBLIC "-//W3C//DTD SVG 20010904//EN"
 "http://www.w3.org/TR/2001/REC-SVG-20010904/DTD/svg10.dtd">
<svg version="1.0" xmlns="http://www.w3.org/2000/svg"
 width="920.000000pt" height="848.000000pt" viewBox="0 0 920.000000 848.000000"
 preserveAspectRatio="xMidYMid meet">

<g transform="translate(0.000000,848.000000) scale(0.100000,-0.100000)"
fill="#000000" stroke="none">
<path d="M2740 8467 c-118 -27 -228 -111 -314 -240 -58 -88 -69 -110 -182
-377 -97 -226 -115 -258 -245 -421 -156 -195 -166 -225 -133 -385 20 -95 14
-171 -21 -307 -53 -207 -186 -536 -287 -714 -28 -51 -81 -117 -155 -195 -72
-76 -121 -137 -139 -174 l-28 -57 12 -106 c24 -210 11 -296 -86 -581 -61 -178
-78 -222 -150 -380 -76 -169 -121 -246 -212 -365 -42 -56 -82 -117 -89 -136
-8 -24 -10 -75 -5 -174 5 -124 4 -150 -15 -225 -50 -197 -165 -494 -281 -728
-82 -165 -135 -251 -240 -392 -106 -143 -119 -192 -86 -328 18 -69 17 -77 -3
-264 -12 -106 -31 -221 -41 -256 -110 -356 32 -822 354 -1160 234 -246 502
-405 801 -475 l90 -21 2630 -4 c1896 -2 2658 0 2729 8 187 21 333 76 500 187
189 125 363 326 437 502 27 64 86 253 269 856 45 149 113 372 151 498 38 125
100 329 138 455 38 125 106 349 151 497 92 304 189 623 455 1500 40 132 110
362 155 510 45 149 115 380 156 515 126 412 127 417 128 570 1 115 -3 146 -22
210 -64 201 -175 341 -342 429 -104 54 -97 60 -103 -86 -5 -137 -9 -153 -132
-548 -24 -77 -80 -261 -125 -410 -94 -310 -219 -723 -325 -1070 -132 -432
-212 -696 -295 -970 -102 -335 -200 -657 -295 -970 -40 -132 -110 -361 -155
-510 -45 -148 -115 -378 -155 -510 -40 -132 -103 -339 -140 -460 -37 -121 -78
-239 -91 -261 -51 -90 -190 -184 -321 -218 -55 -14 -337 -16 -2726 -16 -1835
0 -2689 3 -2742 11 -210 29 -346 87 -451 194 -60 61 -76 84 -102 151 -16 43
-33 98 -37 120 -14 86 32 171 111 205 40 18 134 19 2495 20 1350 1 2510 5
2579 9 140 10 285 37 373 70 260 98 396 344 642 1160 51 170 130 433 253 840
44 146 117 387 162 535 45 149 112 371 150 495 37 124 103 340 145 480 42 140
108 359 147 485 39 127 83 273 98 325 15 52 64 214 108 360 343 1132 401 1327
418 1418 62 326 -109 672 -399 813 -166 80 39 74 -2442 74 l-2210 0 -90 -21
c-49 -12 -92 -18 -95 -14 -15 25 -254 44 -330 27z m4175 -1407 c54 -12 95 -58
95 -108 0 -20 -32 -133 -71 -251 -80 -239 -98 -269 -192 -315 l-51 -26 -1718
0 c-1889 0 -1760 -4 -1793 60 -24 47 -19 81 50 295 83 257 119 310 234 341 57
16 3381 19 3446 4z m-404 -1438 c56 -50 52 -87 -30 -333 -73 -217 -85 -241
-152 -292 l-36 -27 -1772 0 -1771 0 -20 33 c-11 17 -20 45 -20 62 0 16 30 123
68 239 61 189 71 214 109 257 24 26 62 56 85 68 l43 21 1732 0 1733 0 31 -28z
m-473 -1389 c2 -7 10 -13 18 -13 8 0 14 -4 14 -10 0 -5 7 -10 15 -10 9 0 18
-7 21 -15 4 -8 10 -15 16 -15 13 0 38 -26 38 -39 0 -6 4 -11 9 -11 5 0 13 -10
17 -22 4 -13 11 -26 17 -29 5 -4 12 -30 15 -58 2 -28 8 -51 13 -51 5 0 9 -222
9 -500 0 -283 -4 -500 -9 -500 -5 0 -12 -25 -16 -55 -3 -30 -11 -55 -16 -55
-5 0 -9 -6 -9 -14 0 -21 -85 -104 -114 -112 -14 -3 -26 -10 -26 -15 0 -5 -9
-9 -20 -9 -11 0 -20 -4 -20 -10 0 -7 -557 -10 -1650 -10 -1093 0 -1650 3
-1650 10 0 6 -9 10 -20 10 -11 0 -20 4 -20 9 0 5 -16 12 -35 15 -19 4 -35 11
-35 15 0 5 -16 25 -35 45 -19 21 -35 43 -35 51 0 7 -4 15 -10 17 -5 2 -13 31
-16 66 -4 34 -11 62 -15 62 -5 0 -9 221 -9 490 0 272 4 490 9 490 5 0 11 23
13 51 3 28 10 54 15 58 6 3 13 16 17 29 4 12 11 22 16 22 4 0 11 11 14 25 4
14 13 25 21 25 8 0 15 4 15 10 0 5 11 12 25 16 14 3 25 10 25 15 0 5 7 9 15 9
8 0 15 4 15 9 0 6 19 12 43 14 23 2 777 3 1676 3 1298 -1 1635 -4 1639 -13z"/>
<path d="M3160 3801 c0 -5 -13 -12 -30 -16 -16 -4 -30 -10 -30 -15 0 -5 -10
-12 -22 -16 -22 -7 -48 -28 -48 -39 0 -3 18 -24 40 -46 22 -22 40 -45 40 -51
0 -5 14 -24 30 -41 17 -18 37 -39 45 -48 19 -20 19 -49 0 -49 -8 0 -15 5 -15
10 0 6 -16 10 -35 10 -19 0 -35 4 -35 9 0 4 -31 12 -70 15 -38 4 -70 11 -70
17 0 5 -4 9 -10 9 -6 0 -10 -40 -10 -100 l0 -100 25 0 c14 0 25 5 25 10 0 6
18 10 39 10 22 0 41 4 43 9 2 5 31 12 65 16 60 7 61 6 56 -16 -4 -12 -30 -46
-60 -76 -29 -30 -53 -60 -53 -67 0 -7 -11 -22 -25 -32 -14 -10 -25 -23 -25
-27 0 -14 24 -34 50 -42 14 -4 32 -16 41 -26 8 -10 27 -21 41 -24 23 -6 26 -3
32 34 3 23 10 41 15 41 5 0 12 23 16 50 4 28 11 50 16 50 5 0 9 7 9 15 0 8 4
15 9 15 5 0 11 12 13 27 5 45 25 38 32 -12 4 -25 11 -45 16 -45 5 0 12 -20 16
-45 3 -25 10 -45 15 -45 4 0 11 -21 15 -46 6 -43 8 -45 32 -39 14 3 33 15 42
25 9 10 28 22 43 25 15 4 27 11 27 16 0 5 6 9 14 9 28 0 3 44 -59 105 -35 34
-66 71 -69 83 -4 12 -11 22 -16 22 -4 0 -10 7 -13 15 -5 12 5 13 61 8 37 -3
69 -10 70 -15 2 -4 24 -8 48 -8 24 0 44 -4 44 -10 0 -5 9 -10 20 -10 19 0 20
7 20 91 l0 91 -72 -7 c-40 -4 -74 -11 -76 -16 -2 -5 -21 -9 -43 -9 -21 0 -39
-4 -39 -10 0 -5 -9 -10 -20 -10 -24 0 -26 13 -5 34 8 8 15 19 15 25 0 5 20 30
45 54 25 25 45 48 45 51 0 8 16 27 43 55 23 24 13 48 -24 56 -16 4 -29 11 -29
16 0 5 -11 11 -25 15 -14 3 -25 10 -25 15 0 5 -11 9 -24 9 -21 0 -25 -6 -31
-50 -4 -27 -11 -50 -16 -50 -5 0 -12 -18 -15 -40 -4 -22 -10 -40 -14 -40 -4 0
-10 -18 -14 -40 -7 -45 -23 -52 -32 -15 -3 14 -10 25 -15 25 -5 0 -9 11 -9 25
0 14 -4 25 -9 25 -5 0 -12 23 -16 50 -4 28 -10 50 -15 50 -4 0 -10 14 -13 30
-4 18 -13 30 -22 30 -8 0 -15 -4 -15 -9z"/>
<path d="M3960 3801 c0 -5 -13 -12 -30 -16 -16 -4 -30 -10 -30 -15 0 -5 -10
-12 -22 -16 -48 -15 -49 -41 -3 -90 19 -20 35 -41 35 -46 0 -5 14 -24 30 -41
17 -18 37 -39 45 -48 19 -20 19 -49 0 -49 -8 0 -15 5 -15 10 0 6 -16 10 -35
10 -19 0 -35 4 -35 9 0 4 -31 12 -70 15 -38 4 -70 11 -70 17 0 5 -4 9 -10 9
-6 0 -10 -40 -10 -100 l0 -100 25 0 c14 0 25 5 25 10 0 6 18 10 39 10 22 0 41
4 43 9 2 5 31 12 65 16 60 7 61 6 56 -15 -3 -12 -26 -42 -49 -67 -24 -25 -44
-49 -44 -55 0 -5 -13 -23 -30 -40 -32 -32 -39 -58 -15 -58 8 0 15 -5 15 -10 0
-6 8 -14 18 -17 9 -4 24 -14 33 -24 8 -10 27 -21 41 -24 23 -6 26 -3 32 34 3
23 11 41 16 41 6 0 10 11 10 25 0 14 4 25 9 25 5 0 11 18 15 40 3 22 10 40 15
40 6 0 11 12 13 27 5 45 25 38 32 -12 4 -25 11 -45 16 -45 5 0 12 -20 16 -45
3 -25 10 -45 15 -45 4 0 11 -21 15 -46 6 -40 9 -45 28 -40 11 3 26 6 33 6 6 0
14 9 18 19 3 11 19 22 35 26 17 4 30 10 30 15 0 5 8 10 17 12 16 3 16 4 0 20
-9 9 -17 21 -17 28 0 6 -24 35 -54 65 -30 29 -57 63 -61 74 -3 12 -10 21 -15
21 -4 0 -10 7 -13 15 -5 12 5 13 61 8 37 -3 69 -10 70 -15 2 -4 24 -8 48 -8
24 0 44 -4 44 -10 0 -5 11 -10 25 -10 25 0 25 1 25 91 l0 91 -82 -7 c-46 -4
-84 -11 -86 -16 -2 -5 -19 -9 -38 -9 -19 0 -34 -4 -34 -10 0 -5 -9 -10 -20
-10 -23 0 -26 13 -6 32 7 8 16 24 20 35 4 12 16 25 26 28 10 3 22 14 25 25 3
10 12 21 20 24 8 3 15 10 15 16 0 11 12 28 43 59 23 24 13 48 -24 56 -16 4
-29 10 -29 15 0 4 -11 11 -25 14 -14 4 -25 11 -25 16 0 6 -11 10 -24 10 -21 0
-25 -6 -31 -50 -4 -27 -10 -50 -15 -50 -4 0 -10 -18 -14 -40 -3 -22 -10 -40
-15 -40 -5 0 -11 -18 -15 -40 -3 -22 -10 -40 -15 -40 -11 0 -21 25 -21 51 0
10 -4 19 -10 19 -5 0 -13 18 -16 40 -4 22 -10 40 -15 40 -5 0 -9 11 -9 25 0
14 -4 25 -9 25 -5 0 -11 14 -14 30 -4 18 -13 30 -22 30 -8 0 -15 -4 -15 -9z"/>
<path d="M4760 3801 c0 -5 -13 -12 -30 -16 -16 -4 -30 -10 -30 -15 0 -5 -10
-12 -22 -16 -51 -16 -49 -42 7 -100 25 -25 45 -51 45 -57 0 -7 8 -20 18 -29
55 -53 69 -88 37 -88 -8 0 -15 5 -15 10 0 6 -15 10 -34 10 -19 0 -36 4 -38 9
-1 5 -38 12 -80 16 l-78 7 0 -91 c0 -90 0 -91 25 -91 14 0 25 5 25 10 0 6 20
10 44 10 24 0 46 4 48 8 2 5 28 12 60 15 54 7 56 6 51 -14 -3 -12 -26 -41 -49
-66 -24 -25 -44 -49 -44 -55 0 -5 -13 -23 -30 -40 -32 -32 -39 -58 -15 -58 8
0 15 -5 15 -10 0 -6 8 -14 18 -17 9 -4 24 -14 33 -24 8 -10 27 -21 41 -24 23
-6 26 -3 32 34 3 23 11 41 16 41 6 0 10 11 10 25 0 14 4 25 10 25 5 0 13 18
16 40 4 22 10 40 15 40 4 0 9 12 11 27 5 45 25 38 32 -12 4 -25 11 -45 16 -45
5 0 12 -20 16 -45 3 -25 10 -45 15 -45 4 0 11 -20 15 -45 3 -25 11 -45 18 -45
29 0 56 14 61 30 3 10 19 22 35 25 17 4 30 10 30 15 0 5 8 10 17 12 16 3 16 4
0 20 -9 9 -17 21 -17 27 0 6 -22 34 -50 62 -27 28 -50 56 -50 61 0 5 -12 20
-26 35 -14 14 -23 27 -21 29 8 8 137 -9 137 -17 0 -5 20 -9 45 -9 25 0 45 -4
45 -10 0 -5 11 -10 25 -10 l25 0 0 100 c0 55 -4 100 -9 100 -5 0 -11 -4 -13
-10 -1 -5 -36 -12 -75 -16 -40 -4 -73 -11 -73 -15 0 -5 -13 -9 -30 -9 -16 0
-30 -4 -30 -10 0 -5 -11 -10 -25 -10 -28 0 -32 12 -10 34 8 8 15 17 15 21 0 4
14 21 30 38 17 18 37 39 45 48 8 9 15 19 15 23 0 7 15 27 43 55 23 24 13 48
-24 56 -16 4 -29 11 -29 16 0 5 -11 11 -25 15 -14 3 -25 10 -25 15 0 5 -11 9
-24 9 -21 0 -25 -6 -31 -50 -4 -27 -11 -50 -16 -50 -5 0 -12 -18 -15 -40 -4
-22 -10 -40 -14 -40 -4 0 -10 -18 -14 -40 -3 -22 -10 -40 -15 -40 -11 0 -21
25 -21 51 0 10 -4 19 -10 19 -5 0 -13 18 -16 40 -4 22 -10 40 -15 40 -5 0 -9
11 -9 25 0 14 -4 25 -9 25 -5 0 -12 14 -16 30 -6 27 -35 44 -35 21z"/>
<path d="M5340 3030 l0 -100 235 0 235 0 0 100 0 100 -235 0 -235 0 0 -100z"/>
</g>
</svg>
