<?xml version="1.0" standalone="no"?>
<!DOCTYPE svg PUBLIC "-//W3C//DTD SVG 20010904//EN" "http://www.w3.org/TR/2001/REC-SVG-20010904/DTD/svg10.dtd">
<svg version="1.0" xmlns="http://www.w3.org/2000/svg" width="583.000000pt" height="626.000000pt" viewBox="0 0 583.000000 626.000000" preserveAspectRatio="xMidYMid meet">
    
    <!-- Küçültülmüş ve sağ alt köşeye yerleştirilmiş figür -->
    <g transform="translate(543.000000, 586.000000) scale(0.0686, -0.0686)" fill="#FFFFFF" stroke="#FFFFFF">
        <path d="M2860 6245 c-80 -28 -246 -114 -318 -165 -208 -146 -323 -303 -417
-570 -52 -148 -113 -287 -192 -444 -38 -74 -64 -132 -58 -128 6 4 44 32 86 63
219 165 575 328 817 375 113 22 307 22 432 0 250 -44 523 -172 772 -361 l47
-36 -82 163 c-46 90 -125 253 -177 363 -52 110 -117 234 -144 275 -100 155
-298 320 -510 425 -108 53 -183 65 -256 40z m275 -230 c55 -8 194 -56 233 -81
26 -17 24 -6 -6 29 -8 9 -10 17 -5 17 25 0 152 -153 192 -229 22 -43 41 -82
41 -86 0 -3 -13 3 -29 14 -23 16 -15 0 40 -82 38 -56 69 -105 69 -109 0 -5
-28 13 -62 38 -35 25 -88 59 -118 74 -58 29 -238 90 -267 90 -13 0 -14 3 -6
11 7 7 51 12 106 13 l95 1 -35 23 c-29 20 -140 75 -223 110 -24 10 -24 11 10
11 20 1 66 -7 103 -18 68 -18 68 -18 50 1 -28 31 -183 132 -236 154 -49 20
-64 38 -24 30 12 -3 44 -8 72 -11z"/>
        <path d="M2815 5296 c-256 -51 -750 -303 -998 -510 -198 -166 -240 -338 -153
-635 40 -137 94 -258 162 -367 24 -40 44 -74 44 -78 0 -19 -179 -83 -355 -127
-354 -88 -427 -120 -546 -239 -100 -100 -138 -175 -243 -488 -47 -138 -108
-301 -135 -362 l-49 -110 38 -78 c21 -42 74 -138 118 -212 45 -74 79 -136 77
-139 -6 -6 -138 102 -221 181 l-71 68 -58 -143 c-33 -78 -81 -189 -107 -246
-31 -66 -42 -99 -31 -89 10 8 56 46 101 83 83 68 102 94 102 141 0 14 4 23 8
20 14 -9 47 -255 36 -266 -6 -6 -36 -17 -67 -25 -119 -31 -213 -98 -260 -184
-16 -29 -34 -85 -43 -135 -18 -107 -29 -138 -92 -260 -70 -134 -79 -182 -58
-314 18 -119 64 -263 106 -338 93 -161 213 -224 430 -224 223 0 461 52 653
142 48 23 89 39 92 36 3 -2 -6 -76 -20 -164 -13 -87 -25 -175 -27 -194 l-3
-35 1669 -3 c919 -1 1673 1 1677 5 4 5 3 43 -3 86 -6 42 -9 80 -6 83 3 3 32 1
64 -5 211 -38 367 -33 559 19 155 42 381 124 428 157 82 57 127 156 172 379
30 148 30 165 -16 389 -33 165 -53 209 -120 269 -61 56 -120 79 -214 84 -81 4
-178 -18 -277 -62 -21 -9 -38 -13 -38 -9 1 11 108 95 193 151 l68 45 -29 13
c-46 19 -128 34 -187 34 -30 0 -55 3 -55 6 0 3 18 36 41 74 78 131 184 403
196 501 4 30 -1 66 -13 105 l-18 59 -6 -67 c-5 -62 -8 -70 -45 -108 -22 -23
-69 -61 -105 -85 -63 -42 -230 -130 -230 -121 0 3 18 37 39 78 84 157 131 315
161 544 23 176 18 222 -34 369 -74 206 -183 344 -349 441 -84 49 -136 69 -296
110 -215 56 -451 139 -451 159 0 3 20 41 45 84 62 106 118 238 161 379 99 325
28 521 -274 760 -221 175 -422 278 -672 344 -95 25 -139 31 -255 34 -93 2
-164 -1 -210 -10z m1305 -1183 c-29 -113 -63 -192 -119 -276 -80 -118 -99
-159 -131 -277 -64 -232 -135 -323 -330 -425 -63 -33 -119 -62 -125 -64 -25
-10 38 47 122 110 165 124 238 229 283 408 26 102 55 161 130 266 63 88 110
175 147 275 37 100 35 96 40 83 2 -7 -5 -52 -17 -100z m-2295 -153 c4 -12 40
-62 81 -113 86 -107 125 -180 154 -292 45 -174 100 -249 293 -399 67 -52 138
-111 157 -132 l35 -37 -35 20 c-231 135 -303 184 -371 254 -68 69 -99 131
-132 265 -27 109 -54 168 -128 285 -39 61 -79 144 -79 165 0 13 20 0 25 -16z
m2344 -366 c430 -96 729 -263 830 -463 44 -86 63 -163 55 -216 l-6 -46 -23 21
-23 22 -99 -174 c-62 -109 -99 -166 -101 -153 -1 11 13 150 31 309 l34 289
-31 -36 c-17 -20 -34 -37 -38 -37 -5 0 -8 15 -8 33 0 66 -30 140 -75 184 -39
39 -47 43 -92 43 -67 0 -125 -22 -192 -72 -38 -29 -52 -35 -47 -22 12 30 46
138 46 147 0 34 -141 -39 -238 -123 -45 -38 -84 -70 -86 -70 -4 0 38 167 60
243 8 27 -15 21 -100 -28 -44 -25 -83 -45 -87 -45 -4 0 -3 15 2 32 5 18 12 68
15 110 8 93 0 91 173 52z m-2291 4 c7 -7 12 -24 12 -39 0 -21 -6 -28 -29 -32
-22 -5 -31 -13 -36 -36 l-6 -30 -87 6 c-48 3 -97 1 -109 -4 -22 -8 -22 -9 19
-57 l42 -49 -30 5 c-16 3 -72 15 -124 27 -117 28 -235 25 -324 -7 -64 -23
-169 -88 -205 -126 l-23 -24 16 -124 c22 -176 49 -475 43 -490 -10 -29 -147
472 -147 539 0 31 82 135 148 188 116 92 237 142 527 216 191 48 290 60 313
37z m482 -568 c12 -8 16 -50 20 -247 l5 -238 345 -2 c339 -2 344 -1 320 17
-14 10 -21 22 -17 26 11 11 57 -14 57 -31 0 -13 27 -15 198 -15 l198 0 0 231
c-1 242 3 269 43 269 38 0 41 -16 41 -262 l0 -238 473 0 c289 0 486 -4 509
-10 41 -12 94 -66 105 -108 4 -15 -3 -178 -16 -362 -71 -1058 -68 -993 -54
-997 6 -2 45 3 87 11 131 28 260 18 366 -25 l45 -19 -35 30 c-19 17 -65 45
-102 63 -37 17 -67 35 -67 38 -2 13 89 18 147 9 130 -21 243 -82 343 -187 54
-56 129 -171 129 -199 0 -3 -24 15 -52 41 -29 26 -86 70 -126 97 -72 48 -73
49 -65 21 13 -46 10 -260 -4 -274 -10 -10 -28 3 -84 55 -61 58 -217 172 -224
164 -2 -2 4 -34 12 -73 9 -43 12 -90 8 -122 -7 -58 -53 -159 -86 -189 l-21
-19 7 34 c15 70 8 159 -18 213 -24 52 -106 153 -91 113 14 -40 32 -110 28
-114 -2 -2 -12 7 -23 20 l-19 24 -7 -40 c-12 -70 -16 -72 -35 -18 -26 76 -65
142 -111 192 l-40 43 -32 -30 c-62 -58 -117 -72 -69 -18 19 22 34 54 41 88 6
29 22 242 37 473 14 231 33 528 43 660 18 250 15 297 -19 315 -12 7 -556 10
-1609 10 l-1591 0 -22 -22 c-20 -20 -21 -26 -14 -202 4 -100 13 -278 21 -396
8 -118 22 -348 30 -510 9 -162 21 -313 26 -335 6 -22 24 -57 41 -79 30 -37 30
-38 7 -31 -39 12 -90 55 -104 89 -7 17 -16 54 -20 81 -3 28 -9 63 -12 80 l-6
29 -23 -46 c-26 -52 -64 -180 -64 -217 0 -16 -3 -22 -10 -15 -5 5 -10 43 -12
84 l-3 74 -19 -28 c-10 -16 -21 -46 -23 -67 -7 -46 -14 -48 -41 -14 -11 14
-22 25 -26 25 -3 0 -17 -17 -32 -37 l-26 -38 5 48 5 48 -25 -23 c-14 -13 -43
-50 -65 -83 l-41 -60 8 50 c4 27 16 73 27 102 22 59 18 73 -19 73 -43 0 -108
-37 -167 -96 -31 -30 -58 -54 -61 -54 -3 0 8 27 25 60 85 169 242 259 470 269
l115 6 -2 60 c-2 33 -9 159 -17 280 -29 425 -48 824 -42 859 7 38 44 89 80
109 15 9 149 13 505 17 l484 5 1 235 c1 129 5 241 9 248 10 14 26 15 47 2z
m300 -145 c0 -12 -28 -35 -44 -35 -14 0 -5 30 12 39 24 14 32 13 32 -4z m584
-7 c5 -9 7 -20 3 -24 -8 -8 -47 24 -47 38 0 15 32 5 44 -14z m-554 -31 c0 -7
-5 -18 -12 -25 -7 -7 -18 -12 -25 -12 -16 0 -17 22 -1 38 16 16 38 15 38 -1z
m525 -7 c10 -11 15 -23 12 -26 -8 -8 -57 23 -57 36 0 17 26 11 45 -10z m-491
-36 c7 -19 -10 -44 -31 -44 -23 0 -28 31 -8 46 24 18 32 18 39 -2z m457 6 c21
-12 26 -40 6 -40 -7 0 -18 5 -25 12 -12 12 -17 38 -6 38 3 0 14 -5 25 -10z
m-433 -46 c-4 -20 -34 -41 -44 -31 -8 8 24 47 38 47 5 0 8 -7 6 -16z m417 -4
c14 -15 15 -20 4 -20 -15 1 -49 23 -49 34 0 13 28 5 45 -14z m-20 -30 c10 -11
15 -23 12 -26 -8 -8 -57 23 -57 36 0 17 26 11 45 -10z m-370 -1 c8 -11 -22
-38 -42 -39 -16 0 -17 22 -1 38 15 15 35 15 43 1z m359 -42 c8 -13 8 -20 -3
-26 -7 -5 -11 -13 -7 -19 10 -17 -11 -24 -34 -12 -25 13 -28 45 -4 36 13 -5
14 -4 6 7 -9 10 -8 17 0 25 15 15 28 11 42 -11z m-339 4 c8 -14 -37 -43 -49
-31 -7 7 -3 15 10 25 23 17 31 18 39 6z m15 -39 c0 -12 -23 -32 -37 -32 -17 0
-17 27 0 33 19 8 37 8 37 -1z m10 -57 c-14 -16 -40 -20 -40 -6 0 5 7 17 16 26
22 21 44 4 24 -20z m285 14 c5 -6 5 -13 -1 -19 -11 -11 -54 14 -54 31 0 11 39
2 55 -12z m-255 -33 c0 -16 -37 -32 -48 -21 -7 7 25 35 40 35 4 0 8 -6 8 -14z
m-1323 -360 c-8 -20 -36 -21 -43 -1 -4 8 0 22 7 31 11 13 14 13 27 0 8 -8 12
-22 9 -30z m103 -5 c-14 -27 -34 -22 -38 9 -5 28 18 44 36 26 11 -11 11 -18 2
-35z m578 8 c-1 -13 -10 -24 -18 -24 -19 0 -26 45 -8 56 18 11 30 -4 26 -32z
m89 -3 c-8 -20 -36 -21 -43 -1 -4 8 0 22 7 31 11 13 14 13 27 0 8 -8 12 -22 9
-30z m-539 11 c4 -20 -25 -34 -40 -19 -15 15 -1 44 19 40 10 -2 19 -11 21 -21z
m92 -2 c0 -18 -5 -25 -19 -25 -19 0 -37 28 -25 39 4 3 9 0 11 -6 3 -7 9 -13
15 -13 6 0 8 7 4 15 -3 8 -1 15 4 15 6 0 10 -11 10 -25z m90 6 c12 18 22 7 14
-15 -7 -18 -29 -21 -39 -6 -4 6 -3 19 1 28 6 15 8 15 12 -2 3 -15 6 -16 12 -5z
m88 -10 c3 -16 -1 -22 -10 -19 -7 3 -15 15 -16 27 -3 16 1 22 10 19 7 -3 15
-15 16 -27z m352 4 c0 -18 -5 -25 -20 -25 -15 0 -20 7 -20 25 0 18 5 25 20 25
15 0 20 -7 20 -25z m190 0 c0 -18 -5 -25 -20 -25 -15 0 -20 7 -20 25 0 18 5
25 20 25 15 0 20 -7 20 -25z m96 10 c8 -20 -13 -45 -32 -38 -14 5 -19 34 -7
46 11 12 33 7 39 -8z m-1136 -78 c0 -7 -4 -18 -9 -26 -8 -12 -12 -12 -25 -2
-17 15 -22 41 -7 41 5 0 12 -8 14 -17 3 -13 5 -12 6 5 1 23 21 22 21 -1z m215
13 c3 -5 1 -10 -4 -10 -6 0 -11 -5 -11 -11 0 -5 5 -7 10 -4 6 3 10 -1 10 -9 0
-9 -4 -16 -9 -16 -16 0 -31 27 -25 44 7 18 20 21 29 6z m100 -20 c0 -13 -6
-25 -12 -27 -16 -6 -27 21 -19 43 9 23 31 11 31 -16z m188 13 c-6 -2 -9 -13
-6 -23 6 -23 -15 -27 -23 -5 -8 19 14 47 29 38 8 -5 8 -8 0 -10z m435 -11 c3
-17 -2 -22 -17 -22 -14 0 -21 6 -21 18 0 38 33 41 38 4z m-843 -7 c0 -28 -29
-25 -33 3 -3 19 0 23 15 20 10 -2 18 -12 18 -23z m323 2 c-4 -28 -32 -29 -36
-2 -2 15 3 21 18 22 16 1 21 -3 18 -20z m260 1 c-4 -28 -32 -30 -36 -3 -3 16
-1 17 7 5 9 -13 11 -13 11 3 0 9 5 17 11 17 6 0 9 -10 7 -22z m80 -4 c1 -17
-2 -24 -11 -22 -17 6 -22 48 -5 48 8 0 15 -12 16 -26z m263 -4 c5 0 9 8 9 17
0 12 3 14 10 7 13 -13 3 -44 -14 -44 -20 0 -35 21 -28 39 6 14 7 14 10 -1 2
-10 8 -18 13 -18z m109 11 c0 -11 -4 -22 -9 -25 -12 -8 -34 21 -26 34 11 17
35 11 35 -9z m-1137 -53 c6 -21 -4 -48 -19 -48 -20 0 -29 27 -14 45 15 18 27
19 33 3z m216 -9 c-12 -8 -12 -11 1 -18 8 -6 11 -13 7 -17 -4 -4 -15 0 -24 9
-13 13 -14 19 -4 31 8 9 18 13 23 10 6 -4 5 -10 -3 -15z m639 3 c2 -8 -3 -10
-15 -6 -17 5 -17 5 0 -9 12 -10 14 -17 8 -22 -15 -9 -31 3 -31 24 0 31 28 41
38 13z m-756 -34 c-16 -16 -37 4 -28 28 6 16 8 16 23 1 13 -13 15 -19 5 -29z
m218 16 c0 -31 -23 -28 -28 4 -2 15 2 22 12 22 11 0 16 -9 16 -26z m110 7 c0
-11 -4 -22 -8 -25 -14 -9 -35 12 -29 28 9 23 37 20 37 -3z m80 -6 c0 -26 -14
-33 -25 -15 -9 14 1 40 15 40 5 0 10 -11 10 -25z m90 14 c0 -5 -4 -7 -10 -4
-5 3 -10 2 -10 -4 0 -5 6 -11 13 -14 6 -2 9 -8 5 -12 -11 -11 -28 4 -28 26 0
10 7 19 15 19 8 0 15 -5 15 -11z m80 -14 c0 -26 -14 -33 -25 -15 -9 14 1 40
15 40 5 0 10 -11 10 -25z m85 2 c0 -26 -20 -25 -23 2 -3 16 1 22 10 19 7 -3
13 -12 13 -21z m183 1 c-2 -13 -10 -23 -18 -23 -8 0 -16 10 -18 23 -3 17 2 22
18 22 16 0 21 -5 18 -22z m97 -3 c0 -11 -8 -21 -17 -23 -14 -3 -18 3 -18 23 0
20 4 26 18 23 9 -2 17 -12 17 -23z m85 -9 c-15 -15 -33 4 -19 20 10 12 14 12
20 2 5 -7 4 -17 -1 -22z m-1141 -53 c1 9 6 17 11 17 13 0 13 -20 0 -40 -8 -13
-11 -13 -26 2 -10 9 -13 21 -8 29 5 9 9 8 15 -7 7 -17 8 -17 8 -1z m239 -5
c-2 -13 -10 -23 -18 -23 -8 0 -16 10 -18 23 -3 17 2 22 18 22 16 0 21 -5 18
-22z m99 6 c8 -21 -13 -42 -28 -27 -13 13 -5 43 11 43 6 0 13 -7 17 -16z m103
-9 c0 -25 -23 -35 -35 -15 -10 16 2 40 20 40 9 0 15 -9 15 -25z m84 3 c-9 -31
-12 -34 -25 -21 -15 15 -4 43 16 43 12 0 15 -6 9 -22z m93 6 c3 -8 0 -21 -6
-27 -10 -9 -16 -8 -26 7 -8 10 -12 23 -9 27 9 15 34 10 41 -7z m83 -3 c0 -11
-5 -23 -11 -27 -15 -9 -33 12 -26 30 9 23 37 20 37 -3z m70 2 c0 -16 2 -16 11
-3 8 12 10 12 7 -5 -2 -11 -11 -21 -21 -23 -12 -3 -17 3 -17 22 0 14 5 26 10
26 6 0 10 -8 10 -17z m95 -8 c0 -28 -29 -25 -33 3 -3 19 0 23 15 20 10 -2 18
-12 18 -23z m289 16 c9 -14 -4 -41 -19 -41 -18 0 -28 17 -21 35 6 17 32 20 40
6z m-1037 -81 c2 -23 -12 -35 -22 -20 -8 13 1 40 13 40 4 0 8 -9 9 -20z m37 4
c4 -9 4 -19 2 -21 -8 -8 -26 8 -26 23 0 19 16 18 24 -2z m186 1 c0 -16 -27
-32 -37 -22 -3 4 -3 13 0 22 8 20 37 20 37 0z m92 -27 c-13 -13 -32 -1 -31 20
0 11 3 12 6 5 7 -19 23 -16 24 5 1 15 2 15 6 -2 3 -10 0 -23 -5 -28z m178 21
c0 -24 -23 -21 -28 4 -2 10 3 17 12 17 10 0 16 -9 16 -21z m78 -20 c-15 -9
-46 16 -34 28 4 4 11 2 15 -6 6 -10 10 -8 16 6 8 17 8 17 13 -1 2 -10 -2 -22
-10 -27z m88 5 c-5 -13 -10 -14 -18 -6 -6 6 -8 18 -4 28 5 13 10 14 18 6 6 -6
8 -18 4 -28z m90 25 c10 -17 -13 -36 -27 -22 -12 12 -4 33 11 33 5 0 12 -5 16
-11z m94 -8 c0 -11 -5 -23 -11 -27 -15 -9 -33 12 -26 30 9 23 37 20 37 -3z
m100 -12 c-6 -10 -17 -19 -24 -19 -17 0 -29 27 -16 35 6 4 10 1 10 -4 0 -6 5
-11 10 -11 6 0 10 7 10 16 0 8 5 12 10 9 7 -4 7 -13 0 -26z m90 19 c0 -7 -4
-19 -9 -27 -11 -17 -25 3 -17 24 7 18 26 20 26 3z m-1150 -80 c0 -21 -3 -29
-10 -22 -5 5 -7 19 -4 32 9 31 14 27 14 -10z m225 12 c-4 -11 -2 -20 4 -20 6
0 11 -4 11 -10 0 -16 -27 -11 -34 6 -4 9 -1 23 5 30 16 20 21 17 14 -6z m113
-13 c3 -21 -1 -27 -16 -27 -24 0 -36 28 -21 47 17 20 33 11 37 -20z m-218 3
c9 -16 8 -22 -5 -26 -21 -8 -39 10 -32 30 9 22 24 20 37 -4z m322 14 c10 -9
-4 -44 -18 -44 -17 0 -27 17 -20 35 5 15 28 20 38 9z m86 -16 c-5 -34 -38 -37
-38 -4 0 20 5 26 21 26 15 0 20 -5 17 -22z m170 0 c-4 -32 -38 -37 -38 -6 0
18 2 20 10 8 8 -13 10 -12 10 3 0 9 5 17 11 17 6 0 9 -10 7 -22z m90 -1 c4
-20 -25 -34 -39 -20 -14 14 1 45 20 41 9 -2 17 -11 19 -21z m172 -8 c0 -20
-24 -26 -35 -9 -4 6 -4 17 -1 25 7 20 36 7 36 -16z m100 22 c0 -21 -13 -41
-26 -41 -8 0 -14 2 -14 4 0 2 -3 12 -7 22 -5 13 -3 16 10 11 9 -3 17 -2 17 3
0 6 5 10 10 10 6 0 10 -4 10 -9z m80 -16 c0 -14 -4 -25 -10 -25 -11 0 -14 33
-3 43 11 11 13 8 13 -18z m-1126 -54 c9 -14 -4 -41 -20 -41 -8 0 -14 8 -14 18
0 29 22 43 34 23z m225 -4 c8 -10 7 -18 -2 -31 -12 -16 -14 -16 -26 -2 -14 16
-9 46 7 46 5 0 15 -6 21 -13z m204 -17 c-6 -24 -31 -27 -40 -5 -8 22 6 33 17
15 8 -13 10 -12 10 3 0 10 4 16 9 13 5 -3 7 -15 4 -26z m165 22 c13 -9 6 -42
-9 -42 -11 0 -30 36 -22 44 8 8 15 7 31 -2z m448 -27 c-9 -24 -36 -18 -35 8 0
12 3 16 6 10 7 -19 23 -16 24 5 0 10 2 12 6 4 3 -7 2 -19 -1 -27z m98 19 c8
-20 -1 -34 -20 -34 -8 0 -14 8 -14 18 0 33 23 44 34 16z m-816 -11 c-2 -10
-10 -18 -18 -18 -8 0 -16 8 -18 18 -2 12 3 17 18 17 15 0 20 -5 18 -17z m190
0 c-2 -10 -10 -18 -18 -18 -8 0 -16 8 -18 18 -2 12 3 17 18 17 15 0 20 -5 18
-17z m172 3 c0 -20 -19 -31 -32 -18 -6 6 -7 15 -4 21 10 16 36 13 36 -3z m85
-6 c0 -8 -8 -16 -17 -18 -13 -2 -18 3 -18 18 0 15 5 20 18 18 9 -2 17 -10 17
-18z m175 0 c0 -11 -4 -20 -10 -20 -5 0 -10 5 -10 11 0 5 -4 7 -10 4 -5 -3
-10 1 -10 9 0 9 9 16 20 16 13 0 20 -7 20 -20z m-940 -66 c0 -19 -28 -30 -42
-16 -6 6 -8 17 -5 26 7 18 47 10 47 -10z m598 3 c4 -22 -27 -35 -38 -16 -10
15 7 42 24 36 6 -2 12 -11 14 -20z m162 -7 c0 -10 -5 -22 -10 -25 -13 -8 -24
20 -16 41 8 20 26 9 26 -16z m88 8 c-2 -13 -10 -23 -18 -23 -8 0 -16 10 -18
23 -3 17 2 22 18 22 16 0 21 -5 18 -22z m88 -13 c-8 -23 -36 -18 -36 6 0 18 2
20 16 9 8 -8 14 -9 13 -4 -3 17 3 29 8 16 3 -7 2 -19 -1 -27z m191 19 c8 -22
-15 -44 -26 -25 -10 16 -4 41 10 41 5 0 12 -7 16 -16z m-1033 -10 c4 -9 4 -19
2 -21 -8 -8 -26 8 -26 23 0 19 16 18 24 -2z m406 -5 c0 -11 -4 -17 -10 -14 -5
3 -10 13 -10 21 0 8 5 14 10 14 6 0 10 -9 10 -21z m525 -19 c-9 -15 -25 -2
-25 21 0 19 1 19 16 5 8 -9 12 -20 9 -26z m-1025 -44 c0 -8 -6 -19 -14 -25
-10 -9 -17 -7 -27 5 -11 14 -10 18 5 30 21 15 36 10 36 -10z m98 -1 c-4 -31
-17 -36 -32 -12 -8 14 -8 20 4 27 24 16 32 12 28 -15z m212 0 c0 -16 -6 -25
-15 -25 -15 0 -21 31 -8 43 13 14 23 6 23 -18z m197 9 c2 -5 -3 -19 -11 -29
-14 -19 -15 -19 -21 -2 -4 9 -4 24 -1 33 6 16 27 15 33 -2z m335 -26 c-13 -13
-32 -2 -32 19 0 13 3 13 15 3 12 -10 15 -9 16 6 1 18 1 18 6 0 3 -10 0 -23 -5
-28z m96 14 c2 -14 -2 -22 -12 -22 -19 0 -29 17 -22 36 8 22 30 12 34 -14z
m-731 3 c8 -9 13 -19 10 -22 -10 -10 -37 6 -37 22 0 19 7 19 27 0z m373 5 c0
10 3 11 11 3 13 -13 4 -33 -16 -33 -14 0 -27 25 -17 34 3 4 9 1 14 -6 6 -10 8
-10 8 2z m94 -5 c3 -9 -1 -18 -10 -22 -19 -7 -28 2 -21 22 8 19 23 19 31 0z
m86 -5 c0 -11 -7 -20 -15 -20 -8 0 -15 9 -15 20 0 11 7 20 15 20 8 0 15 -9 15
-20z m370 6 c0 -8 -4 -17 -9 -21 -12 -7 -24 12 -16 25 9 15 25 12 25 -4z
m-1135 -85 c-3 -12 -10 -21 -14 -21 -13 0 -35 30 -27 37 4 4 11 1 16 -7 8 -12
10 -10 10 10 0 17 3 21 11 13 6 -6 8 -20 4 -32z m100 4 c0 -28 -29 -25 -33 3
-3 19 0 23 15 20 10 -2 18 -12 18 -23z m225 5 c0 -13 -7 -20 -20 -20 -13 0
-20 7 -20 20 0 13 7 20 20 20 13 0 20 -7 20 -20z m100 -5 c0 -25 -23 -35 -35
-15 -10 16 2 40 20 40 9 0 15 -9 15 -25z m90 12 c0 -21 -17 -40 -29 -33 -19
12 -13 42 9 43 11 1 20 -4 20 -10z m78 -11 c3 -12 -1 -17 -10 -14 -7 3 -15 13
-16 22 -3 12 1 17 10 14 7 -3 15 -13 16 -22z m90 7 c-4 -22 -38 -30 -38 -10 0
14 13 24 33 26 5 1 7 -7 5 -16z m68 0 c-5 -15 -4 -15 9 1 15 20 20 10 9 -18
-10 -25 -34 -19 -34 9 0 14 5 25 11 25 6 0 8 -8 5 -17z m104 -3 c0 -11 -6 -20
-14 -20 -18 0 -29 16 -21 30 11 18 35 11 35 -10z m86 9 c10 -17 -13 -36 -27
-22 -12 12 -4 33 11 33 5 0 12 -5 16 -11z m83 -6 c1 23 21 22 21 -2 0 -19 -23
-35 -34 -24 -3 4 -6 16 -5 27 0 21 1 21 9 1 7 -17 9 -17 9 -2z m-799 -64 c0
-6 -4 -7 -10 -4 -5 3 -10 2 -10 -4 0 -5 6 -11 13 -14 6 -2 9 -8 4 -13 -4 -4
-15 0 -24 9 -13 13 -14 19 -4 31 14 16 31 13 31 -5z m718 -15 c-5 -26 -25 -28
-33 -3 -5 14 -2 25 6 30 18 10 32 -4 27 -27z m-620 3 c-4 -28 -34 -34 -41 -8
-6 24 -4 26 23 28 16 1 21 -3 18 -20z m83 6 c0 -16 2 -15 10 2 8 18 8 18 6 -5
-3 -31 -31 -33 -35 -2 -2 12 1 22 7 22 6 0 11 -8 12 -17z m276 1 c1 -5 -2 -16
-7 -24 -12 -20 -35 2 -26 25 6 17 27 16 33 -1z m361 -9 c-4 -30 -38 -33 -38
-3 0 17 6 24 20 24 15 0 20 -6 18 -21z m-818 -65 c0 -11 -4 -21 -9 -24 -13 -8
-34 21 -27 39 7 20 36 8 36 -15z m908 -17 c-16 -15 -18 -15 -24 0 -3 9 -3 25
0 34 6 15 8 15 24 0 15 -16 15 -18 0 -34z m-1157 20 c1 -17 2 -17 6 0 5 20 23
23 23 3 0 -18 -27 -39 -40 -31 -13 8 -13 45 0 45 6 0 11 -8 11 -17z m129 -14
c0 -10 -4 -19 -10 -19 -5 0 -10 12 -10 26 0 14 4 23 10 19 6 -3 10 -15 10 -26z
m486 18 c16 6 18 -6 4 -27 -9 -13 -12 -12 -25 4 -8 10 -11 24 -8 29 5 8 8 7
10 0 3 -7 11 -9 19 -6z m84 -7 c0 -19 -11 -26 -23 -14 -8 8 3 34 14 34 5 0 9
-9 9 -20z m85 -3 c0 -26 -20 -25 -23 2 -3 16 1 22 10 19 7 -3 13 -12 13 -21z
m85 2 c0 -24 -23 -21 -28 4 -2 10 3 17 12 17 10 0 16 -9 16 -21z m-425 0 c10
-14 1 -21 -19 -13 -9 3 -13 10 -10 15 7 12 21 11 29 -2z m619 -5 c8 -21 3 -26
-18 -18 -9 3 -16 12 -16 20 0 19 26 18 34 -2z m-2024 -23 c0 -5 -13 -11 -29
-14 -56 -12 -192 -69 -241 -102 -28 -19 -50 -30 -50 -27 0 4 11 24 25 44 29
43 82 78 145 94 53 15 150 18 150 5z m1310 -42 c0 -12 -7 -19 -19 -19 -28 0
-37 21 -16 36 22 16 35 10 35 -17z m620 0 c0 -23 -28 -26 -37 -3 -6 16 15 37
29 28 4 -3 8 -14 8 -25z m190 6 c0 -15 -18 -30 -27 -22 -2 3 -2 15 2 26 7 23
25 19 25 -4z m-1130 9 c0 -3 -5 -14 -11 -25 -8 -16 -13 -18 -25 -9 -7 7 -11
17 -8 22 4 6 10 5 15 -3 7 -11 9 -10 9 4 0 9 5 17 10 17 6 0 10 -3 10 -6z
m143 0 c9 -10 -4 -34 -19 -34 -8 0 -14 9 -14 20 0 19 19 27 33 14z m277 -14
c0 -13 -7 -20 -20 -20 -19 0 -27 20 -13 33 13 14 33 6 33 -13z m168 -4 c3 -12
-1 -17 -10 -14 -7 3 -15 13 -16 22 -3 12 1 17 10 14 7 -3 15 -13 16 -22z m78
-14 c-4 -3 -12 0 -19 7 -9 9 -9 14 3 21 11 7 16 5 18 -6 2 -9 1 -18 -2 -22z
m182 14 c3 -13 -1 -17 -14 -14 -11 2 -20 11 -22 22 -3 13 1 17 14 14 11 -2 20
-11 22 -22z m172 -6 c5 0 7 7 4 15 -4 8 -1 15 5 15 6 0 11 -9 11 -20 0 -13 -7
-20 -20 -20 -14 0 -20 6 -19 23 1 16 2 18 6 5 2 -10 8 -18 13 -18z m2997 -65
c12 -22 21 -41 19 -42 -2 -2 -23 6 -47 16 -24 11 -84 28 -133 37 -110 22 -92
34 44 31 l94 -2 23 -40z m-4022 25 c10 -16 -5 -50 -21 -50 -20 0 -29 27 -14
45 14 17 26 19 35 5z m223 -14 c5 -23 -9 -37 -27 -27 -8 5 -11 16 -6 30 8 25
28 23 33 -3z m282 -6 c0 -16 -4 -30 -9 -30 -10 0 -22 40 -15 52 11 18 24 6 24
-22z m345 0 c0 -13 -6 -25 -12 -27 -16 -6 -27 21 -19 43 9 23 31 11 31 -16z
m84 9 c-12 -8 -12 -10 0 -18 10 -6 10 -10 1 -16 -12 -8 -30 10 -30 32 0 13 21
23 34 15 4 -2 2 -8 -5 -13z m-829 -14 c0 -14 -4 -25 -10 -25 -5 0 -10 7 -10
16 0 8 -4 12 -10 9 -11 -7 -14 8 -3 18 15 16 33 6 33 -18z m218 3 c-2 -13 -10
-23 -18 -23 -8 0 -16 10 -18 23 -3 17 2 22 18 22 16 0 21 -5 18 -22z m106 13
c9 -14 -5 -41 -20 -41 -20 0 -30 30 -13 41 18 11 26 11 33 0z m253 -7 c1 -5
-2 -16 -7 -24 -12 -20 -35 2 -26 25 6 17 27 16 33 -1z m88 -9 c0 -28 -29 -25
-33 3 -3 19 0 23 15 20 10 -2 18 -12 18 -23z m248 8 c-5 -15 -3 -14 11 2 16
20 17 20 14 -5 -4 -31 -32 -33 -36 -2 -2 12 1 22 7 22 6 0 8 -8 4 -17z m107
-10 c-1 -24 -2 -26 -11 -10 -5 9 -7 22 -4 27 10 17 15 11 15 -17z m-2100 -20
c0 -5 -43 -28 -95 -54 -68 -33 -91 -40 -84 -27 12 22 90 68 132 78 44 11 47
11 47 3z m425 -24 c39 -11 40 -12 15 -22 -111 -46 -152 -65 -195 -93 -54 -36
-186 -165 -261 -257 -26 -32 -48 -56 -51 -54 -5 6 54 145 84 197 14 25 40 63
57 84 l30 39 -70 -37 c-39 -20 -99 -60 -134 -87 -34 -28 -64 -48 -67 -46 -2 3
5 23 16 44 46 90 199 194 337 227 72 18 185 20 239 5z m4345 -16 c83 -23 187
-81 241 -136 56 -57 64 -79 17 -48 -68 45 -146 79 -226 101 -45 12 -97 33
-115 46 -17 13 -42 29 -54 35 -13 7 -23 16 -23 20 0 11 93 1 160 -18z m-3790
8 c0 -21 -13 -41 -26 -41 -8 0 -14 2 -14 4 0 2 -3 13 -7 23 -6 16 -5 16 10 4
15 -12 17 -11 17 3 0 9 5 16 10 16 6 0 10 -4 10 -9z m220 -9 c0 -26 -11 -34
-27 -21 -20 17 -16 39 7 39 13 0 20 -7 20 -18z m97 -5 c-5 -15 -37 -17 -37 -3
0 7 3 15 6 19 9 9 35 -4 31 -16z m100 8 c7 -20 -2 -29 -21 -22 -9 4 -13 13
-10 22 8 19 23 19 31 0z m178 5 c4 -6 1 -18 -6 -26 -12 -14 -14 -14 -26 2 -7
9 -10 21 -7 25 7 12 31 11 39 -1z m75 -24 c-15 -15 -33 4 -19 20 10 12 14 12
20 2 5 -7 4 -17 -1 -22z m266 23 c8 -14 -11 -33 -25 -25 -11 7 -4 36 9 36 5 0
12 -5 16 -11z m101 -12 c-5 -17 -37 -21 -37 -5 0 8 9 14 21 15 12 1 19 -3 16
-10z m-537 -67 c0 -10 -4 -22 -10 -25 -6 -4 -10 7 -10 25 0 18 4 29 10 25 6
-3 10 -15 10 -25z m270 10 c0 -20 -13 -40 -26 -40 -20 0 -29 27 -14 45 11 14
40 10 40 -5z m-776 1 c9 -14 -4 -41 -19 -41 -18 0 -28 17 -21 35 6 17 32 20
40 6z m144 -20 c3 -16 -1 -22 -10 -19 -7 3 -15 15 -16 27 -3 16 1 22 10 19 7
-3 15 -15 16 -27z m180 7 c-5 -34 -38 -37 -38 -4 0 20 5 26 21 26 15 0 20 -5
17 -22z m82 5 c0 -15 2 -16 10 -3 8 12 10 10 10 -8 0 -17 -5 -23 -17 -20 -19
3 -32 48 -14 48 6 0 11 -8 11 -17z m179 2 c1 13 4 16 11 9 13 -13 2 -44 -15
-44 -16 0 -24 19 -17 39 4 11 7 10 13 -5 7 -19 8 -19 8 1z m91 -10 c0 -14 -4
-25 -10 -25 -5 0 -10 11 -10 25 0 14 5 25 10 25 6 0 10 -11 10 -25z m170 5 c0
-11 -4 -20 -10 -20 -5 0 -10 9 -10 20 0 11 5 20 10 20 6 0 10 -9 10 -20z m91
5 c7 17 8 16 8 -7 1 -18 -4 -28 -13 -28 -20 0 -29 17 -20 38 6 15 8 15 12 -3
l5 -20 8 20z m99 -10 c0 -14 -4 -25 -10 -25 -5 0 -10 11 -10 25 0 14 5 25 10
25 6 0 10 -11 10 -25z m848 -114 c7 -4 39 -57 70 -117 45 -87 62 -110 81 -112
38 -6 41 9 15 72 -40 99 -27 146 40 146 42 0 70 -27 132 -128 26 -43 53 -81
58 -85 6 -5 178 -7 381 -5 l370 3 0 -62 c0 -57 -3 -66 -32 -95 l-32 -32 39
-43 c41 -43 48 -69 30 -104 -28 -51 -149 -68 -187 -26 -33 36 -35 59 -9 110
l23 47 -220 0 -220 0 61 -58 c53 -49 62 -63 62 -92 0 -42 -33 -80 -70 -80 -40
0 -73 31 -147 138 -79 116 -89 125 -115 111 -31 -17 -45 -5 -82 70 -36 70 -48
81 -78 73 -16 -4 -15 -9 9 -56 14 -28 53 -93 86 -144 33 -51 58 -95 56 -97 -3
-2 -31 10 -64 27 -49 25 -73 31 -130 32 -69 1 -70 1 -86 36 -9 19 -29 72 -44
117 -28 83 -44 101 -79 87 -13 -5 -7 -24 44 -121 74 -142 76 -157 13 -185 -32
-14 -51 -18 -62 -11 -9 5 -33 42 -54 81 l-38 72 -72 0 -72 -1 40 -34 c22 -19
55 -45 72 -58 18 -12 35 -28 38 -36 8 -21 -4 -50 -27 -62 -16 -9 -30 -4 -81
32 -97 66 -148 110 -159 135 l-11 24 -768 2 c-761 3 -768 3 -796 24 -50 37
-74 83 -71 134 l3 45 903 -3 902 -3 0 28 c0 39 26 73 56 73 25 0 53 -24 87
-74 14 -20 26 -26 48 -24 16 1 29 7 29 13 0 5 -11 42 -25 80 -13 39 -25 78
-25 88 0 41 70 73 108 48z"/>
        <path d="M1925 2150 c-3 -5 -1 -10 4 -10 6 0 11 5 11 10 0 6 -2 10 -4 10 -3 0
-8 -4 -11 -10z"/>
        <path d="M1477 763 c-4 -3 -7 -30 -7 -60 l0 -53 865 0 c476 0 865 2 865 4 0 2
-12 29 -26 60 l-25 56 -833 0 c-458 0 -836 -3 -839 -7z"/>
        <path d="M3862 719 c18 -28 40 -55 50 -60 10 -5 122 -8 265 -7 l248 3 3 58 3
57 -300 0 -300 0 31 -51z"/>
        <path d="M5393 1990 c7 -289 31 -348 183 -451 l75 -50 -16 38 c-60 141 -92
224 -160 423 -43 124 -80 227 -83 230 -2 3 -2 -83 1 -190z"/>
    </g>
</svg>