<?xml version="1.0"?>
<svg width="583" height="626" xmlns="http://www.w3.org/2000/svg" xmlns:svg="http://www.w3.org/2000/svg" preserveAspectRatio="xMidYMid meet" version="1.0">
 <g class="layer">
  <title>Layer 1</title>
  <g fill="#FFFFFF" id="svg_1" stroke="#FFFFFF" transform="translate(267 23) matrix(0.0127364 0 0 -0.0124112 0.707792 78.4381)">
   <path d="m2860,6245c-80,-28 -246,-114 -318,-165c-208,-146 -323,-303 -417,-570c-52,-148 -113,-287 -192,-444c-38,-74 -64,-132 -58,-128c6,4 44,32 86,63c219,165 575,328 817,375c113,22 307,22 432,0c250,-44 523,-172 772,-361l47,-36l-82,163c-46,90 -125,253 -177,363c-52,110 -117,234 -144,275c-100,155 -298,320 -510,425c-108,53 -183,65 -256,40zm275,-230c55,-8 194,-56 233,-81c26,-17 24,-6 -6,29c-8,9 -10,17 -5,17c25,0 152,-153 192,-229c22,-43 41,-82 41,-86c0,-3 -13,3 -29,14c-23,16 -15,0 40,-82c38,-56 69,-105 69,-109c0,-5 -28,13 -62,38c-35,25 -88,59 -118,74c-58,29 -238,90 -267,90c-13,0 -14,3 -6,11c7,7 51,12 106,13l95,1l-35,23c-29,20 -140,75 -223,110c-24,10 -24,11 10,11c20,1 66,-7 103,-18c68,-18 68,-18 50,1c-28,31 -183,132 -236,154c-49,20 -64,38 -24,30c12,-3 44,-8 72,-11z" fill="#007f00" id="svg_2"/>
   <path d="m2815,5296c-256,-51 -750,-303 -998,-510c-198,-166 -240,-338 -153,-635c40,-137 94,-258 162,-367c24,-40 44,-74 44,-78c0,-19 -179,-83 -355,-127c-354,-88 -427,-120 -546,-239c-100,-100 -138,-175 -243,-488c-47,-138 -108,-301 -135,-362l-49,-110l38,-78c21,-42 74,-138 118,-212c45,-74 79,-136 77,-139c-6,-6 -138,102 -221,181l-71,68l-58,-143c-33,-78 -81,-189 -107,-246c-31,-66 -42,-99 -31,-89c10,8 56,46 101,83c83,68 102,94 102,141c0,14 4,23 8,20c14,-9 47,-255 36,-266c-6,-6 -36,-17 -67,-25c-119,-31 -213,-98 -260,-184c-16,-29 -34,-85 -43,-135c-18,-107 -29,-138 -92,-260c-70,-134 -79,-182 -58,-314c18,-119 64,-263 106,-338c93,-161 213,-224 430,-224c223,0 461,52 653,142c48,23 89,39 92,36c3,-2 -6,-76 -20,-164c-13,-87 -25,-175 -27,-194l-3,-35l1669,-3c919,-1 1673,1 1677,5c4,5 3,43 -3,86c-6,42 -9,80 -6,83c3,3 32,1 64,-5c211,-38 367,-33 559,19c155,42 381,124 428,157c82,57 127,156 172,379c30,148 30,165 -16,389c-33,165 -53,209 -120,269c-61,56 -120,79 -214,84c-81,4 -178,-18 -277,-62c-21,-9 -38,-13 -38,-9c1,11 108,95 193,151l68,45l-29,13c-46,19 -128,34 -187,34c-30,0 -55,3 -55,6c0,3 18,36 41,74c78,131 184,403 196,501c4,30 -1,66 -13,105l-18,59l-6,-67c-5,-62 -8,-70 -45,-108c-22,-23 -69,-61 -105,-85c-63,-42 -230,-130 -230,-121c0,3 18,37 39,78c84,157 131,315 161,544c23,176 18,222 -34,369c-74,206 -183,344 -349,441c-84,49 -136,69 -296,110c-215,56 -451,139 -451,159c0,3 20,41 45,84c62,106 118,238 161,379c99,325 28,521 -274,760c-221,175 -422,278 -672,344c-95,25 -139,31 -255,34c-93,2 -164,-1 -210,-10zm1305,-1183c-29,-113 -63,-192 -119,-276c-80,-118 -99,-159 -131,-277c-64,-232 -135,-323 -330,-425c-63,-33 -119,-62 -125,-64c-25,-10 38,47 122,110c165,124 238,229 283,408c26,102 55,161 130,266c63,88 110,175 147,275c37,100 35,96 40,83c2,-7 -5,-52 -17,-100zm-2295,-153c4,-12 40,-62 81,-113c86,-107 125,-180 154,-292c45,-174 100,-249 293,-399c67,-52 138,-111 157,-132l35,-37l-35,20c-231,135 -303,184 -371,254c-68,69 -99,131 -132,265c-27,109 -54,168 -128,285c-39,61 -79,144 -79,165c0,13 20,0 25,-16zm2344,-366c430,-96 729,-263 830,-463c44,-86 63,-163 55,-216l-6,-46l-23,21l-23,22l-99,-174c-62,-109 -99,-166 -101,-153c-1,11 13,150 31,309l34,289l-31,-36c-17,-20 -34,-37 -38,-37c-5,0 -8,15 -8,33c0,66 -30,140 -75,184c-39,39 -47,43 -92,43c-67,0 -125,-22 -192,-72c-38,-29 -52,-35 -47,-22c12,30 46,138 46,147c0,34 -141,-39 -238,-123c-45,-38 -84,-70 -86,-70c-4,0 38,167 60,243c8,27 -15,21 -100,-28c-44,-25 -83,-45 -87,-45c-4,0 -3,15 2,32c5,18 12,68 15,110c8,93 0,91 173,52zm-2291,4c7,-7 12,-24 12,-39c0,-21 -6,-28 -29,-32c-22,-5 -31,-13 -36,-36l-6,-30l-87,6c-48,3 -97,1 -109,-4c-22,-8 -22,-9 19,-57l42,-49l-30,5c-16,3 -72,15 -124,27c-117,28 -235,25 -324,-7c-64,-23 -169,-88 -205,-126l-23,-24l16,-124c22,-176 49,-475 43,-490c-10,-29 -147,472 -147,539c0,31 82,135 148,188c116,92 237,142 527,216c191,48 290,60 313,37zm482,-568c12,-8 16,-50 20,-247l5,-238l345,-2c339,-2 344,-1 320,17c-14,10 -21,22 -17,26c11,11 57,-14 57,-31c0,-13 27,-15 198,-15l198,0l0,231c-1,242 3,269 43,269c38,0 41,-16 41,-262l0,-238l473,0c289,0 486,-4 509,-10c41,-12 94,-66 105,-108c4,-15 -3,-178 -16,-362c-71,-1058 -68,-993 -54,-997c6,-2 45,3 87,11c131,28 260,18 366,-25l45,-19l-35,30c-19,17 -65,45 -102,63c-37,17 -67,35 -67,38c-2,13 89,18 147,9c130,-21 243,-82 343,-187c54,-56 129,-171 129,-199c0,-3 -24,15 -52,41c-29,26 -86,70 -126,97c-72,48 -73,49 -65,21c13,-46 10,-260 -4,-274c-10,-10 -28,3 -84,55c-61,58 -217,172 -224,164c-2,-2 4,-34 12,-73c9,-43 12,-90 8,-122c-7,-58 -53,-159 -86,-189l-21,-19l7,34c15,70 8,159 -18,213c-24,52 -106,153 -91,113c14,-40 32,-110 28,-114c-2,-2 -12,7 -23,20l-19,24l-7,-40c-12,-70 -16,-72 -35,-18c-26,76 -65,142 -111,192l-40,43l-32,-30c-62,-58 -117,-72 -69,-18c19,22 34,54 41,88c6,29 22,242 37,473c14,231 33,528 43,660c18,250 15,297 -19,315c-12,7 -556,10 -1609,10l-1591,0l-22,-22c-20,-20 -21,-26 -14,-202c4,-100 13,-278 21,-396c8,-118 22,-348 30,-510c9,-162 21,-313 26,-335c6,-22 24,-57 41,-79c30,-37 30,-38 7,-31c-39,12 -90,55 -104,89c-7,17 -16,54 -20,81c-3,28 -9,63 -12,80l-6,29l-23,-46c-26,-52 -64,-180 -64,-217c0,-16 -3,-22 -10,-15c-5,5 -10,43 -12,84l-3,74l-19,-28c-10,-16 -21,-46 -23,-67c-7,-46 -14,-48 -41,-14c-11,14 -22,25 -26,25c-3,0 -17,-17 -32,-37l-26,-38l5,48l5,48l-25,-23c-14,-13 -43,-50 -65,-83l-41,-60l8,50c4,27 16,73 27,102c22,59 18,73 -19,73c-43,0 -108,-37 -167,-96c-31,-30 -58,-54 -61,-54c-3,0 8,27 25,60c85,169 242,259 470,269l115,6l-2,60c-2,33 -9,159 -17,280c-29,425 -48,824 -42,859c7,38 44,89 80,109c15,9 149,13 505,17l484,5l1,235c1,129 5,241 9,248c10,14 26,15 47,2zm300,-145c0,-12 -28,-35 -44,-35c-14,0 -5,30 12,39c24,14 32,13 32,-4zm584,-7c5,-9 7,-20 3,-24c-8,-8 -47,24 -47,38c0,15 32,5 44,-14zm-554,-31c0,-7 -5,-18 -12,-25c-7,-7 -18,-12 -25,-12c-16,0 -17,22 -1,38c16,16 38,15 38,-1zm525,-7c10,-11 15,-23 12,-26c-8,-8 -57,23 -57,36c0,17 26,11 45,-10zm-491,-36c7,-19 -10,-44 -31,-44c-23,0 -28,31 -8,46c24,18 32,18 39,-2zm457,6c21,-12 26,-40 6,-40c-7,0 -18,5 -25,12c-12,12 -17,38 -6,38c3,0 14,-5 25,-10zm-433,-46c-4,-20 -34,-41 -44,-31c-8,8 24,47 38,47c5,0 8,-7 6,-16zm417,-4c14,-15 15,-20 4,-20c-15,1 -49,23 -49,34c0,13 28,5 45,-14zm-20,-30c10,-11 15,-23 12,-26c-8,-8 -57,23 -57,36c0,17 26,11 45,-10zm-370,-1c8,-11 -22,-38 -42,-39c-16,0 -17,22 -1,38c15,15 35,15 43,1zm359,-42c8,-13 8,-20 -3,-26c-7,-5 -11,-13 -7,-19c10,-17 -11,-24 -34,-12c-25,13 -28,45 -4,36c13,-5 14,-4 6,7c-9,10 -8,17 0,25c15,15 28,11 42,-11zm-339,4c8,-14 -37,-43 -49,-31c-7,7 -3,15 10,25c23,17 31,18 39,6zm15,-39c0,-12 -23,-32 -37,-32c-17,0 -17,27 0,33c19,8 37,8 37,-1zm10,-57c-14,-16 -40,-20 -40,-6c0,5 7,17 16,26c22,21 44,4 24,-20zm285,14c5,-6 5,-13 -1,-19c-11,-11 -54,14 -54,31c0,11 39,2 55,-12zm-255,-33c0,-16 -37,-32 -48,-21c-7,7 25,35 40,35c4,0 8,-6 8,-14zm-1323,-360c-8,-20 -36,-21 -43,-1c-4,8 0,22 7,31c11,13 14,13 27,0c8,-8 12,-22 9,-30zm103,-5c-14,-27 -34,-22 -38,9c-5,28 18,44 36,26c11,-11 11,-18 2,-35zm578,8c-1,-13 -10,-24 -18,-24c-19,0 -26,45 -8,56c18,11 30,-4 26,-32zm89,-3c-8,-20 -36,-21 -43,-1c-4,8 0,22 7,31c11,13 14,13 27,0c8,-8 12,-22 9,-30zm-539,11c4,-20 -25,-34 -40,-19c-15,15 -1,44 19,40c10,-2 19,-11 21,-21zm92,-2c0,-18 -5,-25 -19,-25c-19,0 -37,28 -25,39c4,3 9,0 11,-6c3,-7 9,-13 15,-13c6,0 8,7 4,15c-3,8 -1,15 4,15c6,0 10,-11 10,-25zm90,6c12,18 22,7 14,-15c-7,-18 -29,-21 -39,-6c-4,6 -3,19 1,28c6,15 8,15 12,-2c3,-15 6,-16 12,-5zm88,-10c3,-16 -1,-22 -10,-19c-7,3 -15,15 -16,27c-3,16 1,22 10,19c7,-3 15,-15 16,-27zm352,4c0,-18 -5,-25 -20,-25c-15,0 -20,7 -20,25c0,18 5,25 20,25c15,0 20,-7 20,-25zm190,0c0,-18 -5,-25 -20,-25c-15,0 -20,7 -20,25c0,18 5,25 20,25c15,0 20,-7 20,-25zm96,10c8,-20 -13,-45 -32,-38c-14,5 -19,34 -7,46c11,12 33,7 39,-8zm-1136,-78c0,-7 -4,-18 -9,-26c-8,-12 -12,-12 -25,-2c-17,15 -22,41 -7,41c5,0 12,-8 14,-17c3,-13 5,-12 6,5c1,23 21,22 21,-1zm215,13c3,-5 1,-10 -4,-10c-6,0 -11,-5 -11,-11c0,-5 5,-7 10,-4c6,3 10,-1 10,-9c0,-9 -4,-16 -9,-16c-16,0 -31,27 -25,44c7,18 20,21 29,6zm100,-20c0,-13 -6,-25 -12,-27c-16,-6 -27,21 -19,43c9,23 31,11 31,-16zm188,13c-6,-2 -9,-13 -6,-23c6,-23 -15,-27 -23,-5c-8,19 14,47 29,38c8,-5 8,-8 0,-10zm435,-11c3,-17 -2,-22 -17,-22c-14,0 -21,6 -21,18c0,38 33,41 38,4zm-843,-7c0,-28 -29,-25 -33,3c-3,19 0,23 15,20c10,-2 18,-12 18,-23zm323,2c-4,-28 -32,-29 -36,-2c-2,15 3,21 18,22c16,1 21,-3 18,-20zm260,1c-4,-28 -32,-30 -36,-3c-3,16 -1,17 7,5c9,-13 11,-13 11,3c0,9 5,17 11,17c6,0 9,-10 7,-22zm80,-4c1,-17 -2,-24 -11,-22c-17,6 -22,48 -5,48c8,0 15,-12 16,-26zm263,-4c5,0 9,8 9,17c0,12 3,14 10,7c13,-13 3,-44 -14,-44c-20,0 -35,21 -28,39c6,14 7,14 10,-1c2,-10 8,-18 13,-18zm109,11c0,-11 -4,-22 -9,-25c-12,-8 -34,21 -26,34c11,17 35,11 35,-9zm-1137,-53c6,-21 -4,-48 -19,-48c-20,0 -29,27 -14,45c15,18 27,19 33,3zm216,-9c-12,-8 -12,-11 1,-18c8,-6 11,-13 7,-17c-4,-4 -15,0 -24,9c-13,13 -14,19 -4,31c8,9 18,13 23,10c6,-4 5,-10 -3,-15zm639,3c2,-8 -3,-10 -15,-6c-17,5 -17,5 0,-9c12,-10 14,-17 8,-22c-15,-9 -31,3 -31,24c0,31 28,41 38,13zm-756,-34c-16,-16 -37,4 -28,28c6,16 8,16 23,1c13,-13 15,-19 5,-29zm218,16c0,-31 -23,-28 -28,4c-2,15 2,22 12,22c11,0 16,-9 16,-26zm110,7c0,-11 -4,-22 -8,-25c-14,-9 -35,12 -29,28c9,23 37,20 37,-3zm80,-6c0,-26 -14,-33 -25,-15c-9,14 1,40 15,40c5,0 10,-11 10,-25zm90,14c0,-5 -4,-7 -10,-4c-5,3 -10,2 -10,-4c0,-5 6,-11 13,-14c6,-2 9,-8 5,-12c-11,-11 -28,4 -28,26c0,10 7,19 15,19c8,0 15,-5 15,-11zm80,-14c0,-26 -14,-33 -25,-15c-9,14 1,40 15,40c5,0 10,-11 10,-25zm85,2c0,-26 -20,-25 -23,2c-3,16 1,22 10,19c7,-3 13,-12 13,-21zm183,1c-2,-13 -10,-23 -18,-23c-8,0 -16,10 -18,23c-3,17 2,22 18,22c16,0 21,-5 18,-22zm97,-3c0,-11 -8,-21 -17,-23c-14,-3 -18,3 -18,23c0,20 4,26 18,23c9,-2 17,-12 17,-23zm85,-9c-15,-15 -33,4 -19,20c10,12 14,12 20,2c5,-7 4,-17 -1,-22zm-1141,-53c1,9 6,17 11,17c13,0 13,-20 0,-40c-8,-13 -11,-13 -26,2c-10,9 -13,21 -8,29c5,9 9,8 15,-7c7,-17 8,-17 8,-1zm239,-5c-2,-13 -10,-23 -18,-23c-8,0 -16,10 -18,23c-3,17 2,22 18,22c16,0 21,-5 18,-22zm99,6c8,-21 -13,-42 -28,-27c-13,13 -5,43 11,43c6,0 13,-7 17,-16zm103,-9c0,-25 -23,-35 -35,-15c-10,16 2,40 20,40c9,0 15,-9 15,-25zm84,3c-9,-31 -12,-34 -25,-21c-15,15 -4,43 16,43c12,0 15,-6 9,-22zm93,6c3,-8 0,-21 -6,-27c-10,-9 -16,-8 -26,7c-8,10 -12,23 -9,27c9,15 34,10 41,-7zm83,-3c0,-11 -5,-23 -11,-27c-15,-9 -33,12 -26,30c9,23 37,20 37,-3zm70,2c0,-16 2,-16 11,-3c8,12 10,12 7,-5c-2,-11 -11,-21 -21,-23c-12,-3 -17,3 -17,22c0,14 5,26 10,26c6,0 10,-8 10,-17zm95,-8c0,-28 -29,-25 -33,3c-3,19 0,23 15,20c10,-2 18,-12 18,-23zm289,16c9,-14 -4,-41 -19,-41c-18,0 -28,17 -21,35c6,17 32,20 40,6zm-1037,-81c2,-23 -12,-35 -22,-20c-8,13 1,40 13,40c4,0 8,-9 9,-20zm37,4c4,-9 4,-19 2,-21c-8,-8 -26,8 -26,23c0,19 16,18 24,-2zm186,1c0,-16 -27,-32 -37,-22c-3,4 -3,13 0,22c8,20 37,20 37,0zm92,-27c-13,-13 -32,-1 -31,20c0,11 3,12 6,5c7,-19 23,-16 24,5c1,15 2,15 6,-2c3,-10 0,-23 -5,-28zm178,21c0,-24 -23,-21 -28,4c-2,10 3,17 12,17c10,0 16,-9 16,-21zm78,-20c-15,-9 -46,16 -34,28c4,4 11,2 15,-6c6,-10 10,-8 16,6c8,17 8,17 13,-1c2,-10 -2,-22 -10,-27zm88,5c-5,-13 -10,-14 -18,-6c-6,6 -8,18 -4,28c5,13 10,14 18,6c6,-6 8,-18 4,-28zm90,25c10,-17 -13,-36 -27,-22c-12,12 -4,33 11,33c5,0 12,-5 16,-11zm94,-8c0,-11 -5,-23 -11,-27c-15,-9 -33,12 -26,30c9,23 37,20 37,-3zm100,-12c-6,-10 -17,-19 -24,-19c-17,0 -29,27 -16,35c6,4 10,1 10,-4c0,-6 5,-11 10,-11c6,0 10,7 10,16c0,8 5,12 10,9c7,-4 7,-13 0,-26zm90,19c0,-7 -4,-19 -9,-27c-11,-17 -25,3 -17,24c7,18 26,20 26,3zm-1150,-80c0,-21 -3,-29 -10,-22c-5,5 -7,19 -4,32c9,31 14,27 14,-10zm225,12c-4,-11 -2,-20 4,-20c6,0 11,-4 11,-10c0,-16 -27,-11 -34,6c-4,9 -1,23 5,30c16,20 21,17 14,-6zm113,-13c3,-21 -1,-27 -16,-27c-24,0 -36,28 -21,47c17,20 33,11 37,-20zm-218,3c9,-16 8,-22 -5,-26c-21,-8 -39,10 -32,30c9,22 24,20 37,-4zm322,14c10,-9 -4,-44 -18,-44c-17,0 -27,17 -20,35c5,15 28,20 38,9zm86,-16c-5,-34 -38,-37 -38,-4c0,20 5,26 21,26c15,0 20,-5 17,-22zm170,0c-4,-32 -38,-37 -38,-6c0,18 2,20 10,8c8,-13 10,-12 10,3c0,9 5,17 11,17c6,0 9,-10 7,-22zm90,-1c4,-20 -25,-34 -39,-20c-14,14 1,45 20,41c9,-2 17,-11 19,-21zm172,-8c0,-20 -24,-26 -35,-9c-4,6 -4,17 -1,25c7,20 36,7 36,-16zm100,22c0,-21 -13,-41 -26,-41c-8,0 -14,2 -14,4c0,2 -3,12 -7,22c-5,13 -3,16 10,11c9,-3 17,-2 17,3c0,6 5,10 10,10c6,0 10,-4 10,-9zm80,-16c0,-14 -4,-25 -10,-25c-11,0 -14,33 -3,43c11,11 13,8 13,-18zm-1126,-54c9,-14 -4,-41 -20,-41c-8,0 -14,8 -14,18c0,29 22,43 34,23zm225,-4c8,-10 7,-18 -2,-31c-12,-16 -14,-16 -26,-2c-14,16 -9,46 7,46c5,0 15,-6 21,-13zm204,-17c-6,-24 -31,-27 -40,-5c-8,22 6,33 17,15c8,-13 10,-12 10,3c0,10 4,16 9,13c5,-3 7,-15 4,-26zm165,22c13,-9 6,-42 -9,-42c-11,0 -30,36 -22,44c8,8 15,7 31,-2zm448,-27c-9,-24 -36,-18 -35,8c0,12 3,16 6,10c7,-19 23,-16 24,5c0,10 2,12 6,4c3,-7 2,-19 -1,-27zm98,19c8,-20 -1,-34 -20,-34c-8,0 -14,8 -14,18c0,33 23,44 34,16zm-816,-11c-2,-10 -10,-18 -18,-18c-8,0 -16,8 -18,18c-2,12 3,17 18,17c15,0 20,-5 18,-17zm190,0c-2,-10 -10,-18 -18,-18c-8,0 -16,8 -18,18c-2,12 3,17 18,17c15,0 20,-5 18,-17zm172,3c0,-20 -19,-31 -32,-18c-6,6 -7,15 -4,21c10,16 36,13 36,-3zm85,-6c0,-8 -8,-16 -17,-18c-13,-2 -18,3 -18,18c0,15 5,20 18,18c9,-2 17,-10 17,-18zm175,0c0,-11 -4,-20 -10,-20c-5,0 -10,5 -10,11c0,5 -4,7 -10,4c-5,-3 -10,1 -10,9c0,9 9,16 20,16c13,0 20,-7 20,-20zm-940,-66c0,-19 -28,-30 -42,-16c-6,6 -8,17 -5,26c7,18 47,10 47,-10zm598,3c4,-22 -27,-35 -38,-16c-10,15 7,42 24,36c6,-2 12,-11 14,-20zm162,-7c0,-10 -5,-22 -10,-25c-13,-8 -24,20 -16,41c8,20 26,9 26,-16zm88,8c-2,-13 -10,-23 -18,-23c-8,0 -16,10 -18,23c-3,17 2,22 18,22c16,0 21,-5 18,-22zm88,-13c-8,-23 -36,-18 -36,6c0,18 2,20 16,9c8,-8 14,-9 13,-4c-3,17 3,29 8,16c3,-7 2,-19 -1,-27zm191,19c8,-22 -15,-44 -26,-25c-10,16 -4,41 10,41c5,0 12,-7 16,-16zm-1033,-10c4,-9 4,-19 2,-21c-8,-8 -26,8 -26,23c0,19 16,18 24,-2zm406,-5c0,-11 -4,-17 -10,-14c-5,3 -10,13 -10,21c0,8 5,14 10,14c6,0 10,-9 10,-21zm525,-19c-9,-15 -25,-2 -25,21c0,19 1,19 16,5c8,-9 12,-20 9,-26zm-1025,-44c0,-8 -6,-19 -14,-25c-10,-9 -17,-7 -27,5c-11,14 -10,18 5,30c21,15 36,10 36,-10zm98,-1c-4,-31 -17,-36 -32,-12c-8,14 -8,20 4,27c24,16 32,12 28,-15zm212,0c0,-16 -6,-25 -15,-25c-15,0 -21,31 -8,43c13,14 23,6 23,-18zm197,9c2,-5 -3,-19 -11,-29c-14,-19 -15,-19 -21,-2c-4,9 -4,24 -1,33c6,16 27,15 33,-2zm335,-26c-13,-13 -32,-2 -32,19c0,13 3,13 15,3c12,-10 15,-9 16,6c1,18 1,18 6,0c3,-10 0,-23 -5,-28zm96,14c2,-14 -2,-22 -12,-22c-19,0 -29,17 -22,36c8,22 30,12 34,-14zm-731,3c8,-9 13,-19 10,-22c-10,-10 -37,6 -37,22c0,19 7,19 27,0zm373,5c0,10 3,11 11,3c13,-13 4,-33 -16,-33c-14,0 -27,25 -17,34c3,4 9,1 14,-6c6,-10 8,-10 8,2zm94,-5c3,-9 -1,-18 -10,-22c-19,-7 -28,2 -21,22c8,19 23,19 31,0zm86,-5c0,-11 -7,-20 -15,-20c-8,0 -15,9 -15,20c0,11 7,20 15,20c8,0 15,-9 15,-20zm370,6c0,-8 -4,-17 -9,-21c-12,-7 -24,12 -16,25c9,15 25,12 25,-4zm-1135,-85c-3,-12 -10,-21 -14,-21c-13,0 -35,30 -27,37c4,4 11,1 16,-7c8,-12 10,-10 10,10c0,17 3,21 11,13c6,-6 8,-20 4,-32zm100,4c0,-28 -29,-25 -33,3c-3,19 0,23 15,20c10,-2 18,-12 18,-23zm225,5c0,-13 -7,-20 -20,-20c-13,0 -20,7 -20,20c0,13 7,20 20,20c13,0 20,-7 20,-20zm100,-5c0,-25 -23,-35 -35,-15c-10,16 2,40 20,40c9,0 15,-9 15,-25zm90,12c0,-21 -17,-40 -29,-33c-19,12 -13,42 9,43c11,1 20,-4 20,-10zm78,-11c3,-12 -1,-17 -10,-14c-7,3 -15,13 -16,22c-3,12 1,17 10,14c7,-3 15,-13 16,-22zm90,7c-4,-22 -38,-30 -38,-10c0,14 13,24 33,26c5,1 7,-7 5,-16zm68,0c-5,-15 -4,-15 9,1c15,20 20,10 9,-18c-10,-25 -34,-19 -34,9c0,14 5,25 11,25c6,0 8,-8 5,-17zm104,-3c0,-11 -6,-20 -14,-20c-18,0 -29,16 -21,30c11,18 35,11 35,-10zm86,9c10,-17 -13,-36 -27,-22c-12,12 -4,33 11,33c5,0 12,-5 16,-11zm83,-6c1,23 21,22 21,-2c0,-19 -23,-35 -34,-24c-3,4 -6,16 -5,27c0,21 1,21 9,1c7,-17 9,-17 9,-2zm-799,-64c0,-6 -4,-7 -10,-4c-5,3 -10,2 -10,-4c0,-5 6,-11 13,-14c6,-2 9,-8 4,-13c-4,-4 -15,0 -24,9c-13,13 -14,19 -4,31c14,16 31,13 31,-5zm718,-15c-5,-26 -25,-28 -33,-3c-5,14 -2,25 6,30c18,10 32,-4 27,-27zm-620,3c-4,-28 -34,-34 -41,-8c-6,24 -4,26 23,28c16,1 21,-3 18,-20zm83,6c0,-16 2,-15 10,2c8,18 8,18 6,-5c-3,-31 -31,-33 -35,-2c-2,12 1,22 7,22c6,0 11,-8 12,-17zm276,1c1,-5 -2,-16 -7,-24c-12,-20 -35,2 -26,25c6,17 27,16 33,-1zm361,-9c-4,-30 -38,-33 -38,-3c0,17 6,24 20,24c15,0 20,-6 18,-21zm-818,-65c0,-11 -4,-21 -9,-24c-13,-8 -34,21 -27,39c7,20 36,8 36,-15zm908,-17c-16,-15 -18,-15 -24,0c-3,9 -3,25 0,34c6,15 8,15 24,0c15,-16 15,-18 0,-34zm-1157,20c1,-17 2,-17 6,0c5,20 23,23 23,3c0,-18 -27,-39 -40,-31c-13,8 -13,45 0,45c6,0 11,-8 11,-17zm129,-14c0,-10 -4,-19 -10,-19c-5,0 -10,12 -10,26c0,14 4,23 10,19c6,-3 10,-15 10,-26zm486,18c16,6 18,-6 4,-27c-9,-13 -12,-12 -25,4c-8,10 -11,24 -8,29c5,8 8,7 10,0c3,-7 11,-9 19,-6zm84,-7c0,-19 -11,-26 -23,-14c-8,8 3,34 14,34c5,0 9,-9 9,-20zm85,-3c0,-26 -20,-25 -23,2c-3,16 1,22 10,19c7,-3 13,-12 13,-21zm85,2c0,-24 -23,-21 -28,4c-2,10 3,17 12,17c10,0 16,-9 16,-21zm-425,0c10,-14 1,-21 -19,-13c-9,3 -13,10 -10,15c7,12 21,11 29,-2zm619,-5c8,-21 3,-26 -18,-18c-9,3 -16,12 -16,20c0,19 26,18 34,-2zm-2024,-23c0,-5 -13,-11 -29,-14c-56,-12 -192,-69 -241,-102c-28,-19 -50,-30 -50,-27c0,4 11,24 25,44c29,43 82,78 145,94c53,15 150,18 150,5zm1310,-42c0,-12 -7,-19 -19,-19c-28,0 -37,21 -16,36c22,16 35,10 35,-17zm620,0c0,-23 -28,-26 -37,-3c-6,16 15,37 29,28c4,-3 8,-14 8,-25zm190,6c0,-15 -18,-30 -27,-22c-2,3 -2,15 2,26c7,23 25,19 25,-4zm-1130,9c0,-3 -5,-14 -11,-25c-8,-16 -13,-18 -25,-9c-7,7 -11,17 -8,22c4,6 10,5 15,-3c7,-11 9,-10 9,4c0,9 5,17 10,17c6,0 10,-3 10,-6zm143,0c9,-10 -4,-34 -19,-34c-8,0 -14,9 -14,20c0,19 19,27 33,14zm277,-14c0,-13 -7,-20 -20,-20c-19,0 -27,20 -13,33c13,14 33,6 33,-13zm168,-4c3,-12 -1,-17 -10,-14c-7,3 -15,13 -16,22c-3,12 1,17 10,14c7,-3 15,-13 16,-22zm78,-14c-4,-3 -12,0 -19,7c-9,9 -9,14 3,21c11,7 16,5 18,-6c2,-9 1,-18 -2,-22zm182,14c3,-13 -1,-17 -14,-14c-11,2 -20,11 -22,22c-3,13 1,17 14,14c11,-2 20,-11 22,-22zm172,-6c5,0 7,7 4,15c-4,8 -1,15 5,15c6,0 11,-9 11,-20c0,-13 -7,-20 -20,-20c-14,0 -20,6 -19,23c1,16 2,18 6,5c2,-10 8,-18 13,-18zm2997,-65c12,-22 21,-41 19,-42c-2,-2 -23,6 -47,16c-24,11 -84,28 -133,37c-110,22 -92,34 44,31l94,-2l23,-40zm-4022,25c10,-16 -5,-50 -21,-50c-20,0 -29,27 -14,45c14,17 26,19 35,5zm223,-14c5,-23 -9,-37 -27,-27c-8,5 -11,16 -6,30c8,25 28,23 33,-3zm282,-6c0,-16 -4,-30 -9,-30c-10,0 -22,40 -15,52c11,18 24,6 24,-22zm345,0c0,-13 -6,-25 -12,-27c-16,-6 -27,21 -19,43c9,23 31,11 31,-16zm84,9c-12,-8 -12,-10 0,-18c10,-6 10,-10 1,-16c-12,-8 -30,10 -30,32c0,13 21,23 34,15c4,-2 2,-8 -5,-13zm-829,-14c0,-14 -4,-25 -10,-25c-5,0 -10,7 -10,16c0,8 -4,12 -10,9c-11,-7 -14,8 -3,18c15,16 33,6 33,-18zm218,3c-2,-13 -10,-23 -18,-23c-8,0 -16,10 -18,23c-3,17 2,22 18,22c16,0 21,-5 18,-22zm106,13c9,-14 -5,-41 -20,-41c-20,0 -30,30 -13,41c18,11 26,11 33,0zm253,-7c1,-5 -2,-16 -7,-24c-12,-20 -35,2 -26,25c6,17 27,16 33,-1zm88,-9c0,-28 -29,-25 -33,3c-3,19 0,23 15,20c10,-2 18,-12 18,-23zm248,8c-5,-15 -3,-14 11,2c16,20 17,20 14,-5c-4,-31 -32,-33 -36,-2c-2,12 1,22 7,22c6,0 8,-8 4,-17zm107,-10c-1,-24 -2,-26 -11,-10c-5,9 -7,22 -4,27c10,17 15,11 15,-17zm-2100,-20c0,-5 -43,-28 -95,-54c-68,-33 -91,-40 -84,-27c12,22 90,68 132,78c44,11 47,11 47,3zm425,-24c39,-11 40,-12 15,-22c-111,-46 -152,-65 -195,-93c-54,-36 -186,-165 -261,-257c-26,-32 -48,-56 -51,-54c-5,6 54,145 84,197c14,25 40,63 57,84l30,39l-70,-37c-39,-20 -99,-60 -134,-87c-34,-28 -64,-48 -67,-46c-2,3 5,23 16,44c46,90 199,194 337,227c72,18 185,20 239,5zm4345,-16c83,-23 187,-81 241,-136c56,-57 64,-79 17,-48c-68,45 -146,79 -226,101c-45,12 -97,33 -115,46c-17,13 -42,29 -54,35c-13,7 -23,16 -23,20c0,11 93,1 160,-18zm-3790,8c0,-21 -13,-41 -26,-41c-8,0 -14,2 -14,4c0,2 -3,13 -7,23c-6,16 -5,16 10,4c15,-12 17,-11 17,3c0,9 5,16 10,16c6,0 10,-4 10,-9zm220,-9c0,-26 -11,-34 -27,-21c-20,17 -16,39 7,39c13,0 20,-7 20,-18zm97,-5c-5,-15 -37,-17 -37,-3c0,7 3,15 6,19c9,9 35,-4 31,-16zm100,8c7,-20 -2,-29 -21,-22c-9,4 -13,13 -10,22c8,19 23,19 31,0zm178,5c4,-6 1,-18 -6,-26c-12,-14 -14,-14 -26,2c-7,9 -10,21 -7,25c7,12 31,11 39,-1zm75,-24c-15,-15 -33,4 -19,20c10,12 14,12 20,2c5,-7 4,-17 -1,-22zm266,23c8,-14 -11,-33 -25,-25c-11,7 -4,36 9,36c5,0 12,-5 16,-11zm101,-12c-5,-17 -37,-21 -37,-5c0,8 9,14 21,15c12,1 19,-3 16,-10zm-537,-67c0,-10 -4,-22 -10,-25c-6,-4 -10,7 -10,25c0,18 4,29 10,25c6,-3 10,-15 10,-25zm270,10c0,-20 -13,-40 -26,-40c-20,0 -29,27 -14,45c11,14 40,10 40,-5zm-776,1c9,-14 -4,-41 -19,-41c-18,0 -28,17 -21,35c6,17 32,20 40,6zm144,-20c3,-16 -1,-22 -10,-19c-7,3 -15,15 -16,27c-3,16 1,22 10,19c7,-3 15,-15 16,-27zm180,7c-5,-34 -38,-37 -38,-4c0,20 5,26 21,26c15,0 20,-5 17,-22zm82,5c0,-15 2,-16 10,-3c8,12 10,10 10,-8c0,-17 -5,-23 -17,-20c-19,3 -32,48 -14,48c6,0 11,-8 11,-17zm179,2c1,13 4,16 11,9c13,-13 2,-44 -15,-44c-16,0 -24,19 -17,39c4,11 7,10 13,-5c7,-19 8,-19 8,1zm91,-10c0,-14 -4,-25 -10,-25c-5,0 -10,11 -10,25c0,14 5,25 10,25c6,0 10,-11 10,-25zm170,5c0,-11 -4,-20 -10,-20c-5,0 -10,9 -10,20c0,11 5,20 10,20c6,0 10,-9 10,-20zm91,5c7,17 8,16 8,-7c1,-18 -4,-28 -13,-28c-20,0 -29,17 -20,38c6,15 8,15 12,-3l5,-20l8,20zm99,-10c0,-14 -4,-25 -10,-25c-5,0 -10,11 -10,25c0,14 5,25 10,25c6,0 10,-11 10,-25zm848,-114c7,-4 39,-57 70,-117c45,-87 62,-110 81,-112c38,-6 41,9 15,72c-40,99 -27,146 40,146c42,0 70,-27 132,-128c26,-43 53,-81 58,-85c6,-5 178,-7 381,-5l370,3l0,-62c0,-57 -3,-66 -32,-95l-32,-32l39,-43c41,-43 48,-69 30,-104c-28,-51 -149,-68 -187,-26c-33,36 -35,59 -9,110l23,47l-220,0l-220,0l61,-58c53,-49 62,-63 62,-92c0,-42 -33,-80 -70,-80c-40,0 -73,31 -147,138c-79,116 -89,125 -115,111c-31,-17 -45,-5 -82,70c-36,70 -48,81 -78,73c-16,-4 -15,-9 9,-56c14,-28 53,-93 86,-144c33,-51 58,-95 56,-97c-3,-2 -31,10 -64,27c-49,25 -73,31 -130,32c-69,1 -70,1 -86,36c-9,19 -29,72 -44,117c-28,83 -44,101 -79,87c-13,-5 -7,-24 44,-121c74,-142 76,-157 13,-185c-32,-14 -51,-18 -62,-11c-9,5 -33,42 -54,81l-38,72l-72,0l-72,-1l40,-34c22,-19 55,-45 72,-58c18,-12 35,-28 38,-36c8,-21 -4,-50 -27,-62c-16,-9 -30,-4 -81,32c-97,66 -148,110 -159,135l-11,24l-768,2c-761,3 -768,3 -796,24c-50,37 -74,83 -71,134l3,45l903,-3l902,-3l0,28c0,39 26,73 56,73c25,0 53,-24 87,-74c14,-20 26,-26 48,-24c16,1 29,7 29,13c0,5 -11,42 -25,80c-13,39 -25,78 -25,88c0,41 70,73 108,48z" fill="#007f00" id="svg_3"/>
   <path d="m1925,2150c-3,-5 -1,-10 4,-10c6,0 11,5 11,10c0,6 -2,10 -4,10c-3,0 -8,-4 -11,-10z" fill="#007f00" id="svg_4"/>
   <path d="m1477,763c-4,-3 -7,-30 -7,-60l0,-53l865,0c476,0 865,2 865,4c0,2 -12,29 -26,60l-25,56l-833,0c-458,0 -836,-3 -839,-7z" fill="#007f00" id="svg_5"/>
   <path d="m3862,719c18,-28 40,-55 50,-60c10,-5 122,-8 265,-7l248,3l3,58l3,57l-300,0l-300,0l31,-51z" fill="#007f00" id="svg_6"/>
   <path d="m5393,1990c7,-289 31,-348 183,-451l75,-50l-16,38c-60,141 -92,224 -160,423c-43,124 -80,227 -83,230c-2,3 -2,-83 1,-190z" fill="#007f00" id="svg_7"/>
  </g>
 </g>
</svg>
