<?xml version="1.0" encoding="UTF-8" standalone="no" ?>
<!DOCTYPE svg PUBLIC "-//W3C//DTD SVG 1.1//EN" "http://www.w3.org/Graphics/SVG/1.1/DTD/svg11.dtd">
<svg xmlns="http://www.w3.org/2000/svg" xmlns:xlink="http://www.w3.org/1999/xlink" version="1.1" width="1080" height="1080" viewBox="0 0 1080 1080" xml:space="preserve">
<desc>Created with Fabric.js 5.2.4</desc>
<defs>
</defs>
<rect x="0" y="0" width="100%" height="100%" fill="transparent"></rect>
<g transform="matrix(1 0 0 1 540 540)" id="ab6643ca-561b-4a27-8b7d-87d2e158b697"  >
<rect style="stroke: none; stroke-width: 1; stroke-dasharray: none; stroke-linecap: butt; stroke-dashoffset: 0; stroke-linejoin: miter; stroke-miterlimit: 4; fill: rgb(255,255,255); fill-rule: nonzero; opacity: 1; visibility: hidden;" vector-effect="non-scaling-stroke"  x="-540" y="-540" rx="0" ry="0" width="1080" height="1080" />
</g>
<g transform="matrix(1 0 0 1 540 540)" id="aee60539-1938-473a-9a3e-c8f6d72a9d08"  >
</g>
<g transform="matrix(0.7 0 0 0.7 1286.44 1289.68)"  >
<g style="" vector-effect="non-scaling-stroke"   >
		<g transform="matrix(0.13 0 0 -0.13 4.89 -329.07)"  >
<path style="stroke: rgb(255,255,255); stroke-width: 1; stroke-dasharray: none; stroke-linecap: butt; stroke-dashoffset: 0; stroke-linejoin: miter; stroke-miterlimit: 4; fill: rgb(255,255,255); fill-rule: nonzero; opacity: 1;" vector-effect="non-scaling-stroke"  transform=" translate(-2951.57, -5597.66)" d="M 2860 6245 C 2780 6217 2614 6131 2542 6080 C 2334 5934 2219 5777 2125 5510 C 2073 5362 2012 5223 1933 5066 C 1895 4992 1869 4934 1875 4938 C 1881 4942 1919 4970 1961 5001 C 2180 5166 2536 5329 2778 5376 C 2891 5398 3085 5398 3210 5376 C 3460 5332 3733 5204 3982 5015 L 4029 4979 L 3947 5142 C 3901 5232 3822 5395 3770 5505 C 3718 5615 3653 5739 3626 5780 C 3526 5935 3328 6100 3116 6205 C 3008 6258 2933 6270 2860 6245 z M 3135 6015 C 3190 6007 3329 5959 3368 5934 C 3394 5917 3392 5928 3362 5963 C 3354 5972 3352 5980 3357 5980 C 3382 5980 3509 5827 3549 5751 C 3571 5708 3590 5669 3590 5665 C 3590 5662 3577 5668 3561 5679 C 3538 5695 3546 5679 3601 5597 C 3639 5541 3670 5492 3670 5488 C 3670 5483 3642 5501 3608 5526 C 3573 5551 3520 5585 3490 5600 C 3432 5629 3252 5690 3223 5690 C 3210 5690 3209 5693 3217 5701 C 3224 5708 3268 5713 3323 5714 L 3418 5715 L 3383 5738 C 3354 5758 3243 5813 3160 5848 C 3136 5858 3136 5859 3170 5859 C 3190 5860 3236 5852 3273 5841 C 3341 5823 3341 5823 3323 5842 C 3295 5873 3140 5974 3087 5996 C 3038 6016 3023 6034 3063 6026 C 3075 6023 3107 6018 3135 6015 z" stroke-linecap="round" />
</g>
		<g transform="matrix(0.13 0 0 -0.13 0 63.4)"  >
<path style="stroke: rgb(255,255,255); stroke-width: 1; stroke-dasharray: none; stroke-linecap: butt; stroke-dashoffset: 0; stroke-linejoin: miter; stroke-miterlimit: 4; fill: rgb(255,255,255); fill-rule: nonzero; opacity: 1;" vector-effect="non-scaling-stroke"  transform=" translate(-2914.93, -2654.17)" d="M 2815 5296 C 2559 5245 2065 4993 1817 4786 C 1619 4620 1577 4448 1664 4151 C 1704 4014 1758 3893 1826 3784 C 1850 3744 1870 3710 1870 3706 C 1870 3687 1691 3623 1515 3579 C 1161 3491 1088 3459 969 3340 C 869 3240 831 3165 726 2852 C 679 2714 618 2551 591 2490 L 542 2380 L 580 2302 C 601 2260 654 2164 698 2090 C 743 2016 777 1954 775 1951 C 769 1945 637 2053 554 2132 L 483 2200 L 425 2057 C 392 1979 344 1868 318 1811 C 287 1745 276 1712 287 1722 C 297 1730 343 1768 388 1805 C 471 1873 490 1899 490 1946 C 490 1960 494 1969 498 1966 C 512 1957 545 1711 534 1700 C 528 1694 498 1683 467 1675 C 348 1644 254 1577 207 1491 C 191 1462 173 1406 164 1356 C 146 1249 135 1218 72 1096 C 2 962 -7 914 14 782 C 32 663 78 519 120 444 C 213 283 333 220 550 220 C 773 220 1011 272 1203 362 C 1251 385 1292 401 1295 398 C 1298 396 1289 322 1275 234 C 1262 147 1250 59 1248 40 L 1245 5 L 2914 2 C 3833 1 4587 3 4591 7 C 4595 12 4594 50 4588 93 C 4582 135 4579 173 4582 176 C 4585 179 4614 177 4646 171 C 4857 133 5013 138 5205 190 C 5360 232 5586 314 5633 347 C 5715 404 5760 503 5805 726 C 5835 874 5835 891 5789 1115 C 5756 1280 5736 1324 5669 1384 C 5608 1440 5549 1463 5455 1468 C 5374 1472 5277 1450 5178 1406 C 5157 1397 5140 1393 5140 1397 C 5141 1408 5248 1492 5333 1548 L 5401 1593 L 5372 1606 C 5326 1625 5244 1640 5185 1640 C 5155 1640 5130 1643 5130 1646 C 5130 1649 5148 1682 5171 1720 C 5249 1851 5355 2123 5367 2221 C 5371 2251 5366 2287 5354 2326 L 5336 2385 L 5330 2318 C 5325 2256 5322 2248 5285 2210 C 5263 2187 5216 2149 5180 2125 C 5117 2083 4950 1995 4950 2004 C 4950 2007 4968 2041 4989 2082 C 5073 2239 5120 2397 5150 2626 C 5173 2802 5168 2848 5116 2995 C 5042 3201 4933 3339 4767 3436 C 4683 3485 4631 3505 4471 3546 C 4256 3602 4020 3685 4020 3705 C 4020 3708 4040 3746 4065 3789 C 4127 3895 4183 4027 4226 4168 C 4325 4493 4254 4689 3952 4928 C 3731 5103 3530 5206 3280 5272 C 3185 5297 3141 5303 3025 5306 C 2932 5308 2861 5305 2815 5296 z M 4120 4113 C 4091 4000 4057 3921 4001 3837 C 3921 3719 3902 3678 3870 3560 C 3806 3328 3735 3237 3540 3135 C 3477 3102 3421 3073 3415 3071 C 3390 3061 3453 3118 3537 3181 C 3702 3305 3775 3410 3820 3589 C 3846 3691 3875 3750 3950 3855 C 4013 3943 4060 4030 4097 4130 C 4134 4230 4132 4226 4137 4213 C 4139 4206 4132 4161 4120 4113 z M 1825 3960 C 1829 3948 1865 3898 1906 3847 C 1992 3740 2031 3667 2060 3555 C 2105 3381 2160 3306 2353 3156 C 2420 3104 2491 3045 2510 3024 L 2545 2987 L 2510 3007 C 2279 3142 2207 3191 2139 3261 C 2071 3330 2040 3392 2007 3526 C 1980 3635 1953 3694 1879 3811 C 1840 3872 1800 3955 1800 3976 C 1800 3989 1820 3976 1825 3960 z M 4169 3594 C 4599 3498 4898 3331 4999 3131 C 5043 3045 5062 2968 5054 2915 L 5048 2869 L 5025 2890 L 5002 2912 L 4903 2738 C 4841 2629 4804 2572 4802 2585 C 4801 2596 4815 2735 4833 2894 L 4867 3183 L 4836 3147 C 4819 3127 4802 3110 4798 3110 C 4793 3110 4790 3125 4790 3143 C 4790 3209 4760 3283 4715 3327 C 4676 3366 4668 3370 4623 3370 C 4556 3370 4498 3348 4431 3298 C 4393 3269 4379 3263 4384 3276 C 4396 3306 4430 3414 4430 3423 C 4430 3457 4289 3384 4192 3300 C 4147 3262 4108 3230 4106 3230 C 4102 3230 4144 3397 4166 3473 C 4174 3500 4151 3494 4066 3445 C 4022 3420 3983 3400 3979 3400 C 3975 3400 3976 3415 3981 3432 C 3986 3450 3993 3500 3996 3542 C 4004 3635 3996 3633 4169 3594 z M 1878 3598 C 1885 3591 1890 3574 1890 3559 C 1890 3538 1884 3531 1861 3527 C 1839 3522 1830 3514 1825 3491 L 1819 3461 L 1732 3467 C 1684 3470 1635 3468 1623 3463 C 1601 3455 1601 3454 1642 3406 L 1684 3357 L 1654 3362 C 1638 3365 1582 3377 1530 3389 C 1413 3417 1295 3414 1206 3382 C 1142 3359 1037 3294 1001 3256 L 978 3232 L 994 3108 C 1016 2932 1043 2633 1037 2618 C 1027 2589 890 3090 890 3157 C 890 3188 972 3292 1038 3345 C 1154 3437 1275 3487 1565 3561 C 1756 3609 1855 3621 1878 3598 z M 2360 3030 C 2372 3022 2376 2980 2380 2783 L 2385 2545 L 2730 2543 C 3069 2541 3074 2542 3050 2560 C 3036 2570 3029 2582 3033 2586 C 3044 2597 3090 2572 3090 2555 C 3090 2542 3117 2540 3288 2540 L 3486 2540 L 3486 2771 C 3485 3013 3489 3040 3529 3040 C 3567 3040 3570 3024 3570 2778 L 3570 2540 L 4043 2540 C 4332 2540 4529 2536 4552 2530 C 4593 2518 4646 2464 4657 2422 C 4661 2407 4654 2244 4641 2060 C 4570 1002 4573 1067 4587 1063 C 4593 1061 4632 1066 4674 1074 C 4805 1102 4934 1092 5040 1049 L 5085 1030 L 5050 1060 C 5031 1077 4985 1105 4948 1123 C 4911 1140 4881 1158 4881 1161 C 4879 1174 4970 1179 5028 1170 C 5158 1149 5271 1088 5371 983 C 5425 927 5500 812 5500 784 C 5500 781 5476 799 5448 825 C 5419 851 5362 895 5322 922 C 5250 970 5249 971 5257 943 C 5270 897 5267 683 5253 669 C 5243 659 5225 672 5169 724 C 5108 782 4952 896 4945 888 C 4943 886 4949 854 4957 815 C 4966 772 4969 725 4965 693 C 4958 635 4912 534 4879 504 L 4858 485 L 4865 519 C 4880 589 4873 678 4847 732 C 4823 784 4741 885 4756 845 C 4770 805 4788 735 4784 731 C 4782 729 4772 738 4761 751 L 4742 775 L 4735 735 C 4723 665 4719 663 4700 717 C 4674 793 4635 859 4589 909 L 4549 952 L 4517 922 C 4455 864 4400 850 4448 904 C 4467 926 4482 958 4489 992 C 4495 1021 4511 1234 4526 1465 C 4540 1696 4559 1993 4569 2125 C 4587 2375 4584 2422 4550 2440 C 4538 2447 3994 2450 2941 2450 L 1350 2450 L 1328 2428 C 1308 2408 1307 2402 1314 2226 C 1318 2126 1327 1948 1335 1830 C 1343 1712 1357 1482 1365 1320 C 1374 1158 1386 1007 1391 985 C 1397 963 1415 928 1432 906 C 1462 869 1462 868 1439 875 C 1400 887 1349 930 1335 964 C 1328 981 1319 1018 1315 1045 C 1312 1073 1306 1108 1303 1125 L 1297 1154 L 1274 1108 C 1248 1056 1210 928 1210 891 C 1210 875 1207 869 1200 876 C 1195 881 1190 919 1188 960 L 1185 1034 L 1166 1006 C 1156 990 1145 960 1143 939 C 1136 893 1129 891 1102 925 C 1091 939 1080 950 1076 950 C 1073 950 1059 933 1044 913 L 1018 875 L 1023 923 L 1028 971 L 1003 948 C 989 935 960 898 938 865 L 897 805 L 905 855 C 909 882 921 928 932 957 C 954 1016 950 1030 913 1030 C 870 1030 805 993 746 934 C 715 904 688 880 685 880 C 682 880 693 907 710 940 C 795 1109 952 1199 1180 1209 L 1295 1215 L 1293 1275 C 1291 1308 1284 1434 1276 1555 C 1247 1980 1228 2379 1234 2414 C 1241 2452 1278 2503 1314 2523 C 1329 2532 1463 2536 1819 2540 L 2303 2545 L 2304 2780 C 2305 2909 2309 3021 2313 3028 C 2323 3042 2339 3043 2360 3030 z M 2660 2885 C 2660 2873 2632 2850 2616 2850 C 2602 2850 2611 2880 2628 2889 C 2652 2903 2660 2902 2660 2885 z M 3244 2878 C 3249 2869 3251 2858 3247 2854 C 3239 2846 3200 2878 3200 2892 C 3200 2907 3232 2897 3244 2878 z M 2690 2847 C 2690 2840 2685 2829 2678 2822 C 2671 2815 2660 2810 2653 2810 C 2637 2810 2636 2832 2652 2848 C 2668 2864 2690 2863 2690 2847 z M 3215 2840 C 3225 2829 3230 2817 3227 2814 C 3219 2806 3170 2837 3170 2850 C 3170 2867 3196 2861 3215 2840 z M 2724 2804 C 2731 2785 2714 2760 2693 2760 C 2670 2760 2665 2791 2685 2806 C 2709 2824 2717 2824 2724 2804 z M 3181 2810 C 3202 2798 3207 2770 3187 2770 C 3180 2770 3169 2775 3162 2782 C 3150 2794 3145 2820 3156 2820 C 3159 2820 3170 2815 3181 2810 z M 2748 2764 C 2744 2744 2714 2723 2704 2733 C 2696 2741 2728 2780 2742 2780 C 2747 2780 2750 2773 2748 2764 z M 3165 2760 C 3179 2745 3180 2740 3169 2740 C 3154 2741 3120 2763 3120 2774 C 3120 2787 3148 2779 3165 2760 z M 3145 2730 C 3155 2719 3160 2707 3157 2704 C 3149 2696 3100 2727 3100 2740 C 3100 2757 3126 2751 3145 2730 z M 2775 2729 C 2783 2718 2753 2691 2733 2690 C 2717 2690 2716 2712 2732 2728 C 2747 2743 2767 2743 2775 2729 z M 3134 2687 C 3142 2674 3142 2667 3131 2661 C 3124 2656 3120 2648 3124 2642 C 3134 2625 3113 2618 3090 2630 C 3065 2643 3062 2675 3086 2666 C 3099 2661 3100 2662 3092 2673 C 3083 2683 3084 2690 3092 2698 C 3107 2713 3120 2709 3134 2687 z M 2795 2691 C 2803 2677 2758 2648 2746 2660 C 2739 2667 2743 2675 2756 2685 C 2779 2702 2787 2703 2795 2691 z M 2810 2652 C 2810 2640 2787 2620 2773 2620 C 2756 2620 2756 2647 2773 2653 C 2792 2661 2810 2661 2810 2652 z M 2820 2595 C 2806 2579 2780 2575 2780 2589 C 2780 2594 2787 2606 2796 2615 C 2818 2636 2840 2619 2820 2595 z M 3105 2609 C 3110 2603 3110 2596 3104 2590 C 3093 2579 3050 2604 3050 2621 C 3050 2632 3089 2623 3105 2609 z M 2850 2576 C 2850 2560 2813 2544 2802 2555 C 2795 2562 2827 2590 2842 2590 C 2846 2590 2850 2584 2850 2576 z M 1527 2216 C 1519 2196 1491 2195 1484 2215 C 1480 2223 1484 2237 1491 2246 C 1502 2259 1505 2259 1518 2246 C 1526 2238 1530 2224 1527 2216 z M 1630 2211 C 1616 2184 1596 2189 1592 2220 C 1587 2248 1610 2264 1628 2246 C 1639 2235 1639 2228 1630 2211 z M 2208 2219 C 2207 2206 2198 2195 2190 2195 C 2171 2195 2164 2240 2182 2251 C 2200 2262 2212 2247 2208 2219 z M 2297 2216 C 2289 2196 2261 2195 2254 2215 C 2250 2223 2254 2237 2261 2246 C 2272 2259 2275 2259 2288 2246 C 2296 2238 2300 2224 2297 2216 z M 1758 2227 C 1762 2207 1733 2193 1718 2208 C 1703 2223 1717 2252 1737 2248 C 1747 2246 1756 2237 1758 2227 z M 1850 2225 C 1850 2207 1845 2200 1831 2200 C 1812 2200 1794 2228 1806 2239 C 1810 2242 1815 2239 1817 2233 C 1820 2226 1826 2220 1832 2220 C 1838 2220 1840 2227 1836 2235 C 1833 2243 1835 2250 1840 2250 C 1846 2250 1850 2239 1850 2225 z M 1940 2231 C 1952 2249 1962 2238 1954 2216 C 1947 2198 1925 2195 1915 2210 C 1911 2216 1912 2229 1916 2238 C 1922 2253 1924 2253 1928 2236 C 1931 2221 1934 2220 1940 2231 z M 2028 2221 C 2031 2205 2027 2199 2018 2202 C 2011 2205 2003 2217 2002 2229 C 1999 2245 2003 2251 2012 2248 C 2019 2245 2027 2233 2028 2221 z M 2380 2225 C 2380 2207 2375 2200 2360 2200 C 2345 2200 2340 2207 2340 2225 C 2340 2243 2345 2250 2360 2250 C 2375 2250 2380 2243 2380 2225 z M 2570 2225 C 2570 2207 2565 2200 2550 2200 C 2535 2200 2530 2207 2530 2225 C 2530 2243 2535 2250 2550 2250 C 2565 2250 2570 2243 2570 2225 z M 2666 2235 C 2674 2215 2653 2190 2634 2197 C 2620 2202 2615 2231 2627 2243 C 2638 2255 2660 2250 2666 2235 z M 1530 2157 C 1530 2150 1526 2139 1521 2131 C 1513 2119 1509 2119 1496 2129 C 1479 2144 1474 2170 1489 2170 C 1494 2170 1501 2162 1503 2153 C 1506 2140 1508 2141 1509 2158 C 1510 2181 1530 2180 1530 2157 z M 1745 2170 C 1748 2165 1746 2160 1741 2160 C 1735 2160 1730 2155 1730 2149 C 1730 2144 1735 2142 1740 2145 C 1746 2148 1750 2144 1750 2136 C 1750 2127 1746 2120 1741 2120 C 1725 2120 1710 2147 1716 2164 C 1723 2182 1736 2185 1745 2170 z M 1845 2150 C 1845 2137 1839 2125 1833 2123 C 1817 2117 1806 2144 1814 2166 C 1823 2189 1845 2177 1845 2150 z M 2033 2163 C 2027 2161 2024 2150 2027 2140 C 2033 2117 2012 2113 2004 2135 C 1996 2154 2018 2182 2033 2173 C 2041 2168 2041 2165 2033 2163 z M 2468 2152 C 2471 2135 2466 2130 2451 2130 C 2437 2130 2430 2136 2430 2148 C 2430 2186 2463 2189 2468 2152 z M 1625 2145 C 1625 2117 1596 2120 1592 2148 C 1589 2167 1592 2171 1607 2168 C 1617 2166 1625 2156 1625 2145 z M 1948 2147 C 1944 2119 1916 2118 1912 2145 C 1910 2160 1915 2166 1930 2167 C 1946 2168 1951 2164 1948 2147 z M 2208 2148 C 2204 2120 2176 2118 2172 2145 C 2169 2161 2171 2162 2179 2150 C 2188 2137 2190 2137 2190 2153 C 2190 2162 2195 2170 2201 2170 C 2207 2170 2210 2160 2208 2148 z M 2288 2144 C 2289 2127 2286 2120 2277 2122 C 2260 2128 2255 2170 2272 2170 C 2280 2170 2287 2158 2288 2144 z M 2551 2140 C 2556 2140 2560 2148 2560 2157 C 2560 2169 2563 2171 2570 2164 C 2583 2151 2573 2120 2556 2120 C 2536 2120 2521 2141 2528 2159 C 2534 2173 2535 2173 2538 2158 C 2540 2148 2546 2140 2551 2140 z M 2660 2151 C 2660 2140 2656 2129 2651 2126 C 2639 2118 2617 2147 2625 2160 C 2636 2177 2660 2171 2660 2151 z M 1523 2098 C 1529 2077 1519 2050 1504 2050 C 1484 2050 1475 2077 1490 2095 C 1505 2113 1517 2114 1523 2098 z M 1739 2089 C 1727 2081 1727 2078 1740 2071 C 1748 2065 1751 2058 1747 2054 C 1743 2050 1732 2054 1723 2063 C 1710 2076 1709 2082 1719 2094 C 1727 2103 1737 2107 1742 2104 C 1748 2100 1747 2094 1739 2089 z M 2378 2092 C 2380 2084 2375 2082 2363 2086 C 2346 2091 2346 2091 2363 2077 C 2375 2067 2377 2060 2371 2055 C 2356 2046 2340 2058 2340 2079 C 2340 2110 2368 2120 2378 2092 z M 1622 2058 C 1606 2042 1585 2062 1594 2086 C 1600 2102 1602 2102 1617 2087 C 1630 2074 1632 2068 1622 2058 z M 1840 2074 C 1840 2043 1817 2046 1812 2078 C 1810 2093 1814 2100 1824 2100 C 1835 2100 1840 2091 1840 2074 z M 1950 2081 C 1950 2070 1946 2059 1942 2056 C 1928 2047 1907 2068 1913 2084 C 1922 2107 1950 2104 1950 2081 z M 2030 2075 C 2030 2049 2016 2042 2005 2060 C 1996 2074 2006 2100 2020 2100 C 2025 2100 2030 2089 2030 2075 z M 2120 2089 C 2120 2084 2116 2082 2110 2085 C 2105 2088 2100 2087 2100 2081 C 2100 2076 2106 2070 2113 2067 C 2119 2065 2122 2059 2118 2055 C 2107 2044 2090 2059 2090 2081 C 2090 2091 2097 2100 2105 2100 C 2113 2100 2120 2095 2120 2089 z M 2200 2075 C 2200 2049 2186 2042 2175 2060 C 2166 2074 2176 2100 2190 2100 C 2195 2100 2200 2089 2200 2075 z M 2285 2077 C 2285 2051 2265 2052 2262 2079 C 2259 2095 2263 2101 2272 2098 C 2279 2095 2285 2086 2285 2077 z M 2468 2078 C 2466 2065 2458 2055 2450 2055 C 2442 2055 2434 2065 2432 2078 C 2429 2095 2434 2100 2450 2100 C 2466 2100 2471 2095 2468 2078 z M 2565 2075 C 2565 2064 2557 2054 2548 2052 C 2534 2049 2530 2055 2530 2075 C 2530 2095 2534 2101 2548 2098 C 2557 2096 2565 2086 2565 2075 z M 2650 2066 C 2635 2051 2617 2070 2631 2086 C 2641 2098 2645 2098 2651 2088 C 2656 2081 2655 2071 2650 2066 z M 1509 2013 C 1510 2022 1515 2030 1520 2030 C 1533 2030 1533 2010 1520 1990 C 1512 1977 1509 1977 1494 1992 C 1484 2001 1481 2013 1486 2021 C 1491 2030 1495 2029 1501 2014 C 1508 1997 1509 1997 1509 2013 z M 1748 2008 C 1746 1995 1738 1985 1730 1985 C 1722 1985 1714 1995 1712 2008 C 1709 2025 1714 2030 1730 2030 C 1746 2030 1751 2025 1748 2008 z M 1847 2014 C 1855 1993 1834 1972 1819 1987 C 1806 2000 1814 2030 1830 2030 C 1836 2030 1843 2023 1847 2014 z M 1950 2005 C 1950 1980 1927 1970 1915 1990 C 1905 2006 1917 2030 1935 2030 C 1944 2030 1950 2021 1950 2005 z M 2034 2008 C 2025 1977 2022 1974 2009 1987 C 1994 2002 2005 2030 2025 2030 C 2037 2030 2040 2024 2034 2008 z M 2127 2014 C 2130 2006 2127 1993 2121 1987 C 2111 1978 2105 1979 2095 1994 C 2087 2004 2083 2017 2086 2021 C 2095 2036 2120 2031 2127 2014 z M 2210 2011 C 2210 2000 2205 1988 2199 1984 C 2184 1975 2166 1996 2173 2014 C 2182 2037 2210 2034 2210 2011 z M 2280 2013 C 2280 1997 2282 1997 2291 2010 C 2299 2022 2301 2022 2298 2005 C 2296 1994 2287 1984 2277 1982 C 2265 1979 2260 1985 2260 2004 C 2260 2018 2265 2030 2270 2030 C 2276 2030 2280 2022 2280 2013 z M 2375 2005 C 2375 1977 2346 1980 2342 2008 C 2339 2027 2342 2031 2357 2028 C 2367 2026 2375 2016 2375 2005 z M 2664 2021 C 2673 2007 2660 1980 2645 1980 C 2627 1980 2617 1997 2624 2015 C 2630 2032 2656 2035 2664 2021 z M 1627 1940 C 1629 1917 1615 1905 1605 1920 C 1597 1933 1606 1960 1618 1960 C 1622 1960 1626 1951 1627 1940 z M 1664 1944 C 1668 1935 1668 1925 1666 1923 C 1658 1915 1640 1931 1640 1946 C 1640 1965 1656 1964 1664 1944 z M 1850 1945 C 1850 1929 1823 1913 1813 1923 C 1810 1927 1810 1936 1813 1945 C 1821 1965 1850 1965 1850 1945 z M 1942 1918 C 1929 1905 1910 1917 1911 1938 C 1911 1949 1914 1950 1917 1943 C 1924 1924 1940 1927 1941 1948 C 1942 1963 1943 1963 1947 1946 C 1950 1936 1947 1923 1942 1918 z M 2120 1939 C 2120 1915 2097 1918 2092 1943 C 2090 1953 2095 1960 2104 1960 C 2114 1960 2120 1951 2120 1939 z M 2198 1919 C 2183 1910 2152 1935 2164 1947 C 2168 1951 2175 1949 2179 1941 C 2185 1931 2189 1933 2195 1947 C 2203 1964 2203 1964 2208 1946 C 2210 1936 2206 1924 2198 1919 z M 2286 1924 C 2281 1911 2276 1910 2268 1918 C 2262 1924 2260 1936 2264 1946 C 2269 1959 2274 1960 2282 1952 C 2288 1946 2290 1934 2286 1924 z M 2376 1949 C 2386 1932 2363 1913 2349 1927 C 2337 1939 2345 1960 2360 1960 C 2365 1960 2372 1955 2376 1949 z M 2470 1941 C 2470 1930 2465 1918 2459 1914 C 2444 1905 2426 1926 2433 1944 C 2442 1967 2470 1964 2470 1941 z M 2570 1929 C 2564 1919 2553 1910 2546 1910 C 2529 1910 2517 1937 2530 1945 C 2536 1949 2540 1946 2540 1941 C 2540 1935 2545 1930 2550 1930 C 2556 1930 2560 1937 2560 1946 C 2560 1954 2565 1958 2570 1955 C 2577 1951 2577 1942 2570 1929 z M 2660 1948 C 2660 1941 2656 1929 2651 1921 C 2640 1904 2626 1924 2634 1945 C 2641 1963 2660 1965 2660 1948 z M 1510 1868 C 1510 1847 1507 1839 1500 1846 C 1495 1851 1493 1865 1496 1878 C 1505 1909 1510 1905 1510 1868 z M 1735 1880 C 1731 1869 1733 1860 1739 1860 C 1745 1860 1750 1856 1750 1850 C 1750 1834 1723 1839 1716 1856 C 1712 1865 1715 1879 1721 1886 C 1737 1906 1742 1903 1735 1880 z M 1848 1867 C 1851 1846 1847 1840 1832 1840 C 1808 1840 1796 1868 1811 1887 C 1828 1907 1844 1898 1848 1867 z M 1630 1870 C 1639 1854 1638 1848 1625 1844 C 1604 1836 1586 1854 1593 1874 C 1602 1896 1617 1894 1630 1870 z M 1952 1884 C 1962 1875 1948 1840 1934 1840 C 1917 1840 1907 1857 1914 1875 C 1919 1890 1942 1895 1952 1884 z M 2038 1868 C 2033 1834 2000 1831 2000 1864 C 2000 1884 2005 1890 2021 1890 C 2036 1890 2041 1885 2038 1868 z M 2208 1868 C 2204 1836 2170 1831 2170 1862 C 2170 1880 2172 1882 2180 1870 C 2188 1857 2190 1858 2190 1873 C 2190 1882 2195 1890 2201 1890 C 2207 1890 2210 1880 2208 1868 z M 2298 1867 C 2302 1847 2273 1833 2259 1847 C 2245 1861 2260 1892 2279 1888 C 2288 1886 2296 1877 2298 1867 z M 2470 1859 C 2470 1839 2446 1833 2435 1850 C 2431 1856 2431 1867 2434 1875 C 2441 1895 2470 1882 2470 1859 z M 2570 1881 C 2570 1860 2557 1840 2544 1840 C 2536 1840 2530 1842 2530 1844 C 2530 1846 2527 1856 2523 1866 C 2518 1879 2520 1882 2533 1877 C 2542 1874 2550 1875 2550 1880 C 2550 1886 2555 1890 2560 1890 C 2566 1890 2570 1886 2570 1881 z M 2650 1865 C 2650 1851 2646 1840 2640 1840 C 2629 1840 2626 1873 2637 1883 C 2648 1894 2650 1891 2650 1865 z M 1524 1811 C 1533 1797 1520 1770 1504 1770 C 1496 1770 1490 1778 1490 1788 C 1490 1817 1512 1831 1524 1811 z M 1749 1807 C 1757 1797 1756 1789 1747 1776 C 1735 1760 1733 1760 1721 1774 C 1707 1790 1712 1820 1728 1820 C 1733 1820 1743 1814 1749 1807 z M 1953 1790 C 1947 1766 1922 1763 1913 1785 C 1905 1807 1919 1818 1930 1800 C 1938 1787 1940 1788 1940 1803 C 1940 1813 1944 1819 1949 1816 C 1954 1813 1956 1801 1953 1790 z M 2118 1812 C 2131 1803 2124 1770 2109 1770 C 2098 1770 2079 1806 2087 1814 C 2095 1822 2102 1821 2118 1812 z M 2566 1785 C 2557 1761 2530 1767 2531 1793 C 2531 1805 2534 1809 2537 1803 C 2544 1784 2560 1787 2561 1808 C 2561 1818 2563 1820 2567 1812 C 2570 1805 2569 1793 2566 1785 z M 2664 1804 C 2672 1784 2663 1770 2644 1770 C 2636 1770 2630 1778 2630 1788 C 2630 1821 2653 1832 2664 1804 z M 1848 1793 C 1846 1783 1838 1775 1830 1775 C 1822 1775 1814 1783 1812 1793 C 1810 1805 1815 1810 1830 1810 C 1845 1810 1850 1805 1848 1793 z M 2038 1793 C 2036 1783 2028 1775 2020 1775 C 2012 1775 2004 1783 2002 1793 C 2000 1805 2005 1810 2020 1810 C 2035 1810 2040 1805 2038 1793 z M 2210 1796 C 2210 1776 2191 1765 2178 1778 C 2172 1784 2171 1793 2174 1799 C 2184 1815 2210 1812 2210 1796 z M 2295 1790 C 2295 1782 2287 1774 2278 1772 C 2265 1770 2260 1775 2260 1790 C 2260 1805 2265 1810 2278 1808 C 2287 1806 2295 1798 2295 1790 z M 2470 1790 C 2470 1779 2466 1770 2460 1770 C 2455 1770 2450 1775 2450 1781 C 2450 1786 2446 1788 2440 1785 C 2435 1782 2430 1786 2430 1794 C 2430 1803 2439 1810 2450 1810 C 2463 1810 2470 1803 2470 1790 z M 1530 1724 C 1530 1705 1502 1694 1488 1708 C 1482 1714 1480 1725 1483 1734 C 1490 1752 1530 1744 1530 1724 z M 2128 1727 C 2132 1705 2101 1692 2090 1711 C 2080 1726 2097 1753 2114 1747 C 2120 1745 2126 1736 2128 1727 z M 2290 1720 C 2290 1710 2285 1698 2280 1695 C 2267 1687 2256 1715 2264 1736 C 2272 1756 2290 1745 2290 1720 z M 2378 1728 C 2376 1715 2368 1705 2360 1705 C 2352 1705 2344 1715 2342 1728 C 2339 1745 2344 1750 2360 1750 C 2376 1750 2381 1745 2378 1728 z M 2466 1715 C 2458 1692 2430 1697 2430 1721 C 2430 1739 2432 1741 2446 1730 C 2454 1722 2460 1721 2459 1726 C 2456 1743 2462 1755 2467 1742 C 2470 1735 2469 1723 2466 1715 z M 2657 1734 C 2665 1712 2642 1690 2631 1709 C 2621 1725 2627 1750 2641 1750 C 2646 1750 2653 1743 2657 1734 z M 1624 1724 C 1628 1715 1628 1705 1626 1703 C 1618 1695 1600 1711 1600 1726 C 1600 1745 1616 1744 1624 1724 z M 2030 1719 C 2030 1708 2026 1702 2020 1705 C 2015 1708 2010 1718 2010 1726 C 2010 1734 2015 1740 2020 1740 C 2026 1740 2030 1731 2030 1719 z M 2555 1700 C 2546 1685 2530 1698 2530 1721 C 2530 1740 2531 1740 2546 1726 C 2554 1717 2558 1706 2555 1700 z M 1530 1656 C 1530 1648 1524 1637 1516 1631 C 1506 1622 1499 1624 1489 1636 C 1478 1650 1479 1654 1494 1666 C 1515 1681 1530 1676 1530 1656 z M 1628 1655 C 1624 1624 1611 1619 1596 1643 C 1588 1657 1588 1663 1600 1670 C 1624 1686 1632 1682 1628 1655 z M 1840 1655 C 1840 1639 1834 1630 1825 1630 C 1810 1630 1804 1661 1817 1673 C 1830 1687 1840 1679 1840 1655 z M 2037 1664 C 2039 1659 2034 1645 2026 1635 C 2012 1616 2011 1616 2005 1633 C 2001 1642 2001 1657 2004 1666 C 2010 1682 2031 1681 2037 1664 z M 2372 1638 C 2359 1625 2340 1636 2340 1657 C 2340 1670 2343 1670 2355 1660 C 2367 1650 2370 1651 2371 1666 C 2372 1684 2372 1684 2377 1666 C 2380 1656 2377 1643 2372 1638 z M 2468 1652 C 2470 1638 2466 1630 2456 1630 C 2437 1630 2427 1647 2434 1666 C 2442 1688 2464 1678 2468 1652 z M 1737 1655 C 1745 1646 1750 1636 1747 1633 C 1737 1623 1710 1639 1710 1655 C 1710 1674 1717 1674 1737 1655 z M 2110 1660 C 2110 1670 2113 1671 2121 1663 C 2134 1650 2125 1630 2105 1630 C 2091 1630 2078 1655 2088 1664 C 2091 1668 2097 1665 2102 1658 C 2108 1648 2110 1648 2110 1660 z M 2204 1655 C 2207 1646 2203 1637 2194 1633 C 2175 1626 2166 1635 2173 1655 C 2181 1674 2196 1674 2204 1655 z M 2290 1650 C 2290 1639 2283 1630 2275 1630 C 2267 1630 2260 1639 2260 1650 C 2260 1661 2267 1670 2275 1670 C 2283 1670 2290 1661 2290 1650 z M 2660 1656 C 2660 1648 2656 1639 2651 1635 C 2639 1628 2627 1647 2635 1660 C 2644 1675 2660 1672 2660 1656 z M 1525 1571 C 1522 1559 1515 1550 1511 1550 C 1498 1550 1476 1580 1484 1587 C 1488 1591 1495 1588 1500 1580 C 1508 1568 1510 1570 1510 1590 C 1510 1607 1513 1611 1521 1603 C 1527 1597 1529 1583 1525 1571 z M 1625 1575 C 1625 1547 1596 1550 1592 1578 C 1589 1597 1592 1601 1607 1598 C 1617 1596 1625 1586 1625 1575 z M 1850 1580 C 1850 1567 1843 1560 1830 1560 C 1817 1560 1810 1567 1810 1580 C 1810 1593 1817 1600 1830 1600 C 1843 1600 1850 1593 1850 1580 z M 1950 1575 C 1950 1550 1927 1540 1915 1560 C 1905 1576 1917 1600 1935 1600 C 1944 1600 1950 1591 1950 1575 z M 2040 1587 C 2040 1566 2023 1547 2011 1554 C 1992 1566 1998 1596 2020 1597 C 2031 1598 2040 1593 2040 1587 z M 2118 1576 C 2121 1564 2117 1559 2108 1562 C 2101 1565 2093 1575 2092 1584 C 2089 1596 2093 1601 2102 1598 C 2109 1595 2117 1585 2118 1576 z M 2208 1583 C 2204 1561 2170 1553 2170 1573 C 2170 1587 2183 1597 2203 1599 C 2208 1600 2210 1592 2208 1583 z M 2276 1583 C 2271 1568 2272 1568 2285 1584 C 2300 1604 2305 1594 2294 1566 C 2284 1541 2260 1547 2260 1575 C 2260 1589 2265 1600 2271 1600 C 2277 1600 2279 1592 2276 1583 z M 2380 1580 C 2380 1569 2374 1560 2366 1560 C 2348 1560 2337 1576 2345 1590 C 2356 1608 2380 1601 2380 1580 z M 2466 1589 C 2476 1572 2453 1553 2439 1567 C 2427 1579 2435 1600 2450 1600 C 2455 1600 2462 1595 2466 1589 z M 2549 1583 C 2550 1606 2570 1605 2570 1581 C 2570 1562 2547 1546 2536 1557 C 2533 1561 2530 1573 2531 1584 C 2531 1605 2532 1605 2540 1585 C 2547 1568 2549 1568 2549 1583 z M 1750 1519 C 1750 1513 1746 1512 1740 1515 C 1735 1518 1730 1517 1730 1511 C 1730 1506 1736 1500 1743 1497 C 1749 1495 1752 1489 1747 1484 C 1743 1480 1732 1484 1723 1493 C 1710 1506 1709 1512 1719 1524 C 1733 1540 1750 1537 1750 1519 z M 2468 1504 C 2463 1478 2443 1476 2435 1501 C 2430 1515 2433 1526 2441 1531 C 2459 1541 2473 1527 2468 1504 z M 1848 1507 C 1844 1479 1814 1473 1807 1499 C 1801 1523 1803 1525 1830 1527 C 1846 1528 1851 1524 1848 1507 z M 1931 1513 C 1931 1497 1933 1498 1941 1515 C 1949 1533 1949 1533 1947 1510 C 1944 1479 1916 1477 1912 1508 C 1910 1520 1913 1530 1919 1530 C 1925 1530 1930 1522 1931 1513 z M 2207 1514 C 2208 1509 2205 1498 2200 1490 C 2188 1470 2165 1492 2174 1515 C 2180 1532 2201 1531 2207 1514 z M 2568 1505 C 2564 1475 2530 1472 2530 1502 C 2530 1519 2536 1526 2550 1526 C 2565 1526 2570 1520 2568 1505 z M 1750 1440 C 1750 1429 1746 1419 1741 1416 C 1728 1408 1707 1437 1714 1455 C 1721 1475 1750 1463 1750 1440 z M 2658 1423 C 2642 1408 2640 1408 2634 1423 C 2631 1432 2631 1448 2634 1457 C 2640 1472 2642 1472 2658 1457 C 2673 1441 2673 1439 2658 1423 z M 1501 1443 C 1502 1426 1503 1426 1507 1443 C 1512 1463 1530 1466 1530 1446 C 1530 1428 1503 1407 1490 1415 C 1477 1423 1477 1460 1490 1460 C 1496 1460 1501 1452 1501 1443 z M 1630 1429 C 1630 1419 1626 1410 1620 1410 C 1615 1410 1610 1422 1610 1436 C 1610 1450 1614 1459 1620 1455 C 1626 1452 1630 1440 1630 1429 z M 2116 1447 C 2132 1453 2134 1441 2120 1420 C 2111 1407 2108 1408 2095 1424 C 2087 1434 2084 1448 2087 1453 C 2092 1461 2095 1460 2097 1453 C 2100 1446 2108 1444 2116 1447 z M 2200 1440 C 2200 1421 2189 1414 2177 1426 C 2169 1434 2180 1460 2191 1460 C 2196 1460 2200 1451 2200 1440 z M 2285 1437 C 2285 1411 2265 1412 2262 1439 C 2259 1455 2263 1461 2272 1458 C 2279 1455 2285 1446 2285 1437 z M 2370 1439 C 2370 1415 2347 1418 2342 1443 C 2340 1453 2345 1460 2354 1460 C 2364 1460 2370 1451 2370 1439 z M 1945 1439 C 1955 1425 1946 1418 1926 1426 C 1917 1429 1913 1436 1916 1441 C 1923 1453 1937 1452 1945 1439 z M 2564 1434 C 2572 1413 2567 1408 2546 1416 C 2537 1419 2530 1428 2530 1436 C 2530 1455 2556 1454 2564 1434 z M 540 1411 C 540 1406 527 1400 511 1397 C 455 1385 319 1328 270 1295 C 242 1276 220 1265 220 1268 C 220 1272 231 1292 245 1312 C 274 1355 327 1390 390 1406 C 443 1421 540 1424 540 1411 z M 1850 1369 C 1850 1357 1843 1350 1831 1350 C 1803 1350 1794 1371 1815 1386 C 1837 1402 1850 1396 1850 1369 z M 2470 1369 C 2470 1346 2442 1343 2433 1366 C 2427 1382 2448 1403 2462 1394 C 2466 1391 2470 1380 2470 1369 z M 2660 1375 C 2660 1360 2642 1345 2633 1353 C 2631 1356 2631 1368 2635 1379 C 2642 1402 2660 1398 2660 1375 z M 1530 1384 C 1530 1381 1525 1370 1519 1359 C 1511 1343 1506 1341 1494 1350 C 1487 1357 1483 1367 1486 1372 C 1490 1378 1496 1377 1501 1369 C 1508 1358 1510 1359 1510 1373 C 1510 1382 1515 1390 1520 1390 C 1526 1390 1530 1387 1530 1384 z M 1673 1384 C 1682 1374 1669 1350 1654 1350 C 1646 1350 1640 1359 1640 1370 C 1640 1389 1659 1397 1673 1384 z M 1950 1370 C 1950 1357 1943 1350 1930 1350 C 1911 1350 1903 1370 1917 1383 C 1930 1397 1950 1389 1950 1370 z M 2118 1366 C 2121 1354 2117 1349 2108 1352 C 2101 1355 2093 1365 2092 1374 C 2089 1386 2093 1391 2102 1388 C 2109 1385 2117 1375 2118 1366 z M 2196 1352 C 2192 1349 2184 1352 2177 1359 C 2168 1368 2168 1373 2180 1380 C 2191 1387 2196 1385 2198 1374 C 2200 1365 2199 1356 2196 1352 z M 2378 1366 C 2381 1353 2377 1349 2364 1352 C 2353 1354 2344 1363 2342 1374 C 2339 1387 2343 1391 2356 1388 C 2367 1386 2376 1377 2378 1366 z M 2550 1360 C 2555 1360 2557 1367 2554 1375 C 2550 1383 2553 1390 2559 1390 C 2565 1390 2570 1381 2570 1370 C 2570 1357 2563 1350 2550 1350 C 2536 1350 2530 1356 2531 1373 C 2532 1389 2533 1391 2537 1378 C 2539 1368 2545 1360 2550 1360 z M 5547 1295 C 5559 1273 5568 1254 5566 1253 C 5564 1251 5543 1259 5519 1269 C 5495 1280 5435 1297 5386 1306 C 5276 1328 5294 1340 5430 1337 L 5524 1335 L 5547 1295 z M 1525 1320 C 1535 1304 1520 1270 1504 1270 C 1484 1270 1475 1297 1490 1315 C 1504 1332 1516 1334 1525 1320 z M 1748 1306 C 1753 1283 1739 1269 1721 1279 C 1713 1284 1710 1295 1715 1309 C 1723 1334 1743 1332 1748 1306 z M 2030 1300 C 2030 1284 2026 1270 2021 1270 C 2011 1270 1999 1310 2006 1322 C 2017 1340 2030 1328 2030 1300 z M 2375 1300 C 2375 1287 2369 1275 2363 1273 C 2347 1267 2336 1294 2344 1316 C 2353 1339 2375 1327 2375 1300 z M 2459 1309 C 2447 1301 2447 1299 2459 1291 C 2469 1285 2469 1281 2460 1275 C 2448 1267 2430 1285 2430 1307 C 2430 1320 2451 1330 2464 1322 C 2468 1320 2466 1314 2459 1309 z M 1630 1295 C 1630 1281 1626 1270 1620 1270 C 1615 1270 1610 1277 1610 1286 C 1610 1294 1606 1298 1600 1295 C 1589 1288 1586 1303 1597 1313 C 1612 1329 1630 1319 1630 1295 z M 1848 1298 C 1846 1285 1838 1275 1830 1275 C 1822 1275 1814 1285 1812 1298 C 1809 1315 1814 1320 1830 1320 C 1846 1320 1851 1315 1848 1298 z M 1954 1311 C 1963 1297 1949 1270 1934 1270 C 1914 1270 1904 1300 1921 1311 C 1939 1322 1947 1322 1954 1311 z M 2207 1304 C 2208 1299 2205 1288 2200 1280 C 2188 1260 2165 1282 2174 1305 C 2180 1322 2201 1321 2207 1304 z M 2295 1295 C 2295 1267 2266 1270 2262 1298 C 2259 1317 2262 1321 2277 1318 C 2287 1316 2295 1306 2295 1295 z M 2543 1303 C 2538 1288 2540 1289 2554 1305 C 2570 1325 2571 1325 2568 1300 C 2564 1269 2536 1267 2532 1298 C 2530 1310 2533 1320 2539 1320 C 2545 1320 2547 1312 2543 1303 z M 2650 1293 C 2649 1269 2648 1267 2639 1283 C 2634 1292 2632 1305 2635 1310 C 2645 1327 2650 1321 2650 1293 z M 550 1273 C 550 1268 507 1245 455 1219 C 387 1186 364 1179 371 1192 C 383 1214 461 1260 503 1270 C 547 1281 550 1281 550 1273 z M 975 1249 C 1014 1238 1015 1237 990 1227 C 879 1181 838 1162 795 1134 C 741 1098 609 969 534 877 C 508 845 486 821 483 823 C 478 829 537 968 567 1020 C 581 1045 607 1083 624 1104 L 654 1143 L 584 1106 C 545 1086 485 1046 450 1019 C 416 991 386 971 383 973 C 381 976 388 996 399 1017 C 445 1107 598 1211 736 1244 C 808 1262 921 1264 975 1249 z M 5320 1233 C 5403 1210 5507 1152 5561 1097 C 5617 1040 5625 1018 5578 1049 C 5510 1094 5432 1128 5352 1150 C 5307 1162 5255 1183 5237 1196 C 5220 1209 5195 1225 5183 1231 C 5170 1238 5160 1247 5160 1251 C 5160 1262 5253 1252 5320 1233 z M 1530 1241 C 1530 1220 1517 1200 1504 1200 C 1496 1200 1490 1202 1490 1204 C 1490 1206 1487 1217 1483 1227 C 1477 1243 1478 1243 1493 1231 C 1508 1219 1510 1220 1510 1234 C 1510 1243 1515 1250 1520 1250 C 1526 1250 1530 1246 1530 1241 z M 1750 1232 C 1750 1206 1739 1198 1723 1211 C 1703 1228 1707 1250 1730 1250 C 1743 1250 1750 1243 1750 1232 z M 1847 1227 C 1842 1212 1810 1210 1810 1224 C 1810 1231 1813 1239 1816 1243 C 1825 1252 1851 1239 1847 1227 z M 1947 1235 C 1954 1215 1945 1206 1926 1213 C 1917 1217 1913 1226 1916 1235 C 1924 1254 1939 1254 1947 1235 z M 2125 1240 C 2129 1234 2126 1222 2119 1214 C 2107 1200 2105 1200 2093 1216 C 2086 1225 2083 1237 2086 1241 C 2093 1253 2117 1252 2125 1240 z M 2200 1216 C 2185 1201 2167 1220 2181 1236 C 2191 1248 2195 1248 2201 1238 C 2206 1231 2205 1221 2200 1216 z M 2466 1239 C 2474 1225 2455 1206 2441 1214 C 2430 1221 2437 1250 2450 1250 C 2455 1250 2462 1245 2466 1239 z M 2567 1227 C 2562 1210 2530 1206 2530 1222 C 2530 1230 2539 1236 2551 1237 C 2563 1238 2570 1234 2567 1227 z M 2030 1160 C 2030 1150 2026 1138 2020 1135 C 2014 1131 2010 1142 2010 1160 C 2010 1178 2014 1189 2020 1185 C 2026 1182 2030 1170 2030 1160 z M 2300 1170 C 2300 1150 2287 1130 2274 1130 C 2254 1130 2245 1157 2260 1175 C 2271 1189 2300 1185 2300 1170 z M 1524 1171 C 1533 1157 1520 1130 1505 1130 C 1487 1130 1477 1147 1484 1165 C 1490 1182 1516 1185 1524 1171 z M 1668 1151 C 1671 1135 1667 1129 1658 1132 C 1651 1135 1643 1147 1642 1159 C 1639 1175 1643 1181 1652 1178 C 1659 1175 1667 1163 1668 1151 z M 1848 1158 C 1843 1124 1810 1121 1810 1154 C 1810 1174 1815 1180 1831 1180 C 1846 1180 1851 1175 1848 1158 z M 1930 1163 C 1930 1148 1932 1147 1940 1160 C 1948 1172 1950 1170 1950 1152 C 1950 1135 1945 1129 1933 1132 C 1914 1135 1901 1180 1919 1180 C 1925 1180 1930 1172 1930 1163 z M 2109 1165 C 2110 1178 2113 1181 2120 1174 C 2133 1161 2122 1130 2105 1130 C 2089 1130 2081 1149 2088 1169 C 2092 1180 2095 1179 2101 1164 C 2108 1145 2109 1145 2109 1165 z M 2200 1155 C 2200 1141 2196 1130 2190 1130 C 2185 1130 2180 1141 2180 1155 C 2180 1169 2185 1180 2190 1180 C 2196 1180 2200 1169 2200 1155 z M 2370 1160 C 2370 1149 2366 1140 2360 1140 C 2355 1140 2350 1149 2350 1160 C 2350 1171 2355 1180 2360 1180 C 2366 1180 2370 1171 2370 1160 z M 2461 1165 C 2468 1182 2469 1181 2469 1158 C 2470 1140 2465 1130 2456 1130 C 2436 1130 2427 1147 2436 1168 C 2442 1183 2444 1183 2448 1165 L 2453 1145 L 2461 1165 z M 2560 1155 C 2560 1141 2556 1130 2550 1130 C 2545 1130 2540 1141 2540 1155 C 2540 1169 2545 1180 2550 1180 C 2556 1180 2560 1169 2560 1155 z M 3408 1041 C 3415 1037 3447 984 3478 924 C 3523 837 3540 814 3559 812 C 3597 806 3600 821 3574 884 C 3534 983 3547 1030 3614 1030 C 3656 1030 3684 1003 3746 902 C 3772 859 3799 821 3804 817 C 3810 812 3982 810 4185 812 L 4555 815 L 4555 753 C 4555 696 4552 687 4523 658 L 4491 626 L 4530 583 C 4571 540 4578 514 4560 479 C 4532 428 4411 411 4373 453 C 4340 489 4338 512 4364 563 L 4387 610 L 4167 610 L 3947 610 L 4008 552 C 4061 503 4070 489 4070 460 C 4070 418 4037 380 4000 380 C 3960 380 3927 411 3853 518 C 3774 634 3764 643 3738 629 C 3707 612 3693 624 3656 699 C 3620 769 3608 780 3578 772 C 3562 768 3563 763 3587 716 C 3601 688 3640 623 3673 572 C 3706 521 3731 477 3729 475 C 3726 473 3698 485 3665 502 C 3616 527 3592 533 3535 534 C 3466 535 3465 535 3449 570 C 3440 589 3420 642 3405 687 C 3377 770 3361 788 3326 774 C 3313 769 3319 750 3370 653 C 3444 511 3446 496 3383 468 C 3351 454 3332 450 3321 457 C 3312 462 3288 499 3267 538 L 3229 610 L 3157 610 L 3085 609 L 3125 575 C 3147 556 3180 530 3197 517 C 3215 505 3232 489 3235 481 C 3243 460 3231 431 3208 419 C 3192 410 3178 415 3127 451 C 3030 517 2979 561 2968 586 L 2957 610 L 2189 612 C 1428 615 1421 615 1393 636 C 1343 673 1319 719 1322 770 L 1325 815 L 2228 812 L 3130 809 L 3130 837 C 3130 876 3156 910 3186 910 C 3211 910 3239 886 3273 836 C 3287 816 3299 810 3321 812 C 3337 813 3350 819 3350 825 C 3350 830 3339 867 3325 905 C 3312 944 3300 983 3300 993 C 3300 1034 3370 1066 3408 1041 z" stroke-linecap="round" />
</g>
		<g transform="matrix(0.13 0 0 -0.13 -131.08 130.62)"  >
<path style="stroke: rgb(255,255,255); stroke-width: 1; stroke-dasharray: none; stroke-linecap: butt; stroke-dashoffset: 0; stroke-linejoin: miter; stroke-miterlimit: 4; fill: rgb(255,255,255); fill-rule: nonzero; opacity: 1;" vector-effect="non-scaling-stroke"  transform=" translate(-1931.8, -2150)" d="M 1925 2150 C 1922 2145 1924 2140 1929 2140 C 1935 2140 1940 2145 1940 2150 C 1940 2156 1938 2160 1936 2160 C 1933 2160 1928 2156 1925 2150 z" stroke-linecap="round" />
</g>
		<g transform="matrix(0.13 0 0 -0.13 -77.32 322.62)"  >
<path style="stroke: rgb(255,255,255); stroke-width: 1; stroke-dasharray: none; stroke-linecap: butt; stroke-dashoffset: 0; stroke-linejoin: miter; stroke-miterlimit: 4; fill: rgb(255,255,255); fill-rule: nonzero; opacity: 1;" vector-effect="non-scaling-stroke"  transform=" translate(-2335, -710)" d="M 1477 763 C 1473 760 1470 733 1470 703 L 1470 650 L 2335 650 C 2811 650 3200 652 3200 654 C 3200 656 3188 683 3174 714 L 3149 770 L 2316 770 C 1858 770 1480 767 1477 763 z" stroke-linecap="round" />
</g>
		<g transform="matrix(0.13 0 0 -0.13 162.14 322.5)"  >
<path style="stroke: rgb(255,255,255); stroke-width: 1; stroke-dasharray: none; stroke-linecap: butt; stroke-dashoffset: 0; stroke-linejoin: miter; stroke-miterlimit: 4; fill: rgb(255,255,255); fill-rule: nonzero; opacity: 1;" vector-effect="non-scaling-stroke"  transform=" translate(-4131, -710.9)" d="M 3862 719 C 3880 691 3902 664 3912 659 C 3922 654 4034 651 4177 652 L 4425 655 L 4428 713 L 4431 770 L 4131 770 L 3831 770 L 3862 719 z" stroke-linecap="round" />
</g>
		<g transform="matrix(0.13 0 0 -0.13 347.45 172.68)"  >
<path style="stroke: rgb(255,255,255); stroke-width: 1; stroke-dasharray: none; stroke-linecap: butt; stroke-dashoffset: 0; stroke-linejoin: miter; stroke-miterlimit: 4; fill: rgb(255,255,255); fill-rule: nonzero; opacity: 1;" vector-effect="non-scaling-stroke"  transform=" translate(-5520.8, -1834.54)" d="M 5393 1990 C 5400 1701 5424 1642 5576 1539 L 5651 1489 L 5635 1527 C 5575 1668 5543 1751 5475 1950 C 5432 2074 5395 2177 5392 2180 C 5390 2183 5390 2097 5393 1990 z" stroke-linecap="round" />
</g>
</g>
</g>
</svg>
