<?xml version="1.0" encoding="UTF-8"?>
<svg version="1.1" viewBox="0 0 487.09 800" xmlns="http://www.w3.org/2000/svg">
 <path d="m250.21 0c-1.613 17.458-3.2293 34.924-4.8423 52.383-5.9122 0.89084-11.823 1.7777-17.735 2.6685 0 0 12.317 6.9165 14.468 13.864 0.3441 1.1127 0.2076 2.0337-0.2916 2.7264-0.1637 0.2166-0.4145 0.45723-0.6417 0.63811-3.5681 2.7421-14.118 1.4502-14.118 1.4502 0-5e-5 13.976 11.793 15.052 16.068 0.023 0.10011 0.055 0.1933 0.058 0.29029 0 0.08 0.023 0.21221 0 0.28988-0.023 0.0616-0.092 0.17161-0.1177 0.23218-0.095 0.20991-0.2676 0.44629-0.4668 0.63809-3.2858 3.0351-18.785 3.8866-18.785 3.8866s17.185 12.253 18.26 19.201c0.9743 6.2963 0.1568 9.9841 0 10.616-1.2009-1.0258-28.913-24.314-46.789-17.519-0.8904 0.46252-1.4172 0.90325-1.6334 1.3342-0.094 0.21497-0.1153 0.48291-0.058 0.69612 1.2523 3.8737 26.53 7.842 44.163 23.088-0.4373 3.8154-50.254-12.136-52.096-2.1464 1.5581 2.8169 53.612 10.32 57.463 17.113-19.171 0.71284-58.775-4.2191-57.463 2.0884-4.0062 7.2822 37.406 3.1691 54.78 9.1074 5.0928 5.7545 4.6012 10.589-4.2588 11.196-16.746-7.9615-54.224-13.878-54.314-3.7125 9e-4 0.0115 0 0.0478 0 0.0579 0 0.0115 0.055 0.0482 0.058 0.0579 0.023 0.0321 0.032 0.087 0.058 0.11603 0.06 0.0572 0.1938 0.12086 0.2918 0.17415 4.232 2.1111 39.132 1.0813 52.272 9.7454-18.629 4.2137-81.799-8.5482-82.2-2.3203 1.7997 2.9088 11.795 15.675 28.995 15.14 17.199-0.53458 56.992 6.9536 59.682 12.298 0.083 0.167 0.083 0.3383 0.058 0.4641-1.1646 3.7271-52.403-11.369-72.107-2.0884-20.423 9.6211 58.564 3.7887 71.466 15.546 12.9 11.758-25.786-1.1022-25.786-1.1022 2e-4 0-53.72-7.4528-61.782-3.7125-8.0631 3.7422-17.21 12.298-17.21 12.298s5.3597 10.664 10.734 8.5273c0.8188-0.32591 1.3784-0.39238 1.6919-0.28988 0 5e-3 0.051-5e-3 0.058 0 0 5e-3 0.051 0.054 0.058 0.0579 0 7e-3 0.049 0.0482 0.058 0.0579 0 0.0115 0.048 0.0468 0.058 0.0579 0 5e-3 0.055 0.0517 0.058 0.0579 0.023 0.0535 0.049 0.16654 0.058 0.23223 0.1268 1.6032-3.6754 6.265-3.6754 6.265s75.28 18.134 91.942 34.166c16.662 16.035-95.675-25.118-95.675-25.118 0-2e-5 -45.15 16.565 2.6835 17.635-5.3316 7.7559 2.2084 12.53 2.6835 12.82 0 0 79.565 16.584 87.626 29.411 8.063 12.827-54.282-12.313-68.256-19.259-13.482-6.7039-51.011 3.5454-53.147 6.671-0.023 0.024-0.048 0.092-0.058 0.11625v0.28972c0 0.0115 0.053 0.0473 0.058 0.0579v0.0579c0.023 0.0429 0.083 0.13101 0.1177 0.17415 0 0.0115 0.048 0.0473 0.058 0.0579 2.4043 2.6342 19.156 6.2618 19.66 10.79v0.0579c0 0.2418-0.067 0.52792-0.1753 0.75413-2.1101 4.0683-22.096 5.7989-22.928 9.6295-0.023 0.0655-0.058 0.16539-0.058 0.23223 0 4.2769 100.54 25.12 127.41 47.567s-78.991-26.743-78.991-26.743 5.9124 8.013 0 10.152c-5.9123 2.1366-26.915-29.926-61.314-10.152-6.2653 8.136 30.034 14.594 39.263 15.488-3.1513 8.0564-5.8992 10.721 7.0006 18.737 1.4108 0.87689 2.2029 1.4066 2.5087 1.6823 0 7e-3 0.051 0.0498 0.058 0.0581l0.058 0.0581v0.1162c0 8e-4 -0.051-2.4e-4 -0.058 0 0-4e-4 -0.048 9.6e-4 -0.058 0-1.998-0.31089-25.172-12.153-27.595-12.646-0.023-5e-3 -0.099 1e-3 -0.1176 0 0 4.3e-4 -0.053-1e-3 -0.058 0 0 1.0691 2.6835 13.922 2.6835 13.922-11.909-9.6193-26.304-12.52-39.786-2.6683-0.023 0.5699-0.1199 9.7932 13.418 15.488-7.6299 15.502 8.6219 10.689 34.421 25.118-38.342-9.9645-41.413 8.545-14.001 12.82 27.412 4.2749 102.68 6.9536 120.41 29.932 3.7413 4.8476 4.7565 7.285 4.0253 8.0632-2.9583 2.6659-30.175-16.908-34.128-17.635 0 5e-3 -0.051-7e-3 -0.058 0 0 7e-3 -0.051 0.0489-0.058 0.0581-0.051 0.0625-0.1246 0.1866-0.1753 0.29003-0.9658 2.1261-1.8668 11.37-1.8668 11.37-11.466-6.5992-21.987-12.519-35.703-15.314-1.0751 2.1366-0.8497 5.1725-1.9251 7.309-12.446-8.9249-23.289-15.2-41.363-16.068-0.7167 2.8512-1.4417 5.7341-2.1586 8.5853 0-5e-5 -15.068-18.706-44.63 0-16.507 11.767 62.357 4.2606 75.257 18.157 12.9 13.894 2.6837 16.01 2.6837 16.01-10.749-3.9187-21.454-7.799-32.203-11.718 0 0-38.198-6.9839-48.947 1.5662-10.749 8.5518 156.94 29.401 161.77 52.383 3.2613 12.463-39.397-13.051-76.307-24.015-1.4278 4.0795-2.8893 8.1603-4.3171 12.24-0.8753-0.86109-15.153-14.67-31.154-17.054 0 7e-3 -0.055 0.0445-0.058 0.0581 0 0.0208 5e-4 0.09 0 0.11626 0.023 1.754 3.2671 14.27 3.2671 14.27 0 5e-5 -41.345-19.261-62.305-9.1074-20.962 10.154 73.076 15.497 81.675 25.118 0.9404 1.0521 1.3318 1.8191 1.2834 2.3205-0.023 0.0867-0.076 0.21867-0.1177 0.28962-2.0771 3.0249-30.121-8.147-32.903-2.6103-3.2258 6.4134-48.901-11.74-48.363-3.1906 0.5377 8.5518 6.4757 13.342 6.4757 13.342s95.134 9.0799 98.359 20.302c3.2242 11.223-52.679-6.3809-52.679-6.3809s-5.4079 7.9773-1.1086 11.718c0.1684 0.14601 0.3022 0.28602 0.35 0.3478 0 5e-3 -5e-4 0.0549 0 0.0581 0-1e-3 -0.051 2e-3 -0.058 0-1.9431-0.63737-32.233-20.365-29.286-5.2208-11.853-4.6927-42.454-19.228-38.154-8.0052 4.2361 11.058 84.052 26.803 86.401 27.264-2.1108 0.16539-35.865 2.9734-34.303 11.776-45.24-27.405-45.134-10.971-44.105-9.6875v0.0581c-2.5415-0.39955-58.199-14.187-13.943 9.6295 23.734 12.772 29.519 17.75 29.637 19.665 7e-4 0.0422 0 0.13471 0 0.17416 0 0.051-0.042 0.12847-0.058 0.17415 0 0.0115-0.053 0.0473-0.058 0.0581-0.023 0.0321-0.037 0.087-0.058 0.11602 0 7e-3 -0.051 0.0489-0.058 0.0581 0 7e-3 -0.048 0.0498-0.058 0.0581 0 7e-3 -0.048 0.05-0.058 0.0581-0.023 7e-3 -0.049 0.0505-0.058 0.0581-0.9201 0.58529-3.1435 0.34018-3.7921 0.34782-0.028 9.9e-4 -0.097-2e-3 -0.1176 0-0.023 5e-3 -0.055 0.0521-0.058 0.0581l0.058 0.0581c0.6315 0.9334 4.1037 10.359 3.9085 12.008 0 0.0281-0.051 0.0946-0.058 0.11602v0.0581c0 5e-3 -0.055-5e-3 -0.058 0v0.0581c0 1e-3 -0.055-7.4e-4 -0.058 0 0-4.8e-4 -0.053 9.4e-4 -0.058 0-1.9394-0.48585-31.252-16.062-41.305-17.112-10.214-1.0693-58.599 13.345-7.0008 35.791 51.598 22.446 83.292-5.354 111.78-2.1464 28.486 3.2058 41.949 8.0261 39.263 17.113-2.6884 9.0847-29.14-29.786-56.94 3.8286-31.623-6.2223-53.077-9.8231-36.754 13.284-51.642-19.19-83.179 5.8546-18.144 16.01 63.908 1.8729 103.2-15.488 103.2-15.488 0 5e-5 10.781 19.813 26.37 5.9168 14.856-13.243 16.024 3.6114 16.568 5.2208 0 0.024 0.051 0.0445 0.058 0.0581v0.0581s0.053 7.9e-4 0.058 0c1.1478-0.28683 14.993-6.4389 14.993-6.4389 1.2546 5e-5 2.5376 0 3.7921 0v128.26c17.379 0.17807 34.718 0.34378 52.096 0.52208 0 0-16.662-111.67-7.5257-126.63 8.8527-14.496 17.222-12.931 17.735-12.82 0 0 33.868 10.131 37.628 8.5273 0.044-0.0208 0.1338-0.0362 0.1753-0.0581 0.028-0.0162 0.09-0.0422 0.1176-0.0581 0.065-0.0413 0.173-0.12594 0.2334-0.17415 0-7e-3 0.046-0.0482 0.058-0.0581 2.7523-2.4984-0.051-12.357 17.152-10.848 5.3119-1.9213 3.2851-10.342 6.7091-12.414 0.06-0.036 0.1706-0.0851 0.2334-0.11603 0.1292-0.0607 0.3229-0.13032 0.4666-0.17415 0.2007-0.0574 0.4692-0.0927 0.7001-0.11602 5.3747-0.53459 109.1 28.835 131.67 1.0442-5.9123-15.498-26.362-1.0567-31.737-0.5221-4.837 4e-5 -25.277-9.6193-37.103 0-10.749-8.0155-59.624-13.342-59.624-13.342-6.4498-6.4134 116.63 3.1854 123.62-1.6242 14.511-14.431-26.861-12.815-33.312-8.0052-11.466-6.948-25.874-6.4339-34.653-1.6242-4.2099-10.013-44.175-5.6761-66.389-8.5273-7.1109-4.1469-5.9269-6.5272-1.1084-9.1074 46.401 1.9602 92.568 7.9848 139.2 5.9168 12.603-16.337-15.866-22.499-33.312-8.5853-10.242-16.747-31.18-0.54436-45.154-2.1464-13.973-1.6038-7.5258-18.682 10.209-16.01 17.737 2.6731 49.452-1.0901 55.363-9.1074 5.9105-8.0155-3.5294-16.136-32.786-8.5273-9.9019-9.6229-31.675-0.0162-41.888 3.1906-13.587-7.5365-45.198-1.0488-55.947 1.6242-10.524-6.5043 55.363-17.112 55.363-17.112 25.431-0.44737 39.776-4.8227 47.838-6.961 38.447-20.489-0.5353-22.665-20.71-7.7732-12.523-9.7214-24.416 0.84049-35.702 4.5828-10.582 3.5067-30.151 6.0608-32.554 5.0467-0.028-0.0115-0.095-0.0438-0.1176-0.0581 0-5e-3 -0.053-0.053-0.058-0.0581l-0.058-0.0581v-0.0581c0-5e-3 -9e-4 -0.0514 0-0.0581 0-0.024 0.042-0.0883 0.058-0.11603 1.5851-2.4436 30.57-20.13 30.57-20.13 0-5e-5 37.628-2.7014 45.154-3.7704 4.5856-0.65158 20.658-8.2166 20.652-11.022-0.1338-1.7411-6.8309-1.5812-27.128 3.5386-18.274 1.6038-29.008 0.5675-35.996 1.1021-11.238-1.1553-15.972-2.3331-16.918-3.3645-0.037-0.0438-0.095-0.13079-0.1176-0.17415-0.079-0.18615-0.028-0.40138 0.1176-0.5801 0.037-0.0413 0.1269-0.13309 0.1753-0.17415 2.7546-2.1877 20.535-3.7707 20.535-3.7707 0 4e-5 54.282-4.9498 57.872-7.7732 0-0.0115 0.046-0.0471 0.058-0.0581 0.023-0.024 0.046-0.0939 0.058-0.11603 0-0.0115 0.055-0.0473 0.058-0.0581 1.1171-22.067-46.05-11.878-47.312-11.718 0.1338-15.517-42.57-0.22789-44.57 0 0-5.5e-4 -0.055 1e-3 -0.058 0-1.8372-1.0764-2.6381-2.2122-2.8002-3.2485-0.053-0.39515 0-0.83978 0.1176-1.2182 1.0698-3.1996 7.5256-5.6847 7.5256-5.6847 11.825-2.8494 29.505-3.7389 34.128-7.4831 0 0 33.374-0.29204 37.337-9.1074-8.1897-22.467-70.629 3.9771-78.991 8.0052-1.6753 0-2.7013-0.41851-3.2085-1.1022-2.7456-3.9887 10.804-17.123 11.259-17.577 0-5e-3 0.048-0.0537 0.058-0.0581 2.0649-0.58243 51.917-3.1188 75.724-35.211 1.6802-19.844-28.47 11.196-28.47 11.196-2.2515-25.736-32.784 1.6322-50.521 3.7706-17.735 2.1366-18.255-8.0255-5.8925-9.6295 12.36-1.602 26.324-0.55318 33.312-19.259 6.9859-18.706 27.974 1.0892 31.737-5.8588 3.6443-6.731-6.8671-12.468-7.5256-12.82 0 0 15.576-16.081-9.6842-15.546-25.006 0.52923-57.335-3.1162-57.989-3.1904 1.5681-0.59521 27.038-10.147 50.989-9.6295 24.725 0.53459 11.281-17.635-12.368-17.635-23.648 0-35.996-8.0052-35.996-8.0052 13.438-4.9878 26.876-9.9785 40.312-14.966-0.8961-3.7404-1.7876-7.4552-2.6838-11.196 0 0 23.64-18.719-9.6841-14.444-33.324 4.2769-37.103 4.8147-37.103 4.8147s-65.599 9.9953-67.149 10.152c0 0-0.053 6.9e-4 -0.058 0-0.6348-0.099-7.1324-2.1063-8.3424-4.5828-0.037-0.0812-0.092-0.20783-0.1177-0.28988-0.028-0.099-0.048-0.24785-0.058-0.34793 0-0.11695-0.023-0.28745 0-0.40604 0.2708-1.305 2.2942-2.7162 7.4675-4.0025 17.199-4.2751 77.964-16.55 87.101-13.342 1.178 0.41321 2.0379 0.31989 2.567-0.11625 3.4258-3.0825-7.9717-22.741-35.937-25.523-32.249-3.2058-52.096 8.0052-52.096 8.0052s-20.984-7.5086-1.6336-13.922c19.348-6.4116 49.996 2.1464 49.996 2.1464-2e-4 0 34.379-10.169 5.8921-14.444-28.486-4.2769-37.468 3.8453-50.521 4.2928-5.2104-6.4672 44.723-7.994 47.838-13.342-5.2662-9.6229-36.16 0-54.256 0-7.697-3.2465-8.2063-8.5291 0.525-11.776 18.454-0.71279 35.801 0.36473 54.256-0.34791-0.5376-9.7974 0.023-21.412-0.5252-31.208-23.407-4.2528-50.856 3.1144-63.998 2.4944 3.5153-10.69 54.053-13.45 59.682-16.358 11.612-14.432-48.473-0.22305-49.937 0-10.666-1.5667-10.02-8.2698-3.2672-12.298 15.586-1.782 50.54 2.2711 47.896-8.2373-2.0254-9.8469-24.234-4.5747-33.37-2.4364-9.1363 2.1365-22.577 0.52206-22.577 0.52206-5.8508-7.8325 52.692-4.6311 52.156-10.673-0.7635-6.9374-37.109-2.1588-49.472-1.6243-9.5081-6.5232 44.7-10.86 47.254-11.718 0-7e-3 0.051-0.0519 0.058-0.0581 2.0257-17.766-37.628 0-45.154 0-1.2934 0-2.2723-0.32108-2.9754-0.87016-0.1568-0.12686-0.3349-0.3163-0.4668-0.46404-2.5835-2.9968-0.2916-9.8616-0.2916-9.8616s14.131-6.314 14.993-7.8311c0-0.0115 0.055-0.0464 0.058-0.0581v-0.0581c-2e-4 -5e-3 7e-4 -0.0533 0-0.0581 0-7e-3 -0.053-0.0494-0.058-0.0581-0.032-0.0447-0.1107-0.12179-0.1753-0.17415-1.6587-1.2702-11.379-4.4763-12.66-4.5828 0-4.4e-4 -0.051 0-0.058 0 0-2e-3 -0.051-0.0535-0.058-0.0581-0.023-0.0115-0.044-0.0408-0.058-0.0581 0-7e-3 -0.051-0.0468-0.058-0.0581-0.7319-1.494 0.1753-12.124 0.1753-12.124s11.197-8.3434 11.901-11.66v-0.23205c7e-4 -0.024 9e-4 -0.0913 0-0.11603v-0.17412c0-0.0321-0.046-0.0849-0.058-0.11602v-0.0581c0-7e-3 -0.053-0.048-0.058-0.0581 0-0.0208-0.046-0.0401-0.058-0.0581-0.023-0.0281-0.037-0.0913-0.058-0.11602 0-7e-3 -0.048-0.0501-0.058-0.0581-0.044-0.0362-0.1222-0.0833-0.1753-0.11603-0.023-0.0115-0.092-0.0461-0.1176-0.0581-2.8279-1.3502-14.526 2.6685-14.526 2.6685-2e-4 -3.5628 0-7.1107 0-10.674-2e-4 0 10.242-1.1071 11.318-5.9168 0.062-0.28185 0.032-0.5589 0-0.81212-0.023-0.10057-0.028-0.25186-0.058-0.34793-0.067-0.20668-0.1661-0.45116-0.292-0.63809-0.023-0.0281-0.095-0.0881-0.1177-0.11602-2.3435-3.0081-11.901-3.4224-11.901-3.4224-1.792-18.705-3.5748-37.39-5.3673-56.093zm-9.5677 183.19v7.3672c2e-4 0-12.053-0.61389-14.293-2.4944 0-7e-3 -0.048-0.0489-0.058-0.0579 0-7e-3 -0.048-0.0484-0.058-0.0579 0-7e-3 -0.051-0.0487-0.058-0.0579 0-7e-3 -0.051-0.0487-0.058-0.0579-0.023-0.0281-0.044-0.0865-0.058-0.11625v-0.0579c0-7e-3 -0.055-0.0482-0.058-0.0579v-0.0579c0-0.0208 3e-4 -0.0953 0-0.11602 5e-4 -0.0115-9e-4 -0.0478 0-0.0579v-0.0579c0.023-0.0429 0.037-0.13009 0.058-0.17415 0-0.0115 0.053-0.0471 0.058-0.0579 0.028-0.045 0.078-0.12848 0.1176-0.17415 0-0.0115 0.046-0.0466 0.058-0.0579 0.023-0.024 0.09-0.0925 0.1176-0.11626 0.081-0.0708 0.1869-0.15846 0.2918-0.2322 4.0438-2.8151 12.118-2.7487 13.71-3.1904 0-5e-3 0.046 5e-3 0.058 0 0.023-5e-3 0.048-0.0535 0.058-0.0579 0-5e-3 0.051 5e-3 0.058 0 0-5e-3 0.053-0.053 0.058-0.0579zm17.094 9.8034c0.4164 0 24.009 0.20183 26.077 3.2486 0.023 0.024 0.046 0.0897 0.058 0.11602 0.023 0.0401 0.048 0.13332 0.058 0.17415v0.11626c-2e-4 0.0422 0 0.13147 0 0.17415 0 0.0434-0.039 0.12986-0.058 0.17415-1.8015 3.8053-25.67 6.0909-25.67 6.0909l-0.4666-10.093zm-1.342 14.56c0 5e-3 0.051-5e-3 0.058 0 0 5e-3 0.046-5e-3 0.058 0 1.4008 0.36793 11.172 0.6829 12.368 2.3203 0.023 0.0161 0.049 0.0424 0.058 0.0579v0.0579c0 0.0161 0.053 0.0417 0.058 0.0579v0.0579c1e-3 7e-3 -4e-4 0.0498 0 0.0579 3e-4 7e-3 5e-4 0.0496 0 0.0579-6e-4 7e-3 0 0.0494 0 0.0579v0.0579c0 7e-3 -0.055 0.0489-0.058 0.0579v0.0579c-0.023 0.0281-0.039 0.0881-0.058 0.11625 0 7e-3 -0.051 0.0484-0.058 0.0579v0.0579c-2.0255 2.4615-11.043 3.1326-11.493 3.1326 0-8.1e-4 -0.055 1e-3 -0.058 0v-0.0579c0-0.0115-0.051-0.0454-0.058-0.0579-0.4122-0.83221-0.8168-6.1489-0.8168-6.1489zm-71.933 19.375c7.7032-0.39794 22.99 1.4059 51.689 9.2815 0 0.60732 0.581 8.0066 0.3499 9.2233 0 7e-3 -0.055 0.0494-0.058 0.0579v0.0579c0 5e-3 -0.051 0.0572-0.058 0.0579-0.4501-0.22466-52.212-15.015-56.94-14.792-0.1292 5e-3 -0.2856 0.0115-0.4083 0-0.1038-0.0115-0.2519-0.036-0.3497-0.0579-0.1291-0.0321-0.2952-0.12248-0.4085-0.17415-0.042-0.0208-0.1361-0.0362-0.1753-0.0579 0-7e-3 -0.046-0.0501-0.058-0.0579-0.1569-0.10611-0.3133-0.26704-0.4083-0.40604 0-0.0115-0.051-0.0471-0.058-0.0579-0.023-0.024-0.048-0.0932-0.058-0.11603v-0.0579c0-0.024-0.053-0.092-0.058-0.11603v-0.0579c0-0.024 7e-4 -0.0909 0-0.11603 5e-4 -0.024 0-0.0904 0-0.11602 0-0.0644 0.037-0.16608 0.058-0.23223 0.064-0.15847 0.1937-0.36272 0.3499-0.52206 0.7914-0.76977 2.7737-1.5431 6.5923-1.7403zm26.835 21.869c8.251-0.2943 28.019 4.4348 29.112 4.1766 0 1.5674 0.8747 8.9758-0.1176 10.5 0 0.0115-0.048 0.0461-0.058 0.0579 0 0.0115-0.048 0.0482-0.058 0.0579-0.023 7e-3 -0.048 0.0503-0.058 0.0579-0.023 0.0115-0.095 0.0489-0.1176 0.0579-0.023 5e-3 -0.046-2e-3 -0.058 0-0.023 2e-3 -0.09 2e-3 -0.1176 0 0-2e-3 -0.044 5e-3 -0.058 0-1.6801-0.41764-30.853-9.6309-31.97-13.4-0.023-0.062 0-0.173 0-0.23223 0-0.13148 0.076-0.29186 0.1753-0.40604 0-0.0115 0.044-0.0461 0.058-0.0579 0-0.0115 0.044-0.0461 0.058-0.0579 0.56-0.4414 1.7157-0.70087 3.2085-0.75411zm81.208 20.302c7.8793-0.15316 13.442 0.51754 11.376 2.9003-5.6265 6.4895-44.512 11.834-44.512 11.834l-0.7001-11.834c0.8353-0.12225 20.593-2.643 33.837-2.9003zm-111.31 36.894c6.6124-0.34994 22.011 3.2608 56.298 17.693l0.2334 8.5273s-58.063-17.51-60.089-20.419c-0.9969-1.4317-2.85-5.4615 3.5587-5.8009zm113.76 12.704c1.7666-0.0893 3.0099 0.0886 3.4419 0.52206 0.023 0.0115 0.049 0.0457 0.058 0.0579 0.023 0.0401 0.044 0.13171 0.058 0.17415 0 0.0438 0.06 0.12663 0.058 0.17415-0.023 0.24462-0.2076 0.57412-0.525 0.92814-5.4028 6.044-34.421 12.066-34.421 12.066s-3e-4 -7.6065 0-7.8311c0 3.9e-4 0.053-7e-5 0.058 0 1.3226-0.045 22.623-5.6539 31.27-6.0909zm-127.3 1.0442c8.6683-0.45702 28.241 4.1146 72.107 24.769 0 0.21429 0.3908 7.3377 0.2332 8.0052 0-8.5e-4 -0.053 2e-3 -0.058 0-2.6007-0.83352-78.933-27.495-78.933-27.495-0.081-0.2923-1.2296-4.8632 6.6507-5.2788zm145.32 33.356c2.2182-0.0927 3.6735 0.0983 4.0253 0.58007 0.032 0.0558 0.055 0.1677 0.058 0.23228 0 0.23186-0.2007 0.52739-0.5833 0.87009-6.922 6.2159-51.053 13.747-52.621 13.864 0 0-0.051 8.8e-4 -0.058 0 0-2e-3 -0.053 5e-3 -0.058 0 0-5e-3 -0.053-0.0526-0.058-0.0581-0.023-0.0208-0.046-0.0879-0.058-0.11602v-0.0581c0-0.024-0.053-0.09-0.058-0.11602-0.2805-1.4408 0.6329-6.4863 0.7001-7.1931 4e-4 -0.0115 0-0.051 0-0.0581 0 2e-3 0.053-2e-3 0.058 0 0 1e-3 0.048 0.0574 0.058 0.0581 0.023 5.7e-4 0.046-1.4e-4 0.058 0 2.8247-0.0468 36.645-7.5108 48.538-8.0052zm-129.75 19.433c13.138-0.67488 52.946 17.476 54.898 18.041 0 1e-3 0.055-1.2e-4 0.058 0-0.2052 0.81085-0.2382 7.364-0.4082 8.4112v0.11603c0 5e-3 -0.058-2e-3 -0.058 0-1.0733-0.57154-55.632-23.086-58.047-21.289-1.5051-3.5464 0.055-5.0989 3.5587-5.2788zm117.38 4.7567c2.7336-0.11948 4.7346 1e-3 5.367 0.34779 0.076 0.0482 0.1477 0.11557 0.1754 0.17415v0.0581c4e-4 0.0115 0 0.0473 0 0.0581v0.11602c0 0.0115-0.051 0.0457-0.058 0.0581-0.039 0.051-0.1107 0.11787-0.1753 0.17415-4.0509 3.5807-41.654 10.964-41.654 10.964s-0.1753-6.9272-0.1753-7.5991c1.068-0.22697 25.343-3.8603 36.521-4.3507zm-3.0337 23.957c2.6457-0.0874 4.5214 0.0625 4.9588 0.52206l0.058 0.0581c0.023 0.0208 0 0.0946 0 0.11602 0 0.0115 0.058 0.0468 0.058 0.0581-7e-4 0.0115-0.055 0.0466-0.058 0.0581 0 0.024 0.023 0.0907 0 0.11603 0 0.0115-0.051 0.045-0.058 0.0581-0.032 0.0526-0.069 0.11949-0.1177 0.17416-0.037 0.0413-0.1291 0.13193-0.1753 0.17415-4.0587 3.4832-35.937 10.151-35.937 10.151s-0.8751-7.6065-0.8751-7.8311c0.8843 0.0208 22.198-3.3262 32.144-3.6545zm-134.53 1.9142c7.6917-0.48354 26.751 2.6679 73.798 19.665l1.575 9.1654c0 5e-5 -78.335-25.144-80.566-25.931v-0.0581c0-0.0487-0.023-0.16608 0-0.29045 0.028-0.2302 0.1453-0.59269 0.4083-0.92819 0.5522-0.67289 1.8135-1.4374 4.784-1.6242zm103.2 19.897c0.9441 0.20067 14.079 0.63411 16.51 2.6685 0 7e-3 0.048 0.0487 0.058 0.0581 0 7e-3 0.048 0.0482 0.058 0.0581 0 7e-3 0.051 0.0482 0.058 0.0581 0.023 0.0321 0.039 0.0853 0.058 0.11603 0 0.0115 0.053 0.0477 0.058 0.0581 0.023 0.0422 0.048 0.13079 0.058 0.17415v0.0581c0 0.0115-5e-4 0.0471 0 0.0581-2e-4 0.024 0 0.0934 0 0.11602v0.0581c0 0.024-0.051 0.0923-0.058 0.11602v0.0581c-0.023 0.024-0.044 0.0918-0.058 0.11602-2.0257 3.1334-15.752 4.2928-15.752 4.2928s-0.6744-6.1401-0.9918-8.0632zm31.796 17.867c3.0586-0.0731 5.2538 0.27521 5.7172 1.1602 0.2607 0.59979-0.2412 1.4858-1.6919 2.6685-11.253 9.1756-35.763 10.964-35.763 10.964v-10.093c0 4.6e-4 0.046 7.6e-4 0.058 0 1.3923-0.16446 21.524-4.4566 31.679-4.6987zm31.212 9.3974c3.8846-0.14647 5.5585 0.50116 6.0671 1.3922 0.042 0.0791 0.092 0.2069 0.1176 0.29045 0.037 0.15085 0.071 0.36103 0.058 0.52213-0.1245 1.1497-1.3773 2.5273-2.3334 3.4224-3.8271 3.5807-64.815 22.798-64.815 22.798s-0.459-12.747-0.2334-13.864c35.657-10.745 53.097-14.257 61.14-14.56zm-39.438 36.082c3.8772-0.1437 6.9093 0.0842 7.8174 0.98607 0.055 0.0597 0.1384 0.16607 0.1753 0.23227 0.023 0.0406 0.046 0.13125 0.058 0.17415 0.023 0.0434 0 0.12848 0 0.17416 0 0.0775 0.023 0.20575 0 0.29042-0.044 0.17093-0.1615 0.38111-0.292 0.5801-5.2179 5.0918-30.57 5.8588-30.57 5.8588v-6.323c4.7606-0.15962 15.358-1.696 22.809-1.9723zm25.377 10.383c1.2055-0.0281 1.9404 0.16654 2.0418 0.52211v0.11602c-0.06 0.29606-0.4149 0.74463-1.1666 1.2762-10.128 7.1596-48.189 14.502-48.189 14.502s0.4714-5.0036 0.7-6.2069c1.0585-0.0162 37.506-9.9877 46.612-10.21zm21.351 7.9473c4.485-0.0422 7.908 0.61594 9.8595 2.0302 0 0 0.055-9.7e-4 0.058 0v0.0581c7e-4 7e-3 -4e-4 0.05 0 0.0581-9e-4 0.0208 0 0.0932 0 0.11603-0.1914 1.3872-3.0422 7.9128-13.068 10.732-12.504-1.1106-65.575 14.49-66.624 14.734 0-5e-3 -0.055 5e-3 -0.058 0v-0.11602c-0.028-0.9993 0.7-6.3809 0.7-6.3809 18.294-10.878 51.538-21.067 69.131-21.231zm-135.87 30.628c0.1177-2e-3 0.2261-3.9e-4 0.3497 0 22.956 2.4615 31.531 11.006 33.954 14.444-4.5773 7.987-40.858-9.9253-37.045-13.748 0.4364-0.38751 1.3346-0.66698 2.7419-0.69611zm131.55 1.5083c0.9118-0.036 1.7445 0.15085 2.3336 0.52206 0.2406 0.16008 0.4782 0.38993 0.6417 0.63808 0.2214 0.35621 0.3684 0.83837 0.4085 1.3922-2.3982 3.6846-14.801 2.0762-15.577 1.9723 0.6249-0.22144 7.786-4.3577 12.193-4.5246zm-49.179 24.827c1.7021-0.0699 3.1163 0.10103 3.9086 0.58003 0.097 0.0618 0.2168 0.15939 0.2915 0.23228 0.023 0.024 0.095 0.0895 0.1177 0.11602 0.032 0.0401 0.092 0.13079 0.1176 0.17415 0.023 0.0441 0.039 0.12664 0.058 0.17415 0.1453 0.43351 0.088 1.0321-0.2916 1.7402-3.6011 6.7141-19.369 4.2346-19.369 4.2346v-4.6987c0 1e-3 0.055-1e-3 0.058 0 0.8881 0.075 9.5781-2.3263 15.11-2.5523zm-92.875 17.693c4.851-0.24351 9.0909 2.9208 13.535 5.4527 9.9017-2.014 30.219 1.5663 30.219 1.5663v8.9333c0 7e-3 -0.046 0.0517-0.058 0.0581 0 5e-3 -0.046-5e-3 -0.058 0-1.8492 0.32011-25.66-0.71428-30.977-4.0605-4.3374 0-16.616-6.4435-17.56-9.7454 0-0.0281-0.053-0.0886-0.058-0.11603v-0.17415c0-0.0281-5e-4 -0.0902 0-0.11625v-0.17412c0-0.024 0.051-0.0927 0.058-0.11603v-0.0581c1.6968-0.89911 3.3502-1.3724 4.9005-1.4502zm104.14 4.4087c3.7245-0.19929 5.3036 0.94538 2.392 5.0467-8.1023 11.412-29.054 6.7289-29.054 6.7289l-0.8751-7.0771c7.39 0.28682 20.896-4.3429 27.535-4.6987zm-78.291 23.145c8.4716-0.39272 17.677 2.9585 17.677 2.9585 0.2168 0.42986 4.553 8.9291 0.7 11.776-0.143 0.10265-0.3005 0.20345-0.4668 0.29002-4.727 2.4615-27.318-1.9236-28.644-10.964 2.6584-2.7902 6.597-3.8689 10.734-4.0607zm-87.333 4.4087c7.7477-0.46229 16.402 4.2835 17.385 4.7567 0.023 5e-3 0.051-2e-3 0.058 0 0 0.26757-0.2918 8.5853-0.2918 8.5853s-15.337-4.2512-20.186-12.82c0.9723-0.26355 2.0105-0.46105 3.0339-0.52211zm147.54 1.1602c8.6411-0.0547 19.081 1.964 20.593 4.8728 0.2861 0.5949 0.2007 1.2507-0.3496 1.9143-4.277 5.1456-28.586 0.46404-28.586 0.46404v-6.2648c2.1629-0.62909 5.142-0.96598 8.3424-0.98621z" fill="#00A550"/>
</svg>

