<?xml version="1.0" standalone="no"?>
<!DOCTYPE svg PUBLIC "-//W3C//DTD SVG 20010904//EN"
 "http://www.w3.org/TR/2001/REC-SVG-20010904/DTD/svg10.dtd">
<svg version="1.0" xmlns="http://www.w3.org/2000/svg"
 width="466.000000pt" height="410.000000pt" viewBox="0 0 466.000000 410.000000"
 preserveAspectRatio="xMidYMid meet">

<g transform="translate(0.000000,410.000000) scale(0.100000,-0.100000)"
fill="#FFFFFF" stroke="#FFFFFF">
<path d="M950 3819 c-124 -3 -226 -7 -227 -8 -2 0 -3 -431 -3 -956 l0 -955
610 0 610 0 0 -25 c0 -14 5 -25 10 -25 6 0 10 -9 10 -20 0 -13 9 -22 25 -26
14 -3 25 -10 25 -15 0 -5 7 -9 15 -9 9 0 15 -9 15 -25 0 -14 5 -25 10 -25 6 0
10 -35 10 -86 0 -84 -10 -114 -39 -114 -6 0 -11 -5 -11 -11 0 -17 -27 -39 -49
-39 -12 0 -21 -4 -21 -10 0 -5 -7 -10 -15 -10 -13 0 -15 21 -15 131 0 100 -3
134 -14 145 -17 17 -261 20 -342 5 -27 -5 -119 -10 -204 -12 -108 -1 -160 -5
-170 -14 -10 -9 -67 -15 -170 -19 -465 -18 -523 -21 -528 -34 -2 -8 -33 -12
-103 -12 -59 0 -99 -4 -99 -10 0 -5 -7 -10 -15 -10 -13 0 -15 -69 -15 -560 0
-491 2 -560 15 -560 8 0 15 -4 15 -10 0 -12 316 -14 324 -2 2 4 83 9 178 11
102 2 178 7 186 13 7 6 44 13 83 16 l71 5 -2 -99 c-1 -54 -2 -107 -1 -117 1
-16 65 -17 1249 -15 l1247 3 2 95 c1 52 2 103 2 113 1 13 10 17 37 17 19 0 41
-6 49 -13 10 -10 58 -14 187 -16 95 -1 174 -6 176 -11 2 -5 93 -9 203 -10
l199 -1 0 571 c0 500 -2 570 -15 570 -8 0 -15 4 -15 9 0 4 -55 11 -121 14 -67
3 -125 10 -128 15 -4 6 -72 13 -156 16 -355 12 -534 23 -547 34 -8 6 -72 13
-153 16 -77 2 -222 8 -322 11 l-183 7 0 -26 c0 -14 -3 -26 -7 -26 -5 0 -6 -49
-5 -110 l4 -110 -42 0 c-40 0 -70 17 -70 39 0 6 -7 11 -15 11 -9 0 -15 9 -15
25 0 14 -4 25 -10 25 -6 0 -10 27 -10 60 0 33 4 60 10 60 6 0 10 11 10 25 0
16 6 25 15 25 9 0 15 9 15 25 0 19 5 25 21 25 27 0 49 23 49 52 0 13 5 29 12
36 9 9 157 12 606 12 501 0 596 2 608 14 12 12 14 151 14 940 0 611 -3 926
-10 926 -5 0 -10 6 -10 14 0 10 -15 17 -42 21 -57 8 -2722 12 -3008 4z m2923
-132 l27 -12 0 -827 0 -828 -546 0 -546 0 2 108 c5 194 2 242 -15 242 -10 0
-15 11 -15 35 0 19 -4 35 -10 35 -5 0 -10 11 -10 25 0 16 -6 25 -15 25 -8 0
-15 5 -15 11 0 14 -25 39 -39 39 -6 0 -11 5 -11 11 0 14 -25 39 -39 39 -6 0
-11 7 -11 15 0 9 -9 15 -25 15 -14 0 -25 5 -25 10 0 6 -14 10 -30 10 -18 0
-33 6 -36 15 -5 12 -31 15 -150 15 -119 0 -146 -3 -150 -15 -4 -8 -17 -15 -30
-15 -13 0 -24 -4 -24 -10 0 -5 -11 -10 -25 -10 -14 0 -25 -5 -25 -11 0 -16
-31 -38 -52 -39 -11 0 -18 -8 -18 -20 0 -11 -7 -20 -15 -20 -8 0 -15 -9 -15
-20 0 -11 -4 -20 -10 -20 -5 0 -10 -6 -10 -14 0 -7 -7 -19 -15 -26 -8 -7 -15
-23 -15 -36 0 -13 -4 -24 -10 -24 -5 0 -10 -15 -10 -34 0 -19 -7 -41 -15 -50
-12 -11 -15 -43 -15 -150 l0 -136 -530 0 -530 0 0 833 c0 459 3 837 7 840 3 4
678 7 1498 7 1164 0 1497 -3 1518 -13z m-2083 -2170 c0 -112 0 -114 -25 -125
-14 -7 -37 -12 -50 -12 -16 0 -25 -6 -25 -15 0 -9 -9 -15 -25 -15 -14 0 -25
-4 -25 -10 0 -5 -11 -10 -25 -10 -16 0 -25 -6 -25 -15 0 -9 -9 -15 -24 -15
-14 0 -28 -4 -31 -10 -3 -5 -19 -10 -36 -10 -16 0 -29 -4 -29 -10 0 -5 -11
-10 -25 -10 -16 0 -25 -6 -25 -15 0 -9 -9 -15 -25 -15 -14 0 -25 -4 -25 -10 0
-5 -11 -10 -25 -10 -16 0 -25 -6 -25 -15 0 -9 -9 -15 -25 -15 -14 0 -25 -4
-25 -10 0 -5 -7 -10 -15 -10 -8 0 -15 -5 -15 -11 0 -6 -6 -17 -14 -25 -8 -8
-19 -14 -25 -14 -6 0 -11 -11 -11 -25 0 -14 -4 -25 -9 -25 -9 0 -13 -29 -29
-215 -6 -64 -14 -111 -21 -113 -6 -2 -11 -19 -11 -37 l0 -33 -87 -6 c-49 -3
-160 -9 -248 -12 -88 -3 -166 -11 -172 -16 -7 -6 -62 -13 -123 -16 l-110 -5 0
461 0 460 67 6 c38 3 142 8 233 12 91 3 168 11 171 16 7 10 265 27 537 35 83
2 152 8 152 13 0 13 33 17 148 19 l102 1 0 -113z m1350 103 c0 -5 7 -7 16 -3
8 3 25 1 37 -5 12 -6 87 -14 167 -17 404 -14 501 -20 508 -31 4 -8 67 -14 172
-18 91 -4 195 -9 233 -12 l67 -6 0 -460 0 -461 -110 5 c-61 3 -116 10 -123 16
-6 5 -84 13 -172 16 -88 3 -199 9 -247 12 l-87 6 -5 76 c-3 43 -8 113 -12 157
-3 44 -10 83 -16 86 -6 4 -13 27 -15 53 -3 25 -10 46 -14 46 -5 0 -9 11 -9 25
0 16 -6 25 -15 25 -8 0 -15 7 -15 15 0 9 -9 15 -21 15 -21 0 -49 22 -49 38 0
5 -15 12 -32 15 -80 14 -98 20 -98 33 0 8 -10 14 -25 14 -14 0 -25 5 -25 10 0
6 -11 10 -25 10 -14 0 -25 5 -25 10 0 6 -11 10 -25 10 -16 0 -25 6 -25 15 0
10 -10 15 -29 15 -17 0 -33 5 -36 10 -3 6 -17 10 -31 10 -15 0 -24 6 -24 15 0
9 -9 15 -25 15 -14 0 -25 4 -25 9 0 5 -9 11 -19 14 -17 4 -19 15 -20 106 -1
56 1 106 4 112 8 12 195 12 195 -1z"/>
</g>
</svg>
