<?xml version="1.0" standalone="no"?>
<!DOCTYPE svg PUBLIC "-//W3C//DTD SVG 20010904//EN"
 "http://www.w3.org/TR/2001/REC-SVG-20010904/DTD/svg10.dtd">
<svg version="1.0" xmlns="http://www.w3.org/2000/svg"
 width="457.000000pt" height="380.000000pt" viewBox="0 0 457.000000 380.000000"
 preserveAspectRatio="xMidYMid meet">

<g transform="translate(0.000000,380.000000) scale(0.100000,-0.100000)"
fill="#FFFFFF" stroke="#FFFFFF">
<path d="M625 3781 c-22 -10 -52 -31 -67 -47 -61 -65 -58 -23 -58 -966 0 -819
1 -865 19 -903 10 -22 31 -52 47 -67 63 -59 56 -58 630 -58 l526 0 -6 23 c-3
12 -6 52 -6 89 l0 68 -512 2 -513 3 0 845 0 845 1595 0 1595 0 0 -845 0 -845
-507 -3 -507 -2 -5 -33 c-3 -17 -8 -58 -11 -89 l-6 -58 526 0 c573 0 566 -1
629 58 16 15 37 45 47 67 18 38 19 84 19 905 0 821 -1 867 -19 905 -23 49 -64
89 -113 109 -33 14 -214 16 -1650 16 -1549 0 -1615 -1 -1653 -19z"/>
<path d="M2144 2455 c-154 -33 -249 -117 -306 -271 -20 -52 -22 -78 -22 -229
1 -152 3 -181 27 -270 15 -55 46 -138 69 -185 38 -76 43 -93 43 -155 0 -93
-24 -147 -74 -169 -20 -8 -110 -36 -200 -61 -454 -127 -526 -189 -576 -495
-17 -107 -40 -527 -31 -565 4 -14 18 -32 31 -41 23 -15 122 -16 1200 -9 l1175
8 6 35 c10 52 -3 366 -21 507 -16 130 -45 256 -69 303 -41 80 -200 156 -609
292 -137 45 -181 73 -204 128 -19 46 -12 77 52 212 30 63 66 158 80 210 90
347 24 614 -178 717 -100 50 -264 66 -393 38z"/>
<path d="M844 1505 c-832 -58 -796 -52 -828 -120 -14 -29 -16 -100 -16 -567 0
-510 1 -534 20 -565 35 -57 26 -57 453 -29 216 14 415 29 443 32 l51 5 7 86
c3 47 5 88 3 90 -2 2 -168 -8 -368 -22 -200 -14 -379 -25 -396 -25 l-33 0 0
445 c0 417 1 445 18 445 9 0 314 20 677 45 363 25 675 45 693 45 l32 0 0 -80
c0 -44 3 -80 8 -80 4 0 43 11 87 23 l80 23 3 104 c3 114 -6 149 -46 180 -32
25 20 28 -888 -35z"/>
<path d="M2842 1544 c-41 -28 -52 -66 -52 -176 l0 -104 83 -27 c46 -15 86 -27
90 -27 4 0 7 36 7 80 l0 80 35 0 c19 0 332 -20 695 -45 363 -25 667 -45 675
-45 13 0 15 -61 15 -445 l0 -445 -38 0 c-20 0 -201 11 -401 25 -200 14 -365
24 -366 23 -1 -2 0 -42 3 -90 l4 -87 62 -5 c33 -4 234 -18 445 -32 279 -18
391 -23 408 -15 13 6 32 25 43 43 19 32 20 51 20 566 0 467 -2 538 -16 567
-32 68 7 62 -858 121 -435 29 -800 54 -811 54 -11 0 -31 -7 -43 -16z"/>
</g>
</svg>
