<?xml version="1.0" standalone="no"?>
<!DOCTYPE svg PUBLIC "-//W3C//DTD SVG 20010904//EN" "http://www.w3.org/TR/2001/REC-SVG-20010904/DTD/svg10.dtd">
<svg version="1.0" xmlns="http://www.w3.org/2000/svg" 
width="50px" height="25.8px" viewBox="0 0 840.000000 433.000000" 
preserveAspectRatio="xMidYMid meet">
<g transform="translate(0.000000,433.000000) scale(0.100000,-0.100000)" fill="#ffffff" stroke="none">
<path d="M2578 3903 l-28 -4 0 -955 0 -954 610 0 610 0 0 -25 c0 -14 4 -25 9 -25 5 0 11 -9 14 -21 3 -11 15 -23 26 -26 12 -3 21 -9 21 -14 0 -5 7 -9 15 -9 9 0 15 -9 15 -25 0 -14 5 -25 10 -25 6 0 10 -35 10 -86 0 -84 -10 -114 -39 -114 -6 0 -11 -5 -11 -11 0 -17 -27 -39 -48 -39 -11 0 -23 -7 -26 -16 -3 -8 -10 -12 -16 -9 -6 4 -10 60 -10 136 0 104 -3 134 -15 146 -13 13 -40 14 -178 9 -376 -13 -539 -23 -545 -33 -4 -6 -70 -13 -162 -17 -429 -16 -524 -22 -528 -34 -2 -8 -35 -12 -103 -12 -59 0 -99 -4 -99 -10 0 -5 -7 -10 -15 -10 -13 0 -15 -69 -15 -560 0 -491 2 -560 15 -560 8 0 15 -5 15 -11 0 -11 52 -10 510 7 91 3 170 10 177 15 6 6 44 13 83 16 l72 6 -2 -99 c-1 -54 -1 -107 -1 -117 1 -16 65 -17 1249 -15 l1247 3 2 95 c1 52 2 103 2 113 1 13 10 17 40 17 22 0 41 -5 43 -12 4 -12 214 -24 586 -34 l182 -5 0 570 c0 501 -2 571 -15 571 -8 0 -15 4 -15 9 0 4 -55 11 -121 14 -67 3 -125 10 -128 16 -4 6 -67 12 -151 14 -316 10 -552 25 -559 35 -6 10 -52 12 -482 28 l-166 6 -6 -39 c-4 -21 -7 -82 -7 -135 l0 -98 -41 0 c-39 0 -69 17 -69 39 0 6 -7 11 -15 11 -9 0 -15 9 -15 25 0 14 -4 25 -10 25 -6 0 -10 27 -10 60 0 33 4 60 10 60 6 0 10 11 10 25 0 16 6 25 15 25 9 0 15 9 15 25 0 19 5 25 21 25 27 0 49 23 49 52 0 13 5 29 12 36 9 9 157 12 606 12 501 0 596 2 608 14 12 12 14 151 14 940 0 611 -3 926 -10 926 -5 0 -10 6 -10 14 0 7 -10 16 -22 20 -25 6 -3186 6 -3230 -1z m3122 -123 c0 -5 7 -10 15 -10 13 0 15 -99 15 -830 l0 -830 -546 0 -546 0 2 108 c5 194 2 242 -15 242 -10 0 -15 11 -15 35 0 19 -4 35 -10 35 -5 0 -10 11 -10 25 0 16 -6 25 -15 25 -8 0 -15 5 -15 11 0 14 -25 39 -39 39 -6 0 -11 5 -11 11 0 6 -6 17 -14 25 -8 8 -19 14 -25 14 -6 0 -11 7 -11 15 0 9 -9 15 -25 15 -14 0 -25 5 -25 10 0 6 -14 10 -30 10 -18 0 -33 6 -36 15 -5 12 -32 15 -155 15 -126 0 -149 -2 -149 -15 0 -9 -9 -15 -25 -15 -14 0 -25 -4 -25 -10 0 -5 -11 -10 -25 -10 -14 0 -25 -5 -25 -11 0 -17 -27 -39 -49 -39 -14 0 -21 -6 -21 -19 0 -10 -7 -21 -15 -25 -8 -3 -15 -12 -15 -21 0 -8 -4 -15 -10 -15 -5 0 -10 -6 -10 -14 0 -7 -7 -19 -15 -26 -8 -7 -15 -23 -15 -36 0 -13 -4 -24 -10 -24 -5 0 -10 -15 -10 -34 0 -18 -7 -39 -15 -46 -12 -10 -15 -40 -15 -151 l0 -139 -530 0 -530 0 0 833 c0 459 3 837 7 840 11 12 3013 8 3013 -3z m-2080 -2173 c0 -112 0 -114 -25 -125 -14 -7 -37 -12 -50 -12 -16 0 -25 -6 -25 -15 0 -9 -9 -15 -25 -15 -14 0 -25 -4 -25 -10 0 -5 -11 -10 -25 -10 -16 0 -25 -6 -25 -15 0 -9 -9 -15 -24 -15 -14 0 -28 -4 -31 -10 -3 -5 -19 -10 -36 -10 -16 0 -29 -4 -29 -10 0 -5 -11 -10 -25 -10 -16 0 -25 -6 -25 -15 0 -9 -9 -15 -25 -15 -14 0 -25 -4 -25 -10 0 -5 -11 -10 -25 -10 -16 0 -25 -6 -25 -15 0 -9 -9 -15 -25 -15 -14 0 -25 -4 -25 -10 0 -5 -7 -10 -15 -10 -8 0 -15 -5 -15 -11 0 -14 -25 -39 -39 -39 -6 0 -11 -11 -11 -25 0 -14 -4 -25 -9 -25 -9 0 -12 -17 -30 -215 -5 -60 -15 -111 -20 -113 -6 -2 -11 -19 -11 -37 l0 -33 -87 -6 c-49 -3 -160 -9 -248 -12 -88 -3 -163 -10 -166 -16 -3 -5 -59 -12 -123 -15 l-116 -6 0 460 0 461 73 6 c39 3 144 9 232 12 88 4 163 11 166 16 7 10 265 27 537 35 83 2 152 8 152 13 0 12 38 17 153 19 l97 1 0 -113z m1402 95 c7 -6 78 -13 158 -16 352 -12 512 -22 518 -33 4 -6 70 -13 167 -17 88 -3 193 -9 233 -12 l72 -6 0 -461 0 -460 -116 6 c-64 3 -120 10 -123 15 -3 6 -78 13 -166 16 -88 3 -199 9 -247 12 l-87 6 -5 76 c-3 43 -8 113 -12 157 -3 44 -10 83 -16 86 -6 4 -13 27 -15 53 -3 25 -10 46 -14 46 -5 0 -9 11 -9 25 0 16 -6 25 -15 25 -8 0 -15 7 -15 15 0 9 -9 15 -21 15 -21 0 -49 22 -49 38 0 5 -15 12 -32 15 -80 14 -98 20 -98 33 0 8 -10 14 -25 14 -14 0 -25 5 -25 10 0 6 -11 10 -25 10 -14 0 -25 5 -25 10 0 6 -11 10 -25 10 -16 0 -25 6 -25 15 0 10 -10 15 -29 15 -17 0 -33 5 -36 10 -3 6 -17 10 -31 10 -15 0 -24 6 -24 15 0 9 -9 15 -25 15 -14 0 -25 4 -25 9 0 5 -9 11 -20 14 -18 5 -20 14 -20 109 0 58 3 108 8 112 10 12 229 1 244 -12z"/>
</g>
</svg>