<?xml version="1.0" standalone="no"?>
<!DOCTYPE svg PUBLIC "-//W3C//DTD SVG 20010904//EN"
 "http://www.w3.org/TR/2001/REC-SVG-20010904/DTD/svg10.dtd">
<svg version="1.0" xmlns="http://www.w3.org/2000/svg"
 width="453.000000pt" height="364.000000pt" viewBox="0 0 453.000000 364.000000"
 preserveAspectRatio="xMidYMid meet">

<g transform="translate(0.000000,364.000000) scale(0.100000,-0.100000)"
fill="#FFFFFF" stroke="#FFFFFF">
<path d="M683 3538 c-2 -5 -15 -8 -29 -8 l-24 0 0 -955 0 -955 610 0 610 0 0
-25 c0 -14 4 -25 9 -25 5 0 11 -9 14 -21 3 -11 15 -23 26 -26 12 -3 21 -9 21
-14 0 -5 7 -9 15 -9 9 0 15 -9 15 -25 0 -14 5 -25 10 -25 6 0 10 -35 10 -86 0
-84 -10 -114 -39 -114 -6 0 -11 -5 -11 -11 0 -17 -27 -39 -48 -39 -11 0 -23
-7 -26 -16 -3 -8 -10 -12 -16 -9 -6 4 -10 60 -10 136 0 103 -3 134 -15 145
-12 13 -41 15 -172 10 -368 -11 -547 -23 -551 -34 -2 -8 -43 -12 -130 -12 -70
0 -153 -4 -184 -9 -31 -6 -127 -11 -213 -12 -121 -2 -158 -5 -162 -16 -4 -10
-30 -13 -104 -13 -59 0 -99 -4 -99 -10 0 -5 -7 -10 -15 -10 -13 0 -15 -69 -15
-560 0 -491 2 -560 15 -560 8 0 15 -5 15 -11 0 -11 52 -10 510 7 91 3 171 10
178 16 7 6 44 13 83 16 l71 5 -2 -99 c-1 -54 -2 -107 -1 -117 1 -16 65 -17
1249 -15 l1247 3 2 95 c1 52 2 103 2 113 1 13 10 17 37 17 19 0 41 -6 48 -13
10 -9 61 -14 186 -16 95 -1 183 -6 195 -11 12 -5 104 -9 203 -10 l182 -1 0
571 c0 500 -2 570 -15 570 -8 0 -15 4 -15 9 0 4 -55 11 -121 14 -67 3 -125 10
-128 15 -4 6 -72 13 -156 16 -378 13 -547 23 -553 33 -7 11 -48 13 -484 29
-150 5 -168 4 -169 -10 -2 -23 -4 -30 -10 -41 -3 -5 -3 -49 0 -96 8 -117 7
-119 -40 -119 -39 0 -69 17 -69 39 0 6 -7 11 -15 11 -9 0 -15 9 -15 25 0 14
-4 25 -10 25 -6 0 -10 27 -10 60 0 33 4 60 10 60 6 0 10 11 10 25 0 16 6 25
15 25 9 0 15 9 15 25 0 19 5 25 21 25 27 0 49 23 49 52 0 13 5 29 12 36 9 9
157 12 606 12 501 0 596 2 608 14 12 12 14 151 14 940 0 611 -3 926 -10 926
-5 0 -10 7 -10 15 0 8 -1 16 -2 17 -7 7 -3221 12 -3225 6z m3116 -138 c8 0 11
-215 11 -830 l0 -830 -546 0 -546 0 2 108 c3 208 1 242 -15 242 -10 0 -15 11
-15 35 0 19 -4 35 -10 35 -5 0 -10 11 -10 25 0 16 -6 25 -15 25 -8 0 -15 5
-15 11 0 14 -25 39 -39 39 -6 0 -11 5 -11 11 0 14 -25 39 -39 39 -6 0 -11 7
-11 15 0 9 -9 15 -25 15 -14 0 -25 5 -25 10 0 6 -14 10 -30 10 -18 0 -33 6
-36 15 -9 22 -304 22 -304 0 0 -9 -9 -15 -25 -15 -14 0 -25 -4 -25 -10 0 -5
-11 -10 -25 -10 -14 0 -25 -5 -25 -11 0 -17 -27 -39 -49 -39 -14 0 -21 -6 -21
-19 0 -10 -7 -21 -15 -25 -8 -3 -15 -12 -15 -21 0 -8 -4 -15 -10 -15 -5 0 -10
-6 -10 -14 0 -7 -7 -19 -15 -26 -8 -7 -15 -23 -15 -36 0 -13 -4 -24 -10 -24
-5 0 -10 -15 -10 -34 0 -18 -7 -39 -15 -46 -12 -10 -15 -40 -15 -151 l0 -139
-530 0 -530 0 2 838 3 837 1500 5 c1192 4 1502 2 1511 -7 6 -7 16 -13 23 -13z
m-2099 -2163 c0 -112 0 -114 -25 -125 -14 -7 -37 -12 -50 -12 -16 0 -25 -6
-25 -15 0 -9 -9 -15 -25 -15 -14 0 -25 -4 -25 -10 0 -5 -11 -10 -25 -10 -16 0
-25 -6 -25 -15 0 -9 -9 -15 -24 -15 -14 0 -28 -4 -31 -10 -3 -5 -19 -10 -36
-10 -16 0 -29 -4 -29 -10 0 -5 -11 -10 -25 -10 -16 0 -25 -6 -25 -15 0 -9 -9
-15 -25 -15 -14 0 -25 -4 -25 -10 0 -5 -11 -10 -25 -10 -16 0 -25 -6 -25 -15
0 -9 -9 -15 -25 -15 -14 0 -25 -4 -25 -10 0 -5 -7 -10 -15 -10 -8 0 -15 -5
-15 -11 0 -6 -6 -17 -14 -25 -8 -8 -19 -14 -25 -14 -6 0 -11 -11 -11 -25 0
-14 -4 -25 -9 -25 -9 0 -12 -17 -30 -215 -5 -60 -15 -111 -20 -113 -6 -2 -11
-19 -11 -37 l0 -33 -87 -6 c-49 -3 -160 -9 -248 -12 -89 -3 -166 -11 -173 -17
-7 -6 -63 -13 -123 -15 l-109 -5 0 461 0 460 72 6 c40 3 145 9 233 12 91 4
166 11 173 17 14 11 212 23 525 33 86 3 157 9 157 14 0 13 34 17 148 19 l102
1 0 -113z m1402 96 c8 -7 74 -14 158 -17 352 -12 512 -22 518 -33 4 -6 71 -13
172 -17 91 -4 195 -9 233 -12 l67 -6 0 -460 0 -461 -116 6 c-64 3 -120 10
-123 15 -3 6 -78 13 -166 16 -88 3 -199 9 -247 12 l-87 6 -5 76 c-3 43 -8 113
-12 156 -3 48 -11 85 -20 93 -8 8 -14 32 -14 54 0 21 -4 39 -10 39 -5 0 -10
11 -10 25 0 16 -6 25 -15 25 -8 0 -15 7 -15 15 0 9 -9 15 -21 15 -21 0 -49 22
-49 38 0 5 -15 12 -32 15 -80 14 -98 20 -98 33 0 8 -10 14 -25 14 -14 0 -25 5
-25 10 0 6 -11 10 -25 10 -14 0 -25 5 -25 10 0 6 -11 10 -25 10 -16 0 -25 6
-25 15 0 10 -10 15 -29 15 -17 0 -33 5 -36 10 -3 6 -17 10 -31 10 -15 0 -24 6
-24 15 0 9 -9 15 -25 15 -14 0 -25 4 -25 9 0 5 -9 11 -20 14 -18 5 -20 14 -20
109 0 58 3 108 8 112 11 12 228 2 244 -11z"/>
</g>
</svg>