<?xml version="1.0" standalone="no"?>
<!DOCTYPE svg PUBLIC "-//W3C//DTD SVG 20010904//EN"
 "http://www.w3.org/TR/2001/REC-SVG-20010904/DTD/svg10.dtd">
<svg version="1.0" xmlns="http://www.w3.org/2000/svg"
 width="1024.000000pt" height="910.000000pt" viewBox="0 0 1024.000000 910.000000"
 preserveAspectRatio="xMidYMid meet">

<g transform="translate(0.000000,910.000000) scale(0.100000,-0.100000)"
fill="#FFFFFF" stroke="#FFFFFF">
<path d="M3450 8659 c-75 -19 -147 -45 -190 -67 -66 -35 -159 -114 -208 -177
-51 -66 -109 -186 -124 -258 -6 -29 -13 -227 -17 -442 l-6 -390 -1185 -5
c-1163 -5 -1186 -5 -1218 -25 -19 -11 -42 -37 -53 -57 -19 -36 -19 -110 -19
-3214 0 -2903 1 -3184 16 -3258 50 -247 232 -436 482 -500 58 -14 265 -16
2197 -16 1921 0 2140 2 2197 16 226 57 390 213 477 454 14 41 16 218 21 1780
l5 1735 362 3 c282 2 364 -1 373 -10 5 -7 39 -61 74 -120 36 -59 69 -113 75
-120 6 -7 30 -38 53 -68 55 -73 227 -244 308 -307 120 -93 269 -178 425 -242
11 -5 37 -16 58 -25 21 -9 46 -16 55 -16 10 0 22 -4 28 -9 5 -4 45 -16 89 -25
44 -10 98 -22 120 -27 158 -37 508 -37 654 0 20 5 61 15 91 22 117 26 303 94
395 145 22 12 64 35 93 50 63 35 209 142 277 204 275 249 471 573 549 905 9
39 19 79 21 90 13 54 35 259 35 330 0 90 -22 284 -44 390 -30 149 -118 384
-183 487 -13 21 -23 40 -23 43 0 11 -113 171 -170 239 -180 219 -441 409 -700
511 -25 9 -54 21 -65 26 -11 4 -47 16 -80 25 -33 10 -65 22 -72 27 -9 6 -13
182 -15 685 -5 743 -2 707 -67 847 -71 150 -206 275 -361 332 -121 45 -25 43
-2428 42 -1303 0 -2282 -5 -2302 -10z m4591 -290 c145 -46 234 -139 269 -280
7 -30 10 -238 8 -657 l-3 -614 -170 -3 c-208 -3 -344 -26 -550 -91 -102 -32
-327 -142 -406 -197 -33 -23 -71 -49 -85 -58 -88 -58 -270 -236 -354 -348 -14
-18 -34 -45 -46 -59 -108 -140 -251 -459 -285 -637 -29 -150 -49 -311 -49
-391 0 -99 20 -267 46 -384 9 -41 17 -86 18 -100 l1 -25 -435 -3 c-474 -2
-479 -3 -517 -60 -10 -15 -25 -45 -32 -67 -15 -43 -99 -222 -128 -270 -167
-276 -405 -479 -713 -605 -54 -22 -111 -38 -239 -66 -60 -13 -276 -23 -286
-13 -2 3 18 30 46 60 46 49 148 187 175 235 83 150 127 276 155 444 33 200 22
268 -51 317 -33 23 -34 23 -448 23 -352 0 -426 3 -481 16 -108 27 -199 103
-248 209 l-28 60 -3 1615 c-2 1058 1 1631 8 1662 29 139 121 238 265 286 43
15 4520 16 4566 1z m-6866 -1404 c17 -33 46 -94 65 -135 18 -41 58 -127 88
-190 29 -63 68 -144 84 -180 37 -77 70 -125 101 -142 17 -10 181 -14 707 -18
l685 -5 6 -745 c5 -700 9 -796 35 -865 36 -100 102 -201 176 -271 48 -47 167
-124 190 -124 8 0 18 -3 22 -7 4 -4 32 -15 64 -25 50 -16 100 -18 415 -18
l357 0 0 -36 c0 -38 -24 -137 -40 -166 -6 -10 -10 -22 -10 -28 0 -6 -7 -22
-16 -35 l-16 -25 -32 23 -31 22 -538 3 c-612 3 -589 6 -628 -75 -34 -71 -14
-142 54 -183 31 -19 54 -20 514 -20 335 0 484 -3 489 -11 3 -6 -7 -24 -22 -41
-32 -33 -141 -121 -164 -132 -69 -33 -148 -87 -167 -115 -42 -62 -23 -153 40
-191 31 -19 104 -38 237 -62 101 -18 463 -18 550 0 262 54 401 104 582 210
157 91 352 259 453 392 22 28 55 68 72 88 l32 37 1 -1529 c0 -1151 -3 -1539
-12 -1570 -30 -103 -130 -209 -231 -243 -49 -17 -173 -18 -2135 -21 -2272 -2
-2159 -5 -2258 53 -55 33 -111 96 -143 164 l-26 56 -3 3100 c-1 1705 0 3106 3
3113 3 10 51 12 212 10 l207 -3 31 -60z m7155 -445 c52 -6 141 -22 198 -35 94
-24 120 -32 177 -56 11 -5 32 -13 48 -19 40 -14 42 -9 -58 -185 -15 -27 -39
-67 -52 -87 -12 -21 -23 -40 -23 -43 0 -3 -15 -29 -33 -58 -18 -29 -55 -91
-80 -138 -26 -48 -54 -92 -62 -99 -11 -9 -43 -9 -140 0 -228 22 -546 -19 -805
-103 -296 -96 -535 -242 -753 -459 -32 -32 -60 -58 -62 -58 -14 0 -2 123 21
208 74 284 195 495 403 702 93 92 206 179 314 241 54 32 178 89 191 89 7 0 16
3 20 7 11 11 75 32 186 59 163 41 335 52 510 34z m759 -307 c250 -189 449
-489 529 -798 6 -22 15 -58 21 -80 15 -58 25 -155 16 -155 -4 0 -50 40 -101
90 -87 82 -152 135 -244 199 -125 86 -415 223 -520 246 -39 8 -47 28 -26 59 8
14 24 40 34 58 11 18 45 78 77 133 32 55 67 116 77 135 53 93 83 140 92 140 5
0 25 -12 45 -27z m-1571 -840 c-7 -16 -15 -33 -19 -38 -29 -40 -69 -219 -69
-308 0 -100 34 -236 80 -327 24 -48 17 -50 -61 -17 -98 41 -221 110 -305 172
-85 63 -194 160 -194 174 0 21 240 221 265 221 2 0 35 19 72 41 68 42 207 107
230 108 10 1 10 -5 1 -26z m1330 18 c9 -4 58 -28 107 -52 183 -88 425 -266
425 -313 0 -22 -144 -146 -240 -208 -128 -81 -330 -178 -330 -158 0 6 8 29 19
53 53 120 71 199 71 317 0 125 -15 192 -71 318 -10 23 -19 45 -19 47 0 8 19 6
38 -4z m-2078 -594 c190 -184 463 -350 707 -429 120 -39 121 -42 69 -130 -19
-31 -46 -76 -59 -100 -13 -24 -50 -88 -82 -143 -32 -55 -67 -116 -77 -135 -11
-19 -23 -38 -27 -43 -21 -22 -245 190 -344 325 -134 182 -214 359 -263 588
-12 56 -19 150 -11 150 1 0 40 -37 87 -83z m2886 22 c-6 -59 -10 -81 -43 -199
-112 -407 -388 -734 -793 -942 -41 -21 -80 -38 -86 -38 -6 0 -33 -9 -59 -21
-26 -11 -102 -35 -169 -52 -116 -29 -129 -30 -341 -31 -210 -1 -225 1 -330 28
-133 34 -272 85 -279 101 -2 7 27 65 65 130 38 65 69 119 69 120 0 2 26 47 58
102 32 54 74 125 92 158 53 96 41 91 187 81 131 -10 386 3 495 25 157 31 215
45 308 76 50 16 51 16 165 64 220 92 433 235 590 396 33 35 64 63 69 63 5 0 6
-27 2 -61z"/>
<path d="M3844 7986 c-33 -14 -66 -55 -79 -94 -17 -55 27 -142 82 -163 13 -5
282 -9 599 -9 534 -1 578 0 612 17 65 32 91 117 56 186 -23 43 -38 57 -76 68
-19 5 -278 9 -598 9 -452 -1 -571 -3 -596 -14z"/>
<path d="M5404 7986 c-72 -32 -98 -145 -48 -211 14 -18 39 -38 56 -44 39 -14
2224 -16 2259 -2 44 17 89 80 89 124 0 36 -25 89 -55 117 l-27 25 -1121 2
c-927 2 -1127 0 -1153 -11z"/>
<path d="M3834 7281 c-38 -23 -74 -79 -74 -114 0 -46 30 -106 65 -127 32 -20
47 -20 1014 -20 l981 0 37 33 c31 29 37 41 40 88 5 67 -19 116 -68 141 -31 16
-111 17 -999 17 -930 1 -966 0 -996 -18z"/>
<path d="M6320 7282 c-87 -43 -93 -183 -11 -241 29 -21 37 -21 691 -21 741 0
697 -4 740 73 38 66 15 146 -53 187 -31 19 -55 20 -682 19 -592 0 -653 -1
-685 -17z"/>
<path d="M3811 6561 c-66 -66 -66 -136 -1 -201 32 -32 48 -39 92 -45 29 -3
294 -5 588 -3 515 3 536 4 569 23 91 54 95 190 7 244 -33 21 -46 21 -625 21
l-591 0 -39 -39z"/>
<path d="M5398 6582 c-69 -46 -90 -131 -48 -199 41 -69 37 -68 515 -68 l430 0
37 25 c87 59 90 164 8 234 l-32 26 -441 0 c-406 0 -444 -2 -469 -18z"/>
<path d="M3844 5886 c-38 -17 -73 -65 -81 -110 -6 -38 20 -103 51 -126 50 -37
70 -38 631 -39 616 0 616 0 662 68 40 60 24 152 -35 196 -26 19 -44 20 -612
22 -477 2 -591 0 -616 -11z"/>
<path d="M5403 5884 c-47 -23 -73 -71 -73 -131 0 -42 5 -55 33 -85 17 -20 47
-41 66 -47 22 -7 175 -11 445 -11 407 0 412 0 456 23 58 29 83 76 76 139 -5
49 -26 86 -61 110 -16 10 -112 14 -465 15 -393 3 -449 1 -477 -13z"/>
<path d="M3880 5203 c-57 -11 -120 -84 -120 -138 0 -15 9 -47 21 -70 40 -79 4
-75 664 -75 575 0 588 0 621 21 87 53 83 191 -6 244 -34 19 -50 20 -595 21
-308 1 -571 -1 -585 -3z"/>
<path d="M1234 5230 c-35 -14 -72 -68 -79 -113 -3 -23 -5 -385 -3 -804 l3
-762 34 -35 c20 -21 50 -38 77 -45 61 -15 1038 -15 1102 0 57 14 99 51 112 98
13 46 13 1511 0 1565 -5 22 -23 53 -39 70 l-31 31 -578 2 c-317 1 -586 -2
-598 -7z"/>
<path d="M1314 3056 c-75 -33 -102 -143 -50 -210 48 -64 67 -66 556 -66 491 0
508 2 557 67 50 65 27 165 -47 204 -32 18 -65 19 -510 19 -376 -1 -481 -4
-506 -14z"/>
<path d="M3230 3063 c-25 -10 -64 -44 -77 -66 -7 -12 -12 -43 -13 -68 0 -64
31 -108 94 -132 44 -16 78 -18 310 -15 234 3 265 5 300 22 94 47 103 176 17
241 -24 19 -44 20 -321 22 -162 1 -302 -1 -310 -4z"/>
<path d="M1490 2329 c-69 -28 -102 -99 -81 -176 14 -50 49 -81 109 -93 31 -7
597 -10 1637 -8 1756 3 1626 -2 1672 67 46 69 19 165 -57 203 -33 17 -131 18
-1645 17 -1042 0 -1619 -4 -1635 -10z"/>
<path d="M1502 1570 c-45 -10 -80 -46 -93 -92 -21 -80 17 -155 89 -176 29 -9
440 -12 1638 -12 1485 1 1601 2 1634 18 99 49 107 188 13 249 -26 17 -104 18
-1638 20 -885 0 -1625 -2 -1643 -7z"/>
</g>
</svg>
