<?xml version="1.0" standalone="no"?>
<!DOCTYPE svg PUBLIC "-//W3C//DTD SVG 20010904//EN"
 "http://www.w3.org/TR/2001/REC-SVG-20010904/DTD/svg10.dtd">
<svg version="1.0" xmlns="http://www.w3.org/2000/svg"
 width="1024.000000pt" height="903.000000pt" viewBox="0 0 1024.000000 903.000000"
 preserveAspectRatio="xMidYMid meet">

<g transform="translate(0.000000,903.000000) scale(0.100000,-0.100000)"
fill="#FFFFFF" stroke="#FFFFFF">
<path d="M3572 8780 c-96 -25 -152 -51 -227 -105 -116 -82 -200 -200 -243
-339 -25 -80 -26 -87 -30 -473 -3 -298 -6 -394 -16 -402 -9 -7 -390 -11 -1187
-13 -1161 -3 -1174 -3 -1209 -23 -73 -43 -68 243 -63 -3249 2 -2242 6 -3155
14 -3216 14 -104 26 -140 80 -232 87 -152 258 -276 409 -298 84 -12 498 -13
572 -1 31 5 90 11 130 12 41 1 90 4 108 7 l33 5 -32 13 c-17 7 -31 19 -31 26
1 15 64 58 85 58 8 0 16 3 19 8 8 13 230 -9 239 -25 5 -8 16 -11 27 -8 11 3
29 1 41 -5 11 -7 87 -15 168 -20 156 -9 257 1 411 40 176 44 271 52 595 52
323 -1 660 -15 780 -34 188 -29 261 -44 385 -81 126 -37 195 -45 496 -53 301
-8 361 -1 497 65 141 69 221 150 284 287 62 135 57 -4 60 1869 2 941 5 1716 8
1723 3 9 87 12 372 12 l368 0 72 -118 c131 -215 254 -355 433 -496 162 -126
262 -184 434 -251 188 -73 292 -98 520 -126 272 -33 633 35 926 174 315 149
631 451 788 752 33 64 113 242 123 278 36 118 71 277 81 362 14 128 5 425 -16
525 -40 187 -81 318 -136 428 -16 33 -30 63 -30 66 0 3 -25 47 -56 98 -152
252 -328 434 -572 591 -144 94 -257 146 -448 208 -45 15 -64 27 -73 45 -8 18
-11 210 -11 672 0 717 0 707 -66 847 -83 175 -223 289 -425 345 -73 20 -86 20
-2344 19 -2198 0 -2272 -1 -2343 -19z m4628 -273 c119 -33 215 -124 255 -241
13 -38 15 -137 13 -682 l-3 -637 -120 2 c-123 2 -298 -12 -363 -28 -20 -5 -62
-15 -92 -22 -117 -26 -209 -60 -360 -132 -390 -186 -714 -540 -880 -961 -74
-188 -120 -431 -120 -636 0 -135 33 -384 59 -453 23 -61 50 -57 -415 -57 -303
0 -438 -3 -467 -12 -42 -13 -97 -74 -97 -109 0 -10 -4 -21 -10 -24 -5 -3 -10
-13 -10 -22 0 -18 -84 -188 -126 -254 -195 -311 -488 -530 -839 -628 -117 -33
-396 -56 -395 -33 1 4 23 32 51 62 50 55 169 213 169 224 0 4 10 23 23 44 58
92 107 239 138 412 35 197 20 279 -61 320 -37 19 -58 20 -467 20 -446 0 -459
1 -542 44 -44 23 -127 111 -150 161 -12 25 -26 69 -31 97 -15 76 -13 3192 1
3260 30 138 123 240 264 286 48 16 4517 15 4575 -1z m-6904 -1345 c6 -4 25
-36 42 -72 64 -138 133 -283 254 -537 21 -44 40 -69 66 -85 l37 -23 682 -3
683 -3 5 -22 c3 -12 6 -357 8 -767 2 -694 4 -749 21 -800 73 -219 210 -362
418 -438 l73 -27 370 -5 370 -5 -2 -50 c-2 -54 -41 -180 -68 -222 l-17 -25
-30 28 -29 29 -547 0 c-531 0 -548 -1 -574 -20 -81 -59 -74 -190 13 -237 31
-17 68 -18 516 -18 361 0 484 -3 489 -12 10 -16 -114 -128 -204 -183 -40 -25
-75 -45 -78 -45 -20 0 -69 -50 -85 -85 -23 -53 -17 -91 22 -138 36 -44 46 -47
287 -92 110 -20 395 -20 500 0 234 45 357 83 507 158 231 115 491 340 622 539
14 21 29 35 34 32 5 -3 9 -665 9 -1528 0 -1612 2 -1545 -42 -1636 -23 -47 -81
-113 -126 -141 -103 -65 57 -61 -2247 -62 -2015 -2 -2092 -1 -2148 17 -119 38
-215 140 -245 259 -9 34 -12 813 -12 3130 0 1696 3 3087 7 3090 9 9 405 9 419
-1z m7319 -520 c107 -23 292 -85 313 -106 13 -13 8 -27 -48 -122 -34 -59 -72
-125 -85 -148 -13 -23 -49 -86 -82 -141 -32 -55 -67 -117 -78 -138 -34 -64
-35 -65 -175 -54 -174 14 -412 -4 -600 -44 -195 -42 -465 -149 -628 -251 -93
-57 -230 -167 -313 -249 -45 -43 -82 -79 -85 -79 -8 0 -4 127 5 156 5 16 17
58 26 94 110 411 397 757 792 955 50 25 97 45 105 45 8 0 18 3 22 7 23 23 242
79 366 93 114 13 361 3 465 -18z m636 -293 c71 -51 230 -217 290 -304 103
-147 190 -328 227 -470 6 -22 18 -67 26 -101 9 -33 16 -84 16 -114 l0 -53 -92
89 c-222 214 -509 378 -805 460 -20 5 -15 30 16 81 16 27 40 67 53 89 152 267
204 354 214 354 6 0 31 -14 55 -31z m-1574 -826 c-3 -10 -19 -52 -35 -93 -42
-107 -52 -158 -52 -266 0 -115 17 -193 66 -302 33 -73 30 -86 -14 -63 -9 5
-53 26 -97 46 -99 45 -209 112 -295 180 -86 68 -150 129 -150 141 0 40 283
248 431 317 133 62 155 68 146 40z m1428 -43 c66 -32 151 -79 189 -104 94 -61
232 -180 239 -205 11 -42 -212 -216 -383 -300 -131 -63 -180 -84 -187 -77 -3
3 5 32 19 63 45 103 60 159 73 269 12 94 -22 243 -92 402 -10 23 23 12 142
-48z m-2199 -523 c194 -199 447 -354 749 -457 49 -17 81 -34 83 -44 2 -8 -14
-46 -36 -83 -22 -37 -52 -90 -68 -118 -117 -210 -175 -305 -190 -305 -29 0
-175 131 -271 244 -168 199 -261 389 -328 664 -16 67 -20 162 -7 162 4 0 34
-28 68 -63z m2904 18 c0 -42 -14 -114 -42 -220 -5 -22 -24 -76 -41 -120 -104
-276 -266 -491 -500 -666 -407 -304 -943 -388 -1406 -220 -87 32 -111 46 -111
64 0 12 89 172 239 430 40 69 80 132 89 139 11 10 78 13 261 15 197 1 269 5
361 22 316 55 579 159 820 322 102 70 238 185 285 241 17 20 33 37 38 37 4 1
7 -19 7 -44z"/>
<path d="M4020 8130 c-21 -5 -48 -23 -67 -46 -27 -30 -33 -46 -33 -83 0 -58
29 -108 75 -127 51 -21 1159 -21 1210 0 94 40 99 183 8 243 -25 17 -66 18
-593 20 -311 1 -581 -2 -600 -7z"/>
<path d="M5572 8127 c-53 -17 -86 -69 -86 -132 1 -61 22 -96 71 -120 28 -14
157 -15 1152 -13 l1119 3 27 25 c73 68 70 166 -8 224 -28 21 -30 21 -1135 23
-765 1 -1117 -2 -1140 -10z"/>
<path d="M3994 7421 c-51 -31 -74 -72 -74 -130 0 -46 4 -55 40 -91 l40 -40
985 0 985 0 36 33 c31 28 37 42 41 84 7 67 -17 117 -68 143 -37 19 -66 20
-996 20 -923 0 -959 -1 -989 -19z"/>
<path d="M6485 7423 c-16 -9 -35 -21 -41 -27 -18 -19 -44 -73 -44 -94 0 -35
28 -89 60 -116 l32 -26 660 0 c654 0 661 0 695 21 41 26 66 80 60 132 -7 51
-30 83 -77 107 -38 19 -57 20 -677 20 -566 -1 -641 -3 -668 -17z"/>
<path d="M4013 6729 c-17 -5 -46 -26 -62 -46 -57 -69 -35 -171 46 -210 35 -17
77 -18 608 -18 530 0 572 1 603 18 73 40 95 140 46 205 -49 63 -36 62 -651 61
-308 0 -572 -5 -590 -10z"/>
<path d="M5585 6733 c-39 -10 -84 -53 -94 -90 -24 -84 20 -158 106 -182 24 -7
186 -11 425 -11 341 0 393 2 430 17 24 9 48 22 53 27 71 74 54 180 -35 227
-32 18 -64 19 -450 18 -228 -1 -424 -4 -435 -6z"/>
<path d="M4025 6030 c-58 -11 -105 -68 -105 -127 0 -47 17 -89 46 -114 44 -37
89 -39 641 -38 480 0 543 2 583 17 108 42 122 184 23 249 -25 17 -65 18 -588
19 -308 1 -578 -2 -600 -6z"/>
<path d="M5605 6033 c-83 -18 -120 -61 -119 -138 1 -62 22 -97 72 -122 34 -16
73 -18 432 -21 494 -4 530 2 561 95 30 91 -20 171 -113 184 -56 8 -798 10
-833 2z"/>
<path d="M3990 5319 c-91 -52 -95 -170 -8 -238 26 -21 34 -21 613 -21 579 0
588 0 622 21 58 36 80 111 51 176 -16 36 -27 47 -65 67 -29 14 -95 16 -605 16
-558 0 -574 -1 -608 -21z"/>
<path d="M1405 5370 c-37 -11 -73 -43 -86 -77 -5 -14 -9 -343 -9 -806 l0 -782
25 -37 c45 -67 50 -67 655 -64 327 2 545 7 560 14 48 19 78 60 85 115 3 29 5
390 3 802 -3 706 -4 752 -21 777 -10 15 -30 35 -45 45 -25 17 -64 18 -582 20
-309 1 -568 -2 -585 -7z"/>
<path d="M1487 3198 c-82 -22 -121 -126 -77 -201 39 -66 34 -65 560 -68 328
-1 483 1 502 9 33 14 76 69 84 109 8 43 -26 113 -68 138 -32 19 -52 20 -498
22 -296 1 -479 -2 -503 -9z"/>
<path d="M3410 3201 c-51 -11 -79 -31 -101 -73 -23 -46 -24 -79 -2 -121 39
-76 56 -79 373 -79 304 0 328 4 369 60 42 60 21 160 -44 199 -27 16 -57 18
-295 20 -146 1 -281 -2 -300 -6z"/>
<path d="M1653 2468 c-17 -6 -44 -24 -60 -40 -25 -26 -28 -37 -28 -93 0 -54 4
-67 25 -90 14 -15 36 -32 50 -37 16 -7 581 -10 1643 -10 1307 1 1622 3 1644
14 69 33 94 133 50 199 -46 69 86 64 -1687 66 -1076 1 -1615 -2 -1637 -9z"/>
<path d="M1644 1703 c-39 -8 -74 -56 -80 -110 -9 -69 14 -116 70 -143 42 -20
51 -20 1647 -20 1490 1 1606 2 1639 18 102 50 107 198 7 245 -32 16 -160 17
-1649 16 -887 -1 -1623 -4 -1634 -6z"/>
</g>
</svg>
