<svg viewBox="0 0 800 500" xmlns="http://www.w3.org/2000/svg">

<!-- Background -->
<rect width="100%" height="100%" fill="#ffffff"/>

<!-- GREEN UP (U form) -->
<path d="
M330 260
C280 260 280 210 280 210
L280 150
L250 150
L330 90
L410 150
L380 150
L380 210
C380 210 380 260 330 260
Z"
fill="#B7F000"/>

<!-- RED DOWN (P form) -->
<path d="
M390 150
L390 240
C390 270 450 270 470 240
L470 210
L500 210
L445 260
L390 210
L420 210
L420 150
Z"
fill="#FF2A2A"/>

<!-- TEXT -->
<text x="400" y="330"
text-anchor="middle"
font-size="56"
font-weight="700"
font-family="Arial"
fill="#000000">
UpDown
</text>

<text x="560" y="330"
font-size="56"
font-weight="700"
font-family="Arial"
fill="#FF2A2A">
Alert
</text>

<!-- SIGNAL ICON -->
<circle cx="530" cy="300" r="6" fill="#FF2A2A"/>
<path d="M530 288 Q545 300 530 312"
stroke="#FF2A2A" stroke-width="3" fill="none"/>
<path d="M530 282 Q555 300 530 318"
stroke="#FF2A2A" stroke-width="3" fill="none"/>

<!-- SLOGAN -->
<text x="400" y="390"
text-anchor="middle"
font-size="28"
font-family="Arial"
fill="#8CCF00">
Just leave it — it will watch.
</text>

</svg>