<?xml version="1.0" standalone="no"?>
<!DOCTYPE svg PUBLIC "-//W3C//DTD SVG 20010904//EN"
 "http://www.w3.org/TR/2001/REC-SVG-20010904/DTD/svg10.dtd">
<svg version="1.0" xmlns="http://www.w3.org/2000/svg"
 width="1536.000000pt" height="1024.000000pt" viewBox="0 0 1536.000000 1024.000000"
 preserveAspectRatio="xMidYMid meet">

<g transform="translate(0.000000,1024.000000) scale(0.100000,-0.100000)"
fill="#000000" stroke="none">
<path d="M0 5120 l0 -5120 7680 0 7680 0 0 5120 0 5120 -7680 0 -7680 0 0
-5120z m6840 3273 c457 -482 471 -498 444 -504 -16 -4 -140 -7 -276 -8 l-248
-1 -1 -237 c0 -131 0 -534 0 -896 1 -736 1 -738 71 -845 99 -154 292 -186 456
-77 51 33 95 81 149 160 l27 40 -7 -74 c-22 -242 -129 -475 -290 -637 -167
-168 -379 -254 -595 -241 -171 10 -301 68 -426 192 -114 113 -181 245 -220
435 -17 78 -19 175 -22 1133 l-3 1047 -260 0 c-142 0 -259 2 -259 5 0 6 66 74
580 600 118 121 255 262 304 313 50 50 93 92 97 92 4 0 220 -224 479 -497z
m-2980 -4481 c0 -258 1 -269 23 -312 33 -66 64 -84 144 -84 84 -1 129 22 158
79 18 37 20 64 23 313 l3 272 95 0 95 0 -3 -297 c-3 -291 -4 -299 -27 -347
-51 -103 -145 -162 -286 -179 -187 -23 -360 66 -406 211 -8 24 -14 139 -16
325 l-5 287 101 0 101 0 0 -268z m1872 257 c138 -29 242 -119 279 -241 18 -58
21 -87 17 -171 -4 -89 -9 -111 -36 -169 -40 -84 -108 -146 -199 -184 -67 -27
-72 -28 -310 -32 l-242 -4 -1 406 0 406 219 0 c124 0 243 -5 273 -11z m-777
-230 c56 -14 126 -75 154 -133 57 -117 27 -298 -64 -379 -73 -65 -206 -87
-294 -47 -24 11 -44 20 -45 20 0 0 -2 -57 -2 -128 l-2 -127 -91 -3 -91 -3 0
401 0 400 90 0 90 0 0 -29 0 -30 66 35 c71 37 114 42 189 23z m1640 -28 c114
-56 161 -143 153 -281 -4 -65 -10 -88 -34 -127 -64 -103 -165 -148 -318 -141
-100 5 -146 22 -211 80 -53 46 -77 101 -83 184 -6 91 15 156 70 219 70 79 145
106 276 101 69 -3 94 -9 147 -35z m1766 8 c32 -18 51 -37 68 -73 23 -46 25
-61 29 -262 l5 -214 -97 0 -96 0 0 180 c0 197 -6 226 -55 248 -63 29 -133 4
-165 -58 -18 -35 -20 -59 -20 -205 l0 -165 -95 0 -96 0 5 183 c3 100 5 228 5
285 l1 102 84 0 84 0 7 -46 c6 -43 7 -45 21 -26 16 24 72 60 112 73 49 15 155
4 203 -22z m-1356 -156 c31 -98 57 -182 58 -187 2 -4 32 76 67 178 l65 187 79
-3 79 -3 59 -165 c32 -91 60 -172 64 -180 3 -8 33 67 66 168 l60 182 90 0 90
0 -7 -27 c-5 -22 -159 -446 -190 -525 -6 -15 -21 -18 -100 -18 l-92 0 -26 73
c-14 39 -40 116 -58 170 -18 53 -36 97 -40 97 -4 0 -11 -10 -14 -22 -4 -13
-30 -90 -58 -171 l-51 -148 -90 3 -89 3 -103 275 c-57 151 -103 278 -104 283
0 4 43 7 94 7 l95 0 56 -177z m1853 -85 c6 -1 12 -5 12 -10 0 -4 9 -8 21 -8
13 0 19 -5 16 -12 -2 -7 -24 -73 -48 -145 l-43 -133 -109 0 c-108 0 -108 0
-102 23 6 17 83 228 110 299 5 14 13 14 68 1 34 -8 68 -15 75 -15z m546 -140
c31 -80 56 -151 56 -157 0 -8 -33 -11 -107 -9 l-107 3 -43 130 c-23 72 -42
133 -42 137 -2 23 169 74 180 54 4 -6 32 -77 63 -158z m-2534 -614 c0 -2 -7
-4 -15 -4 -8 0 -15 4 -15 10 0 5 7 7 15 4 8 -4 15 -8 15 -10z m251 7 c-8 -5
-64 -9 -125 -9 -138 0 -114 12 32 16 69 2 102 -1 93 -7z m144 -9 c-3 -3 -11 0
-18 7 -9 10 -8 11 6 5 10 -3 15 -9 12 -12z m1115 9 c30 -4 -206 -8 -525 -8
-319 -1 -569 3 -555 7 31 10 1005 11 1080 1z m-2780 -511 l0 -180 -25 0 -25 0
0 180 0 180 25 0 25 0 0 -180z m1325 164 c19 -19 4 -44 -27 -44 -24 0 -34 26
-18 45 16 19 25 19 45 -1z m1983 -144 c3 -186 1 -200 -34 -200 l-26 0 6 153
c3 83 5 165 6 180 0 24 4 28 23 25 22 -3 22 -6 25 -158z m122 -20 l0 -180 -25
0 -25 0 0 180 0 180 25 0 25 0 0 -180z m1356 135 c3 -25 4 -56 2 -70 -6 -29
-8 -29 28 -10 42 22 93 19 121 -7 21 -20 23 -30 23 -125 l0 -103 -25 0 c-25 0
-25 0 -25 93 0 102 -7 117 -52 117 -52 0 -68 -29 -68 -125 0 -84 0 -85 -25
-85 l-25 0 0 180 c0 171 1 180 19 180 16 0 21 -9 27 -45z m-2441 10 c0 -22
-31 -33 -47 -17 -17 17 -1 44 24 40 15 -2 23 -10 23 -23z m830 0 c0 -25 -40
-33 -49 -10 -9 24 2 37 27 33 14 -2 22 -10 22 -23z m-4145 -155 c0 -214 -14
-250 -99 -250 -26 0 -31 4 -31 24 0 18 4 23 18 20 9 -3 26 2 37 10 18 13 20
28 23 190 l3 176 25 0 24 0 0 -170z m670 110 c0 -30 13 -37 58 -31 6 1 12 -7
12 -19 0 -16 -6 -20 -35 -20 l-35 0 0 -79 c0 -85 12 -108 50 -98 15 4 20 0 20
-13 0 -35 -54 -40 -94 -9 -25 19 -26 25 -26 110 0 82 -1 89 -20 89 -12 0 -20
7 -20 16 0 9 9 18 20 21 14 4 20 14 20 34 0 24 4 29 25 29 21 0 25 -5 25 -30z
m1760 1 c0 -26 4 -30 32 -33 22 -2 34 -9 36 -20 3 -15 -4 -18 -32 -18 l-36 0
0 -71 c0 -82 11 -109 45 -109 32 0 34 -30 3 -31 -82 -4 -98 17 -98 127 0 77
-2 84 -20 84 -11 0 -20 6 -20 14 0 8 9 18 20 21 12 4 20 15 20 29 0 27 8 36
32 36 13 0 18 -8 18 -29z m1020 -1 c0 -28 3 -30 35 -30 28 0 35 -4 35 -20 0
-16 -7 -20 -35 -20 l-35 0 0 -78 c0 -86 8 -102 52 -102 35 0 38 -25 4 -34 -31
-8 -84 11 -96 34 -6 10 -10 55 -10 99 0 74 -2 81 -20 81 -13 0 -20 7 -20 20 0
13 7 20 20 20 16 0 20 7 20 30 0 25 4 30 25 30 21 0 25 -5 25 -30z m1882 3 c3
-24 8 -28 41 -31 28 -2 37 -8 37 -22 0 -14 -9 -20 -37 -22 l-38 -3 -2 -65 c-2
-76 14 -110 52 -110 16 0 25 -6 25 -15 0 -11 -11 -15 -43 -15 -66 0 -81 22
-86 126 -3 75 -5 84 -22 84 -26 0 -24 23 4 35 13 6 23 21 25 38 2 19 9 27 22
27 13 0 20 -8 22 -27z m-5204 -144 c7 -90 8 -94 35 -103 22 -8 32 -6 55 11 25
19 27 26 32 109 5 84 6 89 28 90 22 1 22 0 22 -122 0 -117 -1 -124 -20 -124
-11 0 -20 6 -20 14 0 11 -8 10 -37 -5 -48 -24 -84 -24 -116 1 -33 26 -40 63
-32 155 6 57 11 75 24 77 21 5 20 7 29 -103z m396 105 c17 -7 22 -29 8 -38 -5
-3 -25 0 -45 6 -31 10 -40 9 -56 -6 -28 -25 -17 -43 40 -61 78 -26 102 -80 55
-124 -19 -18 -36 -23 -74 -23 -64 0 -93 9 -85 28 4 11 15 13 48 8 47 -7 85 7
85 31 0 9 -24 26 -54 39 -88 39 -109 97 -48 131 28 15 98 20 126 9z m679 -5
c31 -14 57 -59 57 -98 l0 -31 -90 0 c-50 0 -90 -4 -90 -9 0 -6 11 -22 24 -38
24 -27 53 -33 121 -21 39 6 21 -27 -22 -40 -121 -38 -219 88 -153 196 30 49
97 67 153 41z m291 -10 c25 -20 26 -24 26 -125 l0 -104 -25 0 c-16 0 -25 6
-25 16 0 14 -2 14 -22 0 -33 -23 -103 -21 -128 4 -25 25 -26 64 -1 89 22 22
80 41 124 41 35 0 37 33 2 56 -24 15 -40 15 -97 -2 -12 -4 -18 0 -18 11 0 38
120 48 164 14z m154 -77 c19 -51 38 -89 42 -85 4 4 22 47 40 96 28 76 36 87
56 87 13 0 24 -1 24 -3 0 -2 -20 -56 -45 -121 -25 -66 -45 -121 -45 -123 0 -2
-15 -3 -32 -1 -32 3 -34 7 -79 118 -40 100 -44 116 -30 122 9 3 20 6 25 4 4
-1 24 -43 44 -94z m383 69 c16 -16 30 -41 31 -55 0 -14 1 -32 2 -38 1 -9 -23
-14 -82 -15 -46 -1 -86 -4 -89 -7 -3 -2 -2 -14 2 -26 10 -31 58 -49 108 -39
28 5 44 3 49 -4 10 -16 0 -23 -44 -35 -62 -17 -136 9 -157 55 -16 36 -13 111
6 143 21 36 47 48 101 49 35 1 49 -5 73 -28z m264 -96 c0 -114 -1 -120 -21
-123 -19 -3 -22 3 -27 64 -2 36 -2 93 0 126 5 53 8 59 27 56 20 -3 21 -9 21
-123z m1016 95 c4 -14 7 -69 8 -123 l1 -98 -26 3 -26 3 -3 115 c-2 63 -1 118
1 121 9 16 40 2 45 -21z m429 -62 c14 -49 27 -88 30 -88 3 0 18 41 33 91 26
86 29 90 54 87 25 -3 30 -11 57 -98 l30 -95 30 98 c28 87 33 97 54 97 15 0 22
-5 19 -12 -2 -7 -17 -56 -31 -108 -34 -118 -41 -130 -72 -130 -28 0 -33 9 -65
120 -19 65 -23 71 -30 50 -4 -14 -18 -58 -30 -98 -21 -72 -22 -73 -52 -70 -23
2 -33 9 -38 28 -4 14 -21 69 -37 123 l-30 98 26 -3 c24 -3 29 -11 52 -90z
m401 82 c5 0 9 -54 9 -120 l0 -120 -25 0 -25 0 0 126 c0 111 2 125 16 120 9
-3 20 -6 25 -6z m504 -77 c14 -49 27 -92 29 -97 1 -6 16 33 32 85 26 84 32 94
55 97 23 3 27 -3 54 -88 16 -49 32 -90 35 -90 4 0 19 41 34 90 22 73 31 90 46
90 27 0 26 -8 -17 -138 -36 -113 -37 -113 -66 -110 -29 3 -31 7 -57 97 -15 52
-29 91 -32 85 -3 -5 -16 -49 -29 -97 -23 -86 -24 -88 -53 -85 -30 3 -32 8
-100 226 -6 19 -4 22 18 22 23 0 27 -8 51 -87z m532 65 c21 -20 23 -30 23
-125 0 -94 -2 -103 -19 -103 -10 0 -22 7 -25 16 -6 16 -8 16 -24 0 -12 -10
-36 -16 -65 -16 -37 0 -49 5 -66 26 -28 35 -26 50 7 84 22 21 42 30 85 35 46
6 57 11 57 26 0 27 -44 53 -78 45 -48 -11 -55 -11 -59 2 -6 17 33 31 91 31 38
1 55 -4 73 -21z m447 16 c9 -3 16 -15 16 -26 0 -14 -5 -18 -16 -14 -51 20 -64
18 -95 -13 -29 -29 -31 -36 -26 -79 7 -61 34 -85 96 -80 59 4 66 -17 10 -32
-34 -9 -50 -9 -83 4 -53 20 -76 58 -76 124 0 53 24 96 64 112 25 10 88 12 110
4z m-2580 -100 c103 -15 34 -24 -174 -24 -201 0 -233 4 -213 23 8 9 325 9 387
1z m3010 -99 c20 -21 9 -45 -20 -45 -29 0 -41 24 -24 45 16 19 25 19 44 0z"/>
<path d="M5440 3774 l0 -257 113 5 c123 5 171 20 213 65 84 91 84 293 -1 378
-46 46 -115 65 -232 65 l-93 0 0 -256z"/>
<path d="M4758 3804 l-48 -15 0 -129 c0 -127 1 -130 25 -146 31 -20 114 -20
153 0 39 20 62 72 62 141 0 128 -75 186 -192 149z"/>
<path d="M6362 3801 c-49 -32 -72 -76 -72 -144 0 -32 6 -73 14 -92 39 -93 182
-100 236 -12 25 41 27 144 4 192 -31 66 -121 94 -182 56z"/>
<path d="M5751 2447 c-13 -6 -28 -22 -32 -34 -8 -22 -7 -23 56 -23 57 0 65 2
65 19 0 36 -51 58 -89 38z"/>
<path d="M5996 2334 c-26 -26 -16 -49 26 -59 21 -5 33 -1 52 19 40 39 34 56
-18 56 -27 0 -51 -6 -60 -16z"/>
<path d="M6547 2440 c-46 -37 -36 -50 39 -50 63 0 65 1 59 23 -9 29 -15 34
-45 42 -18 4 -34 0 -53 -15z"/>
<path d="M9682 2338 c-20 -20 -14 -48 13 -60 22 -10 30 -8 53 9 15 11 28 30
30 42 3 19 -1 21 -40 21 -24 0 -49 -5 -56 -12z"/>
</g>
</svg>
