<svg xmlns="http://www.w3.org/2000/svg" viewBox="0 0 980 560">
  <g fill="#000">

    <!-- UP ICON -->
    <path d="
      M410 60
      L455 60
      L455 255
      C455 300 395 300 395 255
      L395 165
      L355 165
      L430 315
      L505 165
      L465 165
      L465 255
      C465 335 345 335 345 255
      L345 60
      Z"/>

    <path d="
      M520 60
      L585 60
      C665 60 665 150 585 150
      L585 255
      L630 255
      L550 410
      L470 255
      L520 255
      Z"/>

    <!-- TEXT: UpDown -->
    <path d="M180 420 h45 v-70 h35 c40 0 40 -60 0 -60 h-80 z"/>
    <path d="M280 350 h40 c45 0 45 80 0 80 h-40 z"/>
    <path d="M350 350 h40 v80 h-40 z"/>
    <path d="M410 350 h40 c45 0 45 80 0 80 h-40 z"/>
    <path d="M470 350 h40 v80 h-40 z"/>
    <path d="M530 350 h40 c45 0 45 80 0 80 h-40 z"/>

    <!-- ALERT A -->
    <path d="M610 430 L640 350 L670 430 Z"/>
    <!-- I shaped hole -->
    <rect x="638" y="382" width="4" height="28" fill="#fff"/>

    <!-- lert -->
    <path d="M680 350 h35 v80 h-35 z"/>
    <path d="M725 350 h40 c45 0 45 80 0 80 h-40 z"/>
    <path d="M785 350 h40 v80 h-40 z"/>
    <path d="M845 350 h40 v80 h-40 z"/>

    <!-- ANTENNA -->
    <circle cx="640" cy="330" r="7"/>
    <path d="M625 325 A20 20 0 0 1 655 325" fill="none" stroke="#000" stroke-width="4"/>
    <path d="M615 315 A35 35 0 0 1 665 315" fill="none" stroke="#000" stroke-width="4"/>

    <!-- TAGLINE -->
    <path d="M300 500 h380 v6 h-380 z"/>

  </g>
</svg>