<svg viewBox="0 0 900 500" xmlns="http://www.w3.org/2000/svg">

  <!-- Background -->
  <rect width="100%" height="100%" fill="#0e0e0e"/>

  <!-- Green UP -->
  <path d="
    M360 260
    L360 150
    L330 150
    L400 80
    L470 150
    L440 150
    L440 260
    C440 320 360 320 360 260
  " fill="#b7e533"/>

  <!-- Red DOWN -->
  <path d="
    M460 150
    L460 260
    C460 320 540 320 540 260
    L540 210
    L570 210
    L500 280
    L430 210
    L460 210
    L460 150
  " fill="#ff3b30"/>

  <!-- Brand -->
  <text x="450" y="360"
        text-anchor="middle"
        font-size="56"
        font-family="Segoe UI, Arial"
        fill="#eaeaea"
        font-weight="600">
        UpDown
  </text>

  <text x="610" y="360"
        font-size="56"
        font-family="Segoe UI, Arial"
        fill="#ff3b30"
        font-weight="700">
        Alert
  </text>

  <!-- Broadcast icon -->
  <circle cx="685" cy="340" r="6" fill="#ff3b30"/>
  <path d="M685 330 Q700 340 685 350" stroke="#ff3b30" stroke-width="3" fill="none"/>
  <path d="M685 325 Q710 340 685 355" stroke="#ff3b30" stroke-width="3" fill="none"/>

  <!-- Slogan -->
  <text x="450" y="420"
        text-anchor="middle"
        font-size="26"
        font-family="Segoe UI, Arial"
        fill="#b7e533">
        Just leave it — it will watch.
  </text>

</svg>