<svg width="900" height="520" viewBox="0 0 900 520" xmlns="http://www.w3.org/2000/svg">
  <defs>
    <linearGradient id="greenGrad" x1="0" y1="0" x2="0" y2="1">
      <stop offset="0%" stop-color="#caff00"/>
      <stop offset="100%" stop-color="#7ecb00"/>
    </linearGradient>

    <linearGradient id="redGrad" x1="0" y1="0" x2="0" y2="1">
      <stop offset="0%" stop-color="#ff3b3b"/>
      <stop offset="100%" stop-color="#c80000"/>
    </linearGradient>
  </defs>

  <!-- UP ICON -->
  <g transform="translate(300,40)">
    <!-- Green U Arrow -->
    <path d="
      M80 0
      L130 0
      L130 210
      C130 260 60 260 60 210
      L60 110
      L20 110
      L100 260
      L180 110
      L140 110
      L140 210
      C140 300 0 300 0 210
      L0 0
      L50 0
      Z"
      fill="url(#greenGrad)"/>

    <!-- Red P Arrow -->
    <path d="
      M200 0
      L260 0
      C330 0 330 100 260 100
      L260 210
      L300 210
      L230 350
      L160 210
      L200 210
      Z"
      fill="url(#redGrad)"/>
  </g>

  <!-- TEXT -->
  <g transform="translate(160,400)">
    <text x="0" y="0" font-size="64" font-family="Arial, Helvetica, sans-serif" fill="#ffffff">
      UpDown
    </text>

    <!-- ALERT -->
    <text x="260" y="0" font-size="64" font-family="Arial, Helvetica, sans-serif" fill="#ff2d2d">
      lert
    </text>

    <!-- Custom A -->
    <g transform="translate(225,-60)">
      <!-- A body -->
      <path d="M20 60 L40 0 L60 60 Z" fill="#ff2d2d"/>
      <!-- I shaped hole -->
      <rect x="38" y="18" width="4" height="22" fill="#000"/>
    </g>

    <!-- Alert antenna -->
    <g transform="translate(250,-90)">
      <circle cx="0" cy="0" r="6" fill="#ff2d2d"/>
      <path d="M-14 -6 A18 18 0 0 1 14 -6" stroke="#ff2d2d" stroke-width="4" fill="none"/>
      <path d="M-22 -14 A28 28 0 0 1 22 -14" stroke="#ff2d2d" stroke-width="4" fill="none"/>
    </g>
  </g>

  <!-- TAGLINE -->
  <text x="450" y="480" text-anchor="middle"
        font-size="28"
        font-family="Arial, Helvetica, sans-serif"
        fill="#aaff00">
    Just leave it — it will watch.
  </text>
</svg>