<svg viewBox="0 0 900 500" xmlns="http://www.w3.org/2000/svg">

  <!-- Background -->
  <rect width="100%" height="100%" fill="#0c0c0c"/>

  <!-- Gradient defs -->
  <defs>
    <linearGradient id="greenGrad" x1="0" y1="0" x2="0" y2="1">
      <stop offset="0%" stop-color="#d9ff4f"/>
      <stop offset="100%" stop-color="#8fcf00"/>
    </linearGradient>

    <linearGradient id="redGrad" x1="0" y1="0" x2="0" y2="1">
      <stop offset="0%" stop-color="#ff5a4f"/>
      <stop offset="100%" stop-color="#d60000"/>
    </linearGradient>
  </defs>

  <!-- UP Arrow -->
  <path d="
    M380 250
    L380 150
    L350 150
    L420 80
    L490 150
    L460 150
    L460 250
    C460 310 380 310 380 250
  " fill="url(#greenGrad)"/>

  <!-- DOWN Arrow -->
  <path d="
    M470 150
    L470 250
    C470 310 550 310 550 250
    L550 210
    L580 210
    L510 280
    L440 210
    L470 210
    Z
  " fill="url(#redGrad)"/>

  <!-- Brand Text -->
  <text x="450" y="360"
        text-anchor="middle"
        font-size="56"
        font-family="Arial"
        fill="#eaeaea"
        font-weight="600">
    UpDown
  </text>

  <text x="610" y="360"
        font-size="56"
        font-family="Arial"
        fill="#ff3b30"
        font-weight="700">
    Alert
  </text>

  <!-- Broadcast Icon -->
  <circle cx="690" cy="340" r="6" fill="#ff3b30"/>
  <path d="M690 330 Q705 340 690 350"
        stroke="#ff3b30"
        stroke-width="3"
        fill="none"/>
  <path d="M690 325 Q715 340 690 355"
        stroke="#ff3b30"
        stroke-width="3"
        fill="none"/>

  <!-- Slogan -->
  <text x="450" y="420"
        text-anchor="middle"
        font-size="26"
        font-family="Arial"
        fill="#b7e533">
    Just leave it — it will watch.
  </text>

</svg>