<?xml version="1.0" standalone="no"?>
<!DOCTYPE svg PUBLIC "-//W3C//DTD SVG 20010904//EN"
 "http://www.w3.org/TR/2001/REC-SVG-20010904/DTD/svg10.dtd">
<svg version="1.0" xmlns="http://www.w3.org/2000/svg"
 width="1024.000000pt" height="972.000000pt" viewBox="0 0 1024.000000 972.000000"
 preserveAspectRatio="xMidYMid meet">

<g transform="translate(0.000000,972.000000) scale(0.100000,-0.100000)"
fill="#ffffff" stroke="none">
<!-- Tüm öğeler beyaz olarak ayarlandı -->

<!-- Yuvarlak içindeki böcek şekli ve kafası (kırmızı yapılacak) -->
<path fill="#ff0000" d="M5681 4052 c-49 -26 -73 -75 -68 -136 4 -47 7 -51 162 -206 l157
-158 -21 -61 c-11 -34 -21 -72 -21 -85 0 -13 -7 -27 -16 -30 -9 -3 -84 -6
-168 -6 -142 0 -155 -2 -181 -22 -75 -59 -70 -179 10 -228 29 -18 49 -20 188
-20 l156 0 6 -47 c9 -80 26 -156 45 -204 l18 -46 -155 -154 c-85 -85 -161
-168 -169 -186 -20 -47 -17 -95 9 -134 29 -44 60 -59 121 -59 l50 0 156 155
156 155 52 -39 c29 -22 78 -52 110 -67 57 -27 180 -64 214 -64 17 0 18 24 18
526 0 351 4 532 11 545 25 47 95 42 118 -8 8 -16 11 -184 11 -543 0 -592 -11
-532 95 -505 79 20 188 73 248 119 l48 37 151 -150 c106 -106 161 -154 184
-160 71 -20 156 33 170 104 12 67 -10 101 -177 268 l-158 159 26 76 c14 42 28
109 32 147 l6 70 168 5 169 5 33 37 c59 64 55 155 -8 202 -25 19 -46 22 -195
26 -157 5 -167 6 -170 25 -1 11 -12 51 -24 88 l-21 68 156 157 c169 170 182
192 157 266 -13 39 -58 83 -96 92 -65 16 -92 -1 -259 -166 l-160 -157 -45 21
c-43 20 -59 21 -395 21 -323 0 -354 -2 -403 -20 l-53 -19 -152 151 c-181 181
-215 198 -296 155z"/>

<!-- Böceğin kafası (kırmızı yapılacak) -->
<path fill="#ff0000" d="M6508 4480 c-113 -19 -237 -108 -292 -210 -33 -60 -60 -182 -51 -230
10 -50 41 -88 83 -100 24 -8 144 -10 352 -8 284 3 318 5 341 21 40 27 52 66
47 155 -11 184 -156 342 -343 372 -67 11 -70 11 -137 0z"/>

<!-- Diğer tüm path elementleri (beyaz kalacak) -->
<path d="M2840 9143 c-191 -32 -332 -102 -455 -228 -93 -94 -159 -209 -198
-345 -6 -19 -13 -204 -16 -410 l-6 -375 -35 -3 c-114 -8 -253 -51 -355 -110
-33 -20 -96 -72 -140 -116 -115 -115 -178 -231 -210 -381 -13 -60 -15 -356
-15 -2157 l0 -2088 -249 0 c-241 0 -249 -1 -281 -22 -75 -52 -75 -49 -78 -346
-3 -179 0 -290 9 -337 32 -188 155 -355 323 -440 138 -69 38 -65 1596 -65
l1410 0 0 150 0 150 -1390 0 -1389 0 -57 21 c-32 12 -76 39 -98 59 -86 79
-109 164 -104 385 l3 140 1288 3 1287 2 0 150 0 150 -985 0 -985 0 0 2065 c0
1458 3 2080 11 2117 6 29 23 78 37 108 34 73 141 179 212 212 64 30 161 54
184 45 15 -6 16 -200 16 -2127 l0 -2120 150 0 150 0 0 2608 c0 2180 2 2615 14
2659 36 133 121 238 243 299 l78 39 2545 0 2545 0 67 -32 c111 -52 207 -158
246 -270 15 -44 17 -179 22 -1458 l5 -1410 147 -3 148 -3 2 908 3 908 45 -1
c153 -5 317 -131 382 -292 l23 -57 5 -1185 5 -1185 148 -3 148 -3 -3 1213 -3
1213 -26 76 c-25 74 -73 168 -111 219 -40 53 -136 144 -191 182 -105 71 -271
128 -377 128 -33 0 -40 4 -45 23 -3 12 -6 184 -8 382 -2 352 -3 362 -27 430
-28 81 -69 160 -117 227 -76 106 -224 215 -349 259 -144 51 -39 49 -2694 48
-1361 -1 -2486 -4 -2500 -6z"/>
<path d="M2774 8527 c-2 -7 -3 -74 -2 -148 l3 -134 150 0 150 0 0 145 0 145
-148 3 c-115 2 -149 0 -153 -11z"/>
<path d="M3380 8390 l0 -150 150 0 150 0 0 150 0 150 -150 0 -150 0 0 -150z"/>
<path d="M3988 8406 c-2 -73 -2 -141 0 -150 3 -15 20 -16 150 -14 l147 3 3
148 3 147 -150 0 -150 0 -3 -134z"/>
<path d="M2775 7918 c-3 -13 -4 -81 -3 -153 l3 -130 2575 0 2575 0 0 150 0
150 -2572 3 -2573 2 -5 -22z"/>
<path d="M3150 7167 c-187 -34 -335 -183 -369 -371 -6 -33 -11 -136 -11 -230
0 -252 25 -343 120 -449 241 -269 670 -168 776 183 20 64 19 477 0 541 -51
168 -198 304 -351 324 -27 3 -61 8 -75 10 -14 2 -54 -2 -90 -8z m150 -316 c19
-10 45 -36 57 -57 21 -37 23 -51 22 -224 0 -154 -3 -191 -17 -220 -39 -79
-150 -107 -219 -54 -59 45 -63 62 -63 276 0 175 2 196 20 226 42 68 129 91
200 53z"/>
<path d="M4970 7166 c-183 -32 -322 -167 -366 -352 -13 -55 -15 -110 -12 -279
4 -191 6 -216 28 -270 53 -137 155 -236 290 -280 73 -24 198 -24 276 1 149 47
272 181 305 335 7 31 9 138 7 282 -3 198 -7 239 -23 277 -65 157 -199 264
-362 289 -39 6 -73 11 -75 10 -2 0 -32 -6 -68 -13z m150 -315 c69 -36 75 -61
75 -286 0 -193 -1 -201 -23 -233 -31 -43 -71 -62 -130 -62 -41 0 -55 5 -90 35
-55 48 -66 102 -59 297 4 115 9 155 23 185 38 76 128 105 204 64z"/>
<path d="M6789 7166 c-197 -35 -345 -191 -371 -392 -5 -44 -8 -162 -5 -264 5
-193 22 -280 59 -304 12 -7 44 7 133 60 l118 69 -2 218 -2 219 26 34 c69 90
197 84 252 -12 21 -36 23 -51 23 -222 0 -101 -4 -191 -9 -201 -5 -9 -7 -22 -3
-27 10 -15 231 -144 247 -144 7 0 23 26 36 58 23 55 24 66 24 317 l0 260 -37
76 c-65 132 -199 237 -323 254 -27 3 -61 8 -75 10 -14 2 -55 -2 -91 -9z"/>
<path d="M3989 6595 c-1 -234 -1 -432 -1 -440 0 -47 -7 -46 150 -43 l147 3 0
450 0 450 -147 3 -148 3 -1 -426z"/>
<path d="M5812 6568 l3 -453 145 0 145 0 3 453 2 452 -150 0 -150 0 2 -452z"/>
<path d="M7630 6565 l0 -456 148 3 147 3 3 453 2 452 -150 0 -150 0 0 -455z"/>
<path d="M6320 5951 c-116 -11 -265 -37 -385 -68 -111 -28 -305 -91 -319 -104
-6 -5 -16 -9 -22 -9 -23 0 -226 -101 -344 -170 -369 -218 -691 -542 -914 -920
-82 -140 -185 -372 -226 -510 -12 -41 -26 -86 -30 -100 -16 -47 -39 -155 -62
-280 -19 -109 -22 -160 -22 -405 0 -296 9 -384 65 -613 207 -856 867 -1566
1709 -1839 263 -85 505 -123 795 -123 356 0 644 57 980 193 103 42 290 135
337 168 14 11 32 19 39 19 8 0 241 -227 519 -504 278 -277 525 -516 550 -533
145 -95 304 -124 462 -84 216 55 374 213 428 426 25 101 25 172 1 266 -26 99
-53 157 -103 220 -23 29 -261 272 -530 541 -268 269 -488 496 -488 505 0 8 8
27 19 41 10 15 38 65 62 112 203 389 299 776 299 1205 0 262 -30 462 -110 750
-38 139 -133 358 -229 530 -49 87 -173 266 -244 351 -214 256 -449 455 -718
607 -292 165 -564 259 -904 313 -115 18 -484 27 -615 15z m565 -316 c215 -34
330 -64 512 -134 432 -167 817 -483 1077 -883 402 -618 476 -1413 194 -2095
-174 -424 -484 -796 -870 -1047 -598 -389 -1353 -472 -2023 -224 -534 199
-974 590 -1234 1100 -123 241 -182 425 -233 728 -17 101 -17 511 1 610 19 114
39 209 55 270 9 30 18 66 22 80 38 152 190 469 299 625 230 330 529 590 875
759 261 129 526 201 845 230 79 8 392 -5 480 -19z m2182 -4357 c264 -266 488
-497 496 -513 8 -17 21 -58 27 -90 27 -133 -52 -262 -190 -309 -61 -21 -109
-20 -177 5 -54 20 -88 51 -545 507 -269 268 -488 492 -488 498 0 6 21 29 48
50 61 50 236 225 286 287 21 26 44 47 50 47 6 0 228 -217 493 -482z"/>
<path d="M6460 5354 c-355 -24 -676 -128 -960 -311 -489 -317 -813 -828 -892
-1408 -16 -117 -15 -384 1 -505 38 -286 145 -574 302 -816 318 -487 814 -801
1399 -884 185 -26 521 -9 705 37 114 28 130 32 205 59 441 154 835 486 1061
892 173 311 249 608 249 969 0 323 -61 587 -202 872 -289 583 -852 990 -1488
1076 -116 15 -295 24 -380 19z m420 -333 c154 -34 183 -42 310 -91 333 -130
641 -400 826 -726 30 -53 54 -97 54 -100 0 -2 11 -27 24 -56 140 -307 174
-701 91 -1052 -129 -547 -550 -1009 -1085 -1189 -191 -64 -331 -87 -537 -87
-348 0 -661 97 -953 298 -141 97 -337 297 -432 442 -206 316 -288 612 -275
995 11 319 94 579 272 850 245 373 650 641 1085 719 127 23 149 24 345 21 136
-3 203 -8 275 -24z"/>
<path d="M2926 5644 c-9 -24 -7 -867 2 -882 7 -9 44 -12 153 -10 l144 3 0 450
0 450 -146 3 c-127 2 -147 0 -153 -14z"/>
<path d="M3535 5648 c-3 -7 -4 -211 -3 -453 l3 -440 144 -3 c109 -2 146 1 153
10 9 15 11 858 2 882 -5 14 -28 16 -150 16 -107 0 -146 -3 -149 -12z"/>
<path d="M3077 4420 c-155 -59 -267 -192 -296 -354 -16 -87 -14 -387 3 -467
40 -188 183 -325 376 -360 219 -39 437 103 506 331 20 64 19 477 0 541 -47
155 -160 269 -315 318 -55 18 -218 12 -274 -9z m230 -300 c63 -38 73 -77 73
-278 0 -202 -8 -235 -62 -274 -49 -34 -145 -33 -183 2 -52 48 -55 64 -55 272
0 175 2 196 20 226 42 69 139 94 207 52z"/>
<path d="M9297 2923 c-4 -3 -7 -71 -7 -150 l0 -143 139 0 c77 0 142 -4 145 -9
3 -5 11 -75 17 -157 15 -200 -3 -276 -88 -355 -54 -50 -81 -65 -147 -80 -42
-10 -58 -19 -62 -34 -3 -11 -3 -76 -2 -145 l3 -125 35 -3 c53 -6 136 16 229
59 160 75 285 235 327 419 17 77 17 162 -5 512 -8 129 -17 152 -81 196 -32 21
-41 22 -265 22 -127 0 -235 -3 -238 -7z"/>
<path d="M8174 56 c-3 -8 -4 -25 -1 -38 3 -18 5 -16 6 9 l1 32 83 4 82 3 -83
2 c-64 2 -84 -1 -88 -12z"/>
<path d="M9930 15 c0 -8 4 -15 10 -15 5 0 7 7 4 15 -8 19 -14 19 -14 0z"/>
</g>
</svg>