<?xml version="1.0" standalone="no"?>
<!DOCTYPE svg PUBLIC "-//W3C//DTD SVG 20010904//EN"
 "http://www.w3.org/TR/2001/REC-SVG-20010904/DTD/svg10.dtd">
<svg version="1.0" xmlns="http://www.w3.org/2000/svg"
 width="458.000000pt" height="511.000000pt" viewBox="0 0 458.000000 511.000000"
 preserveAspectRatio="xMidYMid meet">

<g transform="translate(0.000000,511.000000) scale(0.100000,-0.100000)"
fill="#FFFFFF" stroke="#FFFFFF">
<path d="M560 4954 c-117 -31 -219 -135 -246 -251 -9 -37 -14 -119 -14 -225
l0 -168 2040 0 2040 0 0 159 c0 176 -9 242 -43 309 -32 66 -109 137 -176 164
l-56 23 -1745 2 c-1508 2 -1752 0 -1800 -13z m2704 -224 c57 -51 60 -125 6
-179 -102 -101 -261 21 -195 149 34 66 131 81 189 30z m316 15 c42 -21 63 -68
57 -122 -11 -103 -130 -145 -207 -73 -55 51 -53 128 6 179 40 36 95 41 144 16z
m349 -11 c17 -14 36 -44 43 -66 11 -36 9 -45 -11 -84 -42 -79 -140 -94 -200
-30 -48 51 -44 132 9 179 42 38 115 38 159 1z m-1624 -30 c43 -28 41 -96 -4
-131 -12 -10 -195 -12 -777 -13 -755 0 -762 0 -788 21 -34 27 -36 82 -4 116
l21 23 764 0 c678 0 766 -2 788 -16z"/>
<path d="M302 2983 l3 -1238 29 -63 c37 -79 114 -152 191 -181 53 -20 76 -21
446 -21 l390 0 -3 121 -3 121 -93 33 c-462 165 -772 605 -772 1095 0 97 18
226 44 315 88 307 314 580 601 723 143 71 355 122 508 122 301 0 600 -122 817
-332 226 -219 350 -509 351 -824 1 -166 -22 -291 -81 -438 -103 -259 -313
-486 -561 -606 -43 -21 -92 -43 -109 -48 l-30 -11 0 -135 0 -136 1028 0 c933
0 1033 2 1078 17 100 34 166 93 211 188 l28 60 3 1238 2 1237 -2040 0 -2040 0
2 -1237z m3888 572 l0 -245 -535 0 -535 0 0 245 0 245 535 0 535 0 0 -245z
m-20 -595 c27 -27 26 -75 -2 -94 -20 -14 -91 -16 -578 -16 -487 0 -558 2 -578
16 -36 25 -25 92 18 107 8 3 264 6 568 6 539 1 552 1 572 -19z m-2 -456 c22
-15 30 -57 14 -80 -21 -32 -51 -34 -592 -34 -607 0 -599 -1 -600 72 0 59 -10
58 600 58 487 0 558 -2 578 -16z m0 -460 c42 -29 23 -96 -31 -109 -12 -3 -269
-4 -570 -3 -530 3 -549 4 -563 22 -21 30 -17 72 8 90 20 14 91 16 578 16 487
0 558 -2 578 -16z"/>
<path d="M1515 3889 c-386 -52 -713 -312 -849 -672 -48 -127 -61 -210 -60
-377 1 -134 4 -168 27 -252 78 -293 271 -535 533 -670 87 -45 236 -98 275 -98
19 0 19 -13 19 -751 0 -534 3 -763 11 -790 37 -123 190 -192 309 -138 56 25
86 53 113 104 22 40 22 43 25 816 l2 775 73 23 c159 51 288 134 418 268 189
194 289 445 289 724 0 283 -107 539 -309 740 -142 141 -291 225 -485 274 -110
28 -284 39 -391 24z m353 -268 c348 -101 581 -406 583 -765 2 -235 -80 -428
-250 -591 -303 -290 -792 -290 -1100 0 -176 166 -260 377 -248 624 17 383 283
678 677 755 60 11 266 -3 338 -23z"/>
<path d="M1880 3448 c-35 -40 -66 -77 -70 -82 -5 -4 -33 4 -64 19 -49 24 -65
27 -129 23 -60 -3 -82 -8 -116 -31 -24 -16 -44 -27 -46 -25 -1 2 -31 37 -65
78 -35 41 -70 75 -79 75 -33 0 -20 -35 45 -114 l66 -81 -21 -49 c-11 -28 -21
-61 -21 -76 l0 -26 250 3 250 3 0 28 c0 15 -9 47 -21 72 -24 50 -26 44 54 143
55 68 67 100 40 109 -6 2 -39 -29 -73 -69z"/>
<path d="M1122 3098 c-24 -30 53 -138 114 -160 36 -13 40 -25 25 -74 -5 -16
-12 -50 -16 -76 l-6 -48 -69 0 c-50 0 -73 -4 -85 -16 -28 -29 -1 -44 79 -44
l71 0 17 -77 c9 -43 19 -85 23 -94 4 -12 -1 -18 -24 -22 -55 -11 -143 -122
-127 -162 9 -25 30 -17 51 21 25 46 80 94 108 94 15 0 28 -11 42 -36 30 -56
109 -130 172 -161 49 -24 70 -28 138 -28 68 0 89 4 140 29 65 33 132 95 171
161 24 41 27 43 56 34 38 -10 69 -39 94 -85 23 -43 54 -46 54 -5 0 38 -78 125
-126 141 -27 9 -34 16 -29 29 6 14 12 45 31 149 4 20 10 22 77 22 74 0 100 11
90 36 -4 10 -27 14 -87 14 l-82 0 -2 40 c-2 22 -9 61 -17 87 -19 62 -19 60 10
67 76 19 174 176 111 176 -9 0 -25 -18 -36 -39 -10 -22 -32 -49 -46 -60 -34
-26 -77 -38 -82 -23 -2 6 -22 36 -44 67 l-41 55 -239 0 -239 0 -25 -27 c-15
-16 -37 -47 -51 -70 l-25 -43 -35 15 c-20 8 -37 15 -39 15 -2 0 -20 25 -39 55
-37 57 -46 63 -63 43z"/>
</g>
</svg>
